G04 #@! TF.FileFunction,Profile,NP*
%FSLAX46Y46*%
G04 Gerber Fmt 4.6, Leading zero omitted, Abs format (unit mm)*
G04 Created by KiCad (PCBNEW 4.0.5) date 09/05/17 09:18:43*
%MOMM*%
%LPD*%
G01*
G04 APERTURE LIST*
%ADD10C,0.100000*%
%ADD11C,0.150000*%
G04 APERTURE END LIST*
D10*
D11*
X50800000Y-105410000D02*
X50800000Y-25400000D01*
X139700000Y-25400000D02*
X139700000Y-105410000D01*
X50800000Y-105410000D02*
X139700000Y-105410000D01*
X139700000Y-25400000D02*
X121920000Y-25400000D01*
X118110000Y-64770000D02*
G75*
G03X118110000Y-62230000I0J1270000D01*
G01*
X110490000Y-64770000D02*
X118110000Y-64770000D01*
X110490000Y-62230000D02*
G75*
G03X110490000Y-64770000I0J-1270000D01*
G01*
X110490000Y-62230000D02*
X118110000Y-62230000D01*
X105410000Y-64770000D02*
G75*
G03X105410000Y-62230000I0J1270000D01*
G01*
X97790000Y-64770000D02*
X105410000Y-64770000D01*
X97790000Y-62230000D02*
G75*
G03X97790000Y-64770000I0J-1270000D01*
G01*
X97790000Y-62230000D02*
X105410000Y-62230000D01*
X92710000Y-64770000D02*
G75*
G03X92710000Y-62230000I0J1270000D01*
G01*
X85090000Y-64770000D02*
X92710000Y-64770000D01*
X85090000Y-62230000D02*
G75*
G03X85090000Y-64770000I0J-1270000D01*
G01*
X85090000Y-62230000D02*
X92710000Y-62230000D01*
X80010000Y-64770000D02*
G75*
G03X80010000Y-62230000I0J1270000D01*
G01*
X72390000Y-64770000D02*
X80010000Y-64770000D01*
X72390000Y-62230000D02*
G75*
G03X72390000Y-64770000I0J-1270000D01*
G01*
X72390000Y-62230000D02*
X80010000Y-62230000D01*
X59690000Y-62230000D02*
G75*
G03X59690000Y-64770000I0J-1270000D01*
G01*
X67310000Y-64770000D02*
G75*
G03X67310000Y-62230000I0J1270000D01*
G01*
X59690000Y-64770000D02*
X67310000Y-64770000D01*
X59690000Y-62230000D02*
X67310000Y-62230000D01*
X121920000Y-25400000D02*
X50800000Y-25400000D01*
M02*
