M48
;DRILL file {KiCad 4.0.7} date Mon Mar 19 19:42:22 2018
;FORMAT={-:-/ absolute / metric / decimal}
FMAT,2
METRIC,TZ
T1C0.400
T2C0.600
T3C0.800
T4C1.000
T5C1.300
T6C3.200
%
G90
G05
M71
T1
X66.04Y-84.455
X67.31Y-95.25
X67.945Y-89.535
X67.945Y-93.345
X74.295Y-80.645
X74.295Y-93.98
X78.105Y-84.455
X78.105Y-86.36
X78.105Y-102.235
X79.375Y-81.28
X81.915Y-86.36
X83.82Y-89.535
X83.82Y-92.71
X84.455Y-83.185
X86.36Y-71.755
X90.805Y-82.55
X93.345Y-89.535
X99.06Y-89.535
X99.695Y-80.645
X99.695Y-88.265
X100.33Y-86.995
X104.775Y-80.645
X108.585Y-95.25
X109.22Y-83.82
X114.3Y-74.93
X114.935Y-85.725
X122.555Y-81.915
T2
X82.32Y-99.06
X83.82Y-99.06
X106.45Y-99.06
X107.95Y-99.06
T3
X66.04Y-71.755
X67.31Y-48.26
X67.31Y-55.88
X67.31Y-59.69
X67.31Y-67.31
X69.85Y-59.69
X69.85Y-67.31
X72.39Y-48.26
X72.39Y-55.88
X72.39Y-59.69
X72.39Y-67.31
X73.66Y-71.755
X78.74Y-71.755
X78.74Y-77.47
X80.01Y-48.26
X80.01Y-55.88
X80.01Y-59.69
X80.01Y-67.31
X82.55Y-59.69
X82.55Y-67.31
X85.09Y-48.26
X85.09Y-55.88
X85.09Y-59.69
X85.09Y-67.31
X86.36Y-71.755
X86.36Y-77.47
X86.36Y-85.09
X86.36Y-92.71
X86.4Y-81.28
X88.9Y-81.28
X88.9Y-85.09
X88.9Y-92.71
X91.44Y-71.755
X91.44Y-77.47
X91.44Y-85.09
X91.44Y-92.71
X92.71Y-48.26
X92.71Y-55.88
X92.71Y-59.69
X92.71Y-67.31
X93.98Y-85.09
X93.98Y-92.71
X95.25Y-59.69
X95.25Y-67.31
X96.52Y-85.09
X96.52Y-92.71
X97.79Y-48.26
X97.79Y-55.88
X97.79Y-59.69
X97.79Y-67.31
X99.06Y-71.755
X99.06Y-77.47
X99.06Y-85.09
X99.06Y-92.71
X101.6Y-85.09
X101.6Y-92.71
X104.14Y-71.755
X104.14Y-77.47
X104.14Y-85.09
X104.14Y-92.71
X105.41Y-48.26
X105.41Y-55.88
X105.41Y-59.69
X105.41Y-67.31
X107.95Y-59.69
X107.95Y-67.31
X110.49Y-48.26
X110.49Y-55.88
X110.49Y-59.69
X110.49Y-67.31
X111.76Y-71.755
X111.76Y-77.47
X116.84Y-71.755
X118.11Y-48.26
X118.11Y-55.88
X118.11Y-59.69
X118.11Y-67.31
X120.65Y-59.69
X120.65Y-67.31
X123.19Y-48.26
X123.19Y-55.88
X123.19Y-59.69
X123.19Y-67.31
X124.46Y-71.755
T4
X59.69Y-83.82
X59.69Y-86.36
X59.69Y-88.9
X59.69Y-91.44
X59.69Y-93.98
X62.23Y-83.82
X62.23Y-86.36
X62.23Y-88.9
X62.23Y-91.44
X62.23Y-93.98
X67.31Y-41.91
X68.58Y-33.02
X69.85Y-41.91
X71.12Y-33.02
X72.39Y-41.91
X80.01Y-41.91
X81.28Y-33.02
X82.55Y-41.91
X83.82Y-33.02
X85.09Y-41.91
X92.71Y-41.91
X92.71Y-99.06
X93.98Y-33.02
X95.25Y-41.91
X95.25Y-99.06
X96.52Y-33.02
X97.79Y-41.91
X97.79Y-99.06
X105.41Y-41.91
X106.68Y-33.02
X107.95Y-41.91
X109.22Y-33.02
X110.49Y-41.91
X118.11Y-41.91
X119.38Y-33.02
X120.65Y-41.91
X121.92Y-33.02
X123.19Y-41.91
X128.905Y-83.82
X128.905Y-86.36
X128.905Y-88.9
X128.905Y-91.44
X128.905Y-93.98
X131.445Y-83.82
X131.445Y-86.36
X131.445Y-88.9
X131.445Y-91.44
X131.445Y-93.98
T5
X57.785Y-40.005
X57.785Y-45.005
X132.715Y-39.45
X132.715Y-44.45
T6
X55.245Y-29.845
X55.245Y-100.965
X135.255Y-29.845
X135.255Y-100.965
T0
M30
