G04 #@! TF.FileFunction,Soldermask,Top*
%FSLAX46Y46*%
G04 Gerber Fmt 4.6, Leading zero omitted, Abs format (unit mm)*
G04 Created by KiCad (PCBNEW 4.0.7) date Mon Mar 19 19:45:40 2018*
%MOMM*%
%LPD*%
G01*
G04 APERTURE LIST*
%ADD10C,0.100000*%
%ADD11R,2.000000X2.000000*%
%ADD12O,2.000000X2.000000*%
%ADD13C,5.400000*%
%ADD14O,1.910000X3.410000*%
%ADD15C,2.000000*%
%ADD16R,2.200000X2.200000*%
%ADD17O,2.200000X2.200000*%
%ADD18R,1.600000X1.600000*%
%ADD19C,1.600000*%
%ADD20R,2.900000X2.900000*%
%ADD21C,2.900000*%
%ADD22R,2.100000X2.100000*%
%ADD23O,2.100000X2.100000*%
G04 APERTURE END LIST*
D10*
D11*
X104140000Y-85090000D03*
D12*
X86360000Y-92710000D03*
X101600000Y-85090000D03*
X88900000Y-92710000D03*
X99060000Y-85090000D03*
X91440000Y-92710000D03*
X96520000Y-85090000D03*
X93980000Y-92710000D03*
X93980000Y-85090000D03*
X96520000Y-92710000D03*
X91440000Y-85090000D03*
X99060000Y-92710000D03*
X88900000Y-85090000D03*
X101600000Y-92710000D03*
X86360000Y-85090000D03*
X104140000Y-92710000D03*
D13*
X135255000Y-100965000D03*
X55245000Y-100965000D03*
X135255000Y-29845000D03*
D14*
X109220000Y-33020000D03*
X106680000Y-33020000D03*
D11*
X67310000Y-67310000D03*
D12*
X72390000Y-59690000D03*
X69850000Y-67310000D03*
X69850000Y-59690000D03*
X72390000Y-67310000D03*
X67310000Y-59690000D03*
D15*
X78740000Y-77470000D03*
D12*
X86360000Y-77470000D03*
D15*
X91440000Y-77470000D03*
D12*
X99060000Y-77470000D03*
D15*
X111760000Y-77470000D03*
D12*
X104140000Y-77470000D03*
D15*
X66040000Y-71755000D03*
D12*
X73660000Y-71755000D03*
D15*
X78740000Y-71755000D03*
D12*
X86360000Y-71755000D03*
D15*
X91440000Y-71755000D03*
D12*
X99060000Y-71755000D03*
D15*
X104140000Y-71755000D03*
D12*
X111760000Y-71755000D03*
D15*
X116840000Y-71755000D03*
D12*
X124460000Y-71755000D03*
D15*
X67310000Y-48260000D03*
D12*
X67310000Y-55880000D03*
D15*
X72390000Y-48260000D03*
D12*
X72390000Y-55880000D03*
D15*
X80010000Y-48260000D03*
D12*
X80010000Y-55880000D03*
D15*
X85090000Y-48260000D03*
D12*
X85090000Y-55880000D03*
D15*
X92710000Y-48260000D03*
D12*
X92710000Y-55880000D03*
D15*
X97790000Y-48260000D03*
D12*
X97790000Y-55880000D03*
D15*
X105410000Y-48260000D03*
D12*
X105410000Y-55880000D03*
D11*
X80010000Y-67310000D03*
D12*
X85090000Y-59690000D03*
X82550000Y-67310000D03*
X82550000Y-59690000D03*
X85090000Y-67310000D03*
X80010000Y-59690000D03*
D11*
X92710000Y-67310000D03*
D12*
X97790000Y-59690000D03*
X95250000Y-67310000D03*
X95250000Y-59690000D03*
X97790000Y-67310000D03*
X92710000Y-59690000D03*
D11*
X105410000Y-67310000D03*
D12*
X110490000Y-59690000D03*
X107950000Y-67310000D03*
X107950000Y-59690000D03*
X110490000Y-67310000D03*
X105410000Y-59690000D03*
D11*
X118110000Y-67310000D03*
D12*
X123190000Y-59690000D03*
X120650000Y-67310000D03*
X120650000Y-59690000D03*
X123190000Y-67310000D03*
X118110000Y-59690000D03*
D16*
X72390000Y-41910000D03*
D17*
X69850000Y-41910000D03*
X67310000Y-41910000D03*
D16*
X85090000Y-41910000D03*
D17*
X82550000Y-41910000D03*
X80010000Y-41910000D03*
D16*
X97790000Y-41910000D03*
D17*
X95250000Y-41910000D03*
X92710000Y-41910000D03*
D16*
X110490000Y-41910000D03*
D17*
X107950000Y-41910000D03*
X105410000Y-41910000D03*
D16*
X123190000Y-41910000D03*
D17*
X120650000Y-41910000D03*
X118110000Y-41910000D03*
D16*
X92710000Y-99060000D03*
D17*
X95250000Y-99060000D03*
X97790000Y-99060000D03*
D14*
X71120000Y-33020000D03*
X68580000Y-33020000D03*
X83820000Y-33020000D03*
X81280000Y-33020000D03*
X96520000Y-33020000D03*
X93980000Y-33020000D03*
X121920000Y-33020000D03*
X119380000Y-33020000D03*
D15*
X88900000Y-81280000D03*
X86400000Y-81280000D03*
D18*
X106450000Y-99060000D03*
D19*
X107950000Y-99060000D03*
D18*
X82320000Y-99060000D03*
D19*
X83820000Y-99060000D03*
D15*
X110490000Y-48260000D03*
D12*
X110490000Y-55880000D03*
D15*
X118110000Y-48260000D03*
D12*
X118110000Y-55880000D03*
D15*
X123190000Y-48260000D03*
D12*
X123190000Y-55880000D03*
D20*
X57785000Y-40005000D03*
D21*
X57785000Y-45005000D03*
D20*
X132715000Y-44450000D03*
D21*
X132715000Y-39450000D03*
D22*
X128905000Y-83820000D03*
D23*
X131445000Y-83820000D03*
X128905000Y-86360000D03*
X131445000Y-86360000D03*
X128905000Y-88900000D03*
X131445000Y-88900000D03*
X128905000Y-91440000D03*
X131445000Y-91440000D03*
X128905000Y-93980000D03*
X131445000Y-93980000D03*
D13*
X55245000Y-29845000D03*
D22*
X59690000Y-83820000D03*
D23*
X62230000Y-83820000D03*
X59690000Y-86360000D03*
X62230000Y-86360000D03*
X59690000Y-88900000D03*
X62230000Y-88900000D03*
X59690000Y-91440000D03*
X62230000Y-91440000D03*
X59690000Y-93980000D03*
X62230000Y-93980000D03*
M02*
