G04 #@! TF.FileFunction,Copper,L1,Top,Signal*
%FSLAX46Y46*%
G04 Gerber Fmt 4.6, Leading zero omitted, Abs format (unit mm)*
G04 Created by KiCad (PCBNEW 4.0.5) date 09/05/17 09:18:43*
%MOMM*%
%LPD*%
G01*
G04 APERTURE LIST*
%ADD10C,0.100000*%
%ADD11R,1.727200X1.727200*%
%ADD12O,1.727200X1.727200*%
%ADD13C,5.000000*%
%ADD14O,1.510000X3.010000*%
%ADD15R,2.500000X2.500000*%
%ADD16C,2.500000*%
%ADD17R,1.600000X1.600000*%
%ADD18O,1.600000X1.600000*%
%ADD19C,1.600000*%
%ADD20R,1.800000X1.800000*%
%ADD21O,1.800000X1.800000*%
%ADD22R,1.200000X1.200000*%
%ADD23C,1.200000*%
%ADD24C,0.600000*%
%ADD25C,0.250000*%
%ADD26C,0.500000*%
%ADD27C,0.254000*%
G04 APERTURE END LIST*
D10*
D11*
X113030000Y-83820000D03*
D12*
X115570000Y-83820000D03*
X113030000Y-86360000D03*
X115570000Y-86360000D03*
X113030000Y-88900000D03*
X115570000Y-88900000D03*
X113030000Y-91440000D03*
X115570000Y-91440000D03*
X113030000Y-93980000D03*
X115570000Y-93980000D03*
D11*
X62230000Y-83820000D03*
D12*
X64770000Y-83820000D03*
X62230000Y-86360000D03*
X64770000Y-86360000D03*
X62230000Y-88900000D03*
X64770000Y-88900000D03*
X62230000Y-91440000D03*
X64770000Y-91440000D03*
X62230000Y-93980000D03*
X64770000Y-93980000D03*
D13*
X135890000Y-101600000D03*
X54610000Y-101600000D03*
X135890000Y-29210000D03*
D14*
X102870000Y-33020000D03*
X100330000Y-33020000D03*
D15*
X132207000Y-46903640D03*
D16*
X132207000Y-41903640D03*
D17*
X97790000Y-85090000D03*
D18*
X80010000Y-92710000D03*
X95250000Y-85090000D03*
X82550000Y-92710000D03*
X92710000Y-85090000D03*
X85090000Y-92710000D03*
X90170000Y-85090000D03*
X87630000Y-92710000D03*
X87630000Y-85090000D03*
X90170000Y-92710000D03*
X85090000Y-85090000D03*
X92710000Y-92710000D03*
X82550000Y-85090000D03*
X95250000Y-92710000D03*
X80010000Y-85090000D03*
X97790000Y-92710000D03*
D17*
X60960000Y-67310000D03*
D18*
X66040000Y-59690000D03*
X63500000Y-67310000D03*
X63500000Y-59690000D03*
X66040000Y-67310000D03*
X60960000Y-59690000D03*
D19*
X59690000Y-72390000D03*
D18*
X67310000Y-72390000D03*
D19*
X72390000Y-72390000D03*
D18*
X80010000Y-72390000D03*
D19*
X85090000Y-72390000D03*
D18*
X92710000Y-72390000D03*
D19*
X97790000Y-72390000D03*
D18*
X105410000Y-72390000D03*
D19*
X110490000Y-72390000D03*
D18*
X118110000Y-72390000D03*
D19*
X60960000Y-48260000D03*
D18*
X60960000Y-55880000D03*
D19*
X66040000Y-48260000D03*
D18*
X66040000Y-55880000D03*
D19*
X73660000Y-48260000D03*
D18*
X73660000Y-55880000D03*
D19*
X78740000Y-48260000D03*
D18*
X78740000Y-55880000D03*
D19*
X86360000Y-48260000D03*
D18*
X86360000Y-55880000D03*
D19*
X91440000Y-48260000D03*
D18*
X91440000Y-55880000D03*
D19*
X99060000Y-48260000D03*
D18*
X99060000Y-55880000D03*
D19*
X104140000Y-48260000D03*
D18*
X104140000Y-55880000D03*
D19*
X111760000Y-48260000D03*
D18*
X111760000Y-55880000D03*
D19*
X116840000Y-48260000D03*
D18*
X116840000Y-55880000D03*
D17*
X73660000Y-67310000D03*
D18*
X78740000Y-59690000D03*
X76200000Y-67310000D03*
X76200000Y-59690000D03*
X78740000Y-67310000D03*
X73660000Y-59690000D03*
D17*
X86360000Y-67310000D03*
D18*
X91440000Y-59690000D03*
X88900000Y-67310000D03*
X88900000Y-59690000D03*
X91440000Y-67310000D03*
X86360000Y-59690000D03*
D17*
X99060000Y-67310000D03*
D18*
X104140000Y-59690000D03*
X101600000Y-67310000D03*
X101600000Y-59690000D03*
X104140000Y-67310000D03*
X99060000Y-59690000D03*
D17*
X111760000Y-67310000D03*
D18*
X116840000Y-59690000D03*
X114300000Y-67310000D03*
X114300000Y-59690000D03*
X116840000Y-67310000D03*
X111760000Y-59690000D03*
D20*
X66040000Y-41910000D03*
D21*
X63500000Y-41910000D03*
X60960000Y-41910000D03*
D20*
X78740000Y-41910000D03*
D21*
X76200000Y-41910000D03*
X73660000Y-41910000D03*
D20*
X91440000Y-41910000D03*
D21*
X88900000Y-41910000D03*
X86360000Y-41910000D03*
D20*
X104140000Y-41910000D03*
D21*
X101600000Y-41910000D03*
X99060000Y-41910000D03*
D20*
X116840000Y-41910000D03*
D21*
X114300000Y-41910000D03*
X111760000Y-41910000D03*
D20*
X86360000Y-99060000D03*
D21*
X88900000Y-99060000D03*
X91440000Y-99060000D03*
D14*
X64770000Y-33020000D03*
X62230000Y-33020000D03*
X77470000Y-33020000D03*
X74930000Y-33020000D03*
X90170000Y-33020000D03*
X87630000Y-33020000D03*
X115570000Y-33020000D03*
X113030000Y-33020000D03*
D19*
X82550000Y-81280000D03*
X80050000Y-81280000D03*
D22*
X100100000Y-99060000D03*
D23*
X101600000Y-99060000D03*
D22*
X75970000Y-99060000D03*
D23*
X77470000Y-99060000D03*
D13*
X54610000Y-29210000D03*
D24*
X82550000Y-97155000D03*
X99060000Y-81280000D03*
X85090000Y-95250000D03*
X97790000Y-96520000D03*
X90170000Y-95250000D03*
X74930000Y-93980000D03*
X85090000Y-96520000D03*
X71120000Y-95250000D03*
X69850000Y-83820000D03*
X91440000Y-88900000D03*
X106045000Y-95885000D03*
X86995000Y-95885000D03*
X83820000Y-90170000D03*
X74930000Y-87630000D03*
X93980000Y-87630000D03*
X96520000Y-74930000D03*
X93980000Y-76200000D03*
X107950000Y-82550000D03*
D25*
X82550000Y-97155000D02*
X89535000Y-97155000D01*
X89535000Y-97155000D02*
X91440000Y-99060000D01*
X82550000Y-81280000D02*
X99060000Y-81280000D01*
X95250000Y-99060000D02*
X93980000Y-99060000D01*
X97790000Y-96520000D02*
X95250000Y-99060000D01*
X85090000Y-95250000D02*
X90170000Y-95250000D01*
X91440000Y-99060000D02*
X93980000Y-99060000D01*
X68580000Y-93980000D02*
X74930000Y-93980000D01*
X101600000Y-99060000D02*
X107950000Y-99060000D01*
X64770000Y-93980000D02*
X68580000Y-93980000D01*
X68580000Y-93980000D02*
X71755000Y-97155000D01*
X71755000Y-97155000D02*
X76835000Y-97155000D01*
X76835000Y-97155000D02*
X77470000Y-97790000D01*
X77470000Y-97790000D02*
X77470000Y-99060000D01*
X71120000Y-65405000D02*
X76835000Y-65405000D01*
X76835000Y-65405000D02*
X89535000Y-65405000D01*
X76200000Y-67310000D02*
X76200000Y-66040000D01*
X76200000Y-66040000D02*
X76835000Y-65405000D01*
X89535000Y-65405000D02*
X102235000Y-65405000D01*
X88900000Y-66040000D02*
X89535000Y-65405000D01*
X88900000Y-67310000D02*
X88900000Y-66040000D01*
X102235000Y-65405000D02*
X112395000Y-65405000D01*
X101600000Y-67310000D02*
X101600000Y-66040000D01*
X101600000Y-66040000D02*
X102235000Y-65405000D01*
X112395000Y-65405000D02*
X114300000Y-67310000D01*
X67310000Y-69215000D02*
X71120000Y-65405000D01*
X64135000Y-69215000D02*
X67310000Y-69215000D01*
X63500000Y-68580000D02*
X64135000Y-69215000D01*
X63500000Y-67310000D02*
X63500000Y-68580000D01*
X76200000Y-67310000D02*
X76200000Y-77430000D01*
X76200000Y-77430000D02*
X80050000Y-81280000D01*
X107950000Y-99060000D02*
X113030000Y-93980000D01*
X113030000Y-93980000D02*
X115570000Y-93980000D01*
X62230000Y-93980000D02*
X64770000Y-93980000D01*
X89020000Y-102870000D02*
X95250000Y-102870000D01*
X100100000Y-99060000D02*
X99250000Y-99060000D01*
X99250000Y-99060000D02*
X95440000Y-102870000D01*
X95440000Y-102870000D02*
X95250000Y-102870000D01*
X72390000Y-96520000D02*
X85090000Y-96520000D01*
X71120000Y-95250000D02*
X72390000Y-96520000D01*
X64770000Y-83820000D02*
X69850000Y-83820000D01*
X86360000Y-99060000D02*
X86360000Y-100210000D01*
X86360000Y-100210000D02*
X89020000Y-102870000D01*
X113030000Y-83820000D02*
X115570000Y-83820000D01*
X62230000Y-83820000D02*
X64770000Y-83820000D01*
D26*
X116840000Y-41910000D02*
X132200640Y-41910000D01*
X132200640Y-41910000D02*
X132207000Y-41903640D01*
X116840000Y-41910000D02*
X116840000Y-48260000D01*
X104140000Y-41910000D02*
X104140000Y-48260000D01*
X91440000Y-41910000D02*
X91440000Y-48260000D01*
X78740000Y-41910000D02*
X78740000Y-48260000D01*
X66040000Y-41910000D02*
X66040000Y-48260000D01*
X63500000Y-44450000D02*
X63500000Y-41910000D01*
X60960000Y-46990000D02*
X63500000Y-44450000D01*
X60960000Y-48260000D02*
X60960000Y-46990000D01*
X63500000Y-38100000D02*
X64770000Y-36830000D01*
X64770000Y-36830000D02*
X64770000Y-33020000D01*
X63500000Y-41910000D02*
X63500000Y-38100000D01*
X57150000Y-49530000D02*
X57150000Y-45720000D01*
X57150000Y-45720000D02*
X60960000Y-41910000D01*
X59690000Y-52070000D02*
X57150000Y-49530000D01*
X63500000Y-52070000D02*
X59690000Y-52070000D01*
X66040000Y-54610000D02*
X63500000Y-52070000D01*
X66040000Y-55880000D02*
X66040000Y-54610000D01*
X66040000Y-55880000D02*
X66040000Y-59690000D01*
X76200000Y-44450000D02*
X76200000Y-41910000D01*
X73660000Y-46990000D02*
X76200000Y-44450000D01*
X73660000Y-48260000D02*
X73660000Y-46990000D01*
X76200000Y-38100000D02*
X77470000Y-36830000D01*
X77470000Y-36830000D02*
X77470000Y-33020000D01*
X76200000Y-41910000D02*
X76200000Y-38100000D01*
X69850000Y-49530000D02*
X69850000Y-45720000D01*
X69850000Y-45720000D02*
X73660000Y-41910000D01*
X72390000Y-52070000D02*
X69850000Y-49530000D01*
X76200000Y-52070000D02*
X72390000Y-52070000D01*
X78740000Y-54610000D02*
X76200000Y-52070000D01*
X78740000Y-55880000D02*
X78740000Y-54610000D01*
X78740000Y-55880000D02*
X78740000Y-59690000D01*
X88900000Y-44450000D02*
X88900000Y-41910000D01*
X86360000Y-46990000D02*
X88900000Y-44450000D01*
X86360000Y-48260000D02*
X86360000Y-46990000D01*
X88900000Y-38100000D02*
X90170000Y-36830000D01*
X90170000Y-36830000D02*
X90170000Y-33020000D01*
X88900000Y-41910000D02*
X88900000Y-38100000D01*
X82550000Y-49530000D02*
X82550000Y-45720000D01*
X82550000Y-45720000D02*
X86360000Y-41910000D01*
X85090000Y-52070000D02*
X82550000Y-49530000D01*
X88900000Y-52070000D02*
X85090000Y-52070000D01*
X91440000Y-54610000D02*
X88900000Y-52070000D01*
X91440000Y-55880000D02*
X91440000Y-54610000D01*
X91440000Y-55880000D02*
X91440000Y-59690000D01*
X101600000Y-44450000D02*
X101600000Y-41910000D01*
X99060000Y-46990000D02*
X101600000Y-44450000D01*
X99060000Y-48260000D02*
X99060000Y-46990000D01*
X101600000Y-38100000D02*
X102870000Y-36830000D01*
X102870000Y-36830000D02*
X102870000Y-33020000D01*
X101600000Y-41910000D02*
X101600000Y-38100000D01*
X95250000Y-49530000D02*
X95250000Y-45720000D01*
X95250000Y-45720000D02*
X99060000Y-41910000D01*
X97790000Y-52070000D02*
X95250000Y-49530000D01*
X101600000Y-52070000D02*
X97790000Y-52070000D01*
X104140000Y-54610000D02*
X101600000Y-52070000D01*
X104140000Y-55880000D02*
X104140000Y-54610000D01*
X104140000Y-55880000D02*
X104140000Y-59690000D01*
X114300000Y-44450000D02*
X114300000Y-41910000D01*
X111760000Y-46990000D02*
X114300000Y-44450000D01*
X111760000Y-48260000D02*
X111760000Y-46990000D01*
X114300000Y-38100000D02*
X115570000Y-36830000D01*
X115570000Y-36830000D02*
X115570000Y-33020000D01*
X114300000Y-41910000D02*
X114300000Y-38100000D01*
X107950000Y-49530000D02*
X107950000Y-45720000D01*
X107950000Y-45720000D02*
X111760000Y-41910000D01*
X110490000Y-52070000D02*
X107950000Y-49530000D01*
X114300000Y-52070000D02*
X110490000Y-52070000D01*
X116840000Y-54610000D02*
X114300000Y-52070000D01*
X116840000Y-55880000D02*
X116840000Y-54610000D01*
X116840000Y-55880000D02*
X116840000Y-59690000D01*
X132207000Y-46903640D02*
X134706360Y-46903640D01*
X137160000Y-40640000D02*
X123190000Y-26670000D01*
X137160000Y-44450000D02*
X137160000Y-40640000D01*
X134706360Y-46903640D02*
X137160000Y-44450000D01*
X102870000Y-26670000D02*
X104140000Y-26670000D01*
X94730000Y-26670000D02*
X102870000Y-26670000D01*
X123190000Y-26670000D02*
X115570000Y-26670000D01*
X115570000Y-26670000D02*
X106680000Y-26670000D01*
X113030000Y-29210000D02*
X115570000Y-26670000D01*
X113030000Y-33020000D02*
X113030000Y-29210000D01*
X100330000Y-29210000D02*
X102870000Y-26670000D01*
X100330000Y-33020000D02*
X100330000Y-29210000D01*
X104140000Y-26670000D02*
X106680000Y-26670000D01*
X81280000Y-26670000D02*
X91440000Y-26670000D01*
X87630000Y-29210000D02*
X90170000Y-26670000D01*
X91440000Y-26670000D02*
X93980000Y-26670000D01*
X90170000Y-26670000D02*
X91440000Y-26670000D01*
X87630000Y-33020000D02*
X87630000Y-29210000D01*
X68580000Y-26670000D02*
X77470000Y-26670000D01*
X77470000Y-26670000D02*
X81280000Y-26670000D01*
X74930000Y-33020000D02*
X74930000Y-29210000D01*
X74930000Y-29210000D02*
X77470000Y-26670000D01*
X62230000Y-33020000D02*
X62230000Y-29210000D01*
X62230000Y-29210000D02*
X64770000Y-26670000D01*
X64770000Y-26670000D02*
X68580000Y-26670000D01*
X69330000Y-26670000D02*
X68580000Y-26670000D01*
X100330000Y-33020000D02*
X100330000Y-32270000D01*
X94730000Y-26670000D02*
X93980000Y-26670000D01*
X82030000Y-26670000D02*
X81280000Y-26670000D01*
X87630000Y-33020000D02*
X87630000Y-32270000D01*
X74930000Y-33020000D02*
X74930000Y-32270000D01*
X62230000Y-33020000D02*
X62230000Y-32270000D01*
D25*
X72390000Y-86360000D02*
X74930000Y-88900000D01*
X74930000Y-88900000D02*
X91440000Y-88900000D01*
X64770000Y-86360000D02*
X72390000Y-86360000D01*
X62230000Y-86360000D02*
X64770000Y-86360000D01*
X94615000Y-95885000D02*
X106045000Y-95885000D01*
X86995000Y-95885000D02*
X94615000Y-95885000D01*
X72390000Y-88900000D02*
X73660000Y-90170000D01*
X73660000Y-90170000D02*
X83820000Y-90170000D01*
X64770000Y-88900000D02*
X72390000Y-88900000D01*
X113030000Y-88900000D02*
X115570000Y-88900000D01*
X62230000Y-88900000D02*
X64770000Y-88900000D01*
X64770000Y-91440000D02*
X74295000Y-91440000D01*
X74295000Y-91440000D02*
X77470000Y-94615000D01*
X77470000Y-94615000D02*
X85725000Y-94615000D01*
X85725000Y-94615000D02*
X87630000Y-92710000D01*
X89535000Y-94615000D02*
X87630000Y-92710000D01*
X100965000Y-94615000D02*
X89535000Y-94615000D01*
X104140000Y-91440000D02*
X100965000Y-94615000D01*
X113030000Y-91440000D02*
X104140000Y-91440000D01*
X113030000Y-91440000D02*
X115570000Y-91440000D01*
X62230000Y-91440000D02*
X64770000Y-91440000D01*
X97790000Y-90805000D02*
X81915000Y-90805000D01*
X81915000Y-90805000D02*
X80010000Y-92710000D01*
X102235000Y-86360000D02*
X97790000Y-90805000D01*
X113030000Y-86360000D02*
X102235000Y-86360000D01*
X113030000Y-86360000D02*
X115570000Y-86360000D01*
X59690000Y-71120000D02*
X60960000Y-69850000D01*
X60960000Y-69850000D02*
X60960000Y-67310000D01*
X59690000Y-72390000D02*
X59690000Y-71120000D01*
X93980000Y-87630000D02*
X74930000Y-87630000D01*
X72390000Y-71120000D02*
X73660000Y-69850000D01*
X73660000Y-69850000D02*
X73660000Y-67310000D01*
X72390000Y-72390000D02*
X72390000Y-71120000D01*
X83820000Y-74930000D02*
X96520000Y-74930000D01*
X81280000Y-72390000D02*
X83820000Y-74930000D01*
X80010000Y-72390000D02*
X81280000Y-72390000D01*
X85090000Y-71120000D02*
X86360000Y-69850000D01*
X86360000Y-69850000D02*
X86360000Y-67310000D01*
X85090000Y-72390000D02*
X85090000Y-71120000D01*
X97790000Y-71120000D02*
X99060000Y-69850000D01*
X99060000Y-69850000D02*
X99060000Y-67310000D01*
X97790000Y-72390000D02*
X97790000Y-71120000D01*
X101600000Y-76200000D02*
X93980000Y-76200000D01*
X105410000Y-72390000D02*
X101600000Y-76200000D01*
X110490000Y-71120000D02*
X111760000Y-69850000D01*
X111760000Y-69850000D02*
X111760000Y-67310000D01*
X110490000Y-72390000D02*
X110490000Y-71120000D01*
X91440000Y-82550000D02*
X107950000Y-82550000D01*
X90170000Y-83820000D02*
X91440000Y-82550000D01*
X90170000Y-85090000D02*
X90170000Y-83820000D01*
D26*
X60960000Y-55880000D02*
X60960000Y-59690000D01*
X73660000Y-55880000D02*
X73660000Y-59690000D01*
X86360000Y-55880000D02*
X86360000Y-59690000D01*
X99060000Y-55880000D02*
X99060000Y-59690000D01*
X111760000Y-55880000D02*
X111760000Y-59690000D01*
D27*
G36*
X138990000Y-100893125D02*
X138549273Y-99826485D01*
X137668153Y-98943826D01*
X136516326Y-98465546D01*
X135269146Y-98464457D01*
X134116485Y-98940727D01*
X133233826Y-99821847D01*
X132755546Y-100973674D01*
X132754457Y-102220854D01*
X133230727Y-103373515D01*
X134111847Y-104256174D01*
X135180699Y-104700000D01*
X55316875Y-104700000D01*
X56383515Y-104259273D01*
X57266174Y-103378153D01*
X57744454Y-102226326D01*
X57745543Y-100979146D01*
X57269273Y-99826485D01*
X56388153Y-98943826D01*
X55236326Y-98465546D01*
X53989146Y-98464457D01*
X52836485Y-98940727D01*
X51953826Y-99821847D01*
X51510000Y-100890699D01*
X51510000Y-98460000D01*
X74722560Y-98460000D01*
X74722560Y-99660000D01*
X74766838Y-99895317D01*
X74905910Y-100111441D01*
X75118110Y-100256431D01*
X75370000Y-100307440D01*
X76570000Y-100307440D01*
X76805317Y-100263162D01*
X76932636Y-100181234D01*
X77301036Y-100307807D01*
X77791413Y-100277482D01*
X78103617Y-100148164D01*
X78153130Y-99922735D01*
X77470000Y-99239605D01*
X77455858Y-99253748D01*
X77276253Y-99074143D01*
X77290395Y-99060000D01*
X77649605Y-99060000D01*
X78332735Y-99743130D01*
X78558164Y-99693617D01*
X78717807Y-99228964D01*
X78687482Y-98738587D01*
X78558164Y-98426383D01*
X78332735Y-98376870D01*
X77649605Y-99060000D01*
X77290395Y-99060000D01*
X77276253Y-99045858D01*
X77455858Y-98866253D01*
X77470000Y-98880395D01*
X78153130Y-98197265D01*
X78103617Y-97971836D01*
X77638964Y-97812193D01*
X77148587Y-97842518D01*
X76926010Y-97934711D01*
X76821890Y-97863569D01*
X76570000Y-97812560D01*
X75370000Y-97812560D01*
X75134683Y-97856838D01*
X74918559Y-97995910D01*
X74773569Y-98208110D01*
X74722560Y-98460000D01*
X51510000Y-98460000D01*
X51510000Y-94339027D01*
X60775032Y-94339027D01*
X61023179Y-94868490D01*
X61455053Y-95262688D01*
X61870974Y-95434958D01*
X62103000Y-95313817D01*
X62103000Y-94107000D01*
X62357000Y-94107000D01*
X62357000Y-95313817D01*
X62589026Y-95434958D01*
X63004947Y-95262688D01*
X63436821Y-94868490D01*
X63500000Y-94733687D01*
X63563179Y-94868490D01*
X63995053Y-95262688D01*
X64410974Y-95434958D01*
X64643000Y-95313817D01*
X64643000Y-94107000D01*
X64897000Y-94107000D01*
X64897000Y-95313817D01*
X65129026Y-95434958D01*
X65544947Y-95262688D01*
X65976821Y-94868490D01*
X66224968Y-94339027D01*
X66104469Y-94107000D01*
X64897000Y-94107000D01*
X64643000Y-94107000D01*
X62357000Y-94107000D01*
X62103000Y-94107000D01*
X60895531Y-94107000D01*
X60775032Y-94339027D01*
X51510000Y-94339027D01*
X51510000Y-82956400D01*
X60718960Y-82956400D01*
X60718960Y-84683600D01*
X60763238Y-84918917D01*
X60902310Y-85135041D01*
X61114510Y-85280031D01*
X61158345Y-85288908D01*
X60845474Y-85757152D01*
X60731400Y-86330641D01*
X60731400Y-86389359D01*
X60845474Y-86962848D01*
X61170330Y-87449029D01*
X61441172Y-87630000D01*
X61170330Y-87810971D01*
X60845474Y-88297152D01*
X60731400Y-88870641D01*
X60731400Y-88929359D01*
X60845474Y-89502848D01*
X61170330Y-89989029D01*
X61441172Y-90170000D01*
X61170330Y-90350971D01*
X60845474Y-90837152D01*
X60731400Y-91410641D01*
X60731400Y-91469359D01*
X60845474Y-92042848D01*
X61170330Y-92529029D01*
X61441161Y-92709992D01*
X61023179Y-93091510D01*
X60775032Y-93620973D01*
X60895531Y-93853000D01*
X62103000Y-93853000D01*
X62103000Y-93833000D01*
X62357000Y-93833000D01*
X62357000Y-93853000D01*
X64643000Y-93853000D01*
X64643000Y-93833000D01*
X64897000Y-93833000D01*
X64897000Y-93853000D01*
X66104469Y-93853000D01*
X66224968Y-93620973D01*
X65976821Y-93091510D01*
X65558839Y-92709992D01*
X65829670Y-92529029D01*
X66049520Y-92200000D01*
X73980198Y-92200000D01*
X76932599Y-95152401D01*
X77179161Y-95317148D01*
X77470000Y-95375000D01*
X84154890Y-95375000D01*
X84154838Y-95435167D01*
X84289056Y-95760000D01*
X72704802Y-95760000D01*
X72055122Y-95110320D01*
X72055162Y-95064833D01*
X71913117Y-94721057D01*
X71650327Y-94457808D01*
X71306799Y-94315162D01*
X70934833Y-94314838D01*
X70591057Y-94456883D01*
X70327808Y-94719673D01*
X70185162Y-95063201D01*
X70184838Y-95435167D01*
X70326883Y-95778943D01*
X70589673Y-96042192D01*
X70933201Y-96184838D01*
X70980077Y-96184879D01*
X71852599Y-97057401D01*
X72099160Y-97222148D01*
X72390000Y-97280000D01*
X81614890Y-97280000D01*
X81614838Y-97340167D01*
X81756883Y-97683943D01*
X82019673Y-97947192D01*
X82363201Y-98089838D01*
X82735167Y-98090162D01*
X83078943Y-97948117D01*
X83112118Y-97915000D01*
X84862174Y-97915000D01*
X84812560Y-98160000D01*
X84812560Y-99960000D01*
X84856838Y-100195317D01*
X84995910Y-100411441D01*
X85208110Y-100556431D01*
X85460000Y-100607440D01*
X85729080Y-100607440D01*
X85822599Y-100747401D01*
X88482599Y-103407401D01*
X88729161Y-103572148D01*
X89020000Y-103630000D01*
X95440000Y-103630000D01*
X95730839Y-103572148D01*
X95977401Y-103407401D01*
X99176975Y-100207827D01*
X99248110Y-100256431D01*
X99500000Y-100307440D01*
X100700000Y-100307440D01*
X100935317Y-100263162D01*
X101062636Y-100181234D01*
X101431036Y-100307807D01*
X101921413Y-100277482D01*
X102233617Y-100148164D01*
X102283130Y-99922735D01*
X101600000Y-99239605D01*
X101585858Y-99253748D01*
X101406253Y-99074143D01*
X101420395Y-99060000D01*
X101779605Y-99060000D01*
X102462735Y-99743130D01*
X102688164Y-99693617D01*
X102847807Y-99228964D01*
X102817482Y-98738587D01*
X102688164Y-98426383D01*
X102462735Y-98376870D01*
X101779605Y-99060000D01*
X101420395Y-99060000D01*
X101406253Y-99045858D01*
X101585858Y-98866253D01*
X101600000Y-98880395D01*
X102283130Y-98197265D01*
X102233617Y-97971836D01*
X101768964Y-97812193D01*
X101278587Y-97842518D01*
X101056010Y-97934711D01*
X100951890Y-97863569D01*
X100700000Y-97812560D01*
X99500000Y-97812560D01*
X99264683Y-97856838D01*
X99048559Y-97995910D01*
X98903569Y-98208110D01*
X98859801Y-98424242D01*
X98712599Y-98522599D01*
X95125198Y-102110000D01*
X89334802Y-102110000D01*
X87673382Y-100448580D01*
X87711441Y-100424090D01*
X87856431Y-100211890D01*
X87866766Y-100160854D01*
X87992424Y-100297966D01*
X88535258Y-100551046D01*
X88773000Y-100430997D01*
X88773000Y-99187000D01*
X88753000Y-99187000D01*
X88753000Y-98933000D01*
X88773000Y-98933000D01*
X88773000Y-98913000D01*
X89027000Y-98913000D01*
X89027000Y-98933000D01*
X89047000Y-98933000D01*
X89047000Y-99187000D01*
X89027000Y-99187000D01*
X89027000Y-100430997D01*
X89264742Y-100551046D01*
X89807576Y-100297966D01*
X90165499Y-99907418D01*
X90324519Y-100145409D01*
X90822509Y-100478155D01*
X91409928Y-100595000D01*
X91470072Y-100595000D01*
X92057491Y-100478155D01*
X92555481Y-100145409D01*
X92772912Y-99820000D01*
X95250000Y-99820000D01*
X95540839Y-99762148D01*
X95787401Y-99597401D01*
X97929680Y-97455122D01*
X97975167Y-97455162D01*
X98318943Y-97313117D01*
X98582192Y-97050327D01*
X98724838Y-96706799D01*
X98724892Y-96645000D01*
X105482537Y-96645000D01*
X105514673Y-96677192D01*
X105858201Y-96819838D01*
X106230167Y-96820162D01*
X106573943Y-96678117D01*
X106837192Y-96415327D01*
X106979838Y-96071799D01*
X106980162Y-95699833D01*
X106838117Y-95356057D01*
X106575327Y-95092808D01*
X106231799Y-94950162D01*
X105859833Y-94949838D01*
X105516057Y-95091883D01*
X105482882Y-95125000D01*
X101529802Y-95125000D01*
X102315775Y-94339027D01*
X111575032Y-94339027D01*
X111823179Y-94868490D01*
X112255053Y-95262688D01*
X112670974Y-95434958D01*
X112903000Y-95313817D01*
X112903000Y-94107000D01*
X113157000Y-94107000D01*
X113157000Y-95313817D01*
X113389026Y-95434958D01*
X113804947Y-95262688D01*
X114236821Y-94868490D01*
X114300000Y-94733687D01*
X114363179Y-94868490D01*
X114795053Y-95262688D01*
X115210974Y-95434958D01*
X115443000Y-95313817D01*
X115443000Y-94107000D01*
X115697000Y-94107000D01*
X115697000Y-95313817D01*
X115929026Y-95434958D01*
X116344947Y-95262688D01*
X116776821Y-94868490D01*
X117024968Y-94339027D01*
X116904469Y-94107000D01*
X115697000Y-94107000D01*
X115443000Y-94107000D01*
X113157000Y-94107000D01*
X112903000Y-94107000D01*
X111695531Y-94107000D01*
X111575032Y-94339027D01*
X102315775Y-94339027D01*
X104454802Y-92200000D01*
X111750480Y-92200000D01*
X111970330Y-92529029D01*
X112241161Y-92709992D01*
X111823179Y-93091510D01*
X111575032Y-93620973D01*
X111695531Y-93853000D01*
X112903000Y-93853000D01*
X112903000Y-93833000D01*
X113157000Y-93833000D01*
X113157000Y-93853000D01*
X115443000Y-93853000D01*
X115443000Y-93833000D01*
X115697000Y-93833000D01*
X115697000Y-93853000D01*
X116904469Y-93853000D01*
X117024968Y-93620973D01*
X116776821Y-93091510D01*
X116358839Y-92709992D01*
X116629670Y-92529029D01*
X116954526Y-92042848D01*
X117068600Y-91469359D01*
X117068600Y-91410641D01*
X116954526Y-90837152D01*
X116629670Y-90350971D01*
X116358828Y-90170000D01*
X116629670Y-89989029D01*
X116954526Y-89502848D01*
X117068600Y-88929359D01*
X117068600Y-88870641D01*
X116954526Y-88297152D01*
X116629670Y-87810971D01*
X116358828Y-87630000D01*
X116629670Y-87449029D01*
X116954526Y-86962848D01*
X117068600Y-86389359D01*
X117068600Y-86330641D01*
X116954526Y-85757152D01*
X116629670Y-85270971D01*
X116358828Y-85090000D01*
X116629670Y-84909029D01*
X116954526Y-84422848D01*
X117068600Y-83849359D01*
X117068600Y-83790641D01*
X116954526Y-83217152D01*
X116629670Y-82730971D01*
X116143489Y-82406115D01*
X115570000Y-82292041D01*
X114996511Y-82406115D01*
X114510330Y-82730971D01*
X114501195Y-82744642D01*
X114496762Y-82721083D01*
X114357690Y-82504959D01*
X114145490Y-82359969D01*
X113893600Y-82308960D01*
X112166400Y-82308960D01*
X111931083Y-82353238D01*
X111714959Y-82492310D01*
X111569969Y-82704510D01*
X111518960Y-82956400D01*
X111518960Y-84683600D01*
X111563238Y-84918917D01*
X111702310Y-85135041D01*
X111914510Y-85280031D01*
X111958345Y-85288908D01*
X111750480Y-85600000D01*
X102235000Y-85600000D01*
X101944160Y-85657852D01*
X101697599Y-85822599D01*
X97475198Y-90045000D01*
X84755110Y-90045000D01*
X84755162Y-89984833D01*
X84620944Y-89660000D01*
X90877537Y-89660000D01*
X90909673Y-89692192D01*
X91253201Y-89834838D01*
X91625167Y-89835162D01*
X91968943Y-89693117D01*
X92232192Y-89430327D01*
X92374838Y-89086799D01*
X92375162Y-88714833D01*
X92240944Y-88390000D01*
X93417537Y-88390000D01*
X93449673Y-88422192D01*
X93793201Y-88564838D01*
X94165167Y-88565162D01*
X94508943Y-88423117D01*
X94772192Y-88160327D01*
X94914838Y-87816799D01*
X94915162Y-87444833D01*
X94773117Y-87101057D01*
X94510327Y-86837808D01*
X94166799Y-86695162D01*
X93794833Y-86694838D01*
X93451057Y-86836883D01*
X93417882Y-86870000D01*
X75492463Y-86870000D01*
X75460327Y-86837808D01*
X75116799Y-86695162D01*
X74744833Y-86694838D01*
X74401057Y-86836883D01*
X74171171Y-87066369D01*
X72927401Y-85822599D01*
X72680839Y-85657852D01*
X72390000Y-85600000D01*
X66049520Y-85600000D01*
X65941971Y-85439041D01*
X78618086Y-85439041D01*
X78857611Y-85945134D01*
X79272577Y-86321041D01*
X79660961Y-86481904D01*
X79883000Y-86359915D01*
X79883000Y-85217000D01*
X78739371Y-85217000D01*
X78618086Y-85439041D01*
X65941971Y-85439041D01*
X65829670Y-85270971D01*
X65558828Y-85090000D01*
X65829670Y-84909029D01*
X66049520Y-84580000D01*
X69287537Y-84580000D01*
X69319673Y-84612192D01*
X69663201Y-84754838D01*
X70035167Y-84755162D01*
X70069540Y-84740959D01*
X78618086Y-84740959D01*
X78739371Y-84963000D01*
X79883000Y-84963000D01*
X79883000Y-83820085D01*
X80137000Y-83820085D01*
X80137000Y-84963000D01*
X80157000Y-84963000D01*
X80157000Y-85217000D01*
X80137000Y-85217000D01*
X80137000Y-86359915D01*
X80359039Y-86481904D01*
X80747423Y-86321041D01*
X81162389Y-85945134D01*
X81265014Y-85728297D01*
X81535302Y-86132811D01*
X82000849Y-86443880D01*
X82550000Y-86553113D01*
X83099151Y-86443880D01*
X83564698Y-86132811D01*
X83820000Y-85750725D01*
X84075302Y-86132811D01*
X84540849Y-86443880D01*
X85090000Y-86553113D01*
X85639151Y-86443880D01*
X86104698Y-86132811D01*
X86360000Y-85750725D01*
X86615302Y-86132811D01*
X87080849Y-86443880D01*
X87630000Y-86553113D01*
X88179151Y-86443880D01*
X88644698Y-86132811D01*
X88900000Y-85750725D01*
X89155302Y-86132811D01*
X89620849Y-86443880D01*
X90170000Y-86553113D01*
X90719151Y-86443880D01*
X91184698Y-86132811D01*
X91440000Y-85750725D01*
X91695302Y-86132811D01*
X92160849Y-86443880D01*
X92710000Y-86553113D01*
X93259151Y-86443880D01*
X93724698Y-86132811D01*
X93980000Y-85750725D01*
X94235302Y-86132811D01*
X94700849Y-86443880D01*
X95250000Y-86553113D01*
X95799151Y-86443880D01*
X96264698Y-86132811D01*
X96361101Y-85988535D01*
X96386838Y-86125317D01*
X96525910Y-86341441D01*
X96738110Y-86486431D01*
X96990000Y-86537440D01*
X98590000Y-86537440D01*
X98825317Y-86493162D01*
X99041441Y-86354090D01*
X99186431Y-86141890D01*
X99237440Y-85890000D01*
X99237440Y-84290000D01*
X99193162Y-84054683D01*
X99054090Y-83838559D01*
X98841890Y-83693569D01*
X98590000Y-83642560D01*
X96990000Y-83642560D01*
X96754683Y-83686838D01*
X96538559Y-83825910D01*
X96393569Y-84038110D01*
X96362185Y-84193089D01*
X96264698Y-84047189D01*
X95799151Y-83736120D01*
X95250000Y-83626887D01*
X94700849Y-83736120D01*
X94235302Y-84047189D01*
X93980000Y-84429275D01*
X93724698Y-84047189D01*
X93259151Y-83736120D01*
X92710000Y-83626887D01*
X92160849Y-83736120D01*
X91695302Y-84047189D01*
X91440000Y-84429275D01*
X91184698Y-84047189D01*
X91084538Y-83980264D01*
X91754802Y-83310000D01*
X107387537Y-83310000D01*
X107419673Y-83342192D01*
X107763201Y-83484838D01*
X108135167Y-83485162D01*
X108478943Y-83343117D01*
X108742192Y-83080327D01*
X108884838Y-82736799D01*
X108885162Y-82364833D01*
X108743117Y-82021057D01*
X108480327Y-81757808D01*
X108136799Y-81615162D01*
X107764833Y-81614838D01*
X107421057Y-81756883D01*
X107387882Y-81790000D01*
X99860633Y-81790000D01*
X99994838Y-81466799D01*
X99995162Y-81094833D01*
X99853117Y-80751057D01*
X99590327Y-80487808D01*
X99246799Y-80345162D01*
X98874833Y-80344838D01*
X98531057Y-80486883D01*
X98497882Y-80520000D01*
X83788646Y-80520000D01*
X83767243Y-80468200D01*
X83363923Y-80064176D01*
X82836691Y-79845250D01*
X82265813Y-79844752D01*
X81738200Y-80062757D01*
X81334176Y-80466077D01*
X81306577Y-80532544D01*
X81303864Y-80525995D01*
X81057745Y-80451861D01*
X80229605Y-81280000D01*
X81057745Y-82108139D01*
X81303864Y-82034005D01*
X81306196Y-82027517D01*
X81332757Y-82091800D01*
X81736077Y-82495824D01*
X82263309Y-82714750D01*
X82834187Y-82715248D01*
X83361800Y-82497243D01*
X83765824Y-82093923D01*
X83788215Y-82040000D01*
X90875198Y-82040000D01*
X89632599Y-83282599D01*
X89467852Y-83529161D01*
X89410000Y-83820000D01*
X89410000Y-83877005D01*
X89155302Y-84047189D01*
X88900000Y-84429275D01*
X88644698Y-84047189D01*
X88179151Y-83736120D01*
X87630000Y-83626887D01*
X87080849Y-83736120D01*
X86615302Y-84047189D01*
X86360000Y-84429275D01*
X86104698Y-84047189D01*
X85639151Y-83736120D01*
X85090000Y-83626887D01*
X84540849Y-83736120D01*
X84075302Y-84047189D01*
X83820000Y-84429275D01*
X83564698Y-84047189D01*
X83099151Y-83736120D01*
X82550000Y-83626887D01*
X82000849Y-83736120D01*
X81535302Y-84047189D01*
X81265014Y-84451703D01*
X81162389Y-84234866D01*
X80747423Y-83858959D01*
X80359039Y-83698096D01*
X80137000Y-83820085D01*
X79883000Y-83820085D01*
X79660961Y-83698096D01*
X79272577Y-83858959D01*
X78857611Y-84234866D01*
X78618086Y-84740959D01*
X70069540Y-84740959D01*
X70378943Y-84613117D01*
X70642192Y-84350327D01*
X70784838Y-84006799D01*
X70785162Y-83634833D01*
X70643117Y-83291057D01*
X70380327Y-83027808D01*
X70036799Y-82885162D01*
X69664833Y-82884838D01*
X69321057Y-83026883D01*
X69287882Y-83060000D01*
X66049520Y-83060000D01*
X65829670Y-82730971D01*
X65343489Y-82406115D01*
X64770000Y-82292041D01*
X64196511Y-82406115D01*
X63710330Y-82730971D01*
X63701195Y-82744642D01*
X63696762Y-82721083D01*
X63557690Y-82504959D01*
X63345490Y-82359969D01*
X63093600Y-82308960D01*
X61366400Y-82308960D01*
X61131083Y-82353238D01*
X60914959Y-82492310D01*
X60769969Y-82704510D01*
X60718960Y-82956400D01*
X51510000Y-82956400D01*
X51510000Y-82287745D01*
X79221861Y-82287745D01*
X79295995Y-82533864D01*
X79833223Y-82726965D01*
X80403454Y-82699778D01*
X80804005Y-82533864D01*
X80878139Y-82287745D01*
X80050000Y-81459605D01*
X79221861Y-82287745D01*
X51510000Y-82287745D01*
X51510000Y-81063223D01*
X78603035Y-81063223D01*
X78630222Y-81633454D01*
X78796136Y-82034005D01*
X79042255Y-82108139D01*
X79870395Y-81280000D01*
X79042255Y-80451861D01*
X78796136Y-80525995D01*
X78603035Y-81063223D01*
X51510000Y-81063223D01*
X51510000Y-80272255D01*
X79221861Y-80272255D01*
X80050000Y-81100395D01*
X80878139Y-80272255D01*
X80804005Y-80026136D01*
X80266777Y-79833035D01*
X79696546Y-79860222D01*
X79295995Y-80026136D01*
X79221861Y-80272255D01*
X51510000Y-80272255D01*
X51510000Y-72674187D01*
X58254752Y-72674187D01*
X58472757Y-73201800D01*
X58876077Y-73605824D01*
X59403309Y-73824750D01*
X59974187Y-73825248D01*
X60501800Y-73607243D01*
X60905824Y-73203923D01*
X61124750Y-72676691D01*
X61125000Y-72390000D01*
X65846887Y-72390000D01*
X65956120Y-72939151D01*
X66267189Y-73404698D01*
X66732736Y-73715767D01*
X67281887Y-73825000D01*
X67338113Y-73825000D01*
X67887264Y-73715767D01*
X68352811Y-73404698D01*
X68663880Y-72939151D01*
X68716584Y-72674187D01*
X70954752Y-72674187D01*
X71172757Y-73201800D01*
X71576077Y-73605824D01*
X72103309Y-73824750D01*
X72674187Y-73825248D01*
X73201800Y-73607243D01*
X73605824Y-73203923D01*
X73824750Y-72676691D01*
X73825000Y-72390000D01*
X78546887Y-72390000D01*
X78656120Y-72939151D01*
X78967189Y-73404698D01*
X79432736Y-73715767D01*
X79981887Y-73825000D01*
X80038113Y-73825000D01*
X80587264Y-73715767D01*
X81052811Y-73404698D01*
X81119736Y-73304538D01*
X83282599Y-75467401D01*
X83529160Y-75632148D01*
X83577414Y-75641746D01*
X83820000Y-75690000D01*
X93179367Y-75690000D01*
X93045162Y-76013201D01*
X93044838Y-76385167D01*
X93186883Y-76728943D01*
X93449673Y-76992192D01*
X93793201Y-77134838D01*
X94165167Y-77135162D01*
X94508943Y-76993117D01*
X94542118Y-76960000D01*
X101600000Y-76960000D01*
X101890839Y-76902148D01*
X102137401Y-76737401D01*
X105104898Y-73769904D01*
X105381887Y-73825000D01*
X105438113Y-73825000D01*
X105987264Y-73715767D01*
X106452811Y-73404698D01*
X106763880Y-72939151D01*
X106816584Y-72674187D01*
X109054752Y-72674187D01*
X109272757Y-73201800D01*
X109676077Y-73605824D01*
X110203309Y-73824750D01*
X110774187Y-73825248D01*
X111301800Y-73607243D01*
X111705824Y-73203923D01*
X111924750Y-72676691D01*
X111925000Y-72390000D01*
X116646887Y-72390000D01*
X116756120Y-72939151D01*
X117067189Y-73404698D01*
X117532736Y-73715767D01*
X118081887Y-73825000D01*
X118138113Y-73825000D01*
X118687264Y-73715767D01*
X119152811Y-73404698D01*
X119463880Y-72939151D01*
X119573113Y-72390000D01*
X119463880Y-71840849D01*
X119152811Y-71375302D01*
X118687264Y-71064233D01*
X118138113Y-70955000D01*
X118081887Y-70955000D01*
X117532736Y-71064233D01*
X117067189Y-71375302D01*
X116756120Y-71840849D01*
X116646887Y-72390000D01*
X111925000Y-72390000D01*
X111925248Y-72105813D01*
X111707243Y-71578200D01*
X111407184Y-71277618D01*
X112297401Y-70387401D01*
X112462148Y-70140840D01*
X112520000Y-69850000D01*
X112520000Y-68757440D01*
X112560000Y-68757440D01*
X112795317Y-68713162D01*
X113011441Y-68574090D01*
X113156431Y-68361890D01*
X113188732Y-68202384D01*
X113562577Y-68541041D01*
X113950961Y-68701904D01*
X114173000Y-68579915D01*
X114173000Y-67437000D01*
X114153000Y-67437000D01*
X114153000Y-67183000D01*
X114173000Y-67183000D01*
X114173000Y-66040085D01*
X114427000Y-66040085D01*
X114427000Y-67183000D01*
X114447000Y-67183000D01*
X114447000Y-67437000D01*
X114427000Y-67437000D01*
X114427000Y-68579915D01*
X114649039Y-68701904D01*
X115037423Y-68541041D01*
X115452389Y-68165134D01*
X115555014Y-67948297D01*
X115825302Y-68352811D01*
X116290849Y-68663880D01*
X116840000Y-68773113D01*
X117389151Y-68663880D01*
X117854698Y-68352811D01*
X118165767Y-67887264D01*
X118275000Y-67338113D01*
X118275000Y-67281887D01*
X118165767Y-66732736D01*
X117854698Y-66267189D01*
X117389151Y-65956120D01*
X116840000Y-65846887D01*
X116290849Y-65956120D01*
X115825302Y-66267189D01*
X115555014Y-66671703D01*
X115452389Y-66454866D01*
X115037423Y-66078959D01*
X114649039Y-65918096D01*
X114427000Y-66040085D01*
X114173000Y-66040085D01*
X113950961Y-65918096D01*
X113562577Y-66078959D01*
X113189864Y-66416590D01*
X113163162Y-66274683D01*
X113024090Y-66058559D01*
X112811890Y-65913569D01*
X112560000Y-65862560D01*
X110960000Y-65862560D01*
X110724683Y-65906838D01*
X110508559Y-66045910D01*
X110363569Y-66258110D01*
X110312560Y-66510000D01*
X110312560Y-68110000D01*
X110356838Y-68345317D01*
X110495910Y-68561441D01*
X110708110Y-68706431D01*
X110960000Y-68757440D01*
X111000000Y-68757440D01*
X111000000Y-69535198D01*
X109952599Y-70582599D01*
X109787852Y-70829161D01*
X109730000Y-71120000D01*
X109730000Y-71151354D01*
X109678200Y-71172757D01*
X109274176Y-71576077D01*
X109055250Y-72103309D01*
X109054752Y-72674187D01*
X106816584Y-72674187D01*
X106873113Y-72390000D01*
X106763880Y-71840849D01*
X106452811Y-71375302D01*
X105987264Y-71064233D01*
X105438113Y-70955000D01*
X105381887Y-70955000D01*
X104832736Y-71064233D01*
X104367189Y-71375302D01*
X104056120Y-71840849D01*
X103946887Y-72390000D01*
X104011312Y-72713886D01*
X101285198Y-75440000D01*
X97320633Y-75440000D01*
X97454838Y-75116799D01*
X97455162Y-74744833D01*
X97313117Y-74401057D01*
X97050327Y-74137808D01*
X96706799Y-73995162D01*
X96334833Y-73994838D01*
X95991057Y-74136883D01*
X95957882Y-74170000D01*
X84134802Y-74170000D01*
X82638989Y-72674187D01*
X83654752Y-72674187D01*
X83872757Y-73201800D01*
X84276077Y-73605824D01*
X84803309Y-73824750D01*
X85374187Y-73825248D01*
X85901800Y-73607243D01*
X86305824Y-73203923D01*
X86524750Y-72676691D01*
X86525000Y-72390000D01*
X91246887Y-72390000D01*
X91356120Y-72939151D01*
X91667189Y-73404698D01*
X92132736Y-73715767D01*
X92681887Y-73825000D01*
X92738113Y-73825000D01*
X93287264Y-73715767D01*
X93752811Y-73404698D01*
X94063880Y-72939151D01*
X94116584Y-72674187D01*
X96354752Y-72674187D01*
X96572757Y-73201800D01*
X96976077Y-73605824D01*
X97503309Y-73824750D01*
X98074187Y-73825248D01*
X98601800Y-73607243D01*
X99005824Y-73203923D01*
X99224750Y-72676691D01*
X99225248Y-72105813D01*
X99007243Y-71578200D01*
X98707184Y-71277618D01*
X99597401Y-70387401D01*
X99762148Y-70140840D01*
X99820000Y-69850000D01*
X99820000Y-68757440D01*
X99860000Y-68757440D01*
X100095317Y-68713162D01*
X100311441Y-68574090D01*
X100456431Y-68361890D01*
X100488732Y-68202384D01*
X100862577Y-68541041D01*
X101250961Y-68701904D01*
X101473000Y-68579915D01*
X101473000Y-67437000D01*
X101453000Y-67437000D01*
X101453000Y-67183000D01*
X101473000Y-67183000D01*
X101473000Y-66040085D01*
X101727000Y-66040085D01*
X101727000Y-67183000D01*
X101747000Y-67183000D01*
X101747000Y-67437000D01*
X101727000Y-67437000D01*
X101727000Y-68579915D01*
X101949039Y-68701904D01*
X102337423Y-68541041D01*
X102752389Y-68165134D01*
X102855014Y-67948297D01*
X103125302Y-68352811D01*
X103590849Y-68663880D01*
X104140000Y-68773113D01*
X104689151Y-68663880D01*
X105154698Y-68352811D01*
X105465767Y-67887264D01*
X105575000Y-67338113D01*
X105575000Y-67281887D01*
X105465767Y-66732736D01*
X105154698Y-66267189D01*
X104689151Y-65956120D01*
X104140000Y-65846887D01*
X103590849Y-65956120D01*
X103125302Y-66267189D01*
X102855014Y-66671703D01*
X102752389Y-66454866D01*
X102337423Y-66078959D01*
X101949039Y-65918096D01*
X101727000Y-66040085D01*
X101473000Y-66040085D01*
X101250961Y-65918096D01*
X100862577Y-66078959D01*
X100489864Y-66416590D01*
X100463162Y-66274683D01*
X100324090Y-66058559D01*
X100111890Y-65913569D01*
X99860000Y-65862560D01*
X98260000Y-65862560D01*
X98024683Y-65906838D01*
X97808559Y-66045910D01*
X97663569Y-66258110D01*
X97612560Y-66510000D01*
X97612560Y-68110000D01*
X97656838Y-68345317D01*
X97795910Y-68561441D01*
X98008110Y-68706431D01*
X98260000Y-68757440D01*
X98300000Y-68757440D01*
X98300000Y-69535198D01*
X97252599Y-70582599D01*
X97087852Y-70829161D01*
X97030000Y-71120000D01*
X97030000Y-71151354D01*
X96978200Y-71172757D01*
X96574176Y-71576077D01*
X96355250Y-72103309D01*
X96354752Y-72674187D01*
X94116584Y-72674187D01*
X94173113Y-72390000D01*
X94063880Y-71840849D01*
X93752811Y-71375302D01*
X93287264Y-71064233D01*
X92738113Y-70955000D01*
X92681887Y-70955000D01*
X92132736Y-71064233D01*
X91667189Y-71375302D01*
X91356120Y-71840849D01*
X91246887Y-72390000D01*
X86525000Y-72390000D01*
X86525248Y-72105813D01*
X86307243Y-71578200D01*
X86007184Y-71277618D01*
X86897401Y-70387401D01*
X87062148Y-70140840D01*
X87120000Y-69850000D01*
X87120000Y-68757440D01*
X87160000Y-68757440D01*
X87395317Y-68713162D01*
X87611441Y-68574090D01*
X87756431Y-68361890D01*
X87788732Y-68202384D01*
X88162577Y-68541041D01*
X88550961Y-68701904D01*
X88773000Y-68579915D01*
X88773000Y-67437000D01*
X88753000Y-67437000D01*
X88753000Y-67183000D01*
X88773000Y-67183000D01*
X88773000Y-66040085D01*
X89027000Y-66040085D01*
X89027000Y-67183000D01*
X89047000Y-67183000D01*
X89047000Y-67437000D01*
X89027000Y-67437000D01*
X89027000Y-68579915D01*
X89249039Y-68701904D01*
X89637423Y-68541041D01*
X90052389Y-68165134D01*
X90155014Y-67948297D01*
X90425302Y-68352811D01*
X90890849Y-68663880D01*
X91440000Y-68773113D01*
X91989151Y-68663880D01*
X92454698Y-68352811D01*
X92765767Y-67887264D01*
X92875000Y-67338113D01*
X92875000Y-67281887D01*
X92765767Y-66732736D01*
X92454698Y-66267189D01*
X91989151Y-65956120D01*
X91440000Y-65846887D01*
X90890849Y-65956120D01*
X90425302Y-66267189D01*
X90155014Y-66671703D01*
X90052389Y-66454866D01*
X89637423Y-66078959D01*
X89249039Y-65918096D01*
X89027000Y-66040085D01*
X88773000Y-66040085D01*
X88550961Y-65918096D01*
X88162577Y-66078959D01*
X87789864Y-66416590D01*
X87763162Y-66274683D01*
X87624090Y-66058559D01*
X87411890Y-65913569D01*
X87160000Y-65862560D01*
X85560000Y-65862560D01*
X85324683Y-65906838D01*
X85108559Y-66045910D01*
X84963569Y-66258110D01*
X84912560Y-66510000D01*
X84912560Y-68110000D01*
X84956838Y-68345317D01*
X85095910Y-68561441D01*
X85308110Y-68706431D01*
X85560000Y-68757440D01*
X85600000Y-68757440D01*
X85600000Y-69535198D01*
X84552599Y-70582599D01*
X84387852Y-70829161D01*
X84330000Y-71120000D01*
X84330000Y-71151354D01*
X84278200Y-71172757D01*
X83874176Y-71576077D01*
X83655250Y-72103309D01*
X83654752Y-72674187D01*
X82638989Y-72674187D01*
X81817401Y-71852599D01*
X81570839Y-71687852D01*
X81280000Y-71630000D01*
X81222995Y-71630000D01*
X81052811Y-71375302D01*
X80587264Y-71064233D01*
X80038113Y-70955000D01*
X79981887Y-70955000D01*
X79432736Y-71064233D01*
X78967189Y-71375302D01*
X78656120Y-71840849D01*
X78546887Y-72390000D01*
X73825000Y-72390000D01*
X73825248Y-72105813D01*
X73607243Y-71578200D01*
X73307184Y-71277618D01*
X74197401Y-70387401D01*
X74362148Y-70140840D01*
X74420000Y-69850000D01*
X74420000Y-68757440D01*
X74460000Y-68757440D01*
X74695317Y-68713162D01*
X74911441Y-68574090D01*
X75056431Y-68361890D01*
X75088732Y-68202384D01*
X75462577Y-68541041D01*
X75850961Y-68701904D01*
X76073000Y-68579915D01*
X76073000Y-67437000D01*
X76053000Y-67437000D01*
X76053000Y-67183000D01*
X76073000Y-67183000D01*
X76073000Y-66040085D01*
X76327000Y-66040085D01*
X76327000Y-67183000D01*
X76347000Y-67183000D01*
X76347000Y-67437000D01*
X76327000Y-67437000D01*
X76327000Y-68579915D01*
X76549039Y-68701904D01*
X76937423Y-68541041D01*
X77352389Y-68165134D01*
X77455014Y-67948297D01*
X77725302Y-68352811D01*
X78190849Y-68663880D01*
X78740000Y-68773113D01*
X79289151Y-68663880D01*
X79754698Y-68352811D01*
X80065767Y-67887264D01*
X80175000Y-67338113D01*
X80175000Y-67281887D01*
X80065767Y-66732736D01*
X79754698Y-66267189D01*
X79289151Y-65956120D01*
X78740000Y-65846887D01*
X78190849Y-65956120D01*
X77725302Y-66267189D01*
X77455014Y-66671703D01*
X77352389Y-66454866D01*
X76937423Y-66078959D01*
X76549039Y-65918096D01*
X76327000Y-66040085D01*
X76073000Y-66040085D01*
X75850961Y-65918096D01*
X75462577Y-66078959D01*
X75089864Y-66416590D01*
X75063162Y-66274683D01*
X74924090Y-66058559D01*
X74711890Y-65913569D01*
X74460000Y-65862560D01*
X72860000Y-65862560D01*
X72624683Y-65906838D01*
X72408559Y-66045910D01*
X72263569Y-66258110D01*
X72212560Y-66510000D01*
X72212560Y-68110000D01*
X72256838Y-68345317D01*
X72395910Y-68561441D01*
X72608110Y-68706431D01*
X72860000Y-68757440D01*
X72900000Y-68757440D01*
X72900000Y-69535198D01*
X71852599Y-70582599D01*
X71687852Y-70829161D01*
X71630000Y-71120000D01*
X71630000Y-71151354D01*
X71578200Y-71172757D01*
X71174176Y-71576077D01*
X70955250Y-72103309D01*
X70954752Y-72674187D01*
X68716584Y-72674187D01*
X68773113Y-72390000D01*
X68663880Y-71840849D01*
X68352811Y-71375302D01*
X67887264Y-71064233D01*
X67338113Y-70955000D01*
X67281887Y-70955000D01*
X66732736Y-71064233D01*
X66267189Y-71375302D01*
X65956120Y-71840849D01*
X65846887Y-72390000D01*
X61125000Y-72390000D01*
X61125248Y-72105813D01*
X60907243Y-71578200D01*
X60607184Y-71277618D01*
X61497401Y-70387401D01*
X61662148Y-70140840D01*
X61720000Y-69850000D01*
X61720000Y-68757440D01*
X61760000Y-68757440D01*
X61995317Y-68713162D01*
X62211441Y-68574090D01*
X62356431Y-68361890D01*
X62388732Y-68202384D01*
X62762577Y-68541041D01*
X63150961Y-68701904D01*
X63373000Y-68579915D01*
X63373000Y-67437000D01*
X63353000Y-67437000D01*
X63353000Y-67183000D01*
X63373000Y-67183000D01*
X63373000Y-66040085D01*
X63627000Y-66040085D01*
X63627000Y-67183000D01*
X63647000Y-67183000D01*
X63647000Y-67437000D01*
X63627000Y-67437000D01*
X63627000Y-68579915D01*
X63849039Y-68701904D01*
X64237423Y-68541041D01*
X64652389Y-68165134D01*
X64755014Y-67948297D01*
X65025302Y-68352811D01*
X65490849Y-68663880D01*
X66040000Y-68773113D01*
X66589151Y-68663880D01*
X67054698Y-68352811D01*
X67365767Y-67887264D01*
X67475000Y-67338113D01*
X67475000Y-67281887D01*
X67365767Y-66732736D01*
X67054698Y-66267189D01*
X66589151Y-65956120D01*
X66040000Y-65846887D01*
X65490849Y-65956120D01*
X65025302Y-66267189D01*
X64755014Y-66671703D01*
X64652389Y-66454866D01*
X64237423Y-66078959D01*
X63849039Y-65918096D01*
X63627000Y-66040085D01*
X63373000Y-66040085D01*
X63150961Y-65918096D01*
X62762577Y-66078959D01*
X62389864Y-66416590D01*
X62363162Y-66274683D01*
X62224090Y-66058559D01*
X62011890Y-65913569D01*
X61760000Y-65862560D01*
X60160000Y-65862560D01*
X59924683Y-65906838D01*
X59708559Y-66045910D01*
X59563569Y-66258110D01*
X59512560Y-66510000D01*
X59512560Y-68110000D01*
X59556838Y-68345317D01*
X59695910Y-68561441D01*
X59908110Y-68706431D01*
X60160000Y-68757440D01*
X60200000Y-68757440D01*
X60200000Y-69535198D01*
X59152599Y-70582599D01*
X58987852Y-70829161D01*
X58930000Y-71120000D01*
X58930000Y-71151354D01*
X58878200Y-71172757D01*
X58474176Y-71576077D01*
X58255250Y-72103309D01*
X58254752Y-72674187D01*
X51510000Y-72674187D01*
X51510000Y-65532000D01*
X138990000Y-65532000D01*
X138990000Y-100893125D01*
X138990000Y-100893125D01*
G37*
X138990000Y-100893125D02*
X138549273Y-99826485D01*
X137668153Y-98943826D01*
X136516326Y-98465546D01*
X135269146Y-98464457D01*
X134116485Y-98940727D01*
X133233826Y-99821847D01*
X132755546Y-100973674D01*
X132754457Y-102220854D01*
X133230727Y-103373515D01*
X134111847Y-104256174D01*
X135180699Y-104700000D01*
X55316875Y-104700000D01*
X56383515Y-104259273D01*
X57266174Y-103378153D01*
X57744454Y-102226326D01*
X57745543Y-100979146D01*
X57269273Y-99826485D01*
X56388153Y-98943826D01*
X55236326Y-98465546D01*
X53989146Y-98464457D01*
X52836485Y-98940727D01*
X51953826Y-99821847D01*
X51510000Y-100890699D01*
X51510000Y-98460000D01*
X74722560Y-98460000D01*
X74722560Y-99660000D01*
X74766838Y-99895317D01*
X74905910Y-100111441D01*
X75118110Y-100256431D01*
X75370000Y-100307440D01*
X76570000Y-100307440D01*
X76805317Y-100263162D01*
X76932636Y-100181234D01*
X77301036Y-100307807D01*
X77791413Y-100277482D01*
X78103617Y-100148164D01*
X78153130Y-99922735D01*
X77470000Y-99239605D01*
X77455858Y-99253748D01*
X77276253Y-99074143D01*
X77290395Y-99060000D01*
X77649605Y-99060000D01*
X78332735Y-99743130D01*
X78558164Y-99693617D01*
X78717807Y-99228964D01*
X78687482Y-98738587D01*
X78558164Y-98426383D01*
X78332735Y-98376870D01*
X77649605Y-99060000D01*
X77290395Y-99060000D01*
X77276253Y-99045858D01*
X77455858Y-98866253D01*
X77470000Y-98880395D01*
X78153130Y-98197265D01*
X78103617Y-97971836D01*
X77638964Y-97812193D01*
X77148587Y-97842518D01*
X76926010Y-97934711D01*
X76821890Y-97863569D01*
X76570000Y-97812560D01*
X75370000Y-97812560D01*
X75134683Y-97856838D01*
X74918559Y-97995910D01*
X74773569Y-98208110D01*
X74722560Y-98460000D01*
X51510000Y-98460000D01*
X51510000Y-94339027D01*
X60775032Y-94339027D01*
X61023179Y-94868490D01*
X61455053Y-95262688D01*
X61870974Y-95434958D01*
X62103000Y-95313817D01*
X62103000Y-94107000D01*
X62357000Y-94107000D01*
X62357000Y-95313817D01*
X62589026Y-95434958D01*
X63004947Y-95262688D01*
X63436821Y-94868490D01*
X63500000Y-94733687D01*
X63563179Y-94868490D01*
X63995053Y-95262688D01*
X64410974Y-95434958D01*
X64643000Y-95313817D01*
X64643000Y-94107000D01*
X64897000Y-94107000D01*
X64897000Y-95313817D01*
X65129026Y-95434958D01*
X65544947Y-95262688D01*
X65976821Y-94868490D01*
X66224968Y-94339027D01*
X66104469Y-94107000D01*
X64897000Y-94107000D01*
X64643000Y-94107000D01*
X62357000Y-94107000D01*
X62103000Y-94107000D01*
X60895531Y-94107000D01*
X60775032Y-94339027D01*
X51510000Y-94339027D01*
X51510000Y-82956400D01*
X60718960Y-82956400D01*
X60718960Y-84683600D01*
X60763238Y-84918917D01*
X60902310Y-85135041D01*
X61114510Y-85280031D01*
X61158345Y-85288908D01*
X60845474Y-85757152D01*
X60731400Y-86330641D01*
X60731400Y-86389359D01*
X60845474Y-86962848D01*
X61170330Y-87449029D01*
X61441172Y-87630000D01*
X61170330Y-87810971D01*
X60845474Y-88297152D01*
X60731400Y-88870641D01*
X60731400Y-88929359D01*
X60845474Y-89502848D01*
X61170330Y-89989029D01*
X61441172Y-90170000D01*
X61170330Y-90350971D01*
X60845474Y-90837152D01*
X60731400Y-91410641D01*
X60731400Y-91469359D01*
X60845474Y-92042848D01*
X61170330Y-92529029D01*
X61441161Y-92709992D01*
X61023179Y-93091510D01*
X60775032Y-93620973D01*
X60895531Y-93853000D01*
X62103000Y-93853000D01*
X62103000Y-93833000D01*
X62357000Y-93833000D01*
X62357000Y-93853000D01*
X64643000Y-93853000D01*
X64643000Y-93833000D01*
X64897000Y-93833000D01*
X64897000Y-93853000D01*
X66104469Y-93853000D01*
X66224968Y-93620973D01*
X65976821Y-93091510D01*
X65558839Y-92709992D01*
X65829670Y-92529029D01*
X66049520Y-92200000D01*
X73980198Y-92200000D01*
X76932599Y-95152401D01*
X77179161Y-95317148D01*
X77470000Y-95375000D01*
X84154890Y-95375000D01*
X84154838Y-95435167D01*
X84289056Y-95760000D01*
X72704802Y-95760000D01*
X72055122Y-95110320D01*
X72055162Y-95064833D01*
X71913117Y-94721057D01*
X71650327Y-94457808D01*
X71306799Y-94315162D01*
X70934833Y-94314838D01*
X70591057Y-94456883D01*
X70327808Y-94719673D01*
X70185162Y-95063201D01*
X70184838Y-95435167D01*
X70326883Y-95778943D01*
X70589673Y-96042192D01*
X70933201Y-96184838D01*
X70980077Y-96184879D01*
X71852599Y-97057401D01*
X72099160Y-97222148D01*
X72390000Y-97280000D01*
X81614890Y-97280000D01*
X81614838Y-97340167D01*
X81756883Y-97683943D01*
X82019673Y-97947192D01*
X82363201Y-98089838D01*
X82735167Y-98090162D01*
X83078943Y-97948117D01*
X83112118Y-97915000D01*
X84862174Y-97915000D01*
X84812560Y-98160000D01*
X84812560Y-99960000D01*
X84856838Y-100195317D01*
X84995910Y-100411441D01*
X85208110Y-100556431D01*
X85460000Y-100607440D01*
X85729080Y-100607440D01*
X85822599Y-100747401D01*
X88482599Y-103407401D01*
X88729161Y-103572148D01*
X89020000Y-103630000D01*
X95440000Y-103630000D01*
X95730839Y-103572148D01*
X95977401Y-103407401D01*
X99176975Y-100207827D01*
X99248110Y-100256431D01*
X99500000Y-100307440D01*
X100700000Y-100307440D01*
X100935317Y-100263162D01*
X101062636Y-100181234D01*
X101431036Y-100307807D01*
X101921413Y-100277482D01*
X102233617Y-100148164D01*
X102283130Y-99922735D01*
X101600000Y-99239605D01*
X101585858Y-99253748D01*
X101406253Y-99074143D01*
X101420395Y-99060000D01*
X101779605Y-99060000D01*
X102462735Y-99743130D01*
X102688164Y-99693617D01*
X102847807Y-99228964D01*
X102817482Y-98738587D01*
X102688164Y-98426383D01*
X102462735Y-98376870D01*
X101779605Y-99060000D01*
X101420395Y-99060000D01*
X101406253Y-99045858D01*
X101585858Y-98866253D01*
X101600000Y-98880395D01*
X102283130Y-98197265D01*
X102233617Y-97971836D01*
X101768964Y-97812193D01*
X101278587Y-97842518D01*
X101056010Y-97934711D01*
X100951890Y-97863569D01*
X100700000Y-97812560D01*
X99500000Y-97812560D01*
X99264683Y-97856838D01*
X99048559Y-97995910D01*
X98903569Y-98208110D01*
X98859801Y-98424242D01*
X98712599Y-98522599D01*
X95125198Y-102110000D01*
X89334802Y-102110000D01*
X87673382Y-100448580D01*
X87711441Y-100424090D01*
X87856431Y-100211890D01*
X87866766Y-100160854D01*
X87992424Y-100297966D01*
X88535258Y-100551046D01*
X88773000Y-100430997D01*
X88773000Y-99187000D01*
X88753000Y-99187000D01*
X88753000Y-98933000D01*
X88773000Y-98933000D01*
X88773000Y-98913000D01*
X89027000Y-98913000D01*
X89027000Y-98933000D01*
X89047000Y-98933000D01*
X89047000Y-99187000D01*
X89027000Y-99187000D01*
X89027000Y-100430997D01*
X89264742Y-100551046D01*
X89807576Y-100297966D01*
X90165499Y-99907418D01*
X90324519Y-100145409D01*
X90822509Y-100478155D01*
X91409928Y-100595000D01*
X91470072Y-100595000D01*
X92057491Y-100478155D01*
X92555481Y-100145409D01*
X92772912Y-99820000D01*
X95250000Y-99820000D01*
X95540839Y-99762148D01*
X95787401Y-99597401D01*
X97929680Y-97455122D01*
X97975167Y-97455162D01*
X98318943Y-97313117D01*
X98582192Y-97050327D01*
X98724838Y-96706799D01*
X98724892Y-96645000D01*
X105482537Y-96645000D01*
X105514673Y-96677192D01*
X105858201Y-96819838D01*
X106230167Y-96820162D01*
X106573943Y-96678117D01*
X106837192Y-96415327D01*
X106979838Y-96071799D01*
X106980162Y-95699833D01*
X106838117Y-95356057D01*
X106575327Y-95092808D01*
X106231799Y-94950162D01*
X105859833Y-94949838D01*
X105516057Y-95091883D01*
X105482882Y-95125000D01*
X101529802Y-95125000D01*
X102315775Y-94339027D01*
X111575032Y-94339027D01*
X111823179Y-94868490D01*
X112255053Y-95262688D01*
X112670974Y-95434958D01*
X112903000Y-95313817D01*
X112903000Y-94107000D01*
X113157000Y-94107000D01*
X113157000Y-95313817D01*
X113389026Y-95434958D01*
X113804947Y-95262688D01*
X114236821Y-94868490D01*
X114300000Y-94733687D01*
X114363179Y-94868490D01*
X114795053Y-95262688D01*
X115210974Y-95434958D01*
X115443000Y-95313817D01*
X115443000Y-94107000D01*
X115697000Y-94107000D01*
X115697000Y-95313817D01*
X115929026Y-95434958D01*
X116344947Y-95262688D01*
X116776821Y-94868490D01*
X117024968Y-94339027D01*
X116904469Y-94107000D01*
X115697000Y-94107000D01*
X115443000Y-94107000D01*
X113157000Y-94107000D01*
X112903000Y-94107000D01*
X111695531Y-94107000D01*
X111575032Y-94339027D01*
X102315775Y-94339027D01*
X104454802Y-92200000D01*
X111750480Y-92200000D01*
X111970330Y-92529029D01*
X112241161Y-92709992D01*
X111823179Y-93091510D01*
X111575032Y-93620973D01*
X111695531Y-93853000D01*
X112903000Y-93853000D01*
X112903000Y-93833000D01*
X113157000Y-93833000D01*
X113157000Y-93853000D01*
X115443000Y-93853000D01*
X115443000Y-93833000D01*
X115697000Y-93833000D01*
X115697000Y-93853000D01*
X116904469Y-93853000D01*
X117024968Y-93620973D01*
X116776821Y-93091510D01*
X116358839Y-92709992D01*
X116629670Y-92529029D01*
X116954526Y-92042848D01*
X117068600Y-91469359D01*
X117068600Y-91410641D01*
X116954526Y-90837152D01*
X116629670Y-90350971D01*
X116358828Y-90170000D01*
X116629670Y-89989029D01*
X116954526Y-89502848D01*
X117068600Y-88929359D01*
X117068600Y-88870641D01*
X116954526Y-88297152D01*
X116629670Y-87810971D01*
X116358828Y-87630000D01*
X116629670Y-87449029D01*
X116954526Y-86962848D01*
X117068600Y-86389359D01*
X117068600Y-86330641D01*
X116954526Y-85757152D01*
X116629670Y-85270971D01*
X116358828Y-85090000D01*
X116629670Y-84909029D01*
X116954526Y-84422848D01*
X117068600Y-83849359D01*
X117068600Y-83790641D01*
X116954526Y-83217152D01*
X116629670Y-82730971D01*
X116143489Y-82406115D01*
X115570000Y-82292041D01*
X114996511Y-82406115D01*
X114510330Y-82730971D01*
X114501195Y-82744642D01*
X114496762Y-82721083D01*
X114357690Y-82504959D01*
X114145490Y-82359969D01*
X113893600Y-82308960D01*
X112166400Y-82308960D01*
X111931083Y-82353238D01*
X111714959Y-82492310D01*
X111569969Y-82704510D01*
X111518960Y-82956400D01*
X111518960Y-84683600D01*
X111563238Y-84918917D01*
X111702310Y-85135041D01*
X111914510Y-85280031D01*
X111958345Y-85288908D01*
X111750480Y-85600000D01*
X102235000Y-85600000D01*
X101944160Y-85657852D01*
X101697599Y-85822599D01*
X97475198Y-90045000D01*
X84755110Y-90045000D01*
X84755162Y-89984833D01*
X84620944Y-89660000D01*
X90877537Y-89660000D01*
X90909673Y-89692192D01*
X91253201Y-89834838D01*
X91625167Y-89835162D01*
X91968943Y-89693117D01*
X92232192Y-89430327D01*
X92374838Y-89086799D01*
X92375162Y-88714833D01*
X92240944Y-88390000D01*
X93417537Y-88390000D01*
X93449673Y-88422192D01*
X93793201Y-88564838D01*
X94165167Y-88565162D01*
X94508943Y-88423117D01*
X94772192Y-88160327D01*
X94914838Y-87816799D01*
X94915162Y-87444833D01*
X94773117Y-87101057D01*
X94510327Y-86837808D01*
X94166799Y-86695162D01*
X93794833Y-86694838D01*
X93451057Y-86836883D01*
X93417882Y-86870000D01*
X75492463Y-86870000D01*
X75460327Y-86837808D01*
X75116799Y-86695162D01*
X74744833Y-86694838D01*
X74401057Y-86836883D01*
X74171171Y-87066369D01*
X72927401Y-85822599D01*
X72680839Y-85657852D01*
X72390000Y-85600000D01*
X66049520Y-85600000D01*
X65941971Y-85439041D01*
X78618086Y-85439041D01*
X78857611Y-85945134D01*
X79272577Y-86321041D01*
X79660961Y-86481904D01*
X79883000Y-86359915D01*
X79883000Y-85217000D01*
X78739371Y-85217000D01*
X78618086Y-85439041D01*
X65941971Y-85439041D01*
X65829670Y-85270971D01*
X65558828Y-85090000D01*
X65829670Y-84909029D01*
X66049520Y-84580000D01*
X69287537Y-84580000D01*
X69319673Y-84612192D01*
X69663201Y-84754838D01*
X70035167Y-84755162D01*
X70069540Y-84740959D01*
X78618086Y-84740959D01*
X78739371Y-84963000D01*
X79883000Y-84963000D01*
X79883000Y-83820085D01*
X80137000Y-83820085D01*
X80137000Y-84963000D01*
X80157000Y-84963000D01*
X80157000Y-85217000D01*
X80137000Y-85217000D01*
X80137000Y-86359915D01*
X80359039Y-86481904D01*
X80747423Y-86321041D01*
X81162389Y-85945134D01*
X81265014Y-85728297D01*
X81535302Y-86132811D01*
X82000849Y-86443880D01*
X82550000Y-86553113D01*
X83099151Y-86443880D01*
X83564698Y-86132811D01*
X83820000Y-85750725D01*
X84075302Y-86132811D01*
X84540849Y-86443880D01*
X85090000Y-86553113D01*
X85639151Y-86443880D01*
X86104698Y-86132811D01*
X86360000Y-85750725D01*
X86615302Y-86132811D01*
X87080849Y-86443880D01*
X87630000Y-86553113D01*
X88179151Y-86443880D01*
X88644698Y-86132811D01*
X88900000Y-85750725D01*
X89155302Y-86132811D01*
X89620849Y-86443880D01*
X90170000Y-86553113D01*
X90719151Y-86443880D01*
X91184698Y-86132811D01*
X91440000Y-85750725D01*
X91695302Y-86132811D01*
X92160849Y-86443880D01*
X92710000Y-86553113D01*
X93259151Y-86443880D01*
X93724698Y-86132811D01*
X93980000Y-85750725D01*
X94235302Y-86132811D01*
X94700849Y-86443880D01*
X95250000Y-86553113D01*
X95799151Y-86443880D01*
X96264698Y-86132811D01*
X96361101Y-85988535D01*
X96386838Y-86125317D01*
X96525910Y-86341441D01*
X96738110Y-86486431D01*
X96990000Y-86537440D01*
X98590000Y-86537440D01*
X98825317Y-86493162D01*
X99041441Y-86354090D01*
X99186431Y-86141890D01*
X99237440Y-85890000D01*
X99237440Y-84290000D01*
X99193162Y-84054683D01*
X99054090Y-83838559D01*
X98841890Y-83693569D01*
X98590000Y-83642560D01*
X96990000Y-83642560D01*
X96754683Y-83686838D01*
X96538559Y-83825910D01*
X96393569Y-84038110D01*
X96362185Y-84193089D01*
X96264698Y-84047189D01*
X95799151Y-83736120D01*
X95250000Y-83626887D01*
X94700849Y-83736120D01*
X94235302Y-84047189D01*
X93980000Y-84429275D01*
X93724698Y-84047189D01*
X93259151Y-83736120D01*
X92710000Y-83626887D01*
X92160849Y-83736120D01*
X91695302Y-84047189D01*
X91440000Y-84429275D01*
X91184698Y-84047189D01*
X91084538Y-83980264D01*
X91754802Y-83310000D01*
X107387537Y-83310000D01*
X107419673Y-83342192D01*
X107763201Y-83484838D01*
X108135167Y-83485162D01*
X108478943Y-83343117D01*
X108742192Y-83080327D01*
X108884838Y-82736799D01*
X108885162Y-82364833D01*
X108743117Y-82021057D01*
X108480327Y-81757808D01*
X108136799Y-81615162D01*
X107764833Y-81614838D01*
X107421057Y-81756883D01*
X107387882Y-81790000D01*
X99860633Y-81790000D01*
X99994838Y-81466799D01*
X99995162Y-81094833D01*
X99853117Y-80751057D01*
X99590327Y-80487808D01*
X99246799Y-80345162D01*
X98874833Y-80344838D01*
X98531057Y-80486883D01*
X98497882Y-80520000D01*
X83788646Y-80520000D01*
X83767243Y-80468200D01*
X83363923Y-80064176D01*
X82836691Y-79845250D01*
X82265813Y-79844752D01*
X81738200Y-80062757D01*
X81334176Y-80466077D01*
X81306577Y-80532544D01*
X81303864Y-80525995D01*
X81057745Y-80451861D01*
X80229605Y-81280000D01*
X81057745Y-82108139D01*
X81303864Y-82034005D01*
X81306196Y-82027517D01*
X81332757Y-82091800D01*
X81736077Y-82495824D01*
X82263309Y-82714750D01*
X82834187Y-82715248D01*
X83361800Y-82497243D01*
X83765824Y-82093923D01*
X83788215Y-82040000D01*
X90875198Y-82040000D01*
X89632599Y-83282599D01*
X89467852Y-83529161D01*
X89410000Y-83820000D01*
X89410000Y-83877005D01*
X89155302Y-84047189D01*
X88900000Y-84429275D01*
X88644698Y-84047189D01*
X88179151Y-83736120D01*
X87630000Y-83626887D01*
X87080849Y-83736120D01*
X86615302Y-84047189D01*
X86360000Y-84429275D01*
X86104698Y-84047189D01*
X85639151Y-83736120D01*
X85090000Y-83626887D01*
X84540849Y-83736120D01*
X84075302Y-84047189D01*
X83820000Y-84429275D01*
X83564698Y-84047189D01*
X83099151Y-83736120D01*
X82550000Y-83626887D01*
X82000849Y-83736120D01*
X81535302Y-84047189D01*
X81265014Y-84451703D01*
X81162389Y-84234866D01*
X80747423Y-83858959D01*
X80359039Y-83698096D01*
X80137000Y-83820085D01*
X79883000Y-83820085D01*
X79660961Y-83698096D01*
X79272577Y-83858959D01*
X78857611Y-84234866D01*
X78618086Y-84740959D01*
X70069540Y-84740959D01*
X70378943Y-84613117D01*
X70642192Y-84350327D01*
X70784838Y-84006799D01*
X70785162Y-83634833D01*
X70643117Y-83291057D01*
X70380327Y-83027808D01*
X70036799Y-82885162D01*
X69664833Y-82884838D01*
X69321057Y-83026883D01*
X69287882Y-83060000D01*
X66049520Y-83060000D01*
X65829670Y-82730971D01*
X65343489Y-82406115D01*
X64770000Y-82292041D01*
X64196511Y-82406115D01*
X63710330Y-82730971D01*
X63701195Y-82744642D01*
X63696762Y-82721083D01*
X63557690Y-82504959D01*
X63345490Y-82359969D01*
X63093600Y-82308960D01*
X61366400Y-82308960D01*
X61131083Y-82353238D01*
X60914959Y-82492310D01*
X60769969Y-82704510D01*
X60718960Y-82956400D01*
X51510000Y-82956400D01*
X51510000Y-82287745D01*
X79221861Y-82287745D01*
X79295995Y-82533864D01*
X79833223Y-82726965D01*
X80403454Y-82699778D01*
X80804005Y-82533864D01*
X80878139Y-82287745D01*
X80050000Y-81459605D01*
X79221861Y-82287745D01*
X51510000Y-82287745D01*
X51510000Y-81063223D01*
X78603035Y-81063223D01*
X78630222Y-81633454D01*
X78796136Y-82034005D01*
X79042255Y-82108139D01*
X79870395Y-81280000D01*
X79042255Y-80451861D01*
X78796136Y-80525995D01*
X78603035Y-81063223D01*
X51510000Y-81063223D01*
X51510000Y-80272255D01*
X79221861Y-80272255D01*
X80050000Y-81100395D01*
X80878139Y-80272255D01*
X80804005Y-80026136D01*
X80266777Y-79833035D01*
X79696546Y-79860222D01*
X79295995Y-80026136D01*
X79221861Y-80272255D01*
X51510000Y-80272255D01*
X51510000Y-72674187D01*
X58254752Y-72674187D01*
X58472757Y-73201800D01*
X58876077Y-73605824D01*
X59403309Y-73824750D01*
X59974187Y-73825248D01*
X60501800Y-73607243D01*
X60905824Y-73203923D01*
X61124750Y-72676691D01*
X61125000Y-72390000D01*
X65846887Y-72390000D01*
X65956120Y-72939151D01*
X66267189Y-73404698D01*
X66732736Y-73715767D01*
X67281887Y-73825000D01*
X67338113Y-73825000D01*
X67887264Y-73715767D01*
X68352811Y-73404698D01*
X68663880Y-72939151D01*
X68716584Y-72674187D01*
X70954752Y-72674187D01*
X71172757Y-73201800D01*
X71576077Y-73605824D01*
X72103309Y-73824750D01*
X72674187Y-73825248D01*
X73201800Y-73607243D01*
X73605824Y-73203923D01*
X73824750Y-72676691D01*
X73825000Y-72390000D01*
X78546887Y-72390000D01*
X78656120Y-72939151D01*
X78967189Y-73404698D01*
X79432736Y-73715767D01*
X79981887Y-73825000D01*
X80038113Y-73825000D01*
X80587264Y-73715767D01*
X81052811Y-73404698D01*
X81119736Y-73304538D01*
X83282599Y-75467401D01*
X83529160Y-75632148D01*
X83577414Y-75641746D01*
X83820000Y-75690000D01*
X93179367Y-75690000D01*
X93045162Y-76013201D01*
X93044838Y-76385167D01*
X93186883Y-76728943D01*
X93449673Y-76992192D01*
X93793201Y-77134838D01*
X94165167Y-77135162D01*
X94508943Y-76993117D01*
X94542118Y-76960000D01*
X101600000Y-76960000D01*
X101890839Y-76902148D01*
X102137401Y-76737401D01*
X105104898Y-73769904D01*
X105381887Y-73825000D01*
X105438113Y-73825000D01*
X105987264Y-73715767D01*
X106452811Y-73404698D01*
X106763880Y-72939151D01*
X106816584Y-72674187D01*
X109054752Y-72674187D01*
X109272757Y-73201800D01*
X109676077Y-73605824D01*
X110203309Y-73824750D01*
X110774187Y-73825248D01*
X111301800Y-73607243D01*
X111705824Y-73203923D01*
X111924750Y-72676691D01*
X111925000Y-72390000D01*
X116646887Y-72390000D01*
X116756120Y-72939151D01*
X117067189Y-73404698D01*
X117532736Y-73715767D01*
X118081887Y-73825000D01*
X118138113Y-73825000D01*
X118687264Y-73715767D01*
X119152811Y-73404698D01*
X119463880Y-72939151D01*
X119573113Y-72390000D01*
X119463880Y-71840849D01*
X119152811Y-71375302D01*
X118687264Y-71064233D01*
X118138113Y-70955000D01*
X118081887Y-70955000D01*
X117532736Y-71064233D01*
X117067189Y-71375302D01*
X116756120Y-71840849D01*
X116646887Y-72390000D01*
X111925000Y-72390000D01*
X111925248Y-72105813D01*
X111707243Y-71578200D01*
X111407184Y-71277618D01*
X112297401Y-70387401D01*
X112462148Y-70140840D01*
X112520000Y-69850000D01*
X112520000Y-68757440D01*
X112560000Y-68757440D01*
X112795317Y-68713162D01*
X113011441Y-68574090D01*
X113156431Y-68361890D01*
X113188732Y-68202384D01*
X113562577Y-68541041D01*
X113950961Y-68701904D01*
X114173000Y-68579915D01*
X114173000Y-67437000D01*
X114153000Y-67437000D01*
X114153000Y-67183000D01*
X114173000Y-67183000D01*
X114173000Y-66040085D01*
X114427000Y-66040085D01*
X114427000Y-67183000D01*
X114447000Y-67183000D01*
X114447000Y-67437000D01*
X114427000Y-67437000D01*
X114427000Y-68579915D01*
X114649039Y-68701904D01*
X115037423Y-68541041D01*
X115452389Y-68165134D01*
X115555014Y-67948297D01*
X115825302Y-68352811D01*
X116290849Y-68663880D01*
X116840000Y-68773113D01*
X117389151Y-68663880D01*
X117854698Y-68352811D01*
X118165767Y-67887264D01*
X118275000Y-67338113D01*
X118275000Y-67281887D01*
X118165767Y-66732736D01*
X117854698Y-66267189D01*
X117389151Y-65956120D01*
X116840000Y-65846887D01*
X116290849Y-65956120D01*
X115825302Y-66267189D01*
X115555014Y-66671703D01*
X115452389Y-66454866D01*
X115037423Y-66078959D01*
X114649039Y-65918096D01*
X114427000Y-66040085D01*
X114173000Y-66040085D01*
X113950961Y-65918096D01*
X113562577Y-66078959D01*
X113189864Y-66416590D01*
X113163162Y-66274683D01*
X113024090Y-66058559D01*
X112811890Y-65913569D01*
X112560000Y-65862560D01*
X110960000Y-65862560D01*
X110724683Y-65906838D01*
X110508559Y-66045910D01*
X110363569Y-66258110D01*
X110312560Y-66510000D01*
X110312560Y-68110000D01*
X110356838Y-68345317D01*
X110495910Y-68561441D01*
X110708110Y-68706431D01*
X110960000Y-68757440D01*
X111000000Y-68757440D01*
X111000000Y-69535198D01*
X109952599Y-70582599D01*
X109787852Y-70829161D01*
X109730000Y-71120000D01*
X109730000Y-71151354D01*
X109678200Y-71172757D01*
X109274176Y-71576077D01*
X109055250Y-72103309D01*
X109054752Y-72674187D01*
X106816584Y-72674187D01*
X106873113Y-72390000D01*
X106763880Y-71840849D01*
X106452811Y-71375302D01*
X105987264Y-71064233D01*
X105438113Y-70955000D01*
X105381887Y-70955000D01*
X104832736Y-71064233D01*
X104367189Y-71375302D01*
X104056120Y-71840849D01*
X103946887Y-72390000D01*
X104011312Y-72713886D01*
X101285198Y-75440000D01*
X97320633Y-75440000D01*
X97454838Y-75116799D01*
X97455162Y-74744833D01*
X97313117Y-74401057D01*
X97050327Y-74137808D01*
X96706799Y-73995162D01*
X96334833Y-73994838D01*
X95991057Y-74136883D01*
X95957882Y-74170000D01*
X84134802Y-74170000D01*
X82638989Y-72674187D01*
X83654752Y-72674187D01*
X83872757Y-73201800D01*
X84276077Y-73605824D01*
X84803309Y-73824750D01*
X85374187Y-73825248D01*
X85901800Y-73607243D01*
X86305824Y-73203923D01*
X86524750Y-72676691D01*
X86525000Y-72390000D01*
X91246887Y-72390000D01*
X91356120Y-72939151D01*
X91667189Y-73404698D01*
X92132736Y-73715767D01*
X92681887Y-73825000D01*
X92738113Y-73825000D01*
X93287264Y-73715767D01*
X93752811Y-73404698D01*
X94063880Y-72939151D01*
X94116584Y-72674187D01*
X96354752Y-72674187D01*
X96572757Y-73201800D01*
X96976077Y-73605824D01*
X97503309Y-73824750D01*
X98074187Y-73825248D01*
X98601800Y-73607243D01*
X99005824Y-73203923D01*
X99224750Y-72676691D01*
X99225248Y-72105813D01*
X99007243Y-71578200D01*
X98707184Y-71277618D01*
X99597401Y-70387401D01*
X99762148Y-70140840D01*
X99820000Y-69850000D01*
X99820000Y-68757440D01*
X99860000Y-68757440D01*
X100095317Y-68713162D01*
X100311441Y-68574090D01*
X100456431Y-68361890D01*
X100488732Y-68202384D01*
X100862577Y-68541041D01*
X101250961Y-68701904D01*
X101473000Y-68579915D01*
X101473000Y-67437000D01*
X101453000Y-67437000D01*
X101453000Y-67183000D01*
X101473000Y-67183000D01*
X101473000Y-66040085D01*
X101727000Y-66040085D01*
X101727000Y-67183000D01*
X101747000Y-67183000D01*
X101747000Y-67437000D01*
X101727000Y-67437000D01*
X101727000Y-68579915D01*
X101949039Y-68701904D01*
X102337423Y-68541041D01*
X102752389Y-68165134D01*
X102855014Y-67948297D01*
X103125302Y-68352811D01*
X103590849Y-68663880D01*
X104140000Y-68773113D01*
X104689151Y-68663880D01*
X105154698Y-68352811D01*
X105465767Y-67887264D01*
X105575000Y-67338113D01*
X105575000Y-67281887D01*
X105465767Y-66732736D01*
X105154698Y-66267189D01*
X104689151Y-65956120D01*
X104140000Y-65846887D01*
X103590849Y-65956120D01*
X103125302Y-66267189D01*
X102855014Y-66671703D01*
X102752389Y-66454866D01*
X102337423Y-66078959D01*
X101949039Y-65918096D01*
X101727000Y-66040085D01*
X101473000Y-66040085D01*
X101250961Y-65918096D01*
X100862577Y-66078959D01*
X100489864Y-66416590D01*
X100463162Y-66274683D01*
X100324090Y-66058559D01*
X100111890Y-65913569D01*
X99860000Y-65862560D01*
X98260000Y-65862560D01*
X98024683Y-65906838D01*
X97808559Y-66045910D01*
X97663569Y-66258110D01*
X97612560Y-66510000D01*
X97612560Y-68110000D01*
X97656838Y-68345317D01*
X97795910Y-68561441D01*
X98008110Y-68706431D01*
X98260000Y-68757440D01*
X98300000Y-68757440D01*
X98300000Y-69535198D01*
X97252599Y-70582599D01*
X97087852Y-70829161D01*
X97030000Y-71120000D01*
X97030000Y-71151354D01*
X96978200Y-71172757D01*
X96574176Y-71576077D01*
X96355250Y-72103309D01*
X96354752Y-72674187D01*
X94116584Y-72674187D01*
X94173113Y-72390000D01*
X94063880Y-71840849D01*
X93752811Y-71375302D01*
X93287264Y-71064233D01*
X92738113Y-70955000D01*
X92681887Y-70955000D01*
X92132736Y-71064233D01*
X91667189Y-71375302D01*
X91356120Y-71840849D01*
X91246887Y-72390000D01*
X86525000Y-72390000D01*
X86525248Y-72105813D01*
X86307243Y-71578200D01*
X86007184Y-71277618D01*
X86897401Y-70387401D01*
X87062148Y-70140840D01*
X87120000Y-69850000D01*
X87120000Y-68757440D01*
X87160000Y-68757440D01*
X87395317Y-68713162D01*
X87611441Y-68574090D01*
X87756431Y-68361890D01*
X87788732Y-68202384D01*
X88162577Y-68541041D01*
X88550961Y-68701904D01*
X88773000Y-68579915D01*
X88773000Y-67437000D01*
X88753000Y-67437000D01*
X88753000Y-67183000D01*
X88773000Y-67183000D01*
X88773000Y-66040085D01*
X89027000Y-66040085D01*
X89027000Y-67183000D01*
X89047000Y-67183000D01*
X89047000Y-67437000D01*
X89027000Y-67437000D01*
X89027000Y-68579915D01*
X89249039Y-68701904D01*
X89637423Y-68541041D01*
X90052389Y-68165134D01*
X90155014Y-67948297D01*
X90425302Y-68352811D01*
X90890849Y-68663880D01*
X91440000Y-68773113D01*
X91989151Y-68663880D01*
X92454698Y-68352811D01*
X92765767Y-67887264D01*
X92875000Y-67338113D01*
X92875000Y-67281887D01*
X92765767Y-66732736D01*
X92454698Y-66267189D01*
X91989151Y-65956120D01*
X91440000Y-65846887D01*
X90890849Y-65956120D01*
X90425302Y-66267189D01*
X90155014Y-66671703D01*
X90052389Y-66454866D01*
X89637423Y-66078959D01*
X89249039Y-65918096D01*
X89027000Y-66040085D01*
X88773000Y-66040085D01*
X88550961Y-65918096D01*
X88162577Y-66078959D01*
X87789864Y-66416590D01*
X87763162Y-66274683D01*
X87624090Y-66058559D01*
X87411890Y-65913569D01*
X87160000Y-65862560D01*
X85560000Y-65862560D01*
X85324683Y-65906838D01*
X85108559Y-66045910D01*
X84963569Y-66258110D01*
X84912560Y-66510000D01*
X84912560Y-68110000D01*
X84956838Y-68345317D01*
X85095910Y-68561441D01*
X85308110Y-68706431D01*
X85560000Y-68757440D01*
X85600000Y-68757440D01*
X85600000Y-69535198D01*
X84552599Y-70582599D01*
X84387852Y-70829161D01*
X84330000Y-71120000D01*
X84330000Y-71151354D01*
X84278200Y-71172757D01*
X83874176Y-71576077D01*
X83655250Y-72103309D01*
X83654752Y-72674187D01*
X82638989Y-72674187D01*
X81817401Y-71852599D01*
X81570839Y-71687852D01*
X81280000Y-71630000D01*
X81222995Y-71630000D01*
X81052811Y-71375302D01*
X80587264Y-71064233D01*
X80038113Y-70955000D01*
X79981887Y-70955000D01*
X79432736Y-71064233D01*
X78967189Y-71375302D01*
X78656120Y-71840849D01*
X78546887Y-72390000D01*
X73825000Y-72390000D01*
X73825248Y-72105813D01*
X73607243Y-71578200D01*
X73307184Y-71277618D01*
X74197401Y-70387401D01*
X74362148Y-70140840D01*
X74420000Y-69850000D01*
X74420000Y-68757440D01*
X74460000Y-68757440D01*
X74695317Y-68713162D01*
X74911441Y-68574090D01*
X75056431Y-68361890D01*
X75088732Y-68202384D01*
X75462577Y-68541041D01*
X75850961Y-68701904D01*
X76073000Y-68579915D01*
X76073000Y-67437000D01*
X76053000Y-67437000D01*
X76053000Y-67183000D01*
X76073000Y-67183000D01*
X76073000Y-66040085D01*
X76327000Y-66040085D01*
X76327000Y-67183000D01*
X76347000Y-67183000D01*
X76347000Y-67437000D01*
X76327000Y-67437000D01*
X76327000Y-68579915D01*
X76549039Y-68701904D01*
X76937423Y-68541041D01*
X77352389Y-68165134D01*
X77455014Y-67948297D01*
X77725302Y-68352811D01*
X78190849Y-68663880D01*
X78740000Y-68773113D01*
X79289151Y-68663880D01*
X79754698Y-68352811D01*
X80065767Y-67887264D01*
X80175000Y-67338113D01*
X80175000Y-67281887D01*
X80065767Y-66732736D01*
X79754698Y-66267189D01*
X79289151Y-65956120D01*
X78740000Y-65846887D01*
X78190849Y-65956120D01*
X77725302Y-66267189D01*
X77455014Y-66671703D01*
X77352389Y-66454866D01*
X76937423Y-66078959D01*
X76549039Y-65918096D01*
X76327000Y-66040085D01*
X76073000Y-66040085D01*
X75850961Y-65918096D01*
X75462577Y-66078959D01*
X75089864Y-66416590D01*
X75063162Y-66274683D01*
X74924090Y-66058559D01*
X74711890Y-65913569D01*
X74460000Y-65862560D01*
X72860000Y-65862560D01*
X72624683Y-65906838D01*
X72408559Y-66045910D01*
X72263569Y-66258110D01*
X72212560Y-66510000D01*
X72212560Y-68110000D01*
X72256838Y-68345317D01*
X72395910Y-68561441D01*
X72608110Y-68706431D01*
X72860000Y-68757440D01*
X72900000Y-68757440D01*
X72900000Y-69535198D01*
X71852599Y-70582599D01*
X71687852Y-70829161D01*
X71630000Y-71120000D01*
X71630000Y-71151354D01*
X71578200Y-71172757D01*
X71174176Y-71576077D01*
X70955250Y-72103309D01*
X70954752Y-72674187D01*
X68716584Y-72674187D01*
X68773113Y-72390000D01*
X68663880Y-71840849D01*
X68352811Y-71375302D01*
X67887264Y-71064233D01*
X67338113Y-70955000D01*
X67281887Y-70955000D01*
X66732736Y-71064233D01*
X66267189Y-71375302D01*
X65956120Y-71840849D01*
X65846887Y-72390000D01*
X61125000Y-72390000D01*
X61125248Y-72105813D01*
X60907243Y-71578200D01*
X60607184Y-71277618D01*
X61497401Y-70387401D01*
X61662148Y-70140840D01*
X61720000Y-69850000D01*
X61720000Y-68757440D01*
X61760000Y-68757440D01*
X61995317Y-68713162D01*
X62211441Y-68574090D01*
X62356431Y-68361890D01*
X62388732Y-68202384D01*
X62762577Y-68541041D01*
X63150961Y-68701904D01*
X63373000Y-68579915D01*
X63373000Y-67437000D01*
X63353000Y-67437000D01*
X63353000Y-67183000D01*
X63373000Y-67183000D01*
X63373000Y-66040085D01*
X63627000Y-66040085D01*
X63627000Y-67183000D01*
X63647000Y-67183000D01*
X63647000Y-67437000D01*
X63627000Y-67437000D01*
X63627000Y-68579915D01*
X63849039Y-68701904D01*
X64237423Y-68541041D01*
X64652389Y-68165134D01*
X64755014Y-67948297D01*
X65025302Y-68352811D01*
X65490849Y-68663880D01*
X66040000Y-68773113D01*
X66589151Y-68663880D01*
X67054698Y-68352811D01*
X67365767Y-67887264D01*
X67475000Y-67338113D01*
X67475000Y-67281887D01*
X67365767Y-66732736D01*
X67054698Y-66267189D01*
X66589151Y-65956120D01*
X66040000Y-65846887D01*
X65490849Y-65956120D01*
X65025302Y-66267189D01*
X64755014Y-66671703D01*
X64652389Y-66454866D01*
X64237423Y-66078959D01*
X63849039Y-65918096D01*
X63627000Y-66040085D01*
X63373000Y-66040085D01*
X63150961Y-65918096D01*
X62762577Y-66078959D01*
X62389864Y-66416590D01*
X62363162Y-66274683D01*
X62224090Y-66058559D01*
X62011890Y-65913569D01*
X61760000Y-65862560D01*
X60160000Y-65862560D01*
X59924683Y-65906838D01*
X59708559Y-66045910D01*
X59563569Y-66258110D01*
X59512560Y-66510000D01*
X59512560Y-68110000D01*
X59556838Y-68345317D01*
X59695910Y-68561441D01*
X59908110Y-68706431D01*
X60160000Y-68757440D01*
X60200000Y-68757440D01*
X60200000Y-69535198D01*
X59152599Y-70582599D01*
X58987852Y-70829161D01*
X58930000Y-71120000D01*
X58930000Y-71151354D01*
X58878200Y-71172757D01*
X58474176Y-71576077D01*
X58255250Y-72103309D01*
X58254752Y-72674187D01*
X51510000Y-72674187D01*
X51510000Y-65532000D01*
X138990000Y-65532000D01*
X138990000Y-100893125D01*
G36*
X90297000Y-92583000D02*
X90317000Y-92583000D01*
X90317000Y-92837000D01*
X90297000Y-92837000D01*
X90297000Y-92857000D01*
X90043000Y-92857000D01*
X90043000Y-92837000D01*
X90023000Y-92837000D01*
X90023000Y-92583000D01*
X90043000Y-92583000D01*
X90043000Y-92563000D01*
X90297000Y-92563000D01*
X90297000Y-92583000D01*
X90297000Y-92583000D01*
G37*
X90297000Y-92583000D02*
X90317000Y-92583000D01*
X90317000Y-92837000D01*
X90297000Y-92837000D01*
X90297000Y-92857000D01*
X90043000Y-92857000D01*
X90043000Y-92837000D01*
X90023000Y-92837000D01*
X90023000Y-92583000D01*
X90043000Y-92583000D01*
X90043000Y-92563000D01*
X90297000Y-92563000D01*
X90297000Y-92583000D01*
M02*
