M48
;DRILL file {KiCad 4.0.5} date 09/05/17 09:18:48
;FORMAT={-:-/ absolute / metric / decimal}
FMAT,2
METRIC,TZ
T1C0.400
T2C0.600
T3C0.800
T4C1.000
T5C1.016
T6C1.300
T7C3.200
%
G90
G05
M71
T1
X69.85Y-83.82
X71.12Y-95.25
X74.93Y-87.63
X74.93Y-93.98
X82.55Y-97.155
X83.82Y-90.17
X85.09Y-95.25
X85.09Y-96.52
X86.995Y-95.885
X90.17Y-95.25
X91.44Y-88.9
X93.98Y-76.2
X93.98Y-87.63
X96.52Y-74.93
X97.79Y-96.52
X99.06Y-81.28
X106.045Y-95.885
X107.95Y-82.55
T2
X75.97Y-99.06
X77.47Y-99.06
X100.1Y-99.06
X101.6Y-99.06
T3
X59.69Y-72.39
X60.96Y-48.26
X60.96Y-55.88
X60.96Y-59.69
X60.96Y-67.31
X63.5Y-59.69
X63.5Y-67.31
X66.04Y-48.26
X66.04Y-55.88
X66.04Y-59.69
X66.04Y-67.31
X67.31Y-72.39
X72.39Y-72.39
X73.66Y-48.26
X73.66Y-55.88
X73.66Y-59.69
X73.66Y-67.31
X76.2Y-59.69
X76.2Y-67.31
X78.74Y-48.26
X78.74Y-55.88
X78.74Y-59.69
X78.74Y-67.31
X80.01Y-72.39
X80.01Y-85.09
X80.01Y-92.71
X80.05Y-81.28
X82.55Y-81.28
X82.55Y-85.09
X82.55Y-92.71
X85.09Y-72.39
X85.09Y-85.09
X85.09Y-92.71
X86.36Y-48.26
X86.36Y-55.88
X86.36Y-59.69
X86.36Y-67.31
X87.63Y-85.09
X87.63Y-92.71
X88.9Y-59.69
X88.9Y-67.31
X90.17Y-85.09
X90.17Y-92.71
X91.44Y-48.26
X91.44Y-55.88
X91.44Y-59.69
X91.44Y-67.31
X92.71Y-72.39
X92.71Y-85.09
X92.71Y-92.71
X95.25Y-85.09
X95.25Y-92.71
X97.79Y-72.39
X97.79Y-85.09
X97.79Y-92.71
X99.06Y-48.26
X99.06Y-55.88
X99.06Y-59.69
X99.06Y-67.31
X101.6Y-59.69
X101.6Y-67.31
X104.14Y-48.26
X104.14Y-55.88
X104.14Y-59.69
X104.14Y-67.31
X105.41Y-72.39
X110.49Y-72.39
X111.76Y-48.26
X111.76Y-55.88
X111.76Y-59.69
X111.76Y-67.31
X114.3Y-59.69
X114.3Y-67.31
X116.84Y-48.26
X116.84Y-55.88
X116.84Y-59.69
X116.84Y-67.31
X118.11Y-72.39
T4
X60.96Y-41.91
X62.23Y-33.02
X63.5Y-41.91
X64.77Y-33.02
X66.04Y-41.91
X73.66Y-41.91
X74.93Y-33.02
X76.2Y-41.91
X77.47Y-33.02
X78.74Y-41.91
X86.36Y-41.91
X86.36Y-99.06
X87.63Y-33.02
X88.9Y-41.91
X88.9Y-99.06
X90.17Y-33.02
X91.44Y-41.91
X91.44Y-99.06
X99.06Y-41.91
X100.33Y-33.02
X101.6Y-41.91
X102.87Y-33.02
X104.14Y-41.91
X111.76Y-41.91
X113.03Y-33.02
X114.3Y-41.91
X115.57Y-33.02
X116.84Y-41.91
T5
X62.23Y-83.82
X62.23Y-86.36
X62.23Y-88.9
X62.23Y-91.44
X62.23Y-93.98
X64.77Y-83.82
X64.77Y-86.36
X64.77Y-88.9
X64.77Y-91.44
X64.77Y-93.98
X113.03Y-83.82
X113.03Y-86.36
X113.03Y-88.9
X113.03Y-91.44
X113.03Y-93.98
X115.57Y-83.82
X115.57Y-86.36
X115.57Y-88.9
X115.57Y-91.44
X115.57Y-93.98
T6
X132.207Y-41.904
X132.207Y-46.904
T7
X54.61Y-29.21
X54.61Y-101.6
X135.89Y-29.21
X135.89Y-101.6
T0
M30
