G04 #@! TF.FileFunction,Copper,L2,Bot,Signal*
%FSLAX46Y46*%
G04 Gerber Fmt 4.6, Leading zero omitted, Abs format (unit mm)*
G04 Created by KiCad (PCBNEW 4.0.5) date 09/05/17 09:18:43*
%MOMM*%
%LPD*%
G01*
G04 APERTURE LIST*
%ADD10C,0.100000*%
%ADD11R,1.727200X1.727200*%
%ADD12O,1.727200X1.727200*%
%ADD13C,5.000000*%
%ADD14O,1.510000X3.010000*%
%ADD15R,2.500000X2.500000*%
%ADD16C,2.500000*%
%ADD17R,1.600000X1.600000*%
%ADD18O,1.600000X1.600000*%
%ADD19C,1.600000*%
%ADD20R,1.800000X1.800000*%
%ADD21O,1.800000X1.800000*%
%ADD22R,1.200000X1.200000*%
%ADD23C,1.200000*%
%ADD24C,0.600000*%
%ADD25C,0.250000*%
%ADD26C,0.500000*%
G04 APERTURE END LIST*
D10*
D11*
X113030000Y-83820000D03*
D12*
X115570000Y-83820000D03*
X113030000Y-86360000D03*
X115570000Y-86360000D03*
X113030000Y-88900000D03*
X115570000Y-88900000D03*
X113030000Y-91440000D03*
X115570000Y-91440000D03*
X113030000Y-93980000D03*
X115570000Y-93980000D03*
D11*
X62230000Y-83820000D03*
D12*
X64770000Y-83820000D03*
X62230000Y-86360000D03*
X64770000Y-86360000D03*
X62230000Y-88900000D03*
X64770000Y-88900000D03*
X62230000Y-91440000D03*
X64770000Y-91440000D03*
X62230000Y-93980000D03*
X64770000Y-93980000D03*
D13*
X135890000Y-101600000D03*
X54610000Y-101600000D03*
X135890000Y-29210000D03*
D14*
X102870000Y-33020000D03*
X100330000Y-33020000D03*
D15*
X132207000Y-46903640D03*
D16*
X132207000Y-41903640D03*
D17*
X97790000Y-85090000D03*
D18*
X80010000Y-92710000D03*
X95250000Y-85090000D03*
X82550000Y-92710000D03*
X92710000Y-85090000D03*
X85090000Y-92710000D03*
X90170000Y-85090000D03*
X87630000Y-92710000D03*
X87630000Y-85090000D03*
X90170000Y-92710000D03*
X85090000Y-85090000D03*
X92710000Y-92710000D03*
X82550000Y-85090000D03*
X95250000Y-92710000D03*
X80010000Y-85090000D03*
X97790000Y-92710000D03*
D17*
X60960000Y-67310000D03*
D18*
X66040000Y-59690000D03*
X63500000Y-67310000D03*
X63500000Y-59690000D03*
X66040000Y-67310000D03*
X60960000Y-59690000D03*
D19*
X59690000Y-72390000D03*
D18*
X67310000Y-72390000D03*
D19*
X72390000Y-72390000D03*
D18*
X80010000Y-72390000D03*
D19*
X85090000Y-72390000D03*
D18*
X92710000Y-72390000D03*
D19*
X97790000Y-72390000D03*
D18*
X105410000Y-72390000D03*
D19*
X110490000Y-72390000D03*
D18*
X118110000Y-72390000D03*
D19*
X60960000Y-48260000D03*
D18*
X60960000Y-55880000D03*
D19*
X66040000Y-48260000D03*
D18*
X66040000Y-55880000D03*
D19*
X73660000Y-48260000D03*
D18*
X73660000Y-55880000D03*
D19*
X78740000Y-48260000D03*
D18*
X78740000Y-55880000D03*
D19*
X86360000Y-48260000D03*
D18*
X86360000Y-55880000D03*
D19*
X91440000Y-48260000D03*
D18*
X91440000Y-55880000D03*
D19*
X99060000Y-48260000D03*
D18*
X99060000Y-55880000D03*
D19*
X104140000Y-48260000D03*
D18*
X104140000Y-55880000D03*
D19*
X111760000Y-48260000D03*
D18*
X111760000Y-55880000D03*
D19*
X116840000Y-48260000D03*
D18*
X116840000Y-55880000D03*
D17*
X73660000Y-67310000D03*
D18*
X78740000Y-59690000D03*
X76200000Y-67310000D03*
X76200000Y-59690000D03*
X78740000Y-67310000D03*
X73660000Y-59690000D03*
D17*
X86360000Y-67310000D03*
D18*
X91440000Y-59690000D03*
X88900000Y-67310000D03*
X88900000Y-59690000D03*
X91440000Y-67310000D03*
X86360000Y-59690000D03*
D17*
X99060000Y-67310000D03*
D18*
X104140000Y-59690000D03*
X101600000Y-67310000D03*
X101600000Y-59690000D03*
X104140000Y-67310000D03*
X99060000Y-59690000D03*
D17*
X111760000Y-67310000D03*
D18*
X116840000Y-59690000D03*
X114300000Y-67310000D03*
X114300000Y-59690000D03*
X116840000Y-67310000D03*
X111760000Y-59690000D03*
D20*
X66040000Y-41910000D03*
D21*
X63500000Y-41910000D03*
X60960000Y-41910000D03*
D20*
X78740000Y-41910000D03*
D21*
X76200000Y-41910000D03*
X73660000Y-41910000D03*
D20*
X91440000Y-41910000D03*
D21*
X88900000Y-41910000D03*
X86360000Y-41910000D03*
D20*
X104140000Y-41910000D03*
D21*
X101600000Y-41910000D03*
X99060000Y-41910000D03*
D20*
X116840000Y-41910000D03*
D21*
X114300000Y-41910000D03*
X111760000Y-41910000D03*
D20*
X86360000Y-99060000D03*
D21*
X88900000Y-99060000D03*
X91440000Y-99060000D03*
D14*
X64770000Y-33020000D03*
X62230000Y-33020000D03*
X77470000Y-33020000D03*
X74930000Y-33020000D03*
X90170000Y-33020000D03*
X87630000Y-33020000D03*
X115570000Y-33020000D03*
X113030000Y-33020000D03*
D19*
X82550000Y-81280000D03*
X80050000Y-81280000D03*
D22*
X100100000Y-99060000D03*
D23*
X101600000Y-99060000D03*
D22*
X75970000Y-99060000D03*
D23*
X77470000Y-99060000D03*
D13*
X54610000Y-29210000D03*
D24*
X82550000Y-97155000D03*
X99060000Y-81280000D03*
X85090000Y-95250000D03*
X97790000Y-96520000D03*
X90170000Y-95250000D03*
X74930000Y-93980000D03*
X85090000Y-96520000D03*
X71120000Y-95250000D03*
X69850000Y-83820000D03*
X91440000Y-88900000D03*
X106045000Y-95885000D03*
X86995000Y-95885000D03*
X83820000Y-90170000D03*
X74930000Y-87630000D03*
X93980000Y-87630000D03*
X96520000Y-74930000D03*
X93980000Y-76200000D03*
X107950000Y-82550000D03*
D25*
X75970000Y-99060000D02*
X75970000Y-98210000D01*
X75970000Y-98210000D02*
X77025000Y-97155000D01*
X77025000Y-97155000D02*
X78005998Y-97155000D01*
X78005998Y-97155000D02*
X82550000Y-97155000D01*
X99060000Y-81280000D02*
X100965000Y-83185000D01*
X100965000Y-89535000D02*
X97790000Y-92710000D01*
X100965000Y-83185000D02*
X100965000Y-89535000D01*
X82550000Y-92710000D02*
X85090000Y-95250000D01*
X97790000Y-92710000D02*
X97790000Y-96520000D01*
X90170000Y-95250000D02*
X91440000Y-96520000D01*
X91440000Y-96520000D02*
X91440000Y-99060000D01*
X76835000Y-85090000D02*
X80010000Y-85090000D01*
X76200000Y-85725000D02*
X76835000Y-85090000D01*
X76200000Y-92710000D02*
X76200000Y-85725000D01*
X74930000Y-93980000D02*
X76200000Y-92710000D01*
X77470000Y-99060000D02*
X80645000Y-102235000D01*
X80645000Y-102235000D02*
X87630000Y-102235000D01*
X87630000Y-102235000D02*
X88900000Y-100965000D01*
X101600000Y-99060000D02*
X101600000Y-100330000D01*
X101600000Y-100330000D02*
X100330000Y-101600000D01*
X100330000Y-101600000D02*
X89535000Y-101600000D01*
X89535000Y-101600000D02*
X88900000Y-100965000D01*
X88900000Y-100965000D02*
X88900000Y-99060000D01*
X88900000Y-95250000D02*
X88900000Y-99060000D01*
X90170000Y-93980000D02*
X88900000Y-95250000D01*
X90170000Y-92710000D02*
X90170000Y-93980000D01*
X80050000Y-81280000D02*
X80050000Y-85050000D01*
X80050000Y-85050000D02*
X80010000Y-85090000D01*
X100100000Y-99060000D02*
X100100000Y-91670000D01*
X100100000Y-91670000D02*
X107950000Y-83820000D01*
X107950000Y-83820000D02*
X113030000Y-83820000D01*
X86360000Y-97790000D02*
X86360000Y-99060000D01*
X85090000Y-96520000D02*
X86360000Y-97790000D01*
X71120000Y-85090000D02*
X71120000Y-95250000D01*
X69850000Y-83820000D02*
X71120000Y-85090000D01*
D26*
X115570000Y-48260000D02*
X116840000Y-48260000D01*
X113030000Y-45720000D02*
X115570000Y-48260000D01*
X107950000Y-45720000D02*
X113030000Y-45720000D01*
X105410000Y-48260000D02*
X107950000Y-45720000D01*
X104140000Y-48260000D02*
X105410000Y-48260000D01*
X102870000Y-48260000D02*
X104140000Y-48260000D01*
X100330000Y-45720000D02*
X102870000Y-48260000D01*
X95250000Y-45720000D02*
X100330000Y-45720000D01*
X92710000Y-48260000D02*
X95250000Y-45720000D01*
X91440000Y-48260000D02*
X92710000Y-48260000D01*
X90170000Y-48260000D02*
X91440000Y-48260000D01*
X87630000Y-45720000D02*
X90170000Y-48260000D01*
X82550000Y-45720000D02*
X87630000Y-45720000D01*
X80010000Y-48260000D02*
X82550000Y-45720000D01*
X78740000Y-48260000D02*
X80010000Y-48260000D01*
X77470000Y-48260000D02*
X78740000Y-48260000D01*
X74930000Y-45720000D02*
X77470000Y-48260000D01*
X69850000Y-45720000D02*
X74930000Y-45720000D01*
X67310000Y-48260000D02*
X69850000Y-45720000D01*
X66040000Y-48260000D02*
X67310000Y-48260000D01*
D25*
X92710000Y-90170000D02*
X92710000Y-92710000D01*
X91440000Y-88900000D02*
X92710000Y-90170000D01*
X106045000Y-95885000D02*
X113030000Y-88900000D01*
X85090000Y-92710000D02*
X85090000Y-93980000D01*
X85090000Y-93980000D02*
X86995000Y-95885000D01*
X85090000Y-91440000D02*
X85090000Y-92710000D01*
X83820000Y-90170000D02*
X85090000Y-91440000D01*
X72390000Y-85090000D02*
X72390000Y-74930000D01*
X73660000Y-86360000D02*
X72390000Y-85090000D01*
X74930000Y-87630000D02*
X73660000Y-86360000D01*
X95250000Y-92710000D02*
X95250000Y-88900000D01*
X95250000Y-88900000D02*
X93980000Y-87630000D01*
X69850000Y-72390000D02*
X72390000Y-74930000D01*
X67310000Y-72390000D02*
X69850000Y-72390000D01*
X97790000Y-76200000D02*
X97790000Y-85090000D01*
X96520000Y-74930000D02*
X97790000Y-76200000D01*
X95250000Y-74930000D02*
X95250000Y-85090000D01*
X92710000Y-72390000D02*
X95250000Y-74930000D01*
X92710000Y-77470000D02*
X92710000Y-85090000D01*
X93980000Y-76200000D02*
X92710000Y-77470000D01*
X107950000Y-82550000D02*
X118110000Y-72390000D01*
M02*
