G04 #@! TF.FileFunction,Profile,NP*
%FSLAX46Y46*%
G04 Gerber Fmt 4.6, Leading zero omitted, Abs format (unit mm)*
G04 Created by KiCad (PCBNEW 4.0.7) date Mon Mar 19 19:45:40 2018*
%MOMM*%
%LPD*%
G01*
G04 APERTURE LIST*
%ADD10C,0.100000*%
%ADD11C,0.150000*%
G04 APERTURE END LIST*
D10*
D11*
X50800000Y-105410000D02*
X50800000Y-25400000D01*
X139700000Y-25400000D02*
X139700000Y-105410000D01*
X50800000Y-105410000D02*
X139700000Y-105410000D01*
X139700000Y-25400000D02*
X121920000Y-25400000D01*
X124460000Y-64770000D02*
G75*
G03X124460000Y-62230000I0J1270000D01*
G01*
X116840000Y-64770000D02*
X124460000Y-64770000D01*
X116840000Y-62230000D02*
G75*
G03X116840000Y-64770000I0J-1270000D01*
G01*
X116840000Y-62230000D02*
X124460000Y-62230000D01*
X111760000Y-64770000D02*
G75*
G03X111760000Y-62230000I0J1270000D01*
G01*
X104140000Y-64770000D02*
X111760000Y-64770000D01*
X104140000Y-62230000D02*
G75*
G03X104140000Y-64770000I0J-1270000D01*
G01*
X104140000Y-62230000D02*
X111760000Y-62230000D01*
X99060000Y-64770000D02*
G75*
G03X99060000Y-62230000I0J1270000D01*
G01*
X91440000Y-64770000D02*
X99060000Y-64770000D01*
X91440000Y-62230000D02*
G75*
G03X91440000Y-64770000I0J-1270000D01*
G01*
X91440000Y-62230000D02*
X99060000Y-62230000D01*
X86360000Y-64770000D02*
G75*
G03X86360000Y-62230000I0J1270000D01*
G01*
X78740000Y-64770000D02*
X86360000Y-64770000D01*
X78740000Y-62230000D02*
G75*
G03X78740000Y-64770000I0J-1270000D01*
G01*
X78740000Y-62230000D02*
X86360000Y-62230000D01*
X66040000Y-62230000D02*
G75*
G03X66040000Y-64770000I0J-1270000D01*
G01*
X73660000Y-64770000D02*
G75*
G03X73660000Y-62230000I0J1270000D01*
G01*
X66040000Y-64770000D02*
X73660000Y-64770000D01*
X66040000Y-62230000D02*
X73660000Y-62230000D01*
X121920000Y-25400000D02*
X50800000Y-25400000D01*
M02*
