G04 #@! TF.FileFunction,Copper,L1,Top,Signal*
%FSLAX46Y46*%
G04 Gerber Fmt 4.6, Leading zero omitted, Abs format (unit mm)*
G04 Created by KiCad (PCBNEW 4.0.7) date Mon Mar 19 19:45:40 2018*
%MOMM*%
%LPD*%
G01*
G04 APERTURE LIST*
%ADD10C,0.100000*%
%ADD11R,1.600000X1.600000*%
%ADD12O,1.600000X1.600000*%
%ADD13C,5.000000*%
%ADD14O,1.510000X3.010000*%
%ADD15C,1.600000*%
%ADD16R,1.800000X1.800000*%
%ADD17O,1.800000X1.800000*%
%ADD18R,1.200000X1.200000*%
%ADD19C,1.200000*%
%ADD20R,2.500000X2.500000*%
%ADD21C,2.500000*%
%ADD22R,1.700000X1.700000*%
%ADD23O,1.700000X1.700000*%
%ADD24C,0.600000*%
%ADD25C,0.750000*%
%ADD26C,1.000000*%
%ADD27C,2.000000*%
%ADD28C,0.254000*%
G04 APERTURE END LIST*
D10*
D11*
X104140000Y-85090000D03*
D12*
X86360000Y-92710000D03*
X101600000Y-85090000D03*
X88900000Y-92710000D03*
X99060000Y-85090000D03*
X91440000Y-92710000D03*
X96520000Y-85090000D03*
X93980000Y-92710000D03*
X93980000Y-85090000D03*
X96520000Y-92710000D03*
X91440000Y-85090000D03*
X99060000Y-92710000D03*
X88900000Y-85090000D03*
X101600000Y-92710000D03*
X86360000Y-85090000D03*
X104140000Y-92710000D03*
D13*
X135255000Y-100965000D03*
X55245000Y-100965000D03*
X135255000Y-29845000D03*
D14*
X109220000Y-33020000D03*
X106680000Y-33020000D03*
D11*
X67310000Y-67310000D03*
D12*
X72390000Y-59690000D03*
X69850000Y-67310000D03*
X69850000Y-59690000D03*
X72390000Y-67310000D03*
X67310000Y-59690000D03*
D15*
X78740000Y-77470000D03*
D12*
X86360000Y-77470000D03*
D15*
X91440000Y-77470000D03*
D12*
X99060000Y-77470000D03*
D15*
X111760000Y-77470000D03*
D12*
X104140000Y-77470000D03*
D15*
X66040000Y-71755000D03*
D12*
X73660000Y-71755000D03*
D15*
X78740000Y-71755000D03*
D12*
X86360000Y-71755000D03*
D15*
X91440000Y-71755000D03*
D12*
X99060000Y-71755000D03*
D15*
X104140000Y-71755000D03*
D12*
X111760000Y-71755000D03*
D15*
X116840000Y-71755000D03*
D12*
X124460000Y-71755000D03*
D15*
X67310000Y-48260000D03*
D12*
X67310000Y-55880000D03*
D15*
X72390000Y-48260000D03*
D12*
X72390000Y-55880000D03*
D15*
X80010000Y-48260000D03*
D12*
X80010000Y-55880000D03*
D15*
X85090000Y-48260000D03*
D12*
X85090000Y-55880000D03*
D15*
X92710000Y-48260000D03*
D12*
X92710000Y-55880000D03*
D15*
X97790000Y-48260000D03*
D12*
X97790000Y-55880000D03*
D15*
X105410000Y-48260000D03*
D12*
X105410000Y-55880000D03*
D11*
X80010000Y-67310000D03*
D12*
X85090000Y-59690000D03*
X82550000Y-67310000D03*
X82550000Y-59690000D03*
X85090000Y-67310000D03*
X80010000Y-59690000D03*
D11*
X92710000Y-67310000D03*
D12*
X97790000Y-59690000D03*
X95250000Y-67310000D03*
X95250000Y-59690000D03*
X97790000Y-67310000D03*
X92710000Y-59690000D03*
D11*
X105410000Y-67310000D03*
D12*
X110490000Y-59690000D03*
X107950000Y-67310000D03*
X107950000Y-59690000D03*
X110490000Y-67310000D03*
X105410000Y-59690000D03*
D11*
X118110000Y-67310000D03*
D12*
X123190000Y-59690000D03*
X120650000Y-67310000D03*
X120650000Y-59690000D03*
X123190000Y-67310000D03*
X118110000Y-59690000D03*
D16*
X72390000Y-41910000D03*
D17*
X69850000Y-41910000D03*
X67310000Y-41910000D03*
D16*
X85090000Y-41910000D03*
D17*
X82550000Y-41910000D03*
X80010000Y-41910000D03*
D16*
X97790000Y-41910000D03*
D17*
X95250000Y-41910000D03*
X92710000Y-41910000D03*
D16*
X110490000Y-41910000D03*
D17*
X107950000Y-41910000D03*
X105410000Y-41910000D03*
D16*
X123190000Y-41910000D03*
D17*
X120650000Y-41910000D03*
X118110000Y-41910000D03*
D16*
X92710000Y-99060000D03*
D17*
X95250000Y-99060000D03*
X97790000Y-99060000D03*
D14*
X71120000Y-33020000D03*
X68580000Y-33020000D03*
X83820000Y-33020000D03*
X81280000Y-33020000D03*
X96520000Y-33020000D03*
X93980000Y-33020000D03*
X121920000Y-33020000D03*
X119380000Y-33020000D03*
D15*
X88900000Y-81280000D03*
X86400000Y-81280000D03*
D18*
X106450000Y-99060000D03*
D19*
X107950000Y-99060000D03*
D18*
X82320000Y-99060000D03*
D19*
X83820000Y-99060000D03*
D15*
X110490000Y-48260000D03*
D12*
X110490000Y-55880000D03*
D15*
X118110000Y-48260000D03*
D12*
X118110000Y-55880000D03*
D15*
X123190000Y-48260000D03*
D12*
X123190000Y-55880000D03*
D20*
X57785000Y-40005000D03*
D21*
X57785000Y-45005000D03*
D20*
X132715000Y-44450000D03*
D21*
X132715000Y-39450000D03*
D22*
X128905000Y-83820000D03*
D23*
X131445000Y-83820000D03*
X128905000Y-86360000D03*
X131445000Y-86360000D03*
X128905000Y-88900000D03*
X131445000Y-88900000D03*
X128905000Y-91440000D03*
X131445000Y-91440000D03*
X128905000Y-93980000D03*
X131445000Y-93980000D03*
D13*
X55245000Y-29845000D03*
D22*
X59690000Y-83820000D03*
D23*
X62230000Y-83820000D03*
X59690000Y-86360000D03*
X62230000Y-86360000D03*
X59690000Y-88900000D03*
X62230000Y-88900000D03*
X59690000Y-91440000D03*
X62230000Y-91440000D03*
X59690000Y-93980000D03*
X62230000Y-93980000D03*
D24*
X78105000Y-84455000D03*
X78105000Y-102235000D03*
X78105000Y-86360000D03*
X109220000Y-83820000D03*
X66040000Y-84455000D03*
X67310000Y-95250000D03*
X99695000Y-88265000D03*
X108585000Y-95250000D03*
X67945000Y-89535000D03*
X67945000Y-93345000D03*
X74295000Y-93980000D03*
X83820000Y-92710000D03*
X93345000Y-89535000D03*
X83820000Y-89535000D03*
X84455000Y-83185000D03*
X90805000Y-82550000D03*
X100330000Y-86995000D03*
X81915000Y-86360000D03*
X79375000Y-81280000D03*
X74295000Y-80645000D03*
X86360000Y-71755000D03*
X114935000Y-85725000D03*
X114300000Y-74930000D03*
X122555000Y-81915000D03*
X104775000Y-80645000D03*
X99695000Y-80645000D03*
X99060000Y-89535000D03*
D25*
X82320000Y-96750000D02*
X82320000Y-88670000D01*
X82320000Y-88670000D02*
X78105000Y-84455000D01*
D26*
X82320000Y-99060000D02*
X82320000Y-96750000D01*
X83820000Y-95250000D02*
X88900000Y-95250000D01*
X82320000Y-96750000D02*
X83820000Y-95250000D01*
D27*
X88900000Y-92710000D02*
X88900000Y-95250000D01*
X88900000Y-95250000D02*
X88900000Y-100965000D01*
X97790000Y-100965000D02*
X97790000Y-99060000D01*
X95885000Y-102870000D02*
X97790000Y-100965000D01*
X90805000Y-102870000D02*
X95885000Y-102870000D01*
X88900000Y-100965000D02*
X90805000Y-102870000D01*
X97790000Y-99060000D02*
X100330000Y-99060000D01*
X104140000Y-95250000D02*
X104140000Y-92710000D01*
X100330000Y-99060000D02*
X104140000Y-95250000D01*
D26*
X86400000Y-81280000D02*
X86400000Y-77510000D01*
X86400000Y-77510000D02*
X86360000Y-77470000D01*
X86360000Y-85090000D02*
X86360000Y-81320000D01*
X86360000Y-81320000D02*
X86400000Y-81280000D01*
X107950000Y-67310000D02*
X107950000Y-73660000D01*
X107950000Y-73660000D02*
X104140000Y-77470000D01*
X78105000Y-86360000D02*
X78105000Y-102235000D01*
D27*
X95250000Y-99060000D02*
X95250000Y-96520000D01*
X96520000Y-95250000D02*
X96520000Y-92710000D01*
X95250000Y-96520000D02*
X96520000Y-95250000D01*
D26*
X106450000Y-99060000D02*
X106450000Y-86590000D01*
X106450000Y-86590000D02*
X109220000Y-83820000D01*
X66040000Y-93980000D02*
X66040000Y-84455000D01*
X67310000Y-95250000D02*
X66040000Y-93980000D01*
D27*
X69850000Y-41910000D02*
X69850000Y-45720000D01*
X69850000Y-45720000D02*
X67310000Y-48260000D01*
X72390000Y-55880000D02*
X72390000Y-59690000D01*
X72390000Y-55880000D02*
X71120000Y-55880000D01*
X64770000Y-44450000D02*
X67310000Y-41910000D01*
X64770000Y-49530000D02*
X64770000Y-44450000D01*
X71120000Y-55880000D02*
X64770000Y-49530000D01*
X82550000Y-41910000D02*
X82550000Y-45720000D01*
X82550000Y-45720000D02*
X80010000Y-48260000D01*
X85090000Y-55880000D02*
X85090000Y-59690000D01*
X85090000Y-55880000D02*
X83820000Y-55880000D01*
X77470000Y-44450000D02*
X80010000Y-41910000D01*
X77470000Y-49530000D02*
X77470000Y-44450000D01*
X83820000Y-55880000D02*
X77470000Y-49530000D01*
X95250000Y-41910000D02*
X95250000Y-45720000D01*
X95250000Y-45720000D02*
X92710000Y-48260000D01*
X97790000Y-55880000D02*
X97790000Y-59690000D01*
X97790000Y-55880000D02*
X96520000Y-55880000D01*
X90170000Y-44789998D02*
X93049998Y-41910000D01*
X90170000Y-49530000D02*
X90170000Y-44789998D01*
X96520000Y-55880000D02*
X90170000Y-49530000D01*
X93049998Y-41910000D02*
X92710000Y-41910000D01*
X107950000Y-41910000D02*
X107950000Y-45720000D01*
X107950000Y-45720000D02*
X105410000Y-48260000D01*
X110490000Y-55880000D02*
X110490000Y-59690000D01*
X110490000Y-55880000D02*
X109220000Y-55880000D01*
X102870000Y-44450000D02*
X105410000Y-41910000D01*
X102870000Y-49530000D02*
X102870000Y-44450000D01*
X109220000Y-55880000D02*
X102870000Y-49530000D01*
X120650000Y-41910000D02*
X120650000Y-45720000D01*
X120650000Y-45720000D02*
X118110000Y-48260000D01*
X123190000Y-55880000D02*
X123190000Y-59690000D01*
X123190000Y-55880000D02*
X121920000Y-55880000D01*
X115570000Y-44450000D02*
X118110000Y-41910000D01*
X115570000Y-49530000D02*
X115570000Y-44450000D01*
X121920000Y-55880000D02*
X115570000Y-49530000D01*
D25*
X99695000Y-88265000D02*
X100649990Y-89219990D01*
X100649990Y-89219990D02*
X100649990Y-91120010D01*
X100649990Y-91120010D02*
X99060000Y-92710000D01*
X111760000Y-92075000D02*
X111760000Y-77470000D01*
X108585000Y-95250000D02*
X111760000Y-92075000D01*
X67945000Y-93345000D02*
X67945000Y-89535000D01*
X76200000Y-80010000D02*
X78740000Y-77470000D01*
X74295000Y-93980000D02*
X76200000Y-92075000D01*
X76200000Y-92075000D02*
X76200000Y-80010000D01*
X83820000Y-89535000D02*
X83820000Y-92710000D01*
X59690000Y-91440000D02*
X57785000Y-91440000D01*
X115570000Y-104775000D02*
X128905000Y-91440000D01*
X65405000Y-104775000D02*
X115570000Y-104775000D01*
X57150000Y-96520000D02*
X65405000Y-104775000D01*
X57150000Y-92075000D02*
X57150000Y-96520000D01*
X57785000Y-91440000D02*
X57150000Y-92075000D01*
X91440000Y-77470000D02*
X91440000Y-81915000D01*
X93980000Y-90170000D02*
X93980000Y-92710000D01*
X93345000Y-89535000D02*
X93980000Y-90170000D01*
X83820000Y-83820000D02*
X83820000Y-89535000D01*
X84455000Y-83185000D02*
X83820000Y-83820000D01*
X91440000Y-81915000D02*
X90805000Y-82550000D01*
D27*
X66040000Y-71755000D02*
X66040000Y-71120000D01*
X66040000Y-71120000D02*
X67310000Y-69850000D01*
X67310000Y-69850000D02*
X67310000Y-67310000D01*
D25*
X73660000Y-71755000D02*
X73660000Y-80010000D01*
X101600000Y-88265000D02*
X101600000Y-92710000D01*
X100330000Y-86995000D02*
X101600000Y-88265000D01*
X81915000Y-83820000D02*
X81915000Y-86360000D01*
X79375000Y-81280000D02*
X81915000Y-83820000D01*
X73660000Y-80010000D02*
X74295000Y-80645000D01*
D27*
X78740000Y-71755000D02*
X78740000Y-71120000D01*
X78740000Y-71120000D02*
X80010000Y-69850000D01*
X80010000Y-69850000D02*
X80010000Y-67310000D01*
D25*
X114935000Y-75565000D02*
X114935000Y-85725000D01*
X114300000Y-74930000D02*
X114935000Y-75565000D01*
D26*
X99060000Y-71755000D02*
X101600000Y-74295000D01*
X101600000Y-74295000D02*
X101600000Y-85090000D01*
D25*
X124460000Y-80010000D02*
X124460000Y-71755000D01*
X122555000Y-81915000D02*
X124460000Y-80010000D01*
D27*
X91440000Y-71755000D02*
X92710000Y-70485000D01*
X92710000Y-70485000D02*
X92710000Y-67310000D01*
X104140000Y-71755000D02*
X105410000Y-70485000D01*
X105410000Y-70485000D02*
X105410000Y-67310000D01*
D26*
X99060000Y-85090000D02*
X99060000Y-81280000D01*
X111760000Y-73660000D02*
X111760000Y-71755000D01*
X104775000Y-80645000D02*
X111760000Y-73660000D01*
X99060000Y-81280000D02*
X99695000Y-80645000D01*
D27*
X116840000Y-71755000D02*
X116840000Y-71120000D01*
X116840000Y-71120000D02*
X118110000Y-69850000D01*
X118110000Y-69850000D02*
X118110000Y-67310000D01*
X67310000Y-55880000D02*
X67310000Y-59690000D01*
X80010000Y-55880000D02*
X80010000Y-59690000D01*
X92710000Y-55880000D02*
X92710000Y-59690000D01*
X105410000Y-55880000D02*
X105410000Y-59690000D01*
X118110000Y-55880000D02*
X118110000Y-59690000D01*
D25*
X98425000Y-89140000D02*
X98665000Y-89140000D01*
X98665000Y-89140000D02*
X99060000Y-89535000D01*
X95250000Y-88265000D02*
X97550000Y-88265000D01*
X97550000Y-88265000D02*
X98425000Y-89140000D01*
X86360000Y-92710000D02*
X86360000Y-90170000D01*
X86360000Y-90170000D02*
X88265000Y-88265000D01*
X88265000Y-88265000D02*
X95250000Y-88265000D01*
D28*
G36*
X138990000Y-104700000D02*
X117073356Y-104700000D01*
X120187502Y-101585854D01*
X132119457Y-101585854D01*
X132595727Y-102738515D01*
X133476847Y-103621174D01*
X134628674Y-104099454D01*
X135875854Y-104100543D01*
X137028515Y-103624273D01*
X137911174Y-102743153D01*
X138389454Y-101591326D01*
X138390543Y-100344146D01*
X137914273Y-99191485D01*
X137033153Y-98308826D01*
X135881326Y-97830546D01*
X134634146Y-97829457D01*
X133481485Y-98305727D01*
X132598826Y-99186847D01*
X132120546Y-100338674D01*
X132119457Y-101585854D01*
X120187502Y-101585854D01*
X127493760Y-94279596D01*
X127463524Y-94336890D01*
X127633355Y-94746924D01*
X128023642Y-95175183D01*
X128548108Y-95421486D01*
X128778000Y-95300819D01*
X128778000Y-94107000D01*
X129032000Y-94107000D01*
X129032000Y-95300819D01*
X129261892Y-95421486D01*
X129786358Y-95175183D01*
X130175000Y-94748729D01*
X130563642Y-95175183D01*
X131088108Y-95421486D01*
X131318000Y-95300819D01*
X131318000Y-94107000D01*
X131572000Y-94107000D01*
X131572000Y-95300819D01*
X131801892Y-95421486D01*
X132326358Y-95175183D01*
X132716645Y-94746924D01*
X132886476Y-94336890D01*
X132765155Y-94107000D01*
X131572000Y-94107000D01*
X131318000Y-94107000D01*
X129032000Y-94107000D01*
X128778000Y-94107000D01*
X128758000Y-94107000D01*
X128758000Y-93853000D01*
X128778000Y-93853000D01*
X128778000Y-93833000D01*
X129032000Y-93833000D01*
X129032000Y-93853000D01*
X131318000Y-93853000D01*
X131318000Y-93833000D01*
X131572000Y-93833000D01*
X131572000Y-93853000D01*
X132765155Y-93853000D01*
X132886476Y-93623110D01*
X132716645Y-93213076D01*
X132326358Y-92784817D01*
X132183447Y-92717702D01*
X132524147Y-92490054D01*
X132846054Y-92008285D01*
X132959093Y-91440000D01*
X132846054Y-90871715D01*
X132524147Y-90389946D01*
X132194974Y-90170000D01*
X132524147Y-89950054D01*
X132846054Y-89468285D01*
X132959093Y-88900000D01*
X132846054Y-88331715D01*
X132524147Y-87849946D01*
X132194974Y-87630000D01*
X132524147Y-87410054D01*
X132846054Y-86928285D01*
X132959093Y-86360000D01*
X132846054Y-85791715D01*
X132524147Y-85309946D01*
X132194974Y-85090000D01*
X132524147Y-84870054D01*
X132846054Y-84388285D01*
X132959093Y-83820000D01*
X132846054Y-83251715D01*
X132524147Y-82769946D01*
X132042378Y-82448039D01*
X131474093Y-82335000D01*
X131415907Y-82335000D01*
X130847622Y-82448039D01*
X130365853Y-82769946D01*
X130365029Y-82771179D01*
X130358162Y-82734683D01*
X130219090Y-82518559D01*
X130006890Y-82373569D01*
X129755000Y-82322560D01*
X128055000Y-82322560D01*
X127819683Y-82366838D01*
X127603559Y-82505910D01*
X127458569Y-82718110D01*
X127407560Y-82970000D01*
X127407560Y-84670000D01*
X127451838Y-84905317D01*
X127590910Y-85121441D01*
X127803110Y-85266431D01*
X127870541Y-85280086D01*
X127825853Y-85309946D01*
X127503946Y-85791715D01*
X127390907Y-86360000D01*
X127503946Y-86928285D01*
X127825853Y-87410054D01*
X128155026Y-87630000D01*
X127825853Y-87849946D01*
X127503946Y-88331715D01*
X127390907Y-88900000D01*
X127503946Y-89468285D01*
X127825853Y-89950054D01*
X128155026Y-90170000D01*
X127825853Y-90389946D01*
X127503946Y-90871715D01*
X127390907Y-91440000D01*
X127405132Y-91511512D01*
X115151644Y-103765000D01*
X97302240Y-103765000D01*
X98946117Y-102121122D01*
X98946120Y-102121120D01*
X99218228Y-101713881D01*
X99300543Y-101590688D01*
X99425001Y-100965000D01*
X99425000Y-100964995D01*
X99425000Y-100695000D01*
X100329995Y-100695000D01*
X100330000Y-100695001D01*
X100955688Y-100570543D01*
X101486120Y-100216120D01*
X105296117Y-96406122D01*
X105296120Y-96406120D01*
X105315000Y-96377864D01*
X105315000Y-98118203D01*
X105253569Y-98208110D01*
X105202560Y-98460000D01*
X105202560Y-99660000D01*
X105246838Y-99895317D01*
X105385910Y-100111441D01*
X105598110Y-100256431D01*
X105850000Y-100307440D01*
X107050000Y-100307440D01*
X107285317Y-100263162D01*
X107412636Y-100181234D01*
X107781036Y-100307807D01*
X108271413Y-100277482D01*
X108583617Y-100148164D01*
X108633130Y-99922735D01*
X107950000Y-99239605D01*
X107935858Y-99253748D01*
X107756253Y-99074143D01*
X107770395Y-99060000D01*
X108129605Y-99060000D01*
X108812735Y-99743130D01*
X109038164Y-99693617D01*
X109197807Y-99228964D01*
X109167482Y-98738587D01*
X109038164Y-98426383D01*
X108812735Y-98376870D01*
X108129605Y-99060000D01*
X107770395Y-99060000D01*
X107756253Y-99045858D01*
X107935858Y-98866253D01*
X107950000Y-98880395D01*
X108633130Y-98197265D01*
X108583617Y-97971836D01*
X108118964Y-97812193D01*
X107628587Y-97842518D01*
X107585000Y-97860572D01*
X107585000Y-95300273D01*
X107651882Y-95636510D01*
X107870822Y-95964178D01*
X108198490Y-96183118D01*
X108585000Y-96260000D01*
X108971510Y-96183118D01*
X109299178Y-95964178D01*
X112474178Y-92789178D01*
X112693118Y-92461510D01*
X112770000Y-92075000D01*
X112770000Y-78489388D01*
X112975824Y-78283923D01*
X113194750Y-77756691D01*
X113195248Y-77185813D01*
X112977243Y-76658200D01*
X112573923Y-76254176D01*
X112046691Y-76035250D01*
X111475813Y-76034752D01*
X110948200Y-76252757D01*
X110544176Y-76656077D01*
X110325250Y-77183309D01*
X110324752Y-77754187D01*
X110542757Y-78281800D01*
X110750000Y-78489405D01*
X110750000Y-91656644D01*
X107870822Y-94535822D01*
X107651882Y-94863490D01*
X107585000Y-95199727D01*
X107585000Y-87060132D01*
X110022567Y-84622566D01*
X110268604Y-84254345D01*
X110355000Y-83820000D01*
X110268604Y-83385654D01*
X110022567Y-83017433D01*
X109654346Y-82771396D01*
X109220000Y-82685000D01*
X108785655Y-82771396D01*
X108417434Y-83017433D01*
X105647434Y-85787434D01*
X105587440Y-85877221D01*
X105587440Y-84290000D01*
X105543162Y-84054683D01*
X105404090Y-83838559D01*
X105191890Y-83693569D01*
X104940000Y-83642560D01*
X103340000Y-83642560D01*
X103104683Y-83686838D01*
X102888559Y-83825910D01*
X102743569Y-84038110D01*
X102735000Y-84080425D01*
X102735000Y-80645000D01*
X103640000Y-80645000D01*
X103726397Y-81079345D01*
X103972434Y-81447566D01*
X104340655Y-81693603D01*
X104775000Y-81780000D01*
X105209345Y-81693603D01*
X105577566Y-81447566D01*
X112095132Y-74930000D01*
X113290000Y-74930000D01*
X113366882Y-75316510D01*
X113585822Y-75644178D01*
X113925000Y-75983356D01*
X113925000Y-85725000D01*
X114001882Y-86111510D01*
X114220822Y-86439178D01*
X114548490Y-86658118D01*
X114935000Y-86735000D01*
X115321510Y-86658118D01*
X115649178Y-86439178D01*
X115868118Y-86111510D01*
X115945000Y-85725000D01*
X115945000Y-81915000D01*
X121545000Y-81915000D01*
X121621882Y-82301510D01*
X121840822Y-82629178D01*
X122168490Y-82848118D01*
X122555000Y-82925000D01*
X122941510Y-82848118D01*
X123269178Y-82629178D01*
X125174178Y-80724178D01*
X125393118Y-80396510D01*
X125470000Y-80010000D01*
X125470000Y-72791622D01*
X125502811Y-72769698D01*
X125813880Y-72304151D01*
X125923113Y-71755000D01*
X125813880Y-71205849D01*
X125502811Y-70740302D01*
X125037264Y-70429233D01*
X124488113Y-70320000D01*
X124431887Y-70320000D01*
X123882736Y-70429233D01*
X123417189Y-70740302D01*
X123106120Y-71205849D01*
X122996887Y-71755000D01*
X123106120Y-72304151D01*
X123417189Y-72769698D01*
X123450000Y-72791622D01*
X123450000Y-79591644D01*
X121840822Y-81200822D01*
X121621882Y-81528490D01*
X121545000Y-81915000D01*
X115945000Y-81915000D01*
X115945000Y-75565000D01*
X115868118Y-75178490D01*
X115649178Y-74850822D01*
X115014178Y-74215822D01*
X114686510Y-73996882D01*
X114300000Y-73920000D01*
X113913490Y-73996882D01*
X113585822Y-74215822D01*
X113366882Y-74543490D01*
X113290000Y-74930000D01*
X112095132Y-74930000D01*
X112562566Y-74462566D01*
X112727435Y-74215822D01*
X112808603Y-74094346D01*
X112895000Y-73660000D01*
X112895000Y-72631728D01*
X113113880Y-72304151D01*
X113223113Y-71755000D01*
X113113880Y-71205849D01*
X113056518Y-71120000D01*
X115204999Y-71120000D01*
X115205000Y-71120005D01*
X115205000Y-71755000D01*
X115329457Y-72380687D01*
X115683880Y-72911120D01*
X116214313Y-73265543D01*
X116840000Y-73390000D01*
X117465687Y-73265543D01*
X117996120Y-72911120D01*
X118350543Y-72380687D01*
X118464512Y-71807728D01*
X119266117Y-71006122D01*
X119266120Y-71006120D01*
X119478581Y-70688149D01*
X119620543Y-70475688D01*
X119745000Y-69850000D01*
X119745000Y-68389237D01*
X119912577Y-68541041D01*
X120300961Y-68701904D01*
X120523000Y-68579915D01*
X120523000Y-67437000D01*
X120503000Y-67437000D01*
X120503000Y-67183000D01*
X120523000Y-67183000D01*
X120523000Y-66040085D01*
X120777000Y-66040085D01*
X120777000Y-67183000D01*
X120797000Y-67183000D01*
X120797000Y-67437000D01*
X120777000Y-67437000D01*
X120777000Y-68579915D01*
X120999039Y-68701904D01*
X121387423Y-68541041D01*
X121802389Y-68165134D01*
X121905014Y-67948297D01*
X122175302Y-68352811D01*
X122640849Y-68663880D01*
X123190000Y-68773113D01*
X123739151Y-68663880D01*
X124204698Y-68352811D01*
X124515767Y-67887264D01*
X124625000Y-67338113D01*
X124625000Y-67281887D01*
X124515767Y-66732736D01*
X124204698Y-66267189D01*
X123739151Y-65956120D01*
X123190000Y-65846887D01*
X122640849Y-65956120D01*
X122175302Y-66267189D01*
X121905014Y-66671703D01*
X121802389Y-66454866D01*
X121387423Y-66078959D01*
X120999039Y-65918096D01*
X120777000Y-66040085D01*
X120523000Y-66040085D01*
X120300961Y-65918096D01*
X119912577Y-66078959D01*
X119539864Y-66416590D01*
X119513162Y-66274683D01*
X119374090Y-66058559D01*
X119161890Y-65913569D01*
X118910000Y-65862560D01*
X118830128Y-65862560D01*
X118735687Y-65799457D01*
X118110000Y-65675000D01*
X117484313Y-65799457D01*
X117389872Y-65862560D01*
X117310000Y-65862560D01*
X117074683Y-65906838D01*
X116858559Y-66045910D01*
X116713569Y-66258110D01*
X116662560Y-66510000D01*
X116662560Y-66589872D01*
X116599457Y-66684313D01*
X116475000Y-67310000D01*
X116475000Y-69172761D01*
X115683880Y-69963880D01*
X115329457Y-70494312D01*
X115204999Y-71120000D01*
X113056518Y-71120000D01*
X112802811Y-70740302D01*
X112337264Y-70429233D01*
X111788113Y-70320000D01*
X111731887Y-70320000D01*
X111182736Y-70429233D01*
X110717189Y-70740302D01*
X110406120Y-71205849D01*
X110296887Y-71755000D01*
X110406120Y-72304151D01*
X110625000Y-72631728D01*
X110625000Y-73189868D01*
X103972434Y-79842434D01*
X103726397Y-80210655D01*
X103640000Y-80645000D01*
X102735000Y-80645000D01*
X102735000Y-77597002D01*
X102870084Y-77597002D01*
X102748096Y-77819039D01*
X102908959Y-78207423D01*
X103284866Y-78622389D01*
X103790959Y-78861914D01*
X104013000Y-78740629D01*
X104013000Y-77597000D01*
X104267000Y-77597000D01*
X104267000Y-78740629D01*
X104489041Y-78861914D01*
X104995134Y-78622389D01*
X105371041Y-78207423D01*
X105531904Y-77819039D01*
X105409915Y-77597000D01*
X104267000Y-77597000D01*
X104013000Y-77597000D01*
X103993000Y-77597000D01*
X103993000Y-77343000D01*
X104013000Y-77343000D01*
X104013000Y-76199371D01*
X104267000Y-76199371D01*
X104267000Y-77343000D01*
X105409915Y-77343000D01*
X105531904Y-77120961D01*
X105371041Y-76732577D01*
X104995134Y-76317611D01*
X104489041Y-76078086D01*
X104267000Y-76199371D01*
X104013000Y-76199371D01*
X103790959Y-76078086D01*
X103284866Y-76317611D01*
X102908959Y-76732577D01*
X102748096Y-77120961D01*
X102870084Y-77342998D01*
X102735000Y-77342998D01*
X102735000Y-74295000D01*
X102648603Y-73860654D01*
X102402566Y-73492433D01*
X100665133Y-71755000D01*
X102504999Y-71755000D01*
X102629457Y-72380688D01*
X102983880Y-72911120D01*
X103514312Y-73265543D01*
X104140000Y-73390001D01*
X104765688Y-73265543D01*
X105296120Y-72911120D01*
X106566117Y-71641122D01*
X106566120Y-71641120D01*
X106780248Y-71320654D01*
X106920543Y-71110688D01*
X107045000Y-70485000D01*
X107045000Y-68389237D01*
X107212577Y-68541041D01*
X107600961Y-68701904D01*
X107823000Y-68579915D01*
X107823000Y-67437000D01*
X107803000Y-67437000D01*
X107803000Y-67183000D01*
X107823000Y-67183000D01*
X107823000Y-66040085D01*
X108077000Y-66040085D01*
X108077000Y-67183000D01*
X108097000Y-67183000D01*
X108097000Y-67437000D01*
X108077000Y-67437000D01*
X108077000Y-68579915D01*
X108299039Y-68701904D01*
X108687423Y-68541041D01*
X109102389Y-68165134D01*
X109205014Y-67948297D01*
X109475302Y-68352811D01*
X109940849Y-68663880D01*
X110490000Y-68773113D01*
X111039151Y-68663880D01*
X111504698Y-68352811D01*
X111815767Y-67887264D01*
X111925000Y-67338113D01*
X111925000Y-67281887D01*
X111815767Y-66732736D01*
X111504698Y-66267189D01*
X111039151Y-65956120D01*
X110490000Y-65846887D01*
X109940849Y-65956120D01*
X109475302Y-66267189D01*
X109205014Y-66671703D01*
X109102389Y-66454866D01*
X108687423Y-66078959D01*
X108299039Y-65918096D01*
X108077000Y-66040085D01*
X107823000Y-66040085D01*
X107600961Y-65918096D01*
X107212577Y-66078959D01*
X106839864Y-66416590D01*
X106813162Y-66274683D01*
X106674090Y-66058559D01*
X106461890Y-65913569D01*
X106210000Y-65862560D01*
X106130128Y-65862560D01*
X106035687Y-65799457D01*
X105410000Y-65675000D01*
X104784313Y-65799457D01*
X104689872Y-65862560D01*
X104610000Y-65862560D01*
X104374683Y-65906838D01*
X104158559Y-66045910D01*
X104013569Y-66258110D01*
X103962560Y-66510000D01*
X103962560Y-66589872D01*
X103899457Y-66684313D01*
X103775000Y-67310000D01*
X103775000Y-69807761D01*
X102983880Y-70598880D01*
X102629457Y-71129312D01*
X102504999Y-71755000D01*
X100665133Y-71755000D01*
X100487849Y-71577717D01*
X100413880Y-71205849D01*
X100102811Y-70740302D01*
X99637264Y-70429233D01*
X99088113Y-70320000D01*
X99031887Y-70320000D01*
X98482736Y-70429233D01*
X98017189Y-70740302D01*
X97706120Y-71205849D01*
X97596887Y-71755000D01*
X97706120Y-72304151D01*
X98017189Y-72769698D01*
X98482736Y-73080767D01*
X98854604Y-73154736D01*
X100465000Y-74765133D01*
X100465000Y-77342998D01*
X100329916Y-77342998D01*
X100451904Y-77120961D01*
X100291041Y-76732577D01*
X99915134Y-76317611D01*
X99409041Y-76078086D01*
X99187000Y-76199371D01*
X99187000Y-77343000D01*
X99207000Y-77343000D01*
X99207000Y-77597000D01*
X99187000Y-77597000D01*
X99187000Y-78740629D01*
X99409041Y-78861914D01*
X99915134Y-78622389D01*
X100291041Y-78207423D01*
X100451904Y-77819039D01*
X100329916Y-77597002D01*
X100465000Y-77597002D01*
X100465000Y-79820674D01*
X100129346Y-79596396D01*
X99695000Y-79510000D01*
X99260655Y-79596396D01*
X98892434Y-79842434D01*
X98257434Y-80477434D01*
X98011397Y-80845654D01*
X97925000Y-81280000D01*
X97925000Y-84227233D01*
X97790000Y-84429275D01*
X97534698Y-84047189D01*
X97069151Y-83736120D01*
X96520000Y-83626887D01*
X95970849Y-83736120D01*
X95505302Y-84047189D01*
X95250000Y-84429275D01*
X94994698Y-84047189D01*
X94529151Y-83736120D01*
X93980000Y-83626887D01*
X93430849Y-83736120D01*
X92965302Y-84047189D01*
X92710000Y-84429275D01*
X92454698Y-84047189D01*
X91989151Y-83736120D01*
X91440000Y-83626887D01*
X90890849Y-83736120D01*
X90425302Y-84047189D01*
X90170000Y-84429275D01*
X89914698Y-84047189D01*
X89449151Y-83736120D01*
X88900000Y-83626887D01*
X88350849Y-83736120D01*
X87885302Y-84047189D01*
X87615014Y-84451703D01*
X87512389Y-84234866D01*
X87097423Y-83858959D01*
X86709039Y-83698096D01*
X86487000Y-83820085D01*
X86487000Y-84963000D01*
X86507000Y-84963000D01*
X86507000Y-85217000D01*
X86487000Y-85217000D01*
X86487000Y-86359915D01*
X86709039Y-86481904D01*
X87097423Y-86321041D01*
X87512389Y-85945134D01*
X87615014Y-85728297D01*
X87885302Y-86132811D01*
X88350849Y-86443880D01*
X88900000Y-86553113D01*
X89449151Y-86443880D01*
X89914698Y-86132811D01*
X90170000Y-85750725D01*
X90425302Y-86132811D01*
X90890849Y-86443880D01*
X91440000Y-86553113D01*
X91989151Y-86443880D01*
X92454698Y-86132811D01*
X92710000Y-85750725D01*
X92965302Y-86132811D01*
X93430849Y-86443880D01*
X93980000Y-86553113D01*
X94529151Y-86443880D01*
X94994698Y-86132811D01*
X95250000Y-85750725D01*
X95505302Y-86132811D01*
X95970849Y-86443880D01*
X96520000Y-86553113D01*
X97069151Y-86443880D01*
X97534698Y-86132811D01*
X97790000Y-85750725D01*
X98045302Y-86132811D01*
X98510849Y-86443880D01*
X99060000Y-86553113D01*
X99491193Y-86467343D01*
X99396882Y-86608490D01*
X99320000Y-86995000D01*
X99384022Y-87316858D01*
X99308490Y-87331882D01*
X98980822Y-87550822D01*
X98761882Y-87878490D01*
X98733671Y-88020315D01*
X98264178Y-87550822D01*
X97936510Y-87331882D01*
X97550000Y-87255000D01*
X88265000Y-87255000D01*
X87878490Y-87331882D01*
X87550822Y-87550822D01*
X85645822Y-89455822D01*
X85426882Y-89783490D01*
X85350000Y-90170000D01*
X85350000Y-91664050D01*
X85345302Y-91667189D01*
X85034233Y-92132736D01*
X84925000Y-92681887D01*
X84925000Y-92738113D01*
X85034233Y-93287264D01*
X85345302Y-93752811D01*
X85810849Y-94063880D01*
X86067846Y-94115000D01*
X83820000Y-94115000D01*
X83385654Y-94201397D01*
X83330000Y-94238584D01*
X83330000Y-93573968D01*
X83433490Y-93643118D01*
X83820000Y-93720000D01*
X84206510Y-93643118D01*
X84534178Y-93424178D01*
X84753118Y-93096510D01*
X84830000Y-92710000D01*
X84830000Y-85439041D01*
X84968086Y-85439041D01*
X85207611Y-85945134D01*
X85622577Y-86321041D01*
X86010961Y-86481904D01*
X86233000Y-86359915D01*
X86233000Y-85217000D01*
X85089371Y-85217000D01*
X84968086Y-85439041D01*
X84830000Y-85439041D01*
X84830000Y-84740959D01*
X84968086Y-84740959D01*
X85089371Y-84963000D01*
X86233000Y-84963000D01*
X86233000Y-83820085D01*
X86010961Y-83698096D01*
X85622577Y-83858959D01*
X85207611Y-84234866D01*
X84968086Y-84740959D01*
X84830000Y-84740959D01*
X84830000Y-84238356D01*
X85169178Y-83899178D01*
X85388118Y-83571510D01*
X85465000Y-83185000D01*
X85388118Y-82798490D01*
X85169178Y-82470822D01*
X84895183Y-82287745D01*
X85571861Y-82287745D01*
X85645995Y-82533864D01*
X86183223Y-82726965D01*
X86753454Y-82699778D01*
X87154005Y-82533864D01*
X87228139Y-82287745D01*
X86400000Y-81459605D01*
X85571861Y-82287745D01*
X84895183Y-82287745D01*
X84841510Y-82251882D01*
X84455000Y-82175000D01*
X84068490Y-82251882D01*
X83740822Y-82470822D01*
X83105822Y-83105822D01*
X82886882Y-83433490D01*
X82867500Y-83530929D01*
X82848118Y-83433489D01*
X82629178Y-83105822D01*
X80586579Y-81063223D01*
X84953035Y-81063223D01*
X84980222Y-81633454D01*
X85146136Y-82034005D01*
X85392255Y-82108139D01*
X86220395Y-81280000D01*
X86579605Y-81280000D01*
X87407745Y-82108139D01*
X87653864Y-82034005D01*
X87656196Y-82027517D01*
X87682757Y-82091800D01*
X88086077Y-82495824D01*
X88613309Y-82714750D01*
X89184187Y-82715248D01*
X89711800Y-82497243D01*
X89828708Y-82380539D01*
X89795000Y-82550000D01*
X89871882Y-82936510D01*
X90090822Y-83264178D01*
X90418490Y-83483118D01*
X90805000Y-83560000D01*
X91191510Y-83483118D01*
X91519178Y-83264178D01*
X92154178Y-82629178D01*
X92373118Y-82301510D01*
X92450000Y-81915000D01*
X92450000Y-78489388D01*
X92655824Y-78283923D01*
X92848860Y-77819039D01*
X97668096Y-77819039D01*
X97828959Y-78207423D01*
X98204866Y-78622389D01*
X98710959Y-78861914D01*
X98933000Y-78740629D01*
X98933000Y-77597000D01*
X97790085Y-77597000D01*
X97668096Y-77819039D01*
X92848860Y-77819039D01*
X92874750Y-77756691D01*
X92875248Y-77185813D01*
X92848452Y-77120961D01*
X97668096Y-77120961D01*
X97790085Y-77343000D01*
X98933000Y-77343000D01*
X98933000Y-76199371D01*
X98710959Y-76078086D01*
X98204866Y-76317611D01*
X97828959Y-76732577D01*
X97668096Y-77120961D01*
X92848452Y-77120961D01*
X92657243Y-76658200D01*
X92253923Y-76254176D01*
X91726691Y-76035250D01*
X91155813Y-76034752D01*
X90628200Y-76252757D01*
X90224176Y-76656077D01*
X90005250Y-77183309D01*
X90004752Y-77754187D01*
X90222757Y-78281800D01*
X90430000Y-78489405D01*
X90430000Y-81496644D01*
X90316854Y-81609790D01*
X90334750Y-81566691D01*
X90335248Y-80995813D01*
X90117243Y-80468200D01*
X89713923Y-80064176D01*
X89186691Y-79845250D01*
X88615813Y-79844752D01*
X88088200Y-80062757D01*
X87684176Y-80466077D01*
X87656577Y-80532544D01*
X87653864Y-80525995D01*
X87407745Y-80451861D01*
X86579605Y-81280000D01*
X86220395Y-81280000D01*
X85392255Y-80451861D01*
X85146136Y-80525995D01*
X84953035Y-81063223D01*
X80586579Y-81063223D01*
X80089178Y-80565822D01*
X79761510Y-80346882D01*
X79386337Y-80272255D01*
X85571861Y-80272255D01*
X86400000Y-81100395D01*
X87228139Y-80272255D01*
X87154005Y-80026136D01*
X86616777Y-79833035D01*
X86046546Y-79860222D01*
X85645995Y-80026136D01*
X85571861Y-80272255D01*
X79386337Y-80272255D01*
X79375000Y-80270000D01*
X78988490Y-80346882D01*
X78660822Y-80565822D01*
X78441882Y-80893490D01*
X78365000Y-81280000D01*
X78441882Y-81666510D01*
X78660822Y-81994178D01*
X80905000Y-84238356D01*
X80905000Y-85826644D01*
X78819178Y-83740822D01*
X78491510Y-83521882D01*
X78105000Y-83445000D01*
X77718490Y-83521882D01*
X77390822Y-83740822D01*
X77210000Y-84011442D01*
X77210000Y-80428356D01*
X78733362Y-78904994D01*
X79024187Y-78905248D01*
X79551800Y-78687243D01*
X79955824Y-78283923D01*
X80148860Y-77819039D01*
X84968096Y-77819039D01*
X85128959Y-78207423D01*
X85504866Y-78622389D01*
X86010959Y-78861914D01*
X86233000Y-78740629D01*
X86233000Y-77597000D01*
X86487000Y-77597000D01*
X86487000Y-78740629D01*
X86709041Y-78861914D01*
X87215134Y-78622389D01*
X87591041Y-78207423D01*
X87751904Y-77819039D01*
X87629915Y-77597000D01*
X86487000Y-77597000D01*
X86233000Y-77597000D01*
X85090085Y-77597000D01*
X84968096Y-77819039D01*
X80148860Y-77819039D01*
X80174750Y-77756691D01*
X80175248Y-77185813D01*
X80148452Y-77120961D01*
X84968096Y-77120961D01*
X85090085Y-77343000D01*
X86233000Y-77343000D01*
X86233000Y-76199371D01*
X86487000Y-76199371D01*
X86487000Y-77343000D01*
X87629915Y-77343000D01*
X87751904Y-77120961D01*
X87591041Y-76732577D01*
X87215134Y-76317611D01*
X86709041Y-76078086D01*
X86487000Y-76199371D01*
X86233000Y-76199371D01*
X86010959Y-76078086D01*
X85504866Y-76317611D01*
X85128959Y-76732577D01*
X84968096Y-77120961D01*
X80148452Y-77120961D01*
X79957243Y-76658200D01*
X79553923Y-76254176D01*
X79026691Y-76035250D01*
X78455813Y-76034752D01*
X77928200Y-76252757D01*
X77524176Y-76656077D01*
X77305250Y-77183309D01*
X77304994Y-77476650D01*
X75485822Y-79295822D01*
X75266882Y-79623490D01*
X75190000Y-80010000D01*
X75190000Y-80201442D01*
X75009178Y-79930822D01*
X74670000Y-79591644D01*
X74670000Y-72791622D01*
X74702811Y-72769698D01*
X75013880Y-72304151D01*
X75123113Y-71755000D01*
X75013880Y-71205849D01*
X74956518Y-71120000D01*
X77104999Y-71120000D01*
X77105000Y-71120005D01*
X77105000Y-71755000D01*
X77229457Y-72380687D01*
X77583880Y-72911120D01*
X78114313Y-73265543D01*
X78740000Y-73390000D01*
X79365687Y-73265543D01*
X79896120Y-72911120D01*
X80250543Y-72380687D01*
X80364512Y-71807728D01*
X80417239Y-71755000D01*
X84896887Y-71755000D01*
X85006120Y-72304151D01*
X85317189Y-72769698D01*
X85782736Y-73080767D01*
X86331887Y-73190000D01*
X86388113Y-73190000D01*
X86937264Y-73080767D01*
X87402811Y-72769698D01*
X87713880Y-72304151D01*
X87823113Y-71755000D01*
X89804999Y-71755000D01*
X89929457Y-72380688D01*
X90283880Y-72911120D01*
X90814312Y-73265543D01*
X91440000Y-73390001D01*
X92065688Y-73265543D01*
X92596120Y-72911120D01*
X93866117Y-71641122D01*
X93866120Y-71641120D01*
X94080248Y-71320654D01*
X94220543Y-71110688D01*
X94345000Y-70485000D01*
X94345000Y-68389237D01*
X94512577Y-68541041D01*
X94900961Y-68701904D01*
X95123000Y-68579915D01*
X95123000Y-67437000D01*
X95103000Y-67437000D01*
X95103000Y-67183000D01*
X95123000Y-67183000D01*
X95123000Y-66040085D01*
X95377000Y-66040085D01*
X95377000Y-67183000D01*
X95397000Y-67183000D01*
X95397000Y-67437000D01*
X95377000Y-67437000D01*
X95377000Y-68579915D01*
X95599039Y-68701904D01*
X95987423Y-68541041D01*
X96402389Y-68165134D01*
X96505014Y-67948297D01*
X96775302Y-68352811D01*
X97240849Y-68663880D01*
X97790000Y-68773113D01*
X98339151Y-68663880D01*
X98804698Y-68352811D01*
X99115767Y-67887264D01*
X99225000Y-67338113D01*
X99225000Y-67281887D01*
X99115767Y-66732736D01*
X98804698Y-66267189D01*
X98339151Y-65956120D01*
X97790000Y-65846887D01*
X97240849Y-65956120D01*
X96775302Y-66267189D01*
X96505014Y-66671703D01*
X96402389Y-66454866D01*
X95987423Y-66078959D01*
X95599039Y-65918096D01*
X95377000Y-66040085D01*
X95123000Y-66040085D01*
X94900961Y-65918096D01*
X94512577Y-66078959D01*
X94139864Y-66416590D01*
X94113162Y-66274683D01*
X93974090Y-66058559D01*
X93761890Y-65913569D01*
X93510000Y-65862560D01*
X93430128Y-65862560D01*
X93335687Y-65799457D01*
X92710000Y-65675000D01*
X92084313Y-65799457D01*
X91989872Y-65862560D01*
X91910000Y-65862560D01*
X91674683Y-65906838D01*
X91458559Y-66045910D01*
X91313569Y-66258110D01*
X91262560Y-66510000D01*
X91262560Y-66589872D01*
X91199457Y-66684313D01*
X91075000Y-67310000D01*
X91075000Y-69807761D01*
X90283880Y-70598880D01*
X89929457Y-71129312D01*
X89804999Y-71755000D01*
X87823113Y-71755000D01*
X87713880Y-71205849D01*
X87402811Y-70740302D01*
X86937264Y-70429233D01*
X86388113Y-70320000D01*
X86331887Y-70320000D01*
X85782736Y-70429233D01*
X85317189Y-70740302D01*
X85006120Y-71205849D01*
X84896887Y-71755000D01*
X80417239Y-71755000D01*
X81166117Y-71006122D01*
X81166120Y-71006120D01*
X81378581Y-70688149D01*
X81520543Y-70475688D01*
X81645000Y-69850000D01*
X81645000Y-68389237D01*
X81812577Y-68541041D01*
X82200961Y-68701904D01*
X82423000Y-68579915D01*
X82423000Y-67437000D01*
X82403000Y-67437000D01*
X82403000Y-67183000D01*
X82423000Y-67183000D01*
X82423000Y-66040085D01*
X82677000Y-66040085D01*
X82677000Y-67183000D01*
X82697000Y-67183000D01*
X82697000Y-67437000D01*
X82677000Y-67437000D01*
X82677000Y-68579915D01*
X82899039Y-68701904D01*
X83287423Y-68541041D01*
X83702389Y-68165134D01*
X83805014Y-67948297D01*
X84075302Y-68352811D01*
X84540849Y-68663880D01*
X85090000Y-68773113D01*
X85639151Y-68663880D01*
X86104698Y-68352811D01*
X86415767Y-67887264D01*
X86525000Y-67338113D01*
X86525000Y-67281887D01*
X86415767Y-66732736D01*
X86104698Y-66267189D01*
X85639151Y-65956120D01*
X85090000Y-65846887D01*
X84540849Y-65956120D01*
X84075302Y-66267189D01*
X83805014Y-66671703D01*
X83702389Y-66454866D01*
X83287423Y-66078959D01*
X82899039Y-65918096D01*
X82677000Y-66040085D01*
X82423000Y-66040085D01*
X82200961Y-65918096D01*
X81812577Y-66078959D01*
X81439864Y-66416590D01*
X81413162Y-66274683D01*
X81274090Y-66058559D01*
X81061890Y-65913569D01*
X80810000Y-65862560D01*
X80730128Y-65862560D01*
X80635687Y-65799457D01*
X80010000Y-65675000D01*
X79384313Y-65799457D01*
X79289872Y-65862560D01*
X79210000Y-65862560D01*
X78974683Y-65906838D01*
X78758559Y-66045910D01*
X78613569Y-66258110D01*
X78562560Y-66510000D01*
X78562560Y-66589872D01*
X78499457Y-66684313D01*
X78375000Y-67310000D01*
X78375000Y-69172761D01*
X77583880Y-69963880D01*
X77229457Y-70494312D01*
X77104999Y-71120000D01*
X74956518Y-71120000D01*
X74702811Y-70740302D01*
X74237264Y-70429233D01*
X73688113Y-70320000D01*
X73631887Y-70320000D01*
X73082736Y-70429233D01*
X72617189Y-70740302D01*
X72306120Y-71205849D01*
X72196887Y-71755000D01*
X72306120Y-72304151D01*
X72617189Y-72769698D01*
X72650000Y-72791622D01*
X72650000Y-80010000D01*
X72726882Y-80396510D01*
X72945822Y-80724178D01*
X73580822Y-81359178D01*
X73908490Y-81578118D01*
X74295000Y-81655000D01*
X74681510Y-81578118D01*
X75009178Y-81359178D01*
X75190000Y-81088558D01*
X75190000Y-91656644D01*
X73580822Y-93265822D01*
X73361882Y-93593490D01*
X73285000Y-93980000D01*
X73361882Y-94366510D01*
X73580822Y-94694178D01*
X73908490Y-94913118D01*
X74295000Y-94990000D01*
X74681510Y-94913118D01*
X75009178Y-94694178D01*
X76914178Y-92789178D01*
X77133118Y-92461510D01*
X77210000Y-92075000D01*
X77210000Y-84898558D01*
X77390822Y-85169178D01*
X81310000Y-89088356D01*
X81310000Y-96257881D01*
X81271397Y-96315654D01*
X81185000Y-96750000D01*
X81185000Y-98118203D01*
X81123569Y-98208110D01*
X81072560Y-98460000D01*
X81072560Y-99660000D01*
X81116838Y-99895317D01*
X81255910Y-100111441D01*
X81468110Y-100256431D01*
X81720000Y-100307440D01*
X82920000Y-100307440D01*
X83155317Y-100263162D01*
X83282636Y-100181234D01*
X83651036Y-100307807D01*
X84141413Y-100277482D01*
X84453617Y-100148164D01*
X84503130Y-99922735D01*
X83820000Y-99239605D01*
X83805858Y-99253748D01*
X83626253Y-99074143D01*
X83640395Y-99060000D01*
X83999605Y-99060000D01*
X84682735Y-99743130D01*
X84908164Y-99693617D01*
X85067807Y-99228964D01*
X85037482Y-98738587D01*
X84908164Y-98426383D01*
X84682735Y-98376870D01*
X83999605Y-99060000D01*
X83640395Y-99060000D01*
X83626253Y-99045858D01*
X83805858Y-98866253D01*
X83820000Y-98880395D01*
X84503130Y-98197265D01*
X84453617Y-97971836D01*
X83988964Y-97812193D01*
X83498587Y-97842518D01*
X83455000Y-97860572D01*
X83455000Y-97220132D01*
X84290132Y-96385000D01*
X87265000Y-96385000D01*
X87265000Y-100964995D01*
X87264999Y-100965000D01*
X87389457Y-101590688D01*
X87743880Y-102121120D01*
X89387761Y-103765000D01*
X65823356Y-103765000D01*
X58160000Y-96101644D01*
X58160000Y-94336890D01*
X58248524Y-94336890D01*
X58418355Y-94746924D01*
X58808642Y-95175183D01*
X59333108Y-95421486D01*
X59563000Y-95300819D01*
X59563000Y-94107000D01*
X59817000Y-94107000D01*
X59817000Y-95300819D01*
X60046892Y-95421486D01*
X60571358Y-95175183D01*
X60960000Y-94748729D01*
X61348642Y-95175183D01*
X61873108Y-95421486D01*
X62103000Y-95300819D01*
X62103000Y-94107000D01*
X62357000Y-94107000D01*
X62357000Y-95300819D01*
X62586892Y-95421486D01*
X63111358Y-95175183D01*
X63501645Y-94746924D01*
X63671476Y-94336890D01*
X63550155Y-94107000D01*
X62357000Y-94107000D01*
X62103000Y-94107000D01*
X59817000Y-94107000D01*
X59563000Y-94107000D01*
X58369845Y-94107000D01*
X58248524Y-94336890D01*
X58160000Y-94336890D01*
X58160000Y-92493356D01*
X58203356Y-92450000D01*
X58584090Y-92450000D01*
X58610853Y-92490054D01*
X58951553Y-92717702D01*
X58808642Y-92784817D01*
X58418355Y-93213076D01*
X58248524Y-93623110D01*
X58369845Y-93853000D01*
X59563000Y-93853000D01*
X59563000Y-93833000D01*
X59817000Y-93833000D01*
X59817000Y-93853000D01*
X62103000Y-93853000D01*
X62103000Y-93833000D01*
X62357000Y-93833000D01*
X62357000Y-93853000D01*
X63550155Y-93853000D01*
X63671476Y-93623110D01*
X63501645Y-93213076D01*
X63111358Y-92784817D01*
X62968447Y-92717702D01*
X63309147Y-92490054D01*
X63631054Y-92008285D01*
X63744093Y-91440000D01*
X63631054Y-90871715D01*
X63309147Y-90389946D01*
X62979974Y-90170000D01*
X63309147Y-89950054D01*
X63631054Y-89468285D01*
X63744093Y-88900000D01*
X63631054Y-88331715D01*
X63309147Y-87849946D01*
X62979974Y-87630000D01*
X63309147Y-87410054D01*
X63631054Y-86928285D01*
X63744093Y-86360000D01*
X63631054Y-85791715D01*
X63309147Y-85309946D01*
X62979974Y-85090000D01*
X63309147Y-84870054D01*
X63586476Y-84455000D01*
X64905000Y-84455000D01*
X64905000Y-93980000D01*
X64991397Y-94414346D01*
X65054605Y-94508943D01*
X65237434Y-94782566D01*
X66507434Y-96052566D01*
X66875655Y-96298603D01*
X67310000Y-96385000D01*
X67744345Y-96298603D01*
X68112566Y-96052566D01*
X68358603Y-95684345D01*
X68445000Y-95250000D01*
X68358603Y-94815655D01*
X68112566Y-94447434D01*
X68007667Y-94342535D01*
X68331510Y-94278118D01*
X68659178Y-94059178D01*
X68878118Y-93731510D01*
X68955000Y-93345000D01*
X68955000Y-89535000D01*
X68878118Y-89148490D01*
X68659178Y-88820822D01*
X68331510Y-88601882D01*
X67945000Y-88525000D01*
X67558490Y-88601882D01*
X67230822Y-88820822D01*
X67175000Y-88904366D01*
X67175000Y-84455000D01*
X67088603Y-84020654D01*
X66842566Y-83652434D01*
X66474346Y-83406397D01*
X66040000Y-83320000D01*
X65605654Y-83406397D01*
X65237434Y-83652434D01*
X64991397Y-84020654D01*
X64905000Y-84455000D01*
X63586476Y-84455000D01*
X63631054Y-84388285D01*
X63744093Y-83820000D01*
X63631054Y-83251715D01*
X63309147Y-82769946D01*
X62827378Y-82448039D01*
X62259093Y-82335000D01*
X62200907Y-82335000D01*
X61632622Y-82448039D01*
X61150853Y-82769946D01*
X61150029Y-82771179D01*
X61143162Y-82734683D01*
X61004090Y-82518559D01*
X60791890Y-82373569D01*
X60540000Y-82322560D01*
X58840000Y-82322560D01*
X58604683Y-82366838D01*
X58388559Y-82505910D01*
X58243569Y-82718110D01*
X58192560Y-82970000D01*
X58192560Y-84670000D01*
X58236838Y-84905317D01*
X58375910Y-85121441D01*
X58588110Y-85266431D01*
X58655541Y-85280086D01*
X58610853Y-85309946D01*
X58288946Y-85791715D01*
X58175907Y-86360000D01*
X58288946Y-86928285D01*
X58610853Y-87410054D01*
X58940026Y-87630000D01*
X58610853Y-87849946D01*
X58288946Y-88331715D01*
X58175907Y-88900000D01*
X58288946Y-89468285D01*
X58610853Y-89950054D01*
X58940026Y-90170000D01*
X58610853Y-90389946D01*
X58584090Y-90430000D01*
X57785000Y-90430000D01*
X57398490Y-90506882D01*
X57070822Y-90725822D01*
X56435822Y-91360822D01*
X56216882Y-91688490D01*
X56140000Y-92075000D01*
X56140000Y-96520000D01*
X56216882Y-96906510D01*
X56435822Y-97234178D01*
X63901644Y-104700000D01*
X51510000Y-104700000D01*
X51510000Y-101585854D01*
X52109457Y-101585854D01*
X52585727Y-102738515D01*
X53466847Y-103621174D01*
X54618674Y-104099454D01*
X55865854Y-104100543D01*
X57018515Y-103624273D01*
X57901174Y-102743153D01*
X58379454Y-101591326D01*
X58380543Y-100344146D01*
X57904273Y-99191485D01*
X57023153Y-98308826D01*
X55871326Y-97830546D01*
X54624146Y-97829457D01*
X53471485Y-98305727D01*
X52588826Y-99186847D01*
X52110546Y-100338674D01*
X52109457Y-101585854D01*
X51510000Y-101585854D01*
X51510000Y-71120000D01*
X64404999Y-71120000D01*
X64405000Y-71120005D01*
X64405000Y-71755000D01*
X64529457Y-72380687D01*
X64883880Y-72911120D01*
X65414313Y-73265543D01*
X66040000Y-73390000D01*
X66665687Y-73265543D01*
X67196120Y-72911120D01*
X67550543Y-72380687D01*
X67664512Y-71807728D01*
X68466117Y-71006122D01*
X68466120Y-71006120D01*
X68678581Y-70688149D01*
X68820543Y-70475688D01*
X68945000Y-69850000D01*
X68945000Y-68389237D01*
X69112577Y-68541041D01*
X69500961Y-68701904D01*
X69723000Y-68579915D01*
X69723000Y-67437000D01*
X69703000Y-67437000D01*
X69703000Y-67183000D01*
X69723000Y-67183000D01*
X69723000Y-66040085D01*
X69977000Y-66040085D01*
X69977000Y-67183000D01*
X69997000Y-67183000D01*
X69997000Y-67437000D01*
X69977000Y-67437000D01*
X69977000Y-68579915D01*
X70199039Y-68701904D01*
X70587423Y-68541041D01*
X71002389Y-68165134D01*
X71105014Y-67948297D01*
X71375302Y-68352811D01*
X71840849Y-68663880D01*
X72390000Y-68773113D01*
X72939151Y-68663880D01*
X73404698Y-68352811D01*
X73715767Y-67887264D01*
X73825000Y-67338113D01*
X73825000Y-67281887D01*
X73715767Y-66732736D01*
X73404698Y-66267189D01*
X72939151Y-65956120D01*
X72390000Y-65846887D01*
X71840849Y-65956120D01*
X71375302Y-66267189D01*
X71105014Y-66671703D01*
X71002389Y-66454866D01*
X70587423Y-66078959D01*
X70199039Y-65918096D01*
X69977000Y-66040085D01*
X69723000Y-66040085D01*
X69500961Y-65918096D01*
X69112577Y-66078959D01*
X68739864Y-66416590D01*
X68713162Y-66274683D01*
X68574090Y-66058559D01*
X68361890Y-65913569D01*
X68110000Y-65862560D01*
X68030128Y-65862560D01*
X67935687Y-65799457D01*
X67310000Y-65675000D01*
X66684313Y-65799457D01*
X66589872Y-65862560D01*
X66510000Y-65862560D01*
X66274683Y-65906838D01*
X66058559Y-66045910D01*
X65913569Y-66258110D01*
X65862560Y-66510000D01*
X65862560Y-66589872D01*
X65799457Y-66684313D01*
X65675000Y-67310000D01*
X65675000Y-69172761D01*
X64883880Y-69963880D01*
X64529457Y-70494312D01*
X64404999Y-71120000D01*
X51510000Y-71120000D01*
X51510000Y-65532000D01*
X138990000Y-65532000D01*
X138990000Y-104700000D01*
X138990000Y-104700000D01*
G37*
X138990000Y-104700000D02*
X117073356Y-104700000D01*
X120187502Y-101585854D01*
X132119457Y-101585854D01*
X132595727Y-102738515D01*
X133476847Y-103621174D01*
X134628674Y-104099454D01*
X135875854Y-104100543D01*
X137028515Y-103624273D01*
X137911174Y-102743153D01*
X138389454Y-101591326D01*
X138390543Y-100344146D01*
X137914273Y-99191485D01*
X137033153Y-98308826D01*
X135881326Y-97830546D01*
X134634146Y-97829457D01*
X133481485Y-98305727D01*
X132598826Y-99186847D01*
X132120546Y-100338674D01*
X132119457Y-101585854D01*
X120187502Y-101585854D01*
X127493760Y-94279596D01*
X127463524Y-94336890D01*
X127633355Y-94746924D01*
X128023642Y-95175183D01*
X128548108Y-95421486D01*
X128778000Y-95300819D01*
X128778000Y-94107000D01*
X129032000Y-94107000D01*
X129032000Y-95300819D01*
X129261892Y-95421486D01*
X129786358Y-95175183D01*
X130175000Y-94748729D01*
X130563642Y-95175183D01*
X131088108Y-95421486D01*
X131318000Y-95300819D01*
X131318000Y-94107000D01*
X131572000Y-94107000D01*
X131572000Y-95300819D01*
X131801892Y-95421486D01*
X132326358Y-95175183D01*
X132716645Y-94746924D01*
X132886476Y-94336890D01*
X132765155Y-94107000D01*
X131572000Y-94107000D01*
X131318000Y-94107000D01*
X129032000Y-94107000D01*
X128778000Y-94107000D01*
X128758000Y-94107000D01*
X128758000Y-93853000D01*
X128778000Y-93853000D01*
X128778000Y-93833000D01*
X129032000Y-93833000D01*
X129032000Y-93853000D01*
X131318000Y-93853000D01*
X131318000Y-93833000D01*
X131572000Y-93833000D01*
X131572000Y-93853000D01*
X132765155Y-93853000D01*
X132886476Y-93623110D01*
X132716645Y-93213076D01*
X132326358Y-92784817D01*
X132183447Y-92717702D01*
X132524147Y-92490054D01*
X132846054Y-92008285D01*
X132959093Y-91440000D01*
X132846054Y-90871715D01*
X132524147Y-90389946D01*
X132194974Y-90170000D01*
X132524147Y-89950054D01*
X132846054Y-89468285D01*
X132959093Y-88900000D01*
X132846054Y-88331715D01*
X132524147Y-87849946D01*
X132194974Y-87630000D01*
X132524147Y-87410054D01*
X132846054Y-86928285D01*
X132959093Y-86360000D01*
X132846054Y-85791715D01*
X132524147Y-85309946D01*
X132194974Y-85090000D01*
X132524147Y-84870054D01*
X132846054Y-84388285D01*
X132959093Y-83820000D01*
X132846054Y-83251715D01*
X132524147Y-82769946D01*
X132042378Y-82448039D01*
X131474093Y-82335000D01*
X131415907Y-82335000D01*
X130847622Y-82448039D01*
X130365853Y-82769946D01*
X130365029Y-82771179D01*
X130358162Y-82734683D01*
X130219090Y-82518559D01*
X130006890Y-82373569D01*
X129755000Y-82322560D01*
X128055000Y-82322560D01*
X127819683Y-82366838D01*
X127603559Y-82505910D01*
X127458569Y-82718110D01*
X127407560Y-82970000D01*
X127407560Y-84670000D01*
X127451838Y-84905317D01*
X127590910Y-85121441D01*
X127803110Y-85266431D01*
X127870541Y-85280086D01*
X127825853Y-85309946D01*
X127503946Y-85791715D01*
X127390907Y-86360000D01*
X127503946Y-86928285D01*
X127825853Y-87410054D01*
X128155026Y-87630000D01*
X127825853Y-87849946D01*
X127503946Y-88331715D01*
X127390907Y-88900000D01*
X127503946Y-89468285D01*
X127825853Y-89950054D01*
X128155026Y-90170000D01*
X127825853Y-90389946D01*
X127503946Y-90871715D01*
X127390907Y-91440000D01*
X127405132Y-91511512D01*
X115151644Y-103765000D01*
X97302240Y-103765000D01*
X98946117Y-102121122D01*
X98946120Y-102121120D01*
X99218228Y-101713881D01*
X99300543Y-101590688D01*
X99425001Y-100965000D01*
X99425000Y-100964995D01*
X99425000Y-100695000D01*
X100329995Y-100695000D01*
X100330000Y-100695001D01*
X100955688Y-100570543D01*
X101486120Y-100216120D01*
X105296117Y-96406122D01*
X105296120Y-96406120D01*
X105315000Y-96377864D01*
X105315000Y-98118203D01*
X105253569Y-98208110D01*
X105202560Y-98460000D01*
X105202560Y-99660000D01*
X105246838Y-99895317D01*
X105385910Y-100111441D01*
X105598110Y-100256431D01*
X105850000Y-100307440D01*
X107050000Y-100307440D01*
X107285317Y-100263162D01*
X107412636Y-100181234D01*
X107781036Y-100307807D01*
X108271413Y-100277482D01*
X108583617Y-100148164D01*
X108633130Y-99922735D01*
X107950000Y-99239605D01*
X107935858Y-99253748D01*
X107756253Y-99074143D01*
X107770395Y-99060000D01*
X108129605Y-99060000D01*
X108812735Y-99743130D01*
X109038164Y-99693617D01*
X109197807Y-99228964D01*
X109167482Y-98738587D01*
X109038164Y-98426383D01*
X108812735Y-98376870D01*
X108129605Y-99060000D01*
X107770395Y-99060000D01*
X107756253Y-99045858D01*
X107935858Y-98866253D01*
X107950000Y-98880395D01*
X108633130Y-98197265D01*
X108583617Y-97971836D01*
X108118964Y-97812193D01*
X107628587Y-97842518D01*
X107585000Y-97860572D01*
X107585000Y-95300273D01*
X107651882Y-95636510D01*
X107870822Y-95964178D01*
X108198490Y-96183118D01*
X108585000Y-96260000D01*
X108971510Y-96183118D01*
X109299178Y-95964178D01*
X112474178Y-92789178D01*
X112693118Y-92461510D01*
X112770000Y-92075000D01*
X112770000Y-78489388D01*
X112975824Y-78283923D01*
X113194750Y-77756691D01*
X113195248Y-77185813D01*
X112977243Y-76658200D01*
X112573923Y-76254176D01*
X112046691Y-76035250D01*
X111475813Y-76034752D01*
X110948200Y-76252757D01*
X110544176Y-76656077D01*
X110325250Y-77183309D01*
X110324752Y-77754187D01*
X110542757Y-78281800D01*
X110750000Y-78489405D01*
X110750000Y-91656644D01*
X107870822Y-94535822D01*
X107651882Y-94863490D01*
X107585000Y-95199727D01*
X107585000Y-87060132D01*
X110022567Y-84622566D01*
X110268604Y-84254345D01*
X110355000Y-83820000D01*
X110268604Y-83385654D01*
X110022567Y-83017433D01*
X109654346Y-82771396D01*
X109220000Y-82685000D01*
X108785655Y-82771396D01*
X108417434Y-83017433D01*
X105647434Y-85787434D01*
X105587440Y-85877221D01*
X105587440Y-84290000D01*
X105543162Y-84054683D01*
X105404090Y-83838559D01*
X105191890Y-83693569D01*
X104940000Y-83642560D01*
X103340000Y-83642560D01*
X103104683Y-83686838D01*
X102888559Y-83825910D01*
X102743569Y-84038110D01*
X102735000Y-84080425D01*
X102735000Y-80645000D01*
X103640000Y-80645000D01*
X103726397Y-81079345D01*
X103972434Y-81447566D01*
X104340655Y-81693603D01*
X104775000Y-81780000D01*
X105209345Y-81693603D01*
X105577566Y-81447566D01*
X112095132Y-74930000D01*
X113290000Y-74930000D01*
X113366882Y-75316510D01*
X113585822Y-75644178D01*
X113925000Y-75983356D01*
X113925000Y-85725000D01*
X114001882Y-86111510D01*
X114220822Y-86439178D01*
X114548490Y-86658118D01*
X114935000Y-86735000D01*
X115321510Y-86658118D01*
X115649178Y-86439178D01*
X115868118Y-86111510D01*
X115945000Y-85725000D01*
X115945000Y-81915000D01*
X121545000Y-81915000D01*
X121621882Y-82301510D01*
X121840822Y-82629178D01*
X122168490Y-82848118D01*
X122555000Y-82925000D01*
X122941510Y-82848118D01*
X123269178Y-82629178D01*
X125174178Y-80724178D01*
X125393118Y-80396510D01*
X125470000Y-80010000D01*
X125470000Y-72791622D01*
X125502811Y-72769698D01*
X125813880Y-72304151D01*
X125923113Y-71755000D01*
X125813880Y-71205849D01*
X125502811Y-70740302D01*
X125037264Y-70429233D01*
X124488113Y-70320000D01*
X124431887Y-70320000D01*
X123882736Y-70429233D01*
X123417189Y-70740302D01*
X123106120Y-71205849D01*
X122996887Y-71755000D01*
X123106120Y-72304151D01*
X123417189Y-72769698D01*
X123450000Y-72791622D01*
X123450000Y-79591644D01*
X121840822Y-81200822D01*
X121621882Y-81528490D01*
X121545000Y-81915000D01*
X115945000Y-81915000D01*
X115945000Y-75565000D01*
X115868118Y-75178490D01*
X115649178Y-74850822D01*
X115014178Y-74215822D01*
X114686510Y-73996882D01*
X114300000Y-73920000D01*
X113913490Y-73996882D01*
X113585822Y-74215822D01*
X113366882Y-74543490D01*
X113290000Y-74930000D01*
X112095132Y-74930000D01*
X112562566Y-74462566D01*
X112727435Y-74215822D01*
X112808603Y-74094346D01*
X112895000Y-73660000D01*
X112895000Y-72631728D01*
X113113880Y-72304151D01*
X113223113Y-71755000D01*
X113113880Y-71205849D01*
X113056518Y-71120000D01*
X115204999Y-71120000D01*
X115205000Y-71120005D01*
X115205000Y-71755000D01*
X115329457Y-72380687D01*
X115683880Y-72911120D01*
X116214313Y-73265543D01*
X116840000Y-73390000D01*
X117465687Y-73265543D01*
X117996120Y-72911120D01*
X118350543Y-72380687D01*
X118464512Y-71807728D01*
X119266117Y-71006122D01*
X119266120Y-71006120D01*
X119478581Y-70688149D01*
X119620543Y-70475688D01*
X119745000Y-69850000D01*
X119745000Y-68389237D01*
X119912577Y-68541041D01*
X120300961Y-68701904D01*
X120523000Y-68579915D01*
X120523000Y-67437000D01*
X120503000Y-67437000D01*
X120503000Y-67183000D01*
X120523000Y-67183000D01*
X120523000Y-66040085D01*
X120777000Y-66040085D01*
X120777000Y-67183000D01*
X120797000Y-67183000D01*
X120797000Y-67437000D01*
X120777000Y-67437000D01*
X120777000Y-68579915D01*
X120999039Y-68701904D01*
X121387423Y-68541041D01*
X121802389Y-68165134D01*
X121905014Y-67948297D01*
X122175302Y-68352811D01*
X122640849Y-68663880D01*
X123190000Y-68773113D01*
X123739151Y-68663880D01*
X124204698Y-68352811D01*
X124515767Y-67887264D01*
X124625000Y-67338113D01*
X124625000Y-67281887D01*
X124515767Y-66732736D01*
X124204698Y-66267189D01*
X123739151Y-65956120D01*
X123190000Y-65846887D01*
X122640849Y-65956120D01*
X122175302Y-66267189D01*
X121905014Y-66671703D01*
X121802389Y-66454866D01*
X121387423Y-66078959D01*
X120999039Y-65918096D01*
X120777000Y-66040085D01*
X120523000Y-66040085D01*
X120300961Y-65918096D01*
X119912577Y-66078959D01*
X119539864Y-66416590D01*
X119513162Y-66274683D01*
X119374090Y-66058559D01*
X119161890Y-65913569D01*
X118910000Y-65862560D01*
X118830128Y-65862560D01*
X118735687Y-65799457D01*
X118110000Y-65675000D01*
X117484313Y-65799457D01*
X117389872Y-65862560D01*
X117310000Y-65862560D01*
X117074683Y-65906838D01*
X116858559Y-66045910D01*
X116713569Y-66258110D01*
X116662560Y-66510000D01*
X116662560Y-66589872D01*
X116599457Y-66684313D01*
X116475000Y-67310000D01*
X116475000Y-69172761D01*
X115683880Y-69963880D01*
X115329457Y-70494312D01*
X115204999Y-71120000D01*
X113056518Y-71120000D01*
X112802811Y-70740302D01*
X112337264Y-70429233D01*
X111788113Y-70320000D01*
X111731887Y-70320000D01*
X111182736Y-70429233D01*
X110717189Y-70740302D01*
X110406120Y-71205849D01*
X110296887Y-71755000D01*
X110406120Y-72304151D01*
X110625000Y-72631728D01*
X110625000Y-73189868D01*
X103972434Y-79842434D01*
X103726397Y-80210655D01*
X103640000Y-80645000D01*
X102735000Y-80645000D01*
X102735000Y-77597002D01*
X102870084Y-77597002D01*
X102748096Y-77819039D01*
X102908959Y-78207423D01*
X103284866Y-78622389D01*
X103790959Y-78861914D01*
X104013000Y-78740629D01*
X104013000Y-77597000D01*
X104267000Y-77597000D01*
X104267000Y-78740629D01*
X104489041Y-78861914D01*
X104995134Y-78622389D01*
X105371041Y-78207423D01*
X105531904Y-77819039D01*
X105409915Y-77597000D01*
X104267000Y-77597000D01*
X104013000Y-77597000D01*
X103993000Y-77597000D01*
X103993000Y-77343000D01*
X104013000Y-77343000D01*
X104013000Y-76199371D01*
X104267000Y-76199371D01*
X104267000Y-77343000D01*
X105409915Y-77343000D01*
X105531904Y-77120961D01*
X105371041Y-76732577D01*
X104995134Y-76317611D01*
X104489041Y-76078086D01*
X104267000Y-76199371D01*
X104013000Y-76199371D01*
X103790959Y-76078086D01*
X103284866Y-76317611D01*
X102908959Y-76732577D01*
X102748096Y-77120961D01*
X102870084Y-77342998D01*
X102735000Y-77342998D01*
X102735000Y-74295000D01*
X102648603Y-73860654D01*
X102402566Y-73492433D01*
X100665133Y-71755000D01*
X102504999Y-71755000D01*
X102629457Y-72380688D01*
X102983880Y-72911120D01*
X103514312Y-73265543D01*
X104140000Y-73390001D01*
X104765688Y-73265543D01*
X105296120Y-72911120D01*
X106566117Y-71641122D01*
X106566120Y-71641120D01*
X106780248Y-71320654D01*
X106920543Y-71110688D01*
X107045000Y-70485000D01*
X107045000Y-68389237D01*
X107212577Y-68541041D01*
X107600961Y-68701904D01*
X107823000Y-68579915D01*
X107823000Y-67437000D01*
X107803000Y-67437000D01*
X107803000Y-67183000D01*
X107823000Y-67183000D01*
X107823000Y-66040085D01*
X108077000Y-66040085D01*
X108077000Y-67183000D01*
X108097000Y-67183000D01*
X108097000Y-67437000D01*
X108077000Y-67437000D01*
X108077000Y-68579915D01*
X108299039Y-68701904D01*
X108687423Y-68541041D01*
X109102389Y-68165134D01*
X109205014Y-67948297D01*
X109475302Y-68352811D01*
X109940849Y-68663880D01*
X110490000Y-68773113D01*
X111039151Y-68663880D01*
X111504698Y-68352811D01*
X111815767Y-67887264D01*
X111925000Y-67338113D01*
X111925000Y-67281887D01*
X111815767Y-66732736D01*
X111504698Y-66267189D01*
X111039151Y-65956120D01*
X110490000Y-65846887D01*
X109940849Y-65956120D01*
X109475302Y-66267189D01*
X109205014Y-66671703D01*
X109102389Y-66454866D01*
X108687423Y-66078959D01*
X108299039Y-65918096D01*
X108077000Y-66040085D01*
X107823000Y-66040085D01*
X107600961Y-65918096D01*
X107212577Y-66078959D01*
X106839864Y-66416590D01*
X106813162Y-66274683D01*
X106674090Y-66058559D01*
X106461890Y-65913569D01*
X106210000Y-65862560D01*
X106130128Y-65862560D01*
X106035687Y-65799457D01*
X105410000Y-65675000D01*
X104784313Y-65799457D01*
X104689872Y-65862560D01*
X104610000Y-65862560D01*
X104374683Y-65906838D01*
X104158559Y-66045910D01*
X104013569Y-66258110D01*
X103962560Y-66510000D01*
X103962560Y-66589872D01*
X103899457Y-66684313D01*
X103775000Y-67310000D01*
X103775000Y-69807761D01*
X102983880Y-70598880D01*
X102629457Y-71129312D01*
X102504999Y-71755000D01*
X100665133Y-71755000D01*
X100487849Y-71577717D01*
X100413880Y-71205849D01*
X100102811Y-70740302D01*
X99637264Y-70429233D01*
X99088113Y-70320000D01*
X99031887Y-70320000D01*
X98482736Y-70429233D01*
X98017189Y-70740302D01*
X97706120Y-71205849D01*
X97596887Y-71755000D01*
X97706120Y-72304151D01*
X98017189Y-72769698D01*
X98482736Y-73080767D01*
X98854604Y-73154736D01*
X100465000Y-74765133D01*
X100465000Y-77342998D01*
X100329916Y-77342998D01*
X100451904Y-77120961D01*
X100291041Y-76732577D01*
X99915134Y-76317611D01*
X99409041Y-76078086D01*
X99187000Y-76199371D01*
X99187000Y-77343000D01*
X99207000Y-77343000D01*
X99207000Y-77597000D01*
X99187000Y-77597000D01*
X99187000Y-78740629D01*
X99409041Y-78861914D01*
X99915134Y-78622389D01*
X100291041Y-78207423D01*
X100451904Y-77819039D01*
X100329916Y-77597002D01*
X100465000Y-77597002D01*
X100465000Y-79820674D01*
X100129346Y-79596396D01*
X99695000Y-79510000D01*
X99260655Y-79596396D01*
X98892434Y-79842434D01*
X98257434Y-80477434D01*
X98011397Y-80845654D01*
X97925000Y-81280000D01*
X97925000Y-84227233D01*
X97790000Y-84429275D01*
X97534698Y-84047189D01*
X97069151Y-83736120D01*
X96520000Y-83626887D01*
X95970849Y-83736120D01*
X95505302Y-84047189D01*
X95250000Y-84429275D01*
X94994698Y-84047189D01*
X94529151Y-83736120D01*
X93980000Y-83626887D01*
X93430849Y-83736120D01*
X92965302Y-84047189D01*
X92710000Y-84429275D01*
X92454698Y-84047189D01*
X91989151Y-83736120D01*
X91440000Y-83626887D01*
X90890849Y-83736120D01*
X90425302Y-84047189D01*
X90170000Y-84429275D01*
X89914698Y-84047189D01*
X89449151Y-83736120D01*
X88900000Y-83626887D01*
X88350849Y-83736120D01*
X87885302Y-84047189D01*
X87615014Y-84451703D01*
X87512389Y-84234866D01*
X87097423Y-83858959D01*
X86709039Y-83698096D01*
X86487000Y-83820085D01*
X86487000Y-84963000D01*
X86507000Y-84963000D01*
X86507000Y-85217000D01*
X86487000Y-85217000D01*
X86487000Y-86359915D01*
X86709039Y-86481904D01*
X87097423Y-86321041D01*
X87512389Y-85945134D01*
X87615014Y-85728297D01*
X87885302Y-86132811D01*
X88350849Y-86443880D01*
X88900000Y-86553113D01*
X89449151Y-86443880D01*
X89914698Y-86132811D01*
X90170000Y-85750725D01*
X90425302Y-86132811D01*
X90890849Y-86443880D01*
X91440000Y-86553113D01*
X91989151Y-86443880D01*
X92454698Y-86132811D01*
X92710000Y-85750725D01*
X92965302Y-86132811D01*
X93430849Y-86443880D01*
X93980000Y-86553113D01*
X94529151Y-86443880D01*
X94994698Y-86132811D01*
X95250000Y-85750725D01*
X95505302Y-86132811D01*
X95970849Y-86443880D01*
X96520000Y-86553113D01*
X97069151Y-86443880D01*
X97534698Y-86132811D01*
X97790000Y-85750725D01*
X98045302Y-86132811D01*
X98510849Y-86443880D01*
X99060000Y-86553113D01*
X99491193Y-86467343D01*
X99396882Y-86608490D01*
X99320000Y-86995000D01*
X99384022Y-87316858D01*
X99308490Y-87331882D01*
X98980822Y-87550822D01*
X98761882Y-87878490D01*
X98733671Y-88020315D01*
X98264178Y-87550822D01*
X97936510Y-87331882D01*
X97550000Y-87255000D01*
X88265000Y-87255000D01*
X87878490Y-87331882D01*
X87550822Y-87550822D01*
X85645822Y-89455822D01*
X85426882Y-89783490D01*
X85350000Y-90170000D01*
X85350000Y-91664050D01*
X85345302Y-91667189D01*
X85034233Y-92132736D01*
X84925000Y-92681887D01*
X84925000Y-92738113D01*
X85034233Y-93287264D01*
X85345302Y-93752811D01*
X85810849Y-94063880D01*
X86067846Y-94115000D01*
X83820000Y-94115000D01*
X83385654Y-94201397D01*
X83330000Y-94238584D01*
X83330000Y-93573968D01*
X83433490Y-93643118D01*
X83820000Y-93720000D01*
X84206510Y-93643118D01*
X84534178Y-93424178D01*
X84753118Y-93096510D01*
X84830000Y-92710000D01*
X84830000Y-85439041D01*
X84968086Y-85439041D01*
X85207611Y-85945134D01*
X85622577Y-86321041D01*
X86010961Y-86481904D01*
X86233000Y-86359915D01*
X86233000Y-85217000D01*
X85089371Y-85217000D01*
X84968086Y-85439041D01*
X84830000Y-85439041D01*
X84830000Y-84740959D01*
X84968086Y-84740959D01*
X85089371Y-84963000D01*
X86233000Y-84963000D01*
X86233000Y-83820085D01*
X86010961Y-83698096D01*
X85622577Y-83858959D01*
X85207611Y-84234866D01*
X84968086Y-84740959D01*
X84830000Y-84740959D01*
X84830000Y-84238356D01*
X85169178Y-83899178D01*
X85388118Y-83571510D01*
X85465000Y-83185000D01*
X85388118Y-82798490D01*
X85169178Y-82470822D01*
X84895183Y-82287745D01*
X85571861Y-82287745D01*
X85645995Y-82533864D01*
X86183223Y-82726965D01*
X86753454Y-82699778D01*
X87154005Y-82533864D01*
X87228139Y-82287745D01*
X86400000Y-81459605D01*
X85571861Y-82287745D01*
X84895183Y-82287745D01*
X84841510Y-82251882D01*
X84455000Y-82175000D01*
X84068490Y-82251882D01*
X83740822Y-82470822D01*
X83105822Y-83105822D01*
X82886882Y-83433490D01*
X82867500Y-83530929D01*
X82848118Y-83433489D01*
X82629178Y-83105822D01*
X80586579Y-81063223D01*
X84953035Y-81063223D01*
X84980222Y-81633454D01*
X85146136Y-82034005D01*
X85392255Y-82108139D01*
X86220395Y-81280000D01*
X86579605Y-81280000D01*
X87407745Y-82108139D01*
X87653864Y-82034005D01*
X87656196Y-82027517D01*
X87682757Y-82091800D01*
X88086077Y-82495824D01*
X88613309Y-82714750D01*
X89184187Y-82715248D01*
X89711800Y-82497243D01*
X89828708Y-82380539D01*
X89795000Y-82550000D01*
X89871882Y-82936510D01*
X90090822Y-83264178D01*
X90418490Y-83483118D01*
X90805000Y-83560000D01*
X91191510Y-83483118D01*
X91519178Y-83264178D01*
X92154178Y-82629178D01*
X92373118Y-82301510D01*
X92450000Y-81915000D01*
X92450000Y-78489388D01*
X92655824Y-78283923D01*
X92848860Y-77819039D01*
X97668096Y-77819039D01*
X97828959Y-78207423D01*
X98204866Y-78622389D01*
X98710959Y-78861914D01*
X98933000Y-78740629D01*
X98933000Y-77597000D01*
X97790085Y-77597000D01*
X97668096Y-77819039D01*
X92848860Y-77819039D01*
X92874750Y-77756691D01*
X92875248Y-77185813D01*
X92848452Y-77120961D01*
X97668096Y-77120961D01*
X97790085Y-77343000D01*
X98933000Y-77343000D01*
X98933000Y-76199371D01*
X98710959Y-76078086D01*
X98204866Y-76317611D01*
X97828959Y-76732577D01*
X97668096Y-77120961D01*
X92848452Y-77120961D01*
X92657243Y-76658200D01*
X92253923Y-76254176D01*
X91726691Y-76035250D01*
X91155813Y-76034752D01*
X90628200Y-76252757D01*
X90224176Y-76656077D01*
X90005250Y-77183309D01*
X90004752Y-77754187D01*
X90222757Y-78281800D01*
X90430000Y-78489405D01*
X90430000Y-81496644D01*
X90316854Y-81609790D01*
X90334750Y-81566691D01*
X90335248Y-80995813D01*
X90117243Y-80468200D01*
X89713923Y-80064176D01*
X89186691Y-79845250D01*
X88615813Y-79844752D01*
X88088200Y-80062757D01*
X87684176Y-80466077D01*
X87656577Y-80532544D01*
X87653864Y-80525995D01*
X87407745Y-80451861D01*
X86579605Y-81280000D01*
X86220395Y-81280000D01*
X85392255Y-80451861D01*
X85146136Y-80525995D01*
X84953035Y-81063223D01*
X80586579Y-81063223D01*
X80089178Y-80565822D01*
X79761510Y-80346882D01*
X79386337Y-80272255D01*
X85571861Y-80272255D01*
X86400000Y-81100395D01*
X87228139Y-80272255D01*
X87154005Y-80026136D01*
X86616777Y-79833035D01*
X86046546Y-79860222D01*
X85645995Y-80026136D01*
X85571861Y-80272255D01*
X79386337Y-80272255D01*
X79375000Y-80270000D01*
X78988490Y-80346882D01*
X78660822Y-80565822D01*
X78441882Y-80893490D01*
X78365000Y-81280000D01*
X78441882Y-81666510D01*
X78660822Y-81994178D01*
X80905000Y-84238356D01*
X80905000Y-85826644D01*
X78819178Y-83740822D01*
X78491510Y-83521882D01*
X78105000Y-83445000D01*
X77718490Y-83521882D01*
X77390822Y-83740822D01*
X77210000Y-84011442D01*
X77210000Y-80428356D01*
X78733362Y-78904994D01*
X79024187Y-78905248D01*
X79551800Y-78687243D01*
X79955824Y-78283923D01*
X80148860Y-77819039D01*
X84968096Y-77819039D01*
X85128959Y-78207423D01*
X85504866Y-78622389D01*
X86010959Y-78861914D01*
X86233000Y-78740629D01*
X86233000Y-77597000D01*
X86487000Y-77597000D01*
X86487000Y-78740629D01*
X86709041Y-78861914D01*
X87215134Y-78622389D01*
X87591041Y-78207423D01*
X87751904Y-77819039D01*
X87629915Y-77597000D01*
X86487000Y-77597000D01*
X86233000Y-77597000D01*
X85090085Y-77597000D01*
X84968096Y-77819039D01*
X80148860Y-77819039D01*
X80174750Y-77756691D01*
X80175248Y-77185813D01*
X80148452Y-77120961D01*
X84968096Y-77120961D01*
X85090085Y-77343000D01*
X86233000Y-77343000D01*
X86233000Y-76199371D01*
X86487000Y-76199371D01*
X86487000Y-77343000D01*
X87629915Y-77343000D01*
X87751904Y-77120961D01*
X87591041Y-76732577D01*
X87215134Y-76317611D01*
X86709041Y-76078086D01*
X86487000Y-76199371D01*
X86233000Y-76199371D01*
X86010959Y-76078086D01*
X85504866Y-76317611D01*
X85128959Y-76732577D01*
X84968096Y-77120961D01*
X80148452Y-77120961D01*
X79957243Y-76658200D01*
X79553923Y-76254176D01*
X79026691Y-76035250D01*
X78455813Y-76034752D01*
X77928200Y-76252757D01*
X77524176Y-76656077D01*
X77305250Y-77183309D01*
X77304994Y-77476650D01*
X75485822Y-79295822D01*
X75266882Y-79623490D01*
X75190000Y-80010000D01*
X75190000Y-80201442D01*
X75009178Y-79930822D01*
X74670000Y-79591644D01*
X74670000Y-72791622D01*
X74702811Y-72769698D01*
X75013880Y-72304151D01*
X75123113Y-71755000D01*
X75013880Y-71205849D01*
X74956518Y-71120000D01*
X77104999Y-71120000D01*
X77105000Y-71120005D01*
X77105000Y-71755000D01*
X77229457Y-72380687D01*
X77583880Y-72911120D01*
X78114313Y-73265543D01*
X78740000Y-73390000D01*
X79365687Y-73265543D01*
X79896120Y-72911120D01*
X80250543Y-72380687D01*
X80364512Y-71807728D01*
X80417239Y-71755000D01*
X84896887Y-71755000D01*
X85006120Y-72304151D01*
X85317189Y-72769698D01*
X85782736Y-73080767D01*
X86331887Y-73190000D01*
X86388113Y-73190000D01*
X86937264Y-73080767D01*
X87402811Y-72769698D01*
X87713880Y-72304151D01*
X87823113Y-71755000D01*
X89804999Y-71755000D01*
X89929457Y-72380688D01*
X90283880Y-72911120D01*
X90814312Y-73265543D01*
X91440000Y-73390001D01*
X92065688Y-73265543D01*
X92596120Y-72911120D01*
X93866117Y-71641122D01*
X93866120Y-71641120D01*
X94080248Y-71320654D01*
X94220543Y-71110688D01*
X94345000Y-70485000D01*
X94345000Y-68389237D01*
X94512577Y-68541041D01*
X94900961Y-68701904D01*
X95123000Y-68579915D01*
X95123000Y-67437000D01*
X95103000Y-67437000D01*
X95103000Y-67183000D01*
X95123000Y-67183000D01*
X95123000Y-66040085D01*
X95377000Y-66040085D01*
X95377000Y-67183000D01*
X95397000Y-67183000D01*
X95397000Y-67437000D01*
X95377000Y-67437000D01*
X95377000Y-68579915D01*
X95599039Y-68701904D01*
X95987423Y-68541041D01*
X96402389Y-68165134D01*
X96505014Y-67948297D01*
X96775302Y-68352811D01*
X97240849Y-68663880D01*
X97790000Y-68773113D01*
X98339151Y-68663880D01*
X98804698Y-68352811D01*
X99115767Y-67887264D01*
X99225000Y-67338113D01*
X99225000Y-67281887D01*
X99115767Y-66732736D01*
X98804698Y-66267189D01*
X98339151Y-65956120D01*
X97790000Y-65846887D01*
X97240849Y-65956120D01*
X96775302Y-66267189D01*
X96505014Y-66671703D01*
X96402389Y-66454866D01*
X95987423Y-66078959D01*
X95599039Y-65918096D01*
X95377000Y-66040085D01*
X95123000Y-66040085D01*
X94900961Y-65918096D01*
X94512577Y-66078959D01*
X94139864Y-66416590D01*
X94113162Y-66274683D01*
X93974090Y-66058559D01*
X93761890Y-65913569D01*
X93510000Y-65862560D01*
X93430128Y-65862560D01*
X93335687Y-65799457D01*
X92710000Y-65675000D01*
X92084313Y-65799457D01*
X91989872Y-65862560D01*
X91910000Y-65862560D01*
X91674683Y-65906838D01*
X91458559Y-66045910D01*
X91313569Y-66258110D01*
X91262560Y-66510000D01*
X91262560Y-66589872D01*
X91199457Y-66684313D01*
X91075000Y-67310000D01*
X91075000Y-69807761D01*
X90283880Y-70598880D01*
X89929457Y-71129312D01*
X89804999Y-71755000D01*
X87823113Y-71755000D01*
X87713880Y-71205849D01*
X87402811Y-70740302D01*
X86937264Y-70429233D01*
X86388113Y-70320000D01*
X86331887Y-70320000D01*
X85782736Y-70429233D01*
X85317189Y-70740302D01*
X85006120Y-71205849D01*
X84896887Y-71755000D01*
X80417239Y-71755000D01*
X81166117Y-71006122D01*
X81166120Y-71006120D01*
X81378581Y-70688149D01*
X81520543Y-70475688D01*
X81645000Y-69850000D01*
X81645000Y-68389237D01*
X81812577Y-68541041D01*
X82200961Y-68701904D01*
X82423000Y-68579915D01*
X82423000Y-67437000D01*
X82403000Y-67437000D01*
X82403000Y-67183000D01*
X82423000Y-67183000D01*
X82423000Y-66040085D01*
X82677000Y-66040085D01*
X82677000Y-67183000D01*
X82697000Y-67183000D01*
X82697000Y-67437000D01*
X82677000Y-67437000D01*
X82677000Y-68579915D01*
X82899039Y-68701904D01*
X83287423Y-68541041D01*
X83702389Y-68165134D01*
X83805014Y-67948297D01*
X84075302Y-68352811D01*
X84540849Y-68663880D01*
X85090000Y-68773113D01*
X85639151Y-68663880D01*
X86104698Y-68352811D01*
X86415767Y-67887264D01*
X86525000Y-67338113D01*
X86525000Y-67281887D01*
X86415767Y-66732736D01*
X86104698Y-66267189D01*
X85639151Y-65956120D01*
X85090000Y-65846887D01*
X84540849Y-65956120D01*
X84075302Y-66267189D01*
X83805014Y-66671703D01*
X83702389Y-66454866D01*
X83287423Y-66078959D01*
X82899039Y-65918096D01*
X82677000Y-66040085D01*
X82423000Y-66040085D01*
X82200961Y-65918096D01*
X81812577Y-66078959D01*
X81439864Y-66416590D01*
X81413162Y-66274683D01*
X81274090Y-66058559D01*
X81061890Y-65913569D01*
X80810000Y-65862560D01*
X80730128Y-65862560D01*
X80635687Y-65799457D01*
X80010000Y-65675000D01*
X79384313Y-65799457D01*
X79289872Y-65862560D01*
X79210000Y-65862560D01*
X78974683Y-65906838D01*
X78758559Y-66045910D01*
X78613569Y-66258110D01*
X78562560Y-66510000D01*
X78562560Y-66589872D01*
X78499457Y-66684313D01*
X78375000Y-67310000D01*
X78375000Y-69172761D01*
X77583880Y-69963880D01*
X77229457Y-70494312D01*
X77104999Y-71120000D01*
X74956518Y-71120000D01*
X74702811Y-70740302D01*
X74237264Y-70429233D01*
X73688113Y-70320000D01*
X73631887Y-70320000D01*
X73082736Y-70429233D01*
X72617189Y-70740302D01*
X72306120Y-71205849D01*
X72196887Y-71755000D01*
X72306120Y-72304151D01*
X72617189Y-72769698D01*
X72650000Y-72791622D01*
X72650000Y-80010000D01*
X72726882Y-80396510D01*
X72945822Y-80724178D01*
X73580822Y-81359178D01*
X73908490Y-81578118D01*
X74295000Y-81655000D01*
X74681510Y-81578118D01*
X75009178Y-81359178D01*
X75190000Y-81088558D01*
X75190000Y-91656644D01*
X73580822Y-93265822D01*
X73361882Y-93593490D01*
X73285000Y-93980000D01*
X73361882Y-94366510D01*
X73580822Y-94694178D01*
X73908490Y-94913118D01*
X74295000Y-94990000D01*
X74681510Y-94913118D01*
X75009178Y-94694178D01*
X76914178Y-92789178D01*
X77133118Y-92461510D01*
X77210000Y-92075000D01*
X77210000Y-84898558D01*
X77390822Y-85169178D01*
X81310000Y-89088356D01*
X81310000Y-96257881D01*
X81271397Y-96315654D01*
X81185000Y-96750000D01*
X81185000Y-98118203D01*
X81123569Y-98208110D01*
X81072560Y-98460000D01*
X81072560Y-99660000D01*
X81116838Y-99895317D01*
X81255910Y-100111441D01*
X81468110Y-100256431D01*
X81720000Y-100307440D01*
X82920000Y-100307440D01*
X83155317Y-100263162D01*
X83282636Y-100181234D01*
X83651036Y-100307807D01*
X84141413Y-100277482D01*
X84453617Y-100148164D01*
X84503130Y-99922735D01*
X83820000Y-99239605D01*
X83805858Y-99253748D01*
X83626253Y-99074143D01*
X83640395Y-99060000D01*
X83999605Y-99060000D01*
X84682735Y-99743130D01*
X84908164Y-99693617D01*
X85067807Y-99228964D01*
X85037482Y-98738587D01*
X84908164Y-98426383D01*
X84682735Y-98376870D01*
X83999605Y-99060000D01*
X83640395Y-99060000D01*
X83626253Y-99045858D01*
X83805858Y-98866253D01*
X83820000Y-98880395D01*
X84503130Y-98197265D01*
X84453617Y-97971836D01*
X83988964Y-97812193D01*
X83498587Y-97842518D01*
X83455000Y-97860572D01*
X83455000Y-97220132D01*
X84290132Y-96385000D01*
X87265000Y-96385000D01*
X87265000Y-100964995D01*
X87264999Y-100965000D01*
X87389457Y-101590688D01*
X87743880Y-102121120D01*
X89387761Y-103765000D01*
X65823356Y-103765000D01*
X58160000Y-96101644D01*
X58160000Y-94336890D01*
X58248524Y-94336890D01*
X58418355Y-94746924D01*
X58808642Y-95175183D01*
X59333108Y-95421486D01*
X59563000Y-95300819D01*
X59563000Y-94107000D01*
X59817000Y-94107000D01*
X59817000Y-95300819D01*
X60046892Y-95421486D01*
X60571358Y-95175183D01*
X60960000Y-94748729D01*
X61348642Y-95175183D01*
X61873108Y-95421486D01*
X62103000Y-95300819D01*
X62103000Y-94107000D01*
X62357000Y-94107000D01*
X62357000Y-95300819D01*
X62586892Y-95421486D01*
X63111358Y-95175183D01*
X63501645Y-94746924D01*
X63671476Y-94336890D01*
X63550155Y-94107000D01*
X62357000Y-94107000D01*
X62103000Y-94107000D01*
X59817000Y-94107000D01*
X59563000Y-94107000D01*
X58369845Y-94107000D01*
X58248524Y-94336890D01*
X58160000Y-94336890D01*
X58160000Y-92493356D01*
X58203356Y-92450000D01*
X58584090Y-92450000D01*
X58610853Y-92490054D01*
X58951553Y-92717702D01*
X58808642Y-92784817D01*
X58418355Y-93213076D01*
X58248524Y-93623110D01*
X58369845Y-93853000D01*
X59563000Y-93853000D01*
X59563000Y-93833000D01*
X59817000Y-93833000D01*
X59817000Y-93853000D01*
X62103000Y-93853000D01*
X62103000Y-93833000D01*
X62357000Y-93833000D01*
X62357000Y-93853000D01*
X63550155Y-93853000D01*
X63671476Y-93623110D01*
X63501645Y-93213076D01*
X63111358Y-92784817D01*
X62968447Y-92717702D01*
X63309147Y-92490054D01*
X63631054Y-92008285D01*
X63744093Y-91440000D01*
X63631054Y-90871715D01*
X63309147Y-90389946D01*
X62979974Y-90170000D01*
X63309147Y-89950054D01*
X63631054Y-89468285D01*
X63744093Y-88900000D01*
X63631054Y-88331715D01*
X63309147Y-87849946D01*
X62979974Y-87630000D01*
X63309147Y-87410054D01*
X63631054Y-86928285D01*
X63744093Y-86360000D01*
X63631054Y-85791715D01*
X63309147Y-85309946D01*
X62979974Y-85090000D01*
X63309147Y-84870054D01*
X63586476Y-84455000D01*
X64905000Y-84455000D01*
X64905000Y-93980000D01*
X64991397Y-94414346D01*
X65054605Y-94508943D01*
X65237434Y-94782566D01*
X66507434Y-96052566D01*
X66875655Y-96298603D01*
X67310000Y-96385000D01*
X67744345Y-96298603D01*
X68112566Y-96052566D01*
X68358603Y-95684345D01*
X68445000Y-95250000D01*
X68358603Y-94815655D01*
X68112566Y-94447434D01*
X68007667Y-94342535D01*
X68331510Y-94278118D01*
X68659178Y-94059178D01*
X68878118Y-93731510D01*
X68955000Y-93345000D01*
X68955000Y-89535000D01*
X68878118Y-89148490D01*
X68659178Y-88820822D01*
X68331510Y-88601882D01*
X67945000Y-88525000D01*
X67558490Y-88601882D01*
X67230822Y-88820822D01*
X67175000Y-88904366D01*
X67175000Y-84455000D01*
X67088603Y-84020654D01*
X66842566Y-83652434D01*
X66474346Y-83406397D01*
X66040000Y-83320000D01*
X65605654Y-83406397D01*
X65237434Y-83652434D01*
X64991397Y-84020654D01*
X64905000Y-84455000D01*
X63586476Y-84455000D01*
X63631054Y-84388285D01*
X63744093Y-83820000D01*
X63631054Y-83251715D01*
X63309147Y-82769946D01*
X62827378Y-82448039D01*
X62259093Y-82335000D01*
X62200907Y-82335000D01*
X61632622Y-82448039D01*
X61150853Y-82769946D01*
X61150029Y-82771179D01*
X61143162Y-82734683D01*
X61004090Y-82518559D01*
X60791890Y-82373569D01*
X60540000Y-82322560D01*
X58840000Y-82322560D01*
X58604683Y-82366838D01*
X58388559Y-82505910D01*
X58243569Y-82718110D01*
X58192560Y-82970000D01*
X58192560Y-84670000D01*
X58236838Y-84905317D01*
X58375910Y-85121441D01*
X58588110Y-85266431D01*
X58655541Y-85280086D01*
X58610853Y-85309946D01*
X58288946Y-85791715D01*
X58175907Y-86360000D01*
X58288946Y-86928285D01*
X58610853Y-87410054D01*
X58940026Y-87630000D01*
X58610853Y-87849946D01*
X58288946Y-88331715D01*
X58175907Y-88900000D01*
X58288946Y-89468285D01*
X58610853Y-89950054D01*
X58940026Y-90170000D01*
X58610853Y-90389946D01*
X58584090Y-90430000D01*
X57785000Y-90430000D01*
X57398490Y-90506882D01*
X57070822Y-90725822D01*
X56435822Y-91360822D01*
X56216882Y-91688490D01*
X56140000Y-92075000D01*
X56140000Y-96520000D01*
X56216882Y-96906510D01*
X56435822Y-97234178D01*
X63901644Y-104700000D01*
X51510000Y-104700000D01*
X51510000Y-101585854D01*
X52109457Y-101585854D01*
X52585727Y-102738515D01*
X53466847Y-103621174D01*
X54618674Y-104099454D01*
X55865854Y-104100543D01*
X57018515Y-103624273D01*
X57901174Y-102743153D01*
X58379454Y-101591326D01*
X58380543Y-100344146D01*
X57904273Y-99191485D01*
X57023153Y-98308826D01*
X55871326Y-97830546D01*
X54624146Y-97829457D01*
X53471485Y-98305727D01*
X52588826Y-99186847D01*
X52110546Y-100338674D01*
X52109457Y-101585854D01*
X51510000Y-101585854D01*
X51510000Y-71120000D01*
X64404999Y-71120000D01*
X64405000Y-71120005D01*
X64405000Y-71755000D01*
X64529457Y-72380687D01*
X64883880Y-72911120D01*
X65414313Y-73265543D01*
X66040000Y-73390000D01*
X66665687Y-73265543D01*
X67196120Y-72911120D01*
X67550543Y-72380687D01*
X67664512Y-71807728D01*
X68466117Y-71006122D01*
X68466120Y-71006120D01*
X68678581Y-70688149D01*
X68820543Y-70475688D01*
X68945000Y-69850000D01*
X68945000Y-68389237D01*
X69112577Y-68541041D01*
X69500961Y-68701904D01*
X69723000Y-68579915D01*
X69723000Y-67437000D01*
X69703000Y-67437000D01*
X69703000Y-67183000D01*
X69723000Y-67183000D01*
X69723000Y-66040085D01*
X69977000Y-66040085D01*
X69977000Y-67183000D01*
X69997000Y-67183000D01*
X69997000Y-67437000D01*
X69977000Y-67437000D01*
X69977000Y-68579915D01*
X70199039Y-68701904D01*
X70587423Y-68541041D01*
X71002389Y-68165134D01*
X71105014Y-67948297D01*
X71375302Y-68352811D01*
X71840849Y-68663880D01*
X72390000Y-68773113D01*
X72939151Y-68663880D01*
X73404698Y-68352811D01*
X73715767Y-67887264D01*
X73825000Y-67338113D01*
X73825000Y-67281887D01*
X73715767Y-66732736D01*
X73404698Y-66267189D01*
X72939151Y-65956120D01*
X72390000Y-65846887D01*
X71840849Y-65956120D01*
X71375302Y-66267189D01*
X71105014Y-66671703D01*
X71002389Y-66454866D01*
X70587423Y-66078959D01*
X70199039Y-65918096D01*
X69977000Y-66040085D01*
X69723000Y-66040085D01*
X69500961Y-65918096D01*
X69112577Y-66078959D01*
X68739864Y-66416590D01*
X68713162Y-66274683D01*
X68574090Y-66058559D01*
X68361890Y-65913569D01*
X68110000Y-65862560D01*
X68030128Y-65862560D01*
X67935687Y-65799457D01*
X67310000Y-65675000D01*
X66684313Y-65799457D01*
X66589872Y-65862560D01*
X66510000Y-65862560D01*
X66274683Y-65906838D01*
X66058559Y-66045910D01*
X65913569Y-66258110D01*
X65862560Y-66510000D01*
X65862560Y-66589872D01*
X65799457Y-66684313D01*
X65675000Y-67310000D01*
X65675000Y-69172761D01*
X64883880Y-69963880D01*
X64529457Y-70494312D01*
X64404999Y-71120000D01*
X51510000Y-71120000D01*
X51510000Y-65532000D01*
X138990000Y-65532000D01*
X138990000Y-104700000D01*
G36*
X97710822Y-89854178D02*
X98038490Y-90073118D01*
X98202357Y-90105713D01*
X98345822Y-90249178D01*
X98673490Y-90468118D01*
X99060000Y-90545000D01*
X99446510Y-90468118D01*
X99639990Y-90338839D01*
X99639990Y-90701654D01*
X99088990Y-91252654D01*
X99060000Y-91246887D01*
X98510849Y-91356120D01*
X98045302Y-91667189D01*
X97775014Y-92071703D01*
X97672389Y-91854866D01*
X97257423Y-91478959D01*
X96869039Y-91318096D01*
X96647000Y-91440085D01*
X96647000Y-92583000D01*
X96667000Y-92583000D01*
X96667000Y-92837000D01*
X96647000Y-92837000D01*
X96647000Y-93979915D01*
X96869039Y-94101904D01*
X97257423Y-93941041D01*
X97672389Y-93565134D01*
X97775014Y-93348297D01*
X98045302Y-93752811D01*
X98510849Y-94063880D01*
X99060000Y-94173113D01*
X99609151Y-94063880D01*
X100074698Y-93752811D01*
X100330000Y-93370725D01*
X100585302Y-93752811D01*
X101050849Y-94063880D01*
X101600000Y-94173113D01*
X102149151Y-94063880D01*
X102505000Y-93826109D01*
X102505000Y-94572761D01*
X99652760Y-97425000D01*
X97790000Y-97425000D01*
X97164313Y-97549457D01*
X96633880Y-97903880D01*
X96464671Y-98157120D01*
X96157576Y-97822034D01*
X95614742Y-97568954D01*
X95377000Y-97689003D01*
X95377000Y-98933000D01*
X95397000Y-98933000D01*
X95397000Y-99187000D01*
X95377000Y-99187000D01*
X95377000Y-100430997D01*
X95614742Y-100551046D01*
X96133631Y-100309130D01*
X95207760Y-101235000D01*
X91482239Y-101235000D01*
X90535000Y-100287760D01*
X90535000Y-98160000D01*
X91162560Y-98160000D01*
X91162560Y-99960000D01*
X91206838Y-100195317D01*
X91345910Y-100411441D01*
X91558110Y-100556431D01*
X91810000Y-100607440D01*
X93610000Y-100607440D01*
X93845317Y-100563162D01*
X94061441Y-100424090D01*
X94206431Y-100211890D01*
X94216766Y-100160854D01*
X94342424Y-100297966D01*
X94885258Y-100551046D01*
X95123000Y-100430997D01*
X95123000Y-99187000D01*
X95103000Y-99187000D01*
X95103000Y-98933000D01*
X95123000Y-98933000D01*
X95123000Y-97689003D01*
X94885258Y-97568954D01*
X94342424Y-97822034D01*
X94219156Y-97956538D01*
X94213162Y-97924683D01*
X94074090Y-97708559D01*
X93861890Y-97563569D01*
X93610000Y-97512560D01*
X91810000Y-97512560D01*
X91574683Y-97556838D01*
X91358559Y-97695910D01*
X91213569Y-97908110D01*
X91162560Y-98160000D01*
X90535000Y-98160000D01*
X90535000Y-93826109D01*
X90890849Y-94063880D01*
X91440000Y-94173113D01*
X91989151Y-94063880D01*
X92454698Y-93752811D01*
X92710000Y-93370725D01*
X92965302Y-93752811D01*
X93430849Y-94063880D01*
X93980000Y-94173113D01*
X94529151Y-94063880D01*
X94994698Y-93752811D01*
X95264986Y-93348297D01*
X95367611Y-93565134D01*
X95782577Y-93941041D01*
X96170961Y-94101904D01*
X96393000Y-93979915D01*
X96393000Y-92837000D01*
X96373000Y-92837000D01*
X96373000Y-92583000D01*
X96393000Y-92583000D01*
X96393000Y-91440085D01*
X96170961Y-91318096D01*
X95782577Y-91478959D01*
X95367611Y-91854866D01*
X95264986Y-92071703D01*
X94994698Y-91667189D01*
X94990000Y-91664050D01*
X94990000Y-90170000D01*
X94913118Y-89783490D01*
X94694178Y-89455822D01*
X94513356Y-89275000D01*
X97131644Y-89275000D01*
X97710822Y-89854178D01*
X97710822Y-89854178D01*
G37*
X97710822Y-89854178D02*
X98038490Y-90073118D01*
X98202357Y-90105713D01*
X98345822Y-90249178D01*
X98673490Y-90468118D01*
X99060000Y-90545000D01*
X99446510Y-90468118D01*
X99639990Y-90338839D01*
X99639990Y-90701654D01*
X99088990Y-91252654D01*
X99060000Y-91246887D01*
X98510849Y-91356120D01*
X98045302Y-91667189D01*
X97775014Y-92071703D01*
X97672389Y-91854866D01*
X97257423Y-91478959D01*
X96869039Y-91318096D01*
X96647000Y-91440085D01*
X96647000Y-92583000D01*
X96667000Y-92583000D01*
X96667000Y-92837000D01*
X96647000Y-92837000D01*
X96647000Y-93979915D01*
X96869039Y-94101904D01*
X97257423Y-93941041D01*
X97672389Y-93565134D01*
X97775014Y-93348297D01*
X98045302Y-93752811D01*
X98510849Y-94063880D01*
X99060000Y-94173113D01*
X99609151Y-94063880D01*
X100074698Y-93752811D01*
X100330000Y-93370725D01*
X100585302Y-93752811D01*
X101050849Y-94063880D01*
X101600000Y-94173113D01*
X102149151Y-94063880D01*
X102505000Y-93826109D01*
X102505000Y-94572761D01*
X99652760Y-97425000D01*
X97790000Y-97425000D01*
X97164313Y-97549457D01*
X96633880Y-97903880D01*
X96464671Y-98157120D01*
X96157576Y-97822034D01*
X95614742Y-97568954D01*
X95377000Y-97689003D01*
X95377000Y-98933000D01*
X95397000Y-98933000D01*
X95397000Y-99187000D01*
X95377000Y-99187000D01*
X95377000Y-100430997D01*
X95614742Y-100551046D01*
X96133631Y-100309130D01*
X95207760Y-101235000D01*
X91482239Y-101235000D01*
X90535000Y-100287760D01*
X90535000Y-98160000D01*
X91162560Y-98160000D01*
X91162560Y-99960000D01*
X91206838Y-100195317D01*
X91345910Y-100411441D01*
X91558110Y-100556431D01*
X91810000Y-100607440D01*
X93610000Y-100607440D01*
X93845317Y-100563162D01*
X94061441Y-100424090D01*
X94206431Y-100211890D01*
X94216766Y-100160854D01*
X94342424Y-100297966D01*
X94885258Y-100551046D01*
X95123000Y-100430997D01*
X95123000Y-99187000D01*
X95103000Y-99187000D01*
X95103000Y-98933000D01*
X95123000Y-98933000D01*
X95123000Y-97689003D01*
X94885258Y-97568954D01*
X94342424Y-97822034D01*
X94219156Y-97956538D01*
X94213162Y-97924683D01*
X94074090Y-97708559D01*
X93861890Y-97563569D01*
X93610000Y-97512560D01*
X91810000Y-97512560D01*
X91574683Y-97556838D01*
X91358559Y-97695910D01*
X91213569Y-97908110D01*
X91162560Y-98160000D01*
X90535000Y-98160000D01*
X90535000Y-93826109D01*
X90890849Y-94063880D01*
X91440000Y-94173113D01*
X91989151Y-94063880D01*
X92454698Y-93752811D01*
X92710000Y-93370725D01*
X92965302Y-93752811D01*
X93430849Y-94063880D01*
X93980000Y-94173113D01*
X94529151Y-94063880D01*
X94994698Y-93752811D01*
X95264986Y-93348297D01*
X95367611Y-93565134D01*
X95782577Y-93941041D01*
X96170961Y-94101904D01*
X96393000Y-93979915D01*
X96393000Y-92837000D01*
X96373000Y-92837000D01*
X96373000Y-92583000D01*
X96393000Y-92583000D01*
X96393000Y-91440085D01*
X96170961Y-91318096D01*
X95782577Y-91478959D01*
X95367611Y-91854866D01*
X95264986Y-92071703D01*
X94994698Y-91667189D01*
X94990000Y-91664050D01*
X94990000Y-90170000D01*
X94913118Y-89783490D01*
X94694178Y-89455822D01*
X94513356Y-89275000D01*
X97131644Y-89275000D01*
X97710822Y-89854178D01*
M02*
