G04 #@! TF.FileFunction,Copper,L2,Bot,Signal*
%FSLAX46Y46*%
G04 Gerber Fmt 4.6, Leading zero omitted, Abs format (unit mm)*
G04 Created by KiCad (PCBNEW 4.0.7) date Mon Mar 19 19:45:40 2018*
%MOMM*%
%LPD*%
G01*
G04 APERTURE LIST*
%ADD10C,0.100000*%
%ADD11R,1.600000X1.600000*%
%ADD12O,1.600000X1.600000*%
%ADD13C,5.000000*%
%ADD14O,1.510000X3.010000*%
%ADD15C,1.600000*%
%ADD16R,1.800000X1.800000*%
%ADD17O,1.800000X1.800000*%
%ADD18R,1.200000X1.200000*%
%ADD19C,1.200000*%
%ADD20R,2.500000X2.500000*%
%ADD21C,2.500000*%
%ADD22R,1.700000X1.700000*%
%ADD23O,1.700000X1.700000*%
%ADD24C,0.600000*%
%ADD25C,0.750000*%
%ADD26C,1.000000*%
%ADD27C,2.000000*%
%ADD28C,0.254000*%
G04 APERTURE END LIST*
D10*
D11*
X104140000Y-85090000D03*
D12*
X86360000Y-92710000D03*
X101600000Y-85090000D03*
X88900000Y-92710000D03*
X99060000Y-85090000D03*
X91440000Y-92710000D03*
X96520000Y-85090000D03*
X93980000Y-92710000D03*
X93980000Y-85090000D03*
X96520000Y-92710000D03*
X91440000Y-85090000D03*
X99060000Y-92710000D03*
X88900000Y-85090000D03*
X101600000Y-92710000D03*
X86360000Y-85090000D03*
X104140000Y-92710000D03*
D13*
X135255000Y-100965000D03*
X55245000Y-100965000D03*
X135255000Y-29845000D03*
D14*
X109220000Y-33020000D03*
X106680000Y-33020000D03*
D11*
X67310000Y-67310000D03*
D12*
X72390000Y-59690000D03*
X69850000Y-67310000D03*
X69850000Y-59690000D03*
X72390000Y-67310000D03*
X67310000Y-59690000D03*
D15*
X78740000Y-77470000D03*
D12*
X86360000Y-77470000D03*
D15*
X91440000Y-77470000D03*
D12*
X99060000Y-77470000D03*
D15*
X111760000Y-77470000D03*
D12*
X104140000Y-77470000D03*
D15*
X66040000Y-71755000D03*
D12*
X73660000Y-71755000D03*
D15*
X78740000Y-71755000D03*
D12*
X86360000Y-71755000D03*
D15*
X91440000Y-71755000D03*
D12*
X99060000Y-71755000D03*
D15*
X104140000Y-71755000D03*
D12*
X111760000Y-71755000D03*
D15*
X116840000Y-71755000D03*
D12*
X124460000Y-71755000D03*
D15*
X67310000Y-48260000D03*
D12*
X67310000Y-55880000D03*
D15*
X72390000Y-48260000D03*
D12*
X72390000Y-55880000D03*
D15*
X80010000Y-48260000D03*
D12*
X80010000Y-55880000D03*
D15*
X85090000Y-48260000D03*
D12*
X85090000Y-55880000D03*
D15*
X92710000Y-48260000D03*
D12*
X92710000Y-55880000D03*
D15*
X97790000Y-48260000D03*
D12*
X97790000Y-55880000D03*
D15*
X105410000Y-48260000D03*
D12*
X105410000Y-55880000D03*
D11*
X80010000Y-67310000D03*
D12*
X85090000Y-59690000D03*
X82550000Y-67310000D03*
X82550000Y-59690000D03*
X85090000Y-67310000D03*
X80010000Y-59690000D03*
D11*
X92710000Y-67310000D03*
D12*
X97790000Y-59690000D03*
X95250000Y-67310000D03*
X95250000Y-59690000D03*
X97790000Y-67310000D03*
X92710000Y-59690000D03*
D11*
X105410000Y-67310000D03*
D12*
X110490000Y-59690000D03*
X107950000Y-67310000D03*
X107950000Y-59690000D03*
X110490000Y-67310000D03*
X105410000Y-59690000D03*
D11*
X118110000Y-67310000D03*
D12*
X123190000Y-59690000D03*
X120650000Y-67310000D03*
X120650000Y-59690000D03*
X123190000Y-67310000D03*
X118110000Y-59690000D03*
D16*
X72390000Y-41910000D03*
D17*
X69850000Y-41910000D03*
X67310000Y-41910000D03*
D16*
X85090000Y-41910000D03*
D17*
X82550000Y-41910000D03*
X80010000Y-41910000D03*
D16*
X97790000Y-41910000D03*
D17*
X95250000Y-41910000D03*
X92710000Y-41910000D03*
D16*
X110490000Y-41910000D03*
D17*
X107950000Y-41910000D03*
X105410000Y-41910000D03*
D16*
X123190000Y-41910000D03*
D17*
X120650000Y-41910000D03*
X118110000Y-41910000D03*
D16*
X92710000Y-99060000D03*
D17*
X95250000Y-99060000D03*
X97790000Y-99060000D03*
D14*
X71120000Y-33020000D03*
X68580000Y-33020000D03*
X83820000Y-33020000D03*
X81280000Y-33020000D03*
X96520000Y-33020000D03*
X93980000Y-33020000D03*
X121920000Y-33020000D03*
X119380000Y-33020000D03*
D15*
X88900000Y-81280000D03*
X86400000Y-81280000D03*
D18*
X106450000Y-99060000D03*
D19*
X107950000Y-99060000D03*
D18*
X82320000Y-99060000D03*
D19*
X83820000Y-99060000D03*
D15*
X110490000Y-48260000D03*
D12*
X110490000Y-55880000D03*
D15*
X118110000Y-48260000D03*
D12*
X118110000Y-55880000D03*
D15*
X123190000Y-48260000D03*
D12*
X123190000Y-55880000D03*
D20*
X57785000Y-40005000D03*
D21*
X57785000Y-45005000D03*
D20*
X132715000Y-44450000D03*
D21*
X132715000Y-39450000D03*
D22*
X128905000Y-83820000D03*
D23*
X131445000Y-83820000D03*
X128905000Y-86360000D03*
X131445000Y-86360000D03*
X128905000Y-88900000D03*
X131445000Y-88900000D03*
X128905000Y-91440000D03*
X131445000Y-91440000D03*
X128905000Y-93980000D03*
X131445000Y-93980000D03*
D13*
X55245000Y-29845000D03*
D22*
X59690000Y-83820000D03*
D23*
X62230000Y-83820000D03*
X59690000Y-86360000D03*
X62230000Y-86360000D03*
X59690000Y-88900000D03*
X62230000Y-88900000D03*
X59690000Y-91440000D03*
X62230000Y-91440000D03*
X59690000Y-93980000D03*
X62230000Y-93980000D03*
D24*
X78105000Y-84455000D03*
X78105000Y-102235000D03*
X78105000Y-86360000D03*
X109220000Y-83820000D03*
X66040000Y-84455000D03*
X67310000Y-95250000D03*
X99695000Y-88265000D03*
X108585000Y-95250000D03*
X67945000Y-89535000D03*
X67945000Y-93345000D03*
X74295000Y-93980000D03*
X83820000Y-92710000D03*
X93345000Y-89535000D03*
X83820000Y-89535000D03*
X84455000Y-83185000D03*
X90805000Y-82550000D03*
X100330000Y-86995000D03*
X81915000Y-86360000D03*
X79375000Y-81280000D03*
X74295000Y-80645000D03*
X86360000Y-71755000D03*
X114935000Y-85725000D03*
X114300000Y-74930000D03*
X122555000Y-81915000D03*
X104775000Y-80645000D03*
X99695000Y-80645000D03*
X99060000Y-89535000D03*
D25*
X87630000Y-79375000D02*
X88900000Y-80645000D01*
X85090000Y-79375000D02*
X87630000Y-79375000D01*
X81915000Y-82550000D02*
X85090000Y-79375000D01*
X78740000Y-82550000D02*
X81915000Y-82550000D01*
X78105000Y-83185000D02*
X78740000Y-82550000D01*
X78105000Y-84455000D02*
X78105000Y-83185000D01*
X88900000Y-80645000D02*
X88900000Y-81280000D01*
X106680000Y-102235000D02*
X95250000Y-102235000D01*
X107950000Y-100965000D02*
X106680000Y-102235000D01*
X107950000Y-99060000D02*
X107950000Y-100965000D01*
D26*
X76835000Y-69215000D02*
X76835000Y-73025000D01*
X83820000Y-74930000D02*
X86360000Y-77470000D01*
X78740000Y-74930000D02*
X83820000Y-74930000D01*
X76835000Y-73025000D02*
X78740000Y-74930000D01*
D27*
X95250000Y-99060000D02*
X95250000Y-102235000D01*
X95250000Y-102235000D02*
X81915000Y-102235000D01*
D26*
X86360000Y-85090000D02*
X79375000Y-85090000D01*
X79375000Y-85090000D02*
X78105000Y-86360000D01*
X83820000Y-99060000D02*
X83820000Y-100330000D01*
X83820000Y-100330000D02*
X81915000Y-102235000D01*
D27*
X81915000Y-102235000D02*
X78105000Y-102235000D01*
X78105000Y-102235000D02*
X65405000Y-102235000D01*
X65405000Y-102235000D02*
X62230000Y-99060000D01*
X62230000Y-99060000D02*
X62230000Y-93980000D01*
D26*
X99060000Y-77470000D02*
X104140000Y-77470000D01*
X107950000Y-67310000D02*
X107950000Y-67945000D01*
X107950000Y-67945000D02*
X109220000Y-69215000D01*
X128905000Y-93980000D02*
X128905000Y-97155000D01*
X128905000Y-97155000D02*
X127000000Y-99060000D01*
X127000000Y-99060000D02*
X107950000Y-99060000D01*
X62230000Y-99060000D02*
X62230000Y-93980000D01*
X64770000Y-101600000D02*
X62230000Y-99060000D01*
X95250000Y-67310000D02*
X95250000Y-67945000D01*
X95250000Y-67945000D02*
X96520000Y-69215000D01*
X82550000Y-67310000D02*
X82550000Y-67945000D01*
X82550000Y-67945000D02*
X83820000Y-69215000D01*
X69850000Y-67310000D02*
X69850000Y-67945000D01*
X69850000Y-67945000D02*
X71120000Y-69215000D01*
X71120000Y-69215000D02*
X76835000Y-69215000D01*
X76835000Y-69215000D02*
X83820000Y-69215000D01*
X83820000Y-69215000D02*
X96520000Y-69215000D01*
X96520000Y-69215000D02*
X109220000Y-69215000D01*
X109220000Y-69215000D02*
X120015000Y-69215000D01*
X120015000Y-69215000D02*
X120650000Y-68580000D01*
X120650000Y-68580000D02*
X120650000Y-67310000D01*
D27*
X128905000Y-93980000D02*
X131445000Y-93980000D01*
X59690000Y-93980000D02*
X62230000Y-93980000D01*
D25*
X90170000Y-95250000D02*
X98425000Y-95250000D01*
X105410000Y-99060000D02*
X106450000Y-99060000D01*
X104775000Y-98425000D02*
X105410000Y-99060000D01*
X104775000Y-97155000D02*
X104775000Y-98425000D01*
X104140000Y-96520000D02*
X104775000Y-97155000D01*
X99695000Y-96520000D02*
X104140000Y-96520000D01*
X98425000Y-95250000D02*
X99695000Y-96520000D01*
D26*
X109220000Y-83820000D02*
X128905000Y-83820000D01*
X65405000Y-83820000D02*
X62230000Y-83820000D01*
X66040000Y-84455000D02*
X65405000Y-83820000D01*
X90170000Y-95250000D02*
X67310000Y-95250000D01*
X92710000Y-97790000D02*
X90170000Y-95250000D01*
X92710000Y-99060000D02*
X92710000Y-97790000D01*
D27*
X128905000Y-83820000D02*
X131445000Y-83820000D01*
X59690000Y-83820000D02*
X62230000Y-83820000D01*
X123190000Y-41910000D02*
X123190000Y-48260000D01*
X110490000Y-41910000D02*
X113665000Y-45085000D01*
X97790000Y-41910000D02*
X100965000Y-45085000D01*
X85090000Y-41910000D02*
X88265000Y-45085000D01*
X72390000Y-41910000D02*
X75565000Y-45085000D01*
X123190000Y-48260000D02*
X120015000Y-45085000D01*
X120015000Y-45085000D02*
X113665000Y-45085000D01*
X113665000Y-45085000D02*
X110490000Y-48260000D01*
X110490000Y-48260000D02*
X107315000Y-45085000D01*
X107315000Y-45085000D02*
X100965000Y-45085000D01*
X100965000Y-45085000D02*
X97790000Y-48260000D01*
X97790000Y-48260000D02*
X94615000Y-45085000D01*
X94615000Y-45085000D02*
X88265000Y-45085000D01*
X88265000Y-45085000D02*
X85090000Y-48260000D01*
X85090000Y-48260000D02*
X81915000Y-45085000D01*
X81915000Y-45085000D02*
X75565000Y-45085000D01*
X75565000Y-45085000D02*
X72390000Y-48260000D01*
X72390000Y-48260000D02*
X69135000Y-45005000D01*
X69135000Y-45005000D02*
X57785000Y-45005000D01*
X123190000Y-41910000D02*
X126365000Y-41910000D01*
X128825000Y-39450000D02*
X132715000Y-39450000D01*
X126365000Y-41910000D02*
X128825000Y-39450000D01*
X71120000Y-33020000D02*
X71120000Y-36830000D01*
X69850000Y-38100000D02*
X69850000Y-41910000D01*
X71120000Y-36830000D02*
X69850000Y-38100000D01*
X83820000Y-33020000D02*
X83820000Y-36830000D01*
X82550000Y-38100000D02*
X82550000Y-41910000D01*
X83820000Y-36830000D02*
X82550000Y-38100000D01*
X96520000Y-33020000D02*
X96520000Y-36830000D01*
X95250000Y-38100000D02*
X95250000Y-41910000D01*
X96520000Y-36830000D02*
X95250000Y-38100000D01*
X109220000Y-33020000D02*
X109220000Y-36830000D01*
X107950000Y-38100000D02*
X107950000Y-41910000D01*
X109220000Y-36830000D02*
X107950000Y-38100000D01*
X121920000Y-33020000D02*
X121920000Y-36830000D01*
X120650000Y-38100000D02*
X120650000Y-41910000D01*
X121920000Y-36830000D02*
X120650000Y-38100000D01*
X132715000Y-44450000D02*
X133985000Y-44450000D01*
X123825000Y-27940000D02*
X117475000Y-27940000D01*
X130810000Y-34925000D02*
X123825000Y-27940000D01*
X134620000Y-34925000D02*
X130810000Y-34925000D01*
X137160000Y-37465000D02*
X134620000Y-34925000D01*
X137160000Y-41275000D02*
X137160000Y-37465000D01*
X133985000Y-44450000D02*
X137160000Y-41275000D01*
X79375000Y-27940000D02*
X95885000Y-27940000D01*
X119380000Y-33020000D02*
X119380000Y-29845000D01*
X117475000Y-27940000D02*
X104775000Y-27940000D01*
X119380000Y-29845000D02*
X117475000Y-27940000D01*
X93980000Y-33020000D02*
X93980000Y-29845000D01*
X93980000Y-29845000D02*
X95885000Y-27940000D01*
X106680000Y-29845000D02*
X106680000Y-33020000D01*
X104775000Y-27940000D02*
X106680000Y-29845000D01*
X95885000Y-27940000D02*
X104775000Y-27940000D01*
X81280000Y-33020000D02*
X81280000Y-29845000D01*
X68580000Y-30480000D02*
X71120000Y-27940000D01*
X68580000Y-30480000D02*
X68580000Y-33020000D01*
X79375000Y-27940000D02*
X71120000Y-27940000D01*
X81280000Y-29845000D02*
X79375000Y-27940000D01*
X57785000Y-40005000D02*
X57785000Y-39370000D01*
X57785000Y-39370000D02*
X64135000Y-33020000D01*
X64135000Y-33020000D02*
X68580000Y-33020000D01*
D25*
X97790000Y-88265000D02*
X99695000Y-88265000D01*
X97790000Y-88265000D02*
X67945000Y-88265000D01*
X67945000Y-88265000D02*
X66040000Y-86360000D01*
X66040000Y-86360000D02*
X62230000Y-86360000D01*
X99060000Y-92710000D02*
X99060000Y-93980000D01*
X100330000Y-95250000D02*
X108585000Y-95250000D01*
X99060000Y-93980000D02*
X100330000Y-95250000D01*
D27*
X59690000Y-86360000D02*
X62230000Y-86360000D01*
D25*
X116205000Y-88900000D02*
X128905000Y-88900000D01*
X114300000Y-90805000D02*
X116205000Y-88900000D01*
X92710000Y-90805000D02*
X114300000Y-90805000D01*
X91440000Y-92075000D02*
X92710000Y-90805000D01*
X91440000Y-92710000D02*
X91440000Y-92075000D01*
X67310000Y-89535000D02*
X67945000Y-89535000D01*
X67945000Y-89535000D02*
X81280000Y-89535000D01*
X67945000Y-93345000D02*
X68580000Y-93980000D01*
X68580000Y-93980000D02*
X74295000Y-93980000D01*
X81280000Y-89535000D02*
X82550000Y-90805000D01*
X91440000Y-92710000D02*
X91440000Y-91440000D01*
X91440000Y-91440000D02*
X90805000Y-90805000D01*
X90805000Y-90805000D02*
X82550000Y-90805000D01*
X62230000Y-88900000D02*
X66675000Y-88900000D01*
X66675000Y-88900000D02*
X67310000Y-89535000D01*
D27*
X128905000Y-88900000D02*
X131445000Y-88900000D01*
X59690000Y-88900000D02*
X62230000Y-88900000D01*
D25*
X78740000Y-91440000D02*
X62230000Y-91440000D01*
X80010000Y-92710000D02*
X78740000Y-91440000D01*
X83820000Y-92710000D02*
X80010000Y-92710000D01*
X83820000Y-89535000D02*
X93345000Y-89535000D01*
X90170000Y-83185000D02*
X84455000Y-83185000D01*
X90805000Y-82550000D02*
X90170000Y-83185000D01*
D27*
X128905000Y-91440000D02*
X131445000Y-91440000D01*
X59690000Y-91440000D02*
X62230000Y-91440000D01*
D25*
X82550000Y-86995000D02*
X100330000Y-86995000D01*
X81915000Y-86360000D02*
X82550000Y-86995000D01*
X74930000Y-81280000D02*
X79375000Y-81280000D01*
X74295000Y-80645000D02*
X74930000Y-81280000D01*
X86360000Y-71755000D02*
X88900000Y-74295000D01*
X106045000Y-86995000D02*
X104140000Y-85090000D01*
X113665000Y-86995000D02*
X106045000Y-86995000D01*
X114935000Y-85725000D02*
X113665000Y-86995000D01*
X113665000Y-74295000D02*
X114300000Y-74930000D01*
X88900000Y-74295000D02*
X113665000Y-74295000D01*
X96520000Y-85090000D02*
X96520000Y-83185000D01*
X97790000Y-81915000D02*
X122555000Y-81915000D01*
X96520000Y-83185000D02*
X97790000Y-81915000D01*
D26*
X99695000Y-80645000D02*
X104775000Y-80645000D01*
D25*
X99060000Y-89535000D02*
X113665000Y-89535000D01*
X113665000Y-89535000D02*
X116840000Y-86360000D01*
X116840000Y-86360000D02*
X128905000Y-86360000D01*
D27*
X128905000Y-86360000D02*
X131445000Y-86360000D01*
D28*
G36*
X138990000Y-104700000D02*
X51510000Y-104700000D01*
X51510000Y-101585854D01*
X52109457Y-101585854D01*
X52585727Y-102738515D01*
X53466847Y-103621174D01*
X54618674Y-104099454D01*
X55865854Y-104100543D01*
X57018515Y-103624273D01*
X57901174Y-102743153D01*
X58379454Y-101591326D01*
X58379458Y-101585854D01*
X132119457Y-101585854D01*
X132595727Y-102738515D01*
X133476847Y-103621174D01*
X134628674Y-104099454D01*
X135875854Y-104100543D01*
X137028515Y-103624273D01*
X137911174Y-102743153D01*
X138389454Y-101591326D01*
X138390543Y-100344146D01*
X137914273Y-99191485D01*
X137033153Y-98308826D01*
X135881326Y-97830546D01*
X134634146Y-97829457D01*
X133481485Y-98305727D01*
X132598826Y-99186847D01*
X132120546Y-100338674D01*
X132119457Y-101585854D01*
X58379458Y-101585854D01*
X58380543Y-100344146D01*
X57904273Y-99191485D01*
X57174064Y-98460000D01*
X81072560Y-98460000D01*
X81072560Y-99660000D01*
X81116838Y-99895317D01*
X81255910Y-100111441D01*
X81468110Y-100256431D01*
X81720000Y-100307440D01*
X82920000Y-100307440D01*
X83155317Y-100263162D01*
X83282636Y-100181234D01*
X83651036Y-100307807D01*
X84141413Y-100277482D01*
X84453617Y-100148164D01*
X84503130Y-99922735D01*
X83820000Y-99239605D01*
X83805858Y-99253748D01*
X83626253Y-99074143D01*
X83640395Y-99060000D01*
X83999605Y-99060000D01*
X84682735Y-99743130D01*
X84908164Y-99693617D01*
X85067807Y-99228964D01*
X85037482Y-98738587D01*
X84908164Y-98426383D01*
X84682735Y-98376870D01*
X83999605Y-99060000D01*
X83640395Y-99060000D01*
X83626253Y-99045858D01*
X83805858Y-98866253D01*
X83820000Y-98880395D01*
X84503130Y-98197265D01*
X84453617Y-97971836D01*
X83988964Y-97812193D01*
X83498587Y-97842518D01*
X83276010Y-97934711D01*
X83171890Y-97863569D01*
X82920000Y-97812560D01*
X81720000Y-97812560D01*
X81484683Y-97856838D01*
X81268559Y-97995910D01*
X81123569Y-98208110D01*
X81072560Y-98460000D01*
X57174064Y-98460000D01*
X57023153Y-98308826D01*
X55871326Y-97830546D01*
X54624146Y-97829457D01*
X53471485Y-98305727D01*
X52588826Y-99186847D01*
X52110546Y-100338674D01*
X52109457Y-101585854D01*
X51510000Y-101585854D01*
X51510000Y-94336890D01*
X58248524Y-94336890D01*
X58418355Y-94746924D01*
X58808642Y-95175183D01*
X59333108Y-95421486D01*
X59563000Y-95300819D01*
X59563000Y-94107000D01*
X59817000Y-94107000D01*
X59817000Y-95300819D01*
X60046892Y-95421486D01*
X60571358Y-95175183D01*
X60960000Y-94748729D01*
X61348642Y-95175183D01*
X61873108Y-95421486D01*
X62103000Y-95300819D01*
X62103000Y-94107000D01*
X62357000Y-94107000D01*
X62357000Y-95300819D01*
X62586892Y-95421486D01*
X63111358Y-95175183D01*
X63501645Y-94746924D01*
X63671476Y-94336890D01*
X63550155Y-94107000D01*
X62357000Y-94107000D01*
X62103000Y-94107000D01*
X59817000Y-94107000D01*
X59563000Y-94107000D01*
X58369845Y-94107000D01*
X58248524Y-94336890D01*
X51510000Y-94336890D01*
X51510000Y-83820000D01*
X58055000Y-83820000D01*
X58179457Y-84445687D01*
X58192560Y-84465297D01*
X58192560Y-84670000D01*
X58236838Y-84905317D01*
X58375910Y-85121441D01*
X58522183Y-85221385D01*
X58179457Y-85734313D01*
X58055000Y-86360000D01*
X58179457Y-86985687D01*
X58533880Y-87516120D01*
X58704314Y-87630000D01*
X58533880Y-87743880D01*
X58179457Y-88274313D01*
X58055000Y-88900000D01*
X58179457Y-89525687D01*
X58533880Y-90056120D01*
X58704314Y-90170000D01*
X58533880Y-90283880D01*
X58179457Y-90814313D01*
X58055000Y-91440000D01*
X58179457Y-92065687D01*
X58533880Y-92596120D01*
X58813131Y-92782709D01*
X58808642Y-92784817D01*
X58418355Y-93213076D01*
X58248524Y-93623110D01*
X58369845Y-93853000D01*
X59563000Y-93853000D01*
X59563000Y-93833000D01*
X59817000Y-93833000D01*
X59817000Y-93853000D01*
X62103000Y-93853000D01*
X62103000Y-93833000D01*
X62357000Y-93833000D01*
X62357000Y-93853000D01*
X63550155Y-93853000D01*
X63671476Y-93623110D01*
X63501645Y-93213076D01*
X63111358Y-92784817D01*
X63106869Y-92782709D01*
X63386120Y-92596120D01*
X63483754Y-92450000D01*
X67501442Y-92450000D01*
X67230822Y-92630822D01*
X67011882Y-92958490D01*
X66935000Y-93345000D01*
X67011882Y-93731510D01*
X67230822Y-94059178D01*
X67290519Y-94118875D01*
X66875654Y-94201397D01*
X66507434Y-94447434D01*
X66261397Y-94815654D01*
X66175000Y-95250000D01*
X66261397Y-95684346D01*
X66507434Y-96052566D01*
X66875654Y-96298603D01*
X67310000Y-96385000D01*
X89699868Y-96385000D01*
X91217388Y-97902521D01*
X91213569Y-97908110D01*
X91162560Y-98160000D01*
X91162560Y-99960000D01*
X91206838Y-100195317D01*
X91345910Y-100411441D01*
X91558110Y-100556431D01*
X91810000Y-100607440D01*
X93610000Y-100607440D01*
X93845317Y-100563162D01*
X94061441Y-100424090D01*
X94206431Y-100211890D01*
X94216766Y-100160854D01*
X94342424Y-100297966D01*
X94885258Y-100551046D01*
X95123000Y-100430997D01*
X95123000Y-99187000D01*
X95103000Y-99187000D01*
X95103000Y-98933000D01*
X95123000Y-98933000D01*
X95123000Y-97689003D01*
X95377000Y-97689003D01*
X95377000Y-98933000D01*
X95397000Y-98933000D01*
X95397000Y-99187000D01*
X95377000Y-99187000D01*
X95377000Y-100430997D01*
X95614742Y-100551046D01*
X96157576Y-100297966D01*
X96515499Y-99907418D01*
X96674519Y-100145409D01*
X97172509Y-100478155D01*
X97759928Y-100595000D01*
X97820072Y-100595000D01*
X98407491Y-100478155D01*
X98905481Y-100145409D01*
X99238227Y-99647419D01*
X99355072Y-99060000D01*
X99238227Y-98472581D01*
X98905481Y-97974591D01*
X98407491Y-97641845D01*
X97820072Y-97525000D01*
X97759928Y-97525000D01*
X97172509Y-97641845D01*
X96674519Y-97974591D01*
X96515499Y-98212582D01*
X96157576Y-97822034D01*
X95614742Y-97568954D01*
X95377000Y-97689003D01*
X95123000Y-97689003D01*
X94885258Y-97568954D01*
X94342424Y-97822034D01*
X94219156Y-97956538D01*
X94213162Y-97924683D01*
X94074090Y-97708559D01*
X93861890Y-97563569D01*
X93797361Y-97550501D01*
X93758603Y-97355654D01*
X93677435Y-97234178D01*
X93512566Y-96987433D01*
X92785133Y-96260000D01*
X98006644Y-96260000D01*
X98980822Y-97234178D01*
X99308490Y-97453118D01*
X99695000Y-97530000D01*
X103721644Y-97530000D01*
X103765000Y-97573356D01*
X103765000Y-98425000D01*
X103841882Y-98811510D01*
X104060822Y-99139178D01*
X104695822Y-99774178D01*
X105023490Y-99993118D01*
X105351793Y-100058422D01*
X105385910Y-100111441D01*
X105598110Y-100256431D01*
X105850000Y-100307440D01*
X107050000Y-100307440D01*
X107285317Y-100263162D01*
X107412636Y-100181234D01*
X107781036Y-100307807D01*
X108271413Y-100277482D01*
X108583617Y-100148164D01*
X108633130Y-99922735D01*
X107950000Y-99239605D01*
X107935858Y-99253748D01*
X107756253Y-99074143D01*
X107770395Y-99060000D01*
X108129605Y-99060000D01*
X108812735Y-99743130D01*
X109038164Y-99693617D01*
X109197807Y-99228964D01*
X109167482Y-98738587D01*
X109038164Y-98426383D01*
X108812735Y-98376870D01*
X108129605Y-99060000D01*
X107770395Y-99060000D01*
X107756253Y-99045858D01*
X107935858Y-98866253D01*
X107950000Y-98880395D01*
X108633130Y-98197265D01*
X108583617Y-97971836D01*
X108118964Y-97812193D01*
X107628587Y-97842518D01*
X107406010Y-97934711D01*
X107301890Y-97863569D01*
X107050000Y-97812560D01*
X105850000Y-97812560D01*
X105785000Y-97824791D01*
X105785000Y-97155000D01*
X105708118Y-96768490D01*
X105489178Y-96440822D01*
X105308356Y-96260000D01*
X108585000Y-96260000D01*
X108971510Y-96183118D01*
X109299178Y-95964178D01*
X109518118Y-95636510D01*
X109595000Y-95250000D01*
X109518118Y-94863490D01*
X109299178Y-94535822D01*
X109001455Y-94336890D01*
X127463524Y-94336890D01*
X127633355Y-94746924D01*
X128023642Y-95175183D01*
X128548108Y-95421486D01*
X128778000Y-95300819D01*
X128778000Y-94107000D01*
X129032000Y-94107000D01*
X129032000Y-95300819D01*
X129261892Y-95421486D01*
X129786358Y-95175183D01*
X130175000Y-94748729D01*
X130563642Y-95175183D01*
X131088108Y-95421486D01*
X131318000Y-95300819D01*
X131318000Y-94107000D01*
X131572000Y-94107000D01*
X131572000Y-95300819D01*
X131801892Y-95421486D01*
X132326358Y-95175183D01*
X132716645Y-94746924D01*
X132886476Y-94336890D01*
X132765155Y-94107000D01*
X131572000Y-94107000D01*
X131318000Y-94107000D01*
X129032000Y-94107000D01*
X128778000Y-94107000D01*
X127584845Y-94107000D01*
X127463524Y-94336890D01*
X109001455Y-94336890D01*
X108971510Y-94316882D01*
X108585000Y-94240000D01*
X100748356Y-94240000D01*
X100149387Y-93641031D01*
X100330000Y-93370725D01*
X100585302Y-93752811D01*
X101050849Y-94063880D01*
X101600000Y-94173113D01*
X102149151Y-94063880D01*
X102614698Y-93752811D01*
X102870000Y-93370725D01*
X103125302Y-93752811D01*
X103590849Y-94063880D01*
X104140000Y-94173113D01*
X104689151Y-94063880D01*
X105154698Y-93752811D01*
X105465767Y-93287264D01*
X105575000Y-92738113D01*
X105575000Y-92681887D01*
X105465767Y-92132736D01*
X105253462Y-91815000D01*
X114300000Y-91815000D01*
X114686510Y-91738118D01*
X115014178Y-91519178D01*
X116623356Y-89910000D01*
X127651246Y-89910000D01*
X127748880Y-90056120D01*
X127919314Y-90170000D01*
X127748880Y-90283880D01*
X127394457Y-90814313D01*
X127270000Y-91440000D01*
X127394457Y-92065687D01*
X127748880Y-92596120D01*
X128028131Y-92782709D01*
X128023642Y-92784817D01*
X127633355Y-93213076D01*
X127463524Y-93623110D01*
X127584845Y-93853000D01*
X128778000Y-93853000D01*
X128778000Y-93833000D01*
X129032000Y-93833000D01*
X129032000Y-93853000D01*
X131318000Y-93853000D01*
X131318000Y-93833000D01*
X131572000Y-93833000D01*
X131572000Y-93853000D01*
X132765155Y-93853000D01*
X132886476Y-93623110D01*
X132716645Y-93213076D01*
X132326358Y-92784817D01*
X132321869Y-92782709D01*
X132601120Y-92596120D01*
X132955543Y-92065687D01*
X133080000Y-91440000D01*
X132955543Y-90814313D01*
X132601120Y-90283880D01*
X132430686Y-90170000D01*
X132601120Y-90056120D01*
X132955543Y-89525687D01*
X133080000Y-88900000D01*
X132955543Y-88274313D01*
X132601120Y-87743880D01*
X132430686Y-87630000D01*
X132601120Y-87516120D01*
X132955543Y-86985687D01*
X133080000Y-86360000D01*
X132955543Y-85734313D01*
X132601120Y-85203880D01*
X132430686Y-85090000D01*
X132601120Y-84976120D01*
X132955543Y-84445687D01*
X133080000Y-83820000D01*
X132955543Y-83194313D01*
X132601120Y-82663880D01*
X132070687Y-82309457D01*
X131445000Y-82185000D01*
X128905000Y-82185000D01*
X128279313Y-82309457D01*
X128259703Y-82322560D01*
X128055000Y-82322560D01*
X127819683Y-82366838D01*
X127603559Y-82505910D01*
X127481192Y-82685000D01*
X123185634Y-82685000D01*
X123269178Y-82629178D01*
X123488118Y-82301510D01*
X123565000Y-81915000D01*
X123488118Y-81528490D01*
X123269178Y-81200822D01*
X122941510Y-80981882D01*
X122555000Y-80905000D01*
X105858283Y-80905000D01*
X105910000Y-80645000D01*
X105823603Y-80210654D01*
X105577566Y-79842434D01*
X105209346Y-79596397D01*
X104775000Y-79510000D01*
X99695000Y-79510000D01*
X99260654Y-79596397D01*
X98892434Y-79842434D01*
X98646397Y-80210654D01*
X98560000Y-80645000D01*
X98611717Y-80905000D01*
X97790000Y-80905000D01*
X97403490Y-80981882D01*
X97075822Y-81200822D01*
X95805822Y-82470822D01*
X95586882Y-82798490D01*
X95510000Y-83185000D01*
X95510000Y-84044050D01*
X95505302Y-84047189D01*
X95250000Y-84429275D01*
X94994698Y-84047189D01*
X94529151Y-83736120D01*
X93980000Y-83626887D01*
X93430849Y-83736120D01*
X92965302Y-84047189D01*
X92710000Y-84429275D01*
X92454698Y-84047189D01*
X91989151Y-83736120D01*
X91440000Y-83626887D01*
X91086067Y-83697289D01*
X91519178Y-83264178D01*
X91738118Y-82936510D01*
X91815000Y-82550000D01*
X91738118Y-82163490D01*
X91519178Y-81835822D01*
X91191510Y-81616882D01*
X90805000Y-81540000D01*
X90418490Y-81616882D01*
X90273751Y-81713593D01*
X90334750Y-81566691D01*
X90335248Y-80995813D01*
X90117243Y-80468200D01*
X89713923Y-80064176D01*
X89699196Y-80058061D01*
X89614178Y-79930822D01*
X88344178Y-78660822D01*
X88016510Y-78441882D01*
X87630000Y-78365000D01*
X87448296Y-78365000D01*
X87591041Y-78207423D01*
X87751904Y-77819039D01*
X87716275Y-77754187D01*
X90004752Y-77754187D01*
X90222757Y-78281800D01*
X90626077Y-78685824D01*
X91153309Y-78904750D01*
X91724187Y-78905248D01*
X92251800Y-78687243D01*
X92655824Y-78283923D01*
X92848860Y-77819039D01*
X97668096Y-77819039D01*
X97828959Y-78207423D01*
X98204866Y-78622389D01*
X98710959Y-78861914D01*
X98933000Y-78740629D01*
X98933000Y-77597000D01*
X99187000Y-77597000D01*
X99187000Y-78740629D01*
X99409041Y-78861914D01*
X99915134Y-78622389D01*
X100291041Y-78207423D01*
X100451904Y-77819039D01*
X102748096Y-77819039D01*
X102908959Y-78207423D01*
X103284866Y-78622389D01*
X103790959Y-78861914D01*
X104013000Y-78740629D01*
X104013000Y-77597000D01*
X104267000Y-77597000D01*
X104267000Y-78740629D01*
X104489041Y-78861914D01*
X104995134Y-78622389D01*
X105371041Y-78207423D01*
X105531904Y-77819039D01*
X105496275Y-77754187D01*
X110324752Y-77754187D01*
X110542757Y-78281800D01*
X110946077Y-78685824D01*
X111473309Y-78904750D01*
X112044187Y-78905248D01*
X112571800Y-78687243D01*
X112975824Y-78283923D01*
X113194750Y-77756691D01*
X113195248Y-77185813D01*
X112977243Y-76658200D01*
X112573923Y-76254176D01*
X112046691Y-76035250D01*
X111475813Y-76034752D01*
X110948200Y-76252757D01*
X110544176Y-76656077D01*
X110325250Y-77183309D01*
X110324752Y-77754187D01*
X105496275Y-77754187D01*
X105409915Y-77597000D01*
X104267000Y-77597000D01*
X104013000Y-77597000D01*
X102870085Y-77597000D01*
X102748096Y-77819039D01*
X100451904Y-77819039D01*
X100329915Y-77597000D01*
X99187000Y-77597000D01*
X98933000Y-77597000D01*
X97790085Y-77597000D01*
X97668096Y-77819039D01*
X92848860Y-77819039D01*
X92874750Y-77756691D01*
X92875248Y-77185813D01*
X92848452Y-77120961D01*
X97668096Y-77120961D01*
X97790085Y-77343000D01*
X98933000Y-77343000D01*
X98933000Y-76199371D01*
X99187000Y-76199371D01*
X99187000Y-77343000D01*
X100329915Y-77343000D01*
X100451904Y-77120961D01*
X102748096Y-77120961D01*
X102870085Y-77343000D01*
X104013000Y-77343000D01*
X104013000Y-76199371D01*
X104267000Y-76199371D01*
X104267000Y-77343000D01*
X105409915Y-77343000D01*
X105531904Y-77120961D01*
X105371041Y-76732577D01*
X104995134Y-76317611D01*
X104489041Y-76078086D01*
X104267000Y-76199371D01*
X104013000Y-76199371D01*
X103790959Y-76078086D01*
X103284866Y-76317611D01*
X102908959Y-76732577D01*
X102748096Y-77120961D01*
X100451904Y-77120961D01*
X100291041Y-76732577D01*
X99915134Y-76317611D01*
X99409041Y-76078086D01*
X99187000Y-76199371D01*
X98933000Y-76199371D01*
X98710959Y-76078086D01*
X98204866Y-76317611D01*
X97828959Y-76732577D01*
X97668096Y-77120961D01*
X92848452Y-77120961D01*
X92657243Y-76658200D01*
X92253923Y-76254176D01*
X91726691Y-76035250D01*
X91155813Y-76034752D01*
X90628200Y-76252757D01*
X90224176Y-76656077D01*
X90005250Y-77183309D01*
X90004752Y-77754187D01*
X87716275Y-77754187D01*
X87629915Y-77597000D01*
X86487000Y-77597000D01*
X86487000Y-77617000D01*
X86233000Y-77617000D01*
X86233000Y-77597000D01*
X85090085Y-77597000D01*
X84968096Y-77819039D01*
X85128959Y-78207423D01*
X85271704Y-78365000D01*
X85090000Y-78365000D01*
X84703490Y-78441882D01*
X84375822Y-78660822D01*
X81496644Y-81540000D01*
X80333283Y-81540000D01*
X80385000Y-81280000D01*
X80308118Y-80893490D01*
X80089178Y-80565822D01*
X79761510Y-80346882D01*
X79375000Y-80270000D01*
X75348356Y-80270000D01*
X75009178Y-79930822D01*
X74681510Y-79711882D01*
X74295000Y-79635000D01*
X73908490Y-79711882D01*
X73580822Y-79930822D01*
X73361882Y-80258490D01*
X73285000Y-80645000D01*
X73361882Y-81031510D01*
X73580822Y-81359178D01*
X74215822Y-81994178D01*
X74543490Y-82213118D01*
X74930000Y-82290000D01*
X77571644Y-82290000D01*
X77390822Y-82470822D01*
X77171882Y-82798490D01*
X77095000Y-83185000D01*
X77095000Y-84455000D01*
X77171882Y-84841510D01*
X77390822Y-85169178D01*
X77718490Y-85388118D01*
X78105000Y-85465000D01*
X78491510Y-85388118D01*
X78819178Y-85169178D01*
X79038118Y-84841510D01*
X79115000Y-84455000D01*
X79115000Y-83603356D01*
X79158356Y-83560000D01*
X81915000Y-83560000D01*
X82301510Y-83483118D01*
X82629178Y-83264178D01*
X85021999Y-80871357D01*
X84953035Y-81063223D01*
X84980222Y-81633454D01*
X85146136Y-82034005D01*
X85392253Y-82108139D01*
X85325392Y-82175000D01*
X84455000Y-82175000D01*
X84068490Y-82251882D01*
X83740822Y-82470822D01*
X83521882Y-82798490D01*
X83445000Y-83185000D01*
X83521882Y-83571510D01*
X83740822Y-83899178D01*
X84068490Y-84118118D01*
X84455000Y-84195000D01*
X85251619Y-84195000D01*
X85207611Y-84234866D01*
X84968086Y-84740959D01*
X85089371Y-84963000D01*
X86233000Y-84963000D01*
X86233000Y-84943000D01*
X86487000Y-84943000D01*
X86487000Y-84963000D01*
X86507000Y-84963000D01*
X86507000Y-85217000D01*
X86487000Y-85217000D01*
X86487000Y-85237000D01*
X86233000Y-85237000D01*
X86233000Y-85217000D01*
X85089371Y-85217000D01*
X84968086Y-85439041D01*
X85207611Y-85945134D01*
X85251619Y-85985000D01*
X82968356Y-85985000D01*
X82629178Y-85645822D01*
X82301510Y-85426882D01*
X81915000Y-85350000D01*
X81528490Y-85426882D01*
X81200822Y-85645822D01*
X80981882Y-85973490D01*
X80905000Y-86360000D01*
X80981882Y-86746510D01*
X81200822Y-87074178D01*
X81381644Y-87255000D01*
X68363356Y-87255000D01*
X66754178Y-85645822D01*
X66507839Y-85481224D01*
X66842566Y-85257566D01*
X67088604Y-84889346D01*
X67175000Y-84455000D01*
X67088604Y-84020655D01*
X66842566Y-83652434D01*
X66207566Y-83017434D01*
X66136576Y-82970000D01*
X65839346Y-82771397D01*
X65405000Y-82685000D01*
X63400232Y-82685000D01*
X63386120Y-82663880D01*
X62855687Y-82309457D01*
X62230000Y-82185000D01*
X59690000Y-82185000D01*
X59064313Y-82309457D01*
X59044703Y-82322560D01*
X58840000Y-82322560D01*
X58604683Y-82366838D01*
X58388559Y-82505910D01*
X58243569Y-82718110D01*
X58192560Y-82970000D01*
X58192560Y-83174703D01*
X58179457Y-83194313D01*
X58055000Y-83820000D01*
X51510000Y-83820000D01*
X51510000Y-77754187D01*
X77304752Y-77754187D01*
X77522757Y-78281800D01*
X77926077Y-78685824D01*
X78453309Y-78904750D01*
X79024187Y-78905248D01*
X79551800Y-78687243D01*
X79955824Y-78283923D01*
X80174750Y-77756691D01*
X80175248Y-77185813D01*
X80148452Y-77120961D01*
X84968096Y-77120961D01*
X85090085Y-77343000D01*
X86233000Y-77343000D01*
X86233000Y-76199371D01*
X86487000Y-76199371D01*
X86487000Y-77343000D01*
X87629915Y-77343000D01*
X87751904Y-77120961D01*
X87591041Y-76732577D01*
X87215134Y-76317611D01*
X86709041Y-76078086D01*
X86487000Y-76199371D01*
X86233000Y-76199371D01*
X86010959Y-76078086D01*
X85504866Y-76317611D01*
X85128959Y-76732577D01*
X84968096Y-77120961D01*
X80148452Y-77120961D01*
X79957243Y-76658200D01*
X79553923Y-76254176D01*
X79026691Y-76035250D01*
X78455813Y-76034752D01*
X77928200Y-76252757D01*
X77524176Y-76656077D01*
X77305250Y-77183309D01*
X77304752Y-77754187D01*
X51510000Y-77754187D01*
X51510000Y-72039187D01*
X64604752Y-72039187D01*
X64822757Y-72566800D01*
X65226077Y-72970824D01*
X65753309Y-73189750D01*
X66324187Y-73190248D01*
X66851800Y-72972243D01*
X67255824Y-72568923D01*
X67474750Y-72041691D01*
X67475000Y-71755000D01*
X72196887Y-71755000D01*
X72306120Y-72304151D01*
X72617189Y-72769698D01*
X73082736Y-73080767D01*
X73631887Y-73190000D01*
X73688113Y-73190000D01*
X74237264Y-73080767D01*
X74702811Y-72769698D01*
X75013880Y-72304151D01*
X75066584Y-72039187D01*
X77304752Y-72039187D01*
X77522757Y-72566800D01*
X77926077Y-72970824D01*
X78453309Y-73189750D01*
X79024187Y-73190248D01*
X79551800Y-72972243D01*
X79955824Y-72568923D01*
X80174750Y-72041691D01*
X80175000Y-71755000D01*
X84896887Y-71755000D01*
X85006120Y-72304151D01*
X85317189Y-72769698D01*
X85782736Y-73080767D01*
X86331887Y-73190000D01*
X86366644Y-73190000D01*
X88185822Y-75009178D01*
X88513489Y-75228118D01*
X88900000Y-75305000D01*
X113246644Y-75305000D01*
X113585822Y-75644178D01*
X113913490Y-75863118D01*
X114300000Y-75940000D01*
X114686510Y-75863118D01*
X115014178Y-75644178D01*
X115233118Y-75316510D01*
X115310000Y-74930000D01*
X115233118Y-74543490D01*
X115014178Y-74215822D01*
X114379178Y-73580822D01*
X114051510Y-73361882D01*
X113665000Y-73285000D01*
X89318356Y-73285000D01*
X88072543Y-72039187D01*
X90004752Y-72039187D01*
X90222757Y-72566800D01*
X90626077Y-72970824D01*
X91153309Y-73189750D01*
X91724187Y-73190248D01*
X92251800Y-72972243D01*
X92655824Y-72568923D01*
X92874750Y-72041691D01*
X92875000Y-71755000D01*
X97596887Y-71755000D01*
X97706120Y-72304151D01*
X98017189Y-72769698D01*
X98482736Y-73080767D01*
X99031887Y-73190000D01*
X99088113Y-73190000D01*
X99637264Y-73080767D01*
X100102811Y-72769698D01*
X100413880Y-72304151D01*
X100466584Y-72039187D01*
X102704752Y-72039187D01*
X102922757Y-72566800D01*
X103326077Y-72970824D01*
X103853309Y-73189750D01*
X104424187Y-73190248D01*
X104951800Y-72972243D01*
X105355824Y-72568923D01*
X105574750Y-72041691D01*
X105575000Y-71755000D01*
X110296887Y-71755000D01*
X110406120Y-72304151D01*
X110717189Y-72769698D01*
X111182736Y-73080767D01*
X111731887Y-73190000D01*
X111788113Y-73190000D01*
X112337264Y-73080767D01*
X112802811Y-72769698D01*
X113113880Y-72304151D01*
X113166584Y-72039187D01*
X115404752Y-72039187D01*
X115622757Y-72566800D01*
X116026077Y-72970824D01*
X116553309Y-73189750D01*
X117124187Y-73190248D01*
X117651800Y-72972243D01*
X118055824Y-72568923D01*
X118274750Y-72041691D01*
X118275000Y-71755000D01*
X122996887Y-71755000D01*
X123106120Y-72304151D01*
X123417189Y-72769698D01*
X123882736Y-73080767D01*
X124431887Y-73190000D01*
X124488113Y-73190000D01*
X125037264Y-73080767D01*
X125502811Y-72769698D01*
X125813880Y-72304151D01*
X125923113Y-71755000D01*
X125813880Y-71205849D01*
X125502811Y-70740302D01*
X125037264Y-70429233D01*
X124488113Y-70320000D01*
X124431887Y-70320000D01*
X123882736Y-70429233D01*
X123417189Y-70740302D01*
X123106120Y-71205849D01*
X122996887Y-71755000D01*
X118275000Y-71755000D01*
X118275248Y-71470813D01*
X118057243Y-70943200D01*
X117653923Y-70539176D01*
X117126691Y-70320250D01*
X116555813Y-70319752D01*
X116028200Y-70537757D01*
X115624176Y-70941077D01*
X115405250Y-71468309D01*
X115404752Y-72039187D01*
X113166584Y-72039187D01*
X113223113Y-71755000D01*
X113113880Y-71205849D01*
X112802811Y-70740302D01*
X112337264Y-70429233D01*
X111788113Y-70320000D01*
X111731887Y-70320000D01*
X111182736Y-70429233D01*
X110717189Y-70740302D01*
X110406120Y-71205849D01*
X110296887Y-71755000D01*
X105575000Y-71755000D01*
X105575248Y-71470813D01*
X105357243Y-70943200D01*
X104953923Y-70539176D01*
X104426691Y-70320250D01*
X103855813Y-70319752D01*
X103328200Y-70537757D01*
X102924176Y-70941077D01*
X102705250Y-71468309D01*
X102704752Y-72039187D01*
X100466584Y-72039187D01*
X100523113Y-71755000D01*
X100413880Y-71205849D01*
X100102811Y-70740302D01*
X99637264Y-70429233D01*
X99088113Y-70320000D01*
X99031887Y-70320000D01*
X98482736Y-70429233D01*
X98017189Y-70740302D01*
X97706120Y-71205849D01*
X97596887Y-71755000D01*
X92875000Y-71755000D01*
X92875248Y-71470813D01*
X92657243Y-70943200D01*
X92253923Y-70539176D01*
X91726691Y-70320250D01*
X91155813Y-70319752D01*
X90628200Y-70537757D01*
X90224176Y-70941077D01*
X90005250Y-71468309D01*
X90004752Y-72039187D01*
X88072543Y-72039187D01*
X87817346Y-71783990D01*
X87823113Y-71755000D01*
X87713880Y-71205849D01*
X87402811Y-70740302D01*
X86937264Y-70429233D01*
X86388113Y-70320000D01*
X86331887Y-70320000D01*
X85782736Y-70429233D01*
X85317189Y-70740302D01*
X85006120Y-71205849D01*
X84896887Y-71755000D01*
X80175000Y-71755000D01*
X80175248Y-71470813D01*
X79957243Y-70943200D01*
X79553923Y-70539176D01*
X79026691Y-70320250D01*
X78455813Y-70319752D01*
X77928200Y-70537757D01*
X77524176Y-70941077D01*
X77305250Y-71468309D01*
X77304752Y-72039187D01*
X75066584Y-72039187D01*
X75123113Y-71755000D01*
X75013880Y-71205849D01*
X74702811Y-70740302D01*
X74237264Y-70429233D01*
X73688113Y-70320000D01*
X73631887Y-70320000D01*
X73082736Y-70429233D01*
X72617189Y-70740302D01*
X72306120Y-71205849D01*
X72196887Y-71755000D01*
X67475000Y-71755000D01*
X67475248Y-71470813D01*
X67257243Y-70943200D01*
X66853923Y-70539176D01*
X66326691Y-70320250D01*
X65755813Y-70319752D01*
X65228200Y-70537757D01*
X64824176Y-70941077D01*
X64605250Y-71468309D01*
X64604752Y-72039187D01*
X51510000Y-72039187D01*
X51510000Y-66510000D01*
X65862560Y-66510000D01*
X65862560Y-68110000D01*
X65906838Y-68345317D01*
X66045910Y-68561441D01*
X66258110Y-68706431D01*
X66510000Y-68757440D01*
X68110000Y-68757440D01*
X68345317Y-68713162D01*
X68561441Y-68574090D01*
X68706431Y-68361890D01*
X68738732Y-68202384D01*
X69112577Y-68541041D01*
X69500961Y-68701904D01*
X69723000Y-68579915D01*
X69723000Y-67437000D01*
X69703000Y-67437000D01*
X69703000Y-67183000D01*
X69723000Y-67183000D01*
X69723000Y-66040085D01*
X69977000Y-66040085D01*
X69977000Y-67183000D01*
X69997000Y-67183000D01*
X69997000Y-67437000D01*
X69977000Y-67437000D01*
X69977000Y-68579915D01*
X70199039Y-68701904D01*
X70587423Y-68541041D01*
X71002389Y-68165134D01*
X71105014Y-67948297D01*
X71375302Y-68352811D01*
X71840849Y-68663880D01*
X72390000Y-68773113D01*
X72939151Y-68663880D01*
X73404698Y-68352811D01*
X73715767Y-67887264D01*
X73825000Y-67338113D01*
X73825000Y-67281887D01*
X73715767Y-66732736D01*
X73566940Y-66510000D01*
X78562560Y-66510000D01*
X78562560Y-68110000D01*
X78606838Y-68345317D01*
X78745910Y-68561441D01*
X78958110Y-68706431D01*
X79210000Y-68757440D01*
X80810000Y-68757440D01*
X81045317Y-68713162D01*
X81261441Y-68574090D01*
X81406431Y-68361890D01*
X81438732Y-68202384D01*
X81812577Y-68541041D01*
X82200961Y-68701904D01*
X82423000Y-68579915D01*
X82423000Y-67437000D01*
X82403000Y-67437000D01*
X82403000Y-67183000D01*
X82423000Y-67183000D01*
X82423000Y-66040085D01*
X82677000Y-66040085D01*
X82677000Y-67183000D01*
X82697000Y-67183000D01*
X82697000Y-67437000D01*
X82677000Y-67437000D01*
X82677000Y-68579915D01*
X82899039Y-68701904D01*
X83287423Y-68541041D01*
X83702389Y-68165134D01*
X83805014Y-67948297D01*
X84075302Y-68352811D01*
X84540849Y-68663880D01*
X85090000Y-68773113D01*
X85639151Y-68663880D01*
X86104698Y-68352811D01*
X86415767Y-67887264D01*
X86525000Y-67338113D01*
X86525000Y-67281887D01*
X86415767Y-66732736D01*
X86266940Y-66510000D01*
X91262560Y-66510000D01*
X91262560Y-68110000D01*
X91306838Y-68345317D01*
X91445910Y-68561441D01*
X91658110Y-68706431D01*
X91910000Y-68757440D01*
X93510000Y-68757440D01*
X93745317Y-68713162D01*
X93961441Y-68574090D01*
X94106431Y-68361890D01*
X94138732Y-68202384D01*
X94512577Y-68541041D01*
X94900961Y-68701904D01*
X95123000Y-68579915D01*
X95123000Y-67437000D01*
X95103000Y-67437000D01*
X95103000Y-67183000D01*
X95123000Y-67183000D01*
X95123000Y-66040085D01*
X95377000Y-66040085D01*
X95377000Y-67183000D01*
X95397000Y-67183000D01*
X95397000Y-67437000D01*
X95377000Y-67437000D01*
X95377000Y-68579915D01*
X95599039Y-68701904D01*
X95987423Y-68541041D01*
X96402389Y-68165134D01*
X96505014Y-67948297D01*
X96775302Y-68352811D01*
X97240849Y-68663880D01*
X97790000Y-68773113D01*
X98339151Y-68663880D01*
X98804698Y-68352811D01*
X99115767Y-67887264D01*
X99225000Y-67338113D01*
X99225000Y-67281887D01*
X99115767Y-66732736D01*
X98966940Y-66510000D01*
X103962560Y-66510000D01*
X103962560Y-68110000D01*
X104006838Y-68345317D01*
X104145910Y-68561441D01*
X104358110Y-68706431D01*
X104610000Y-68757440D01*
X106210000Y-68757440D01*
X106445317Y-68713162D01*
X106661441Y-68574090D01*
X106806431Y-68361890D01*
X106838732Y-68202384D01*
X107212577Y-68541041D01*
X107600961Y-68701904D01*
X107823000Y-68579915D01*
X107823000Y-67437000D01*
X107803000Y-67437000D01*
X107803000Y-67183000D01*
X107823000Y-67183000D01*
X107823000Y-66040085D01*
X108077000Y-66040085D01*
X108077000Y-67183000D01*
X108097000Y-67183000D01*
X108097000Y-67437000D01*
X108077000Y-67437000D01*
X108077000Y-68579915D01*
X108299039Y-68701904D01*
X108687423Y-68541041D01*
X109102389Y-68165134D01*
X109205014Y-67948297D01*
X109475302Y-68352811D01*
X109940849Y-68663880D01*
X110490000Y-68773113D01*
X111039151Y-68663880D01*
X111504698Y-68352811D01*
X111815767Y-67887264D01*
X111925000Y-67338113D01*
X111925000Y-67281887D01*
X111815767Y-66732736D01*
X111666940Y-66510000D01*
X116662560Y-66510000D01*
X116662560Y-68110000D01*
X116706838Y-68345317D01*
X116845910Y-68561441D01*
X117058110Y-68706431D01*
X117310000Y-68757440D01*
X118910000Y-68757440D01*
X119145317Y-68713162D01*
X119361441Y-68574090D01*
X119506431Y-68361890D01*
X119538732Y-68202384D01*
X119912577Y-68541041D01*
X120300961Y-68701904D01*
X120523000Y-68579915D01*
X120523000Y-67437000D01*
X120503000Y-67437000D01*
X120503000Y-67183000D01*
X120523000Y-67183000D01*
X120523000Y-66040085D01*
X120777000Y-66040085D01*
X120777000Y-67183000D01*
X120797000Y-67183000D01*
X120797000Y-67437000D01*
X120777000Y-67437000D01*
X120777000Y-68579915D01*
X120999039Y-68701904D01*
X121387423Y-68541041D01*
X121802389Y-68165134D01*
X121905014Y-67948297D01*
X122175302Y-68352811D01*
X122640849Y-68663880D01*
X123190000Y-68773113D01*
X123739151Y-68663880D01*
X124204698Y-68352811D01*
X124515767Y-67887264D01*
X124625000Y-67338113D01*
X124625000Y-67281887D01*
X124515767Y-66732736D01*
X124204698Y-66267189D01*
X123739151Y-65956120D01*
X123190000Y-65846887D01*
X122640849Y-65956120D01*
X122175302Y-66267189D01*
X121905014Y-66671703D01*
X121802389Y-66454866D01*
X121387423Y-66078959D01*
X120999039Y-65918096D01*
X120777000Y-66040085D01*
X120523000Y-66040085D01*
X120300961Y-65918096D01*
X119912577Y-66078959D01*
X119539864Y-66416590D01*
X119513162Y-66274683D01*
X119374090Y-66058559D01*
X119161890Y-65913569D01*
X118910000Y-65862560D01*
X117310000Y-65862560D01*
X117074683Y-65906838D01*
X116858559Y-66045910D01*
X116713569Y-66258110D01*
X116662560Y-66510000D01*
X111666940Y-66510000D01*
X111504698Y-66267189D01*
X111039151Y-65956120D01*
X110490000Y-65846887D01*
X109940849Y-65956120D01*
X109475302Y-66267189D01*
X109205014Y-66671703D01*
X109102389Y-66454866D01*
X108687423Y-66078959D01*
X108299039Y-65918096D01*
X108077000Y-66040085D01*
X107823000Y-66040085D01*
X107600961Y-65918096D01*
X107212577Y-66078959D01*
X106839864Y-66416590D01*
X106813162Y-66274683D01*
X106674090Y-66058559D01*
X106461890Y-65913569D01*
X106210000Y-65862560D01*
X104610000Y-65862560D01*
X104374683Y-65906838D01*
X104158559Y-66045910D01*
X104013569Y-66258110D01*
X103962560Y-66510000D01*
X98966940Y-66510000D01*
X98804698Y-66267189D01*
X98339151Y-65956120D01*
X97790000Y-65846887D01*
X97240849Y-65956120D01*
X96775302Y-66267189D01*
X96505014Y-66671703D01*
X96402389Y-66454866D01*
X95987423Y-66078959D01*
X95599039Y-65918096D01*
X95377000Y-66040085D01*
X95123000Y-66040085D01*
X94900961Y-65918096D01*
X94512577Y-66078959D01*
X94139864Y-66416590D01*
X94113162Y-66274683D01*
X93974090Y-66058559D01*
X93761890Y-65913569D01*
X93510000Y-65862560D01*
X91910000Y-65862560D01*
X91674683Y-65906838D01*
X91458559Y-66045910D01*
X91313569Y-66258110D01*
X91262560Y-66510000D01*
X86266940Y-66510000D01*
X86104698Y-66267189D01*
X85639151Y-65956120D01*
X85090000Y-65846887D01*
X84540849Y-65956120D01*
X84075302Y-66267189D01*
X83805014Y-66671703D01*
X83702389Y-66454866D01*
X83287423Y-66078959D01*
X82899039Y-65918096D01*
X82677000Y-66040085D01*
X82423000Y-66040085D01*
X82200961Y-65918096D01*
X81812577Y-66078959D01*
X81439864Y-66416590D01*
X81413162Y-66274683D01*
X81274090Y-66058559D01*
X81061890Y-65913569D01*
X80810000Y-65862560D01*
X79210000Y-65862560D01*
X78974683Y-65906838D01*
X78758559Y-66045910D01*
X78613569Y-66258110D01*
X78562560Y-66510000D01*
X73566940Y-66510000D01*
X73404698Y-66267189D01*
X72939151Y-65956120D01*
X72390000Y-65846887D01*
X71840849Y-65956120D01*
X71375302Y-66267189D01*
X71105014Y-66671703D01*
X71002389Y-66454866D01*
X70587423Y-66078959D01*
X70199039Y-65918096D01*
X69977000Y-66040085D01*
X69723000Y-66040085D01*
X69500961Y-65918096D01*
X69112577Y-66078959D01*
X68739864Y-66416590D01*
X68713162Y-66274683D01*
X68574090Y-66058559D01*
X68361890Y-65913569D01*
X68110000Y-65862560D01*
X66510000Y-65862560D01*
X66274683Y-65906838D01*
X66058559Y-66045910D01*
X65913569Y-66258110D01*
X65862560Y-66510000D01*
X51510000Y-66510000D01*
X51510000Y-65532000D01*
X138990000Y-65532000D01*
X138990000Y-104700000D01*
X138990000Y-104700000D01*
G37*
X138990000Y-104700000D02*
X51510000Y-104700000D01*
X51510000Y-101585854D01*
X52109457Y-101585854D01*
X52585727Y-102738515D01*
X53466847Y-103621174D01*
X54618674Y-104099454D01*
X55865854Y-104100543D01*
X57018515Y-103624273D01*
X57901174Y-102743153D01*
X58379454Y-101591326D01*
X58379458Y-101585854D01*
X132119457Y-101585854D01*
X132595727Y-102738515D01*
X133476847Y-103621174D01*
X134628674Y-104099454D01*
X135875854Y-104100543D01*
X137028515Y-103624273D01*
X137911174Y-102743153D01*
X138389454Y-101591326D01*
X138390543Y-100344146D01*
X137914273Y-99191485D01*
X137033153Y-98308826D01*
X135881326Y-97830546D01*
X134634146Y-97829457D01*
X133481485Y-98305727D01*
X132598826Y-99186847D01*
X132120546Y-100338674D01*
X132119457Y-101585854D01*
X58379458Y-101585854D01*
X58380543Y-100344146D01*
X57904273Y-99191485D01*
X57174064Y-98460000D01*
X81072560Y-98460000D01*
X81072560Y-99660000D01*
X81116838Y-99895317D01*
X81255910Y-100111441D01*
X81468110Y-100256431D01*
X81720000Y-100307440D01*
X82920000Y-100307440D01*
X83155317Y-100263162D01*
X83282636Y-100181234D01*
X83651036Y-100307807D01*
X84141413Y-100277482D01*
X84453617Y-100148164D01*
X84503130Y-99922735D01*
X83820000Y-99239605D01*
X83805858Y-99253748D01*
X83626253Y-99074143D01*
X83640395Y-99060000D01*
X83999605Y-99060000D01*
X84682735Y-99743130D01*
X84908164Y-99693617D01*
X85067807Y-99228964D01*
X85037482Y-98738587D01*
X84908164Y-98426383D01*
X84682735Y-98376870D01*
X83999605Y-99060000D01*
X83640395Y-99060000D01*
X83626253Y-99045858D01*
X83805858Y-98866253D01*
X83820000Y-98880395D01*
X84503130Y-98197265D01*
X84453617Y-97971836D01*
X83988964Y-97812193D01*
X83498587Y-97842518D01*
X83276010Y-97934711D01*
X83171890Y-97863569D01*
X82920000Y-97812560D01*
X81720000Y-97812560D01*
X81484683Y-97856838D01*
X81268559Y-97995910D01*
X81123569Y-98208110D01*
X81072560Y-98460000D01*
X57174064Y-98460000D01*
X57023153Y-98308826D01*
X55871326Y-97830546D01*
X54624146Y-97829457D01*
X53471485Y-98305727D01*
X52588826Y-99186847D01*
X52110546Y-100338674D01*
X52109457Y-101585854D01*
X51510000Y-101585854D01*
X51510000Y-94336890D01*
X58248524Y-94336890D01*
X58418355Y-94746924D01*
X58808642Y-95175183D01*
X59333108Y-95421486D01*
X59563000Y-95300819D01*
X59563000Y-94107000D01*
X59817000Y-94107000D01*
X59817000Y-95300819D01*
X60046892Y-95421486D01*
X60571358Y-95175183D01*
X60960000Y-94748729D01*
X61348642Y-95175183D01*
X61873108Y-95421486D01*
X62103000Y-95300819D01*
X62103000Y-94107000D01*
X62357000Y-94107000D01*
X62357000Y-95300819D01*
X62586892Y-95421486D01*
X63111358Y-95175183D01*
X63501645Y-94746924D01*
X63671476Y-94336890D01*
X63550155Y-94107000D01*
X62357000Y-94107000D01*
X62103000Y-94107000D01*
X59817000Y-94107000D01*
X59563000Y-94107000D01*
X58369845Y-94107000D01*
X58248524Y-94336890D01*
X51510000Y-94336890D01*
X51510000Y-83820000D01*
X58055000Y-83820000D01*
X58179457Y-84445687D01*
X58192560Y-84465297D01*
X58192560Y-84670000D01*
X58236838Y-84905317D01*
X58375910Y-85121441D01*
X58522183Y-85221385D01*
X58179457Y-85734313D01*
X58055000Y-86360000D01*
X58179457Y-86985687D01*
X58533880Y-87516120D01*
X58704314Y-87630000D01*
X58533880Y-87743880D01*
X58179457Y-88274313D01*
X58055000Y-88900000D01*
X58179457Y-89525687D01*
X58533880Y-90056120D01*
X58704314Y-90170000D01*
X58533880Y-90283880D01*
X58179457Y-90814313D01*
X58055000Y-91440000D01*
X58179457Y-92065687D01*
X58533880Y-92596120D01*
X58813131Y-92782709D01*
X58808642Y-92784817D01*
X58418355Y-93213076D01*
X58248524Y-93623110D01*
X58369845Y-93853000D01*
X59563000Y-93853000D01*
X59563000Y-93833000D01*
X59817000Y-93833000D01*
X59817000Y-93853000D01*
X62103000Y-93853000D01*
X62103000Y-93833000D01*
X62357000Y-93833000D01*
X62357000Y-93853000D01*
X63550155Y-93853000D01*
X63671476Y-93623110D01*
X63501645Y-93213076D01*
X63111358Y-92784817D01*
X63106869Y-92782709D01*
X63386120Y-92596120D01*
X63483754Y-92450000D01*
X67501442Y-92450000D01*
X67230822Y-92630822D01*
X67011882Y-92958490D01*
X66935000Y-93345000D01*
X67011882Y-93731510D01*
X67230822Y-94059178D01*
X67290519Y-94118875D01*
X66875654Y-94201397D01*
X66507434Y-94447434D01*
X66261397Y-94815654D01*
X66175000Y-95250000D01*
X66261397Y-95684346D01*
X66507434Y-96052566D01*
X66875654Y-96298603D01*
X67310000Y-96385000D01*
X89699868Y-96385000D01*
X91217388Y-97902521D01*
X91213569Y-97908110D01*
X91162560Y-98160000D01*
X91162560Y-99960000D01*
X91206838Y-100195317D01*
X91345910Y-100411441D01*
X91558110Y-100556431D01*
X91810000Y-100607440D01*
X93610000Y-100607440D01*
X93845317Y-100563162D01*
X94061441Y-100424090D01*
X94206431Y-100211890D01*
X94216766Y-100160854D01*
X94342424Y-100297966D01*
X94885258Y-100551046D01*
X95123000Y-100430997D01*
X95123000Y-99187000D01*
X95103000Y-99187000D01*
X95103000Y-98933000D01*
X95123000Y-98933000D01*
X95123000Y-97689003D01*
X95377000Y-97689003D01*
X95377000Y-98933000D01*
X95397000Y-98933000D01*
X95397000Y-99187000D01*
X95377000Y-99187000D01*
X95377000Y-100430997D01*
X95614742Y-100551046D01*
X96157576Y-100297966D01*
X96515499Y-99907418D01*
X96674519Y-100145409D01*
X97172509Y-100478155D01*
X97759928Y-100595000D01*
X97820072Y-100595000D01*
X98407491Y-100478155D01*
X98905481Y-100145409D01*
X99238227Y-99647419D01*
X99355072Y-99060000D01*
X99238227Y-98472581D01*
X98905481Y-97974591D01*
X98407491Y-97641845D01*
X97820072Y-97525000D01*
X97759928Y-97525000D01*
X97172509Y-97641845D01*
X96674519Y-97974591D01*
X96515499Y-98212582D01*
X96157576Y-97822034D01*
X95614742Y-97568954D01*
X95377000Y-97689003D01*
X95123000Y-97689003D01*
X94885258Y-97568954D01*
X94342424Y-97822034D01*
X94219156Y-97956538D01*
X94213162Y-97924683D01*
X94074090Y-97708559D01*
X93861890Y-97563569D01*
X93797361Y-97550501D01*
X93758603Y-97355654D01*
X93677435Y-97234178D01*
X93512566Y-96987433D01*
X92785133Y-96260000D01*
X98006644Y-96260000D01*
X98980822Y-97234178D01*
X99308490Y-97453118D01*
X99695000Y-97530000D01*
X103721644Y-97530000D01*
X103765000Y-97573356D01*
X103765000Y-98425000D01*
X103841882Y-98811510D01*
X104060822Y-99139178D01*
X104695822Y-99774178D01*
X105023490Y-99993118D01*
X105351793Y-100058422D01*
X105385910Y-100111441D01*
X105598110Y-100256431D01*
X105850000Y-100307440D01*
X107050000Y-100307440D01*
X107285317Y-100263162D01*
X107412636Y-100181234D01*
X107781036Y-100307807D01*
X108271413Y-100277482D01*
X108583617Y-100148164D01*
X108633130Y-99922735D01*
X107950000Y-99239605D01*
X107935858Y-99253748D01*
X107756253Y-99074143D01*
X107770395Y-99060000D01*
X108129605Y-99060000D01*
X108812735Y-99743130D01*
X109038164Y-99693617D01*
X109197807Y-99228964D01*
X109167482Y-98738587D01*
X109038164Y-98426383D01*
X108812735Y-98376870D01*
X108129605Y-99060000D01*
X107770395Y-99060000D01*
X107756253Y-99045858D01*
X107935858Y-98866253D01*
X107950000Y-98880395D01*
X108633130Y-98197265D01*
X108583617Y-97971836D01*
X108118964Y-97812193D01*
X107628587Y-97842518D01*
X107406010Y-97934711D01*
X107301890Y-97863569D01*
X107050000Y-97812560D01*
X105850000Y-97812560D01*
X105785000Y-97824791D01*
X105785000Y-97155000D01*
X105708118Y-96768490D01*
X105489178Y-96440822D01*
X105308356Y-96260000D01*
X108585000Y-96260000D01*
X108971510Y-96183118D01*
X109299178Y-95964178D01*
X109518118Y-95636510D01*
X109595000Y-95250000D01*
X109518118Y-94863490D01*
X109299178Y-94535822D01*
X109001455Y-94336890D01*
X127463524Y-94336890D01*
X127633355Y-94746924D01*
X128023642Y-95175183D01*
X128548108Y-95421486D01*
X128778000Y-95300819D01*
X128778000Y-94107000D01*
X129032000Y-94107000D01*
X129032000Y-95300819D01*
X129261892Y-95421486D01*
X129786358Y-95175183D01*
X130175000Y-94748729D01*
X130563642Y-95175183D01*
X131088108Y-95421486D01*
X131318000Y-95300819D01*
X131318000Y-94107000D01*
X131572000Y-94107000D01*
X131572000Y-95300819D01*
X131801892Y-95421486D01*
X132326358Y-95175183D01*
X132716645Y-94746924D01*
X132886476Y-94336890D01*
X132765155Y-94107000D01*
X131572000Y-94107000D01*
X131318000Y-94107000D01*
X129032000Y-94107000D01*
X128778000Y-94107000D01*
X127584845Y-94107000D01*
X127463524Y-94336890D01*
X109001455Y-94336890D01*
X108971510Y-94316882D01*
X108585000Y-94240000D01*
X100748356Y-94240000D01*
X100149387Y-93641031D01*
X100330000Y-93370725D01*
X100585302Y-93752811D01*
X101050849Y-94063880D01*
X101600000Y-94173113D01*
X102149151Y-94063880D01*
X102614698Y-93752811D01*
X102870000Y-93370725D01*
X103125302Y-93752811D01*
X103590849Y-94063880D01*
X104140000Y-94173113D01*
X104689151Y-94063880D01*
X105154698Y-93752811D01*
X105465767Y-93287264D01*
X105575000Y-92738113D01*
X105575000Y-92681887D01*
X105465767Y-92132736D01*
X105253462Y-91815000D01*
X114300000Y-91815000D01*
X114686510Y-91738118D01*
X115014178Y-91519178D01*
X116623356Y-89910000D01*
X127651246Y-89910000D01*
X127748880Y-90056120D01*
X127919314Y-90170000D01*
X127748880Y-90283880D01*
X127394457Y-90814313D01*
X127270000Y-91440000D01*
X127394457Y-92065687D01*
X127748880Y-92596120D01*
X128028131Y-92782709D01*
X128023642Y-92784817D01*
X127633355Y-93213076D01*
X127463524Y-93623110D01*
X127584845Y-93853000D01*
X128778000Y-93853000D01*
X128778000Y-93833000D01*
X129032000Y-93833000D01*
X129032000Y-93853000D01*
X131318000Y-93853000D01*
X131318000Y-93833000D01*
X131572000Y-93833000D01*
X131572000Y-93853000D01*
X132765155Y-93853000D01*
X132886476Y-93623110D01*
X132716645Y-93213076D01*
X132326358Y-92784817D01*
X132321869Y-92782709D01*
X132601120Y-92596120D01*
X132955543Y-92065687D01*
X133080000Y-91440000D01*
X132955543Y-90814313D01*
X132601120Y-90283880D01*
X132430686Y-90170000D01*
X132601120Y-90056120D01*
X132955543Y-89525687D01*
X133080000Y-88900000D01*
X132955543Y-88274313D01*
X132601120Y-87743880D01*
X132430686Y-87630000D01*
X132601120Y-87516120D01*
X132955543Y-86985687D01*
X133080000Y-86360000D01*
X132955543Y-85734313D01*
X132601120Y-85203880D01*
X132430686Y-85090000D01*
X132601120Y-84976120D01*
X132955543Y-84445687D01*
X133080000Y-83820000D01*
X132955543Y-83194313D01*
X132601120Y-82663880D01*
X132070687Y-82309457D01*
X131445000Y-82185000D01*
X128905000Y-82185000D01*
X128279313Y-82309457D01*
X128259703Y-82322560D01*
X128055000Y-82322560D01*
X127819683Y-82366838D01*
X127603559Y-82505910D01*
X127481192Y-82685000D01*
X123185634Y-82685000D01*
X123269178Y-82629178D01*
X123488118Y-82301510D01*
X123565000Y-81915000D01*
X123488118Y-81528490D01*
X123269178Y-81200822D01*
X122941510Y-80981882D01*
X122555000Y-80905000D01*
X105858283Y-80905000D01*
X105910000Y-80645000D01*
X105823603Y-80210654D01*
X105577566Y-79842434D01*
X105209346Y-79596397D01*
X104775000Y-79510000D01*
X99695000Y-79510000D01*
X99260654Y-79596397D01*
X98892434Y-79842434D01*
X98646397Y-80210654D01*
X98560000Y-80645000D01*
X98611717Y-80905000D01*
X97790000Y-80905000D01*
X97403490Y-80981882D01*
X97075822Y-81200822D01*
X95805822Y-82470822D01*
X95586882Y-82798490D01*
X95510000Y-83185000D01*
X95510000Y-84044050D01*
X95505302Y-84047189D01*
X95250000Y-84429275D01*
X94994698Y-84047189D01*
X94529151Y-83736120D01*
X93980000Y-83626887D01*
X93430849Y-83736120D01*
X92965302Y-84047189D01*
X92710000Y-84429275D01*
X92454698Y-84047189D01*
X91989151Y-83736120D01*
X91440000Y-83626887D01*
X91086067Y-83697289D01*
X91519178Y-83264178D01*
X91738118Y-82936510D01*
X91815000Y-82550000D01*
X91738118Y-82163490D01*
X91519178Y-81835822D01*
X91191510Y-81616882D01*
X90805000Y-81540000D01*
X90418490Y-81616882D01*
X90273751Y-81713593D01*
X90334750Y-81566691D01*
X90335248Y-80995813D01*
X90117243Y-80468200D01*
X89713923Y-80064176D01*
X89699196Y-80058061D01*
X89614178Y-79930822D01*
X88344178Y-78660822D01*
X88016510Y-78441882D01*
X87630000Y-78365000D01*
X87448296Y-78365000D01*
X87591041Y-78207423D01*
X87751904Y-77819039D01*
X87716275Y-77754187D01*
X90004752Y-77754187D01*
X90222757Y-78281800D01*
X90626077Y-78685824D01*
X91153309Y-78904750D01*
X91724187Y-78905248D01*
X92251800Y-78687243D01*
X92655824Y-78283923D01*
X92848860Y-77819039D01*
X97668096Y-77819039D01*
X97828959Y-78207423D01*
X98204866Y-78622389D01*
X98710959Y-78861914D01*
X98933000Y-78740629D01*
X98933000Y-77597000D01*
X99187000Y-77597000D01*
X99187000Y-78740629D01*
X99409041Y-78861914D01*
X99915134Y-78622389D01*
X100291041Y-78207423D01*
X100451904Y-77819039D01*
X102748096Y-77819039D01*
X102908959Y-78207423D01*
X103284866Y-78622389D01*
X103790959Y-78861914D01*
X104013000Y-78740629D01*
X104013000Y-77597000D01*
X104267000Y-77597000D01*
X104267000Y-78740629D01*
X104489041Y-78861914D01*
X104995134Y-78622389D01*
X105371041Y-78207423D01*
X105531904Y-77819039D01*
X105496275Y-77754187D01*
X110324752Y-77754187D01*
X110542757Y-78281800D01*
X110946077Y-78685824D01*
X111473309Y-78904750D01*
X112044187Y-78905248D01*
X112571800Y-78687243D01*
X112975824Y-78283923D01*
X113194750Y-77756691D01*
X113195248Y-77185813D01*
X112977243Y-76658200D01*
X112573923Y-76254176D01*
X112046691Y-76035250D01*
X111475813Y-76034752D01*
X110948200Y-76252757D01*
X110544176Y-76656077D01*
X110325250Y-77183309D01*
X110324752Y-77754187D01*
X105496275Y-77754187D01*
X105409915Y-77597000D01*
X104267000Y-77597000D01*
X104013000Y-77597000D01*
X102870085Y-77597000D01*
X102748096Y-77819039D01*
X100451904Y-77819039D01*
X100329915Y-77597000D01*
X99187000Y-77597000D01*
X98933000Y-77597000D01*
X97790085Y-77597000D01*
X97668096Y-77819039D01*
X92848860Y-77819039D01*
X92874750Y-77756691D01*
X92875248Y-77185813D01*
X92848452Y-77120961D01*
X97668096Y-77120961D01*
X97790085Y-77343000D01*
X98933000Y-77343000D01*
X98933000Y-76199371D01*
X99187000Y-76199371D01*
X99187000Y-77343000D01*
X100329915Y-77343000D01*
X100451904Y-77120961D01*
X102748096Y-77120961D01*
X102870085Y-77343000D01*
X104013000Y-77343000D01*
X104013000Y-76199371D01*
X104267000Y-76199371D01*
X104267000Y-77343000D01*
X105409915Y-77343000D01*
X105531904Y-77120961D01*
X105371041Y-76732577D01*
X104995134Y-76317611D01*
X104489041Y-76078086D01*
X104267000Y-76199371D01*
X104013000Y-76199371D01*
X103790959Y-76078086D01*
X103284866Y-76317611D01*
X102908959Y-76732577D01*
X102748096Y-77120961D01*
X100451904Y-77120961D01*
X100291041Y-76732577D01*
X99915134Y-76317611D01*
X99409041Y-76078086D01*
X99187000Y-76199371D01*
X98933000Y-76199371D01*
X98710959Y-76078086D01*
X98204866Y-76317611D01*
X97828959Y-76732577D01*
X97668096Y-77120961D01*
X92848452Y-77120961D01*
X92657243Y-76658200D01*
X92253923Y-76254176D01*
X91726691Y-76035250D01*
X91155813Y-76034752D01*
X90628200Y-76252757D01*
X90224176Y-76656077D01*
X90005250Y-77183309D01*
X90004752Y-77754187D01*
X87716275Y-77754187D01*
X87629915Y-77597000D01*
X86487000Y-77597000D01*
X86487000Y-77617000D01*
X86233000Y-77617000D01*
X86233000Y-77597000D01*
X85090085Y-77597000D01*
X84968096Y-77819039D01*
X85128959Y-78207423D01*
X85271704Y-78365000D01*
X85090000Y-78365000D01*
X84703490Y-78441882D01*
X84375822Y-78660822D01*
X81496644Y-81540000D01*
X80333283Y-81540000D01*
X80385000Y-81280000D01*
X80308118Y-80893490D01*
X80089178Y-80565822D01*
X79761510Y-80346882D01*
X79375000Y-80270000D01*
X75348356Y-80270000D01*
X75009178Y-79930822D01*
X74681510Y-79711882D01*
X74295000Y-79635000D01*
X73908490Y-79711882D01*
X73580822Y-79930822D01*
X73361882Y-80258490D01*
X73285000Y-80645000D01*
X73361882Y-81031510D01*
X73580822Y-81359178D01*
X74215822Y-81994178D01*
X74543490Y-82213118D01*
X74930000Y-82290000D01*
X77571644Y-82290000D01*
X77390822Y-82470822D01*
X77171882Y-82798490D01*
X77095000Y-83185000D01*
X77095000Y-84455000D01*
X77171882Y-84841510D01*
X77390822Y-85169178D01*
X77718490Y-85388118D01*
X78105000Y-85465000D01*
X78491510Y-85388118D01*
X78819178Y-85169178D01*
X79038118Y-84841510D01*
X79115000Y-84455000D01*
X79115000Y-83603356D01*
X79158356Y-83560000D01*
X81915000Y-83560000D01*
X82301510Y-83483118D01*
X82629178Y-83264178D01*
X85021999Y-80871357D01*
X84953035Y-81063223D01*
X84980222Y-81633454D01*
X85146136Y-82034005D01*
X85392253Y-82108139D01*
X85325392Y-82175000D01*
X84455000Y-82175000D01*
X84068490Y-82251882D01*
X83740822Y-82470822D01*
X83521882Y-82798490D01*
X83445000Y-83185000D01*
X83521882Y-83571510D01*
X83740822Y-83899178D01*
X84068490Y-84118118D01*
X84455000Y-84195000D01*
X85251619Y-84195000D01*
X85207611Y-84234866D01*
X84968086Y-84740959D01*
X85089371Y-84963000D01*
X86233000Y-84963000D01*
X86233000Y-84943000D01*
X86487000Y-84943000D01*
X86487000Y-84963000D01*
X86507000Y-84963000D01*
X86507000Y-85217000D01*
X86487000Y-85217000D01*
X86487000Y-85237000D01*
X86233000Y-85237000D01*
X86233000Y-85217000D01*
X85089371Y-85217000D01*
X84968086Y-85439041D01*
X85207611Y-85945134D01*
X85251619Y-85985000D01*
X82968356Y-85985000D01*
X82629178Y-85645822D01*
X82301510Y-85426882D01*
X81915000Y-85350000D01*
X81528490Y-85426882D01*
X81200822Y-85645822D01*
X80981882Y-85973490D01*
X80905000Y-86360000D01*
X80981882Y-86746510D01*
X81200822Y-87074178D01*
X81381644Y-87255000D01*
X68363356Y-87255000D01*
X66754178Y-85645822D01*
X66507839Y-85481224D01*
X66842566Y-85257566D01*
X67088604Y-84889346D01*
X67175000Y-84455000D01*
X67088604Y-84020655D01*
X66842566Y-83652434D01*
X66207566Y-83017434D01*
X66136576Y-82970000D01*
X65839346Y-82771397D01*
X65405000Y-82685000D01*
X63400232Y-82685000D01*
X63386120Y-82663880D01*
X62855687Y-82309457D01*
X62230000Y-82185000D01*
X59690000Y-82185000D01*
X59064313Y-82309457D01*
X59044703Y-82322560D01*
X58840000Y-82322560D01*
X58604683Y-82366838D01*
X58388559Y-82505910D01*
X58243569Y-82718110D01*
X58192560Y-82970000D01*
X58192560Y-83174703D01*
X58179457Y-83194313D01*
X58055000Y-83820000D01*
X51510000Y-83820000D01*
X51510000Y-77754187D01*
X77304752Y-77754187D01*
X77522757Y-78281800D01*
X77926077Y-78685824D01*
X78453309Y-78904750D01*
X79024187Y-78905248D01*
X79551800Y-78687243D01*
X79955824Y-78283923D01*
X80174750Y-77756691D01*
X80175248Y-77185813D01*
X80148452Y-77120961D01*
X84968096Y-77120961D01*
X85090085Y-77343000D01*
X86233000Y-77343000D01*
X86233000Y-76199371D01*
X86487000Y-76199371D01*
X86487000Y-77343000D01*
X87629915Y-77343000D01*
X87751904Y-77120961D01*
X87591041Y-76732577D01*
X87215134Y-76317611D01*
X86709041Y-76078086D01*
X86487000Y-76199371D01*
X86233000Y-76199371D01*
X86010959Y-76078086D01*
X85504866Y-76317611D01*
X85128959Y-76732577D01*
X84968096Y-77120961D01*
X80148452Y-77120961D01*
X79957243Y-76658200D01*
X79553923Y-76254176D01*
X79026691Y-76035250D01*
X78455813Y-76034752D01*
X77928200Y-76252757D01*
X77524176Y-76656077D01*
X77305250Y-77183309D01*
X77304752Y-77754187D01*
X51510000Y-77754187D01*
X51510000Y-72039187D01*
X64604752Y-72039187D01*
X64822757Y-72566800D01*
X65226077Y-72970824D01*
X65753309Y-73189750D01*
X66324187Y-73190248D01*
X66851800Y-72972243D01*
X67255824Y-72568923D01*
X67474750Y-72041691D01*
X67475000Y-71755000D01*
X72196887Y-71755000D01*
X72306120Y-72304151D01*
X72617189Y-72769698D01*
X73082736Y-73080767D01*
X73631887Y-73190000D01*
X73688113Y-73190000D01*
X74237264Y-73080767D01*
X74702811Y-72769698D01*
X75013880Y-72304151D01*
X75066584Y-72039187D01*
X77304752Y-72039187D01*
X77522757Y-72566800D01*
X77926077Y-72970824D01*
X78453309Y-73189750D01*
X79024187Y-73190248D01*
X79551800Y-72972243D01*
X79955824Y-72568923D01*
X80174750Y-72041691D01*
X80175000Y-71755000D01*
X84896887Y-71755000D01*
X85006120Y-72304151D01*
X85317189Y-72769698D01*
X85782736Y-73080767D01*
X86331887Y-73190000D01*
X86366644Y-73190000D01*
X88185822Y-75009178D01*
X88513489Y-75228118D01*
X88900000Y-75305000D01*
X113246644Y-75305000D01*
X113585822Y-75644178D01*
X113913490Y-75863118D01*
X114300000Y-75940000D01*
X114686510Y-75863118D01*
X115014178Y-75644178D01*
X115233118Y-75316510D01*
X115310000Y-74930000D01*
X115233118Y-74543490D01*
X115014178Y-74215822D01*
X114379178Y-73580822D01*
X114051510Y-73361882D01*
X113665000Y-73285000D01*
X89318356Y-73285000D01*
X88072543Y-72039187D01*
X90004752Y-72039187D01*
X90222757Y-72566800D01*
X90626077Y-72970824D01*
X91153309Y-73189750D01*
X91724187Y-73190248D01*
X92251800Y-72972243D01*
X92655824Y-72568923D01*
X92874750Y-72041691D01*
X92875000Y-71755000D01*
X97596887Y-71755000D01*
X97706120Y-72304151D01*
X98017189Y-72769698D01*
X98482736Y-73080767D01*
X99031887Y-73190000D01*
X99088113Y-73190000D01*
X99637264Y-73080767D01*
X100102811Y-72769698D01*
X100413880Y-72304151D01*
X100466584Y-72039187D01*
X102704752Y-72039187D01*
X102922757Y-72566800D01*
X103326077Y-72970824D01*
X103853309Y-73189750D01*
X104424187Y-73190248D01*
X104951800Y-72972243D01*
X105355824Y-72568923D01*
X105574750Y-72041691D01*
X105575000Y-71755000D01*
X110296887Y-71755000D01*
X110406120Y-72304151D01*
X110717189Y-72769698D01*
X111182736Y-73080767D01*
X111731887Y-73190000D01*
X111788113Y-73190000D01*
X112337264Y-73080767D01*
X112802811Y-72769698D01*
X113113880Y-72304151D01*
X113166584Y-72039187D01*
X115404752Y-72039187D01*
X115622757Y-72566800D01*
X116026077Y-72970824D01*
X116553309Y-73189750D01*
X117124187Y-73190248D01*
X117651800Y-72972243D01*
X118055824Y-72568923D01*
X118274750Y-72041691D01*
X118275000Y-71755000D01*
X122996887Y-71755000D01*
X123106120Y-72304151D01*
X123417189Y-72769698D01*
X123882736Y-73080767D01*
X124431887Y-73190000D01*
X124488113Y-73190000D01*
X125037264Y-73080767D01*
X125502811Y-72769698D01*
X125813880Y-72304151D01*
X125923113Y-71755000D01*
X125813880Y-71205849D01*
X125502811Y-70740302D01*
X125037264Y-70429233D01*
X124488113Y-70320000D01*
X124431887Y-70320000D01*
X123882736Y-70429233D01*
X123417189Y-70740302D01*
X123106120Y-71205849D01*
X122996887Y-71755000D01*
X118275000Y-71755000D01*
X118275248Y-71470813D01*
X118057243Y-70943200D01*
X117653923Y-70539176D01*
X117126691Y-70320250D01*
X116555813Y-70319752D01*
X116028200Y-70537757D01*
X115624176Y-70941077D01*
X115405250Y-71468309D01*
X115404752Y-72039187D01*
X113166584Y-72039187D01*
X113223113Y-71755000D01*
X113113880Y-71205849D01*
X112802811Y-70740302D01*
X112337264Y-70429233D01*
X111788113Y-70320000D01*
X111731887Y-70320000D01*
X111182736Y-70429233D01*
X110717189Y-70740302D01*
X110406120Y-71205849D01*
X110296887Y-71755000D01*
X105575000Y-71755000D01*
X105575248Y-71470813D01*
X105357243Y-70943200D01*
X104953923Y-70539176D01*
X104426691Y-70320250D01*
X103855813Y-70319752D01*
X103328200Y-70537757D01*
X102924176Y-70941077D01*
X102705250Y-71468309D01*
X102704752Y-72039187D01*
X100466584Y-72039187D01*
X100523113Y-71755000D01*
X100413880Y-71205849D01*
X100102811Y-70740302D01*
X99637264Y-70429233D01*
X99088113Y-70320000D01*
X99031887Y-70320000D01*
X98482736Y-70429233D01*
X98017189Y-70740302D01*
X97706120Y-71205849D01*
X97596887Y-71755000D01*
X92875000Y-71755000D01*
X92875248Y-71470813D01*
X92657243Y-70943200D01*
X92253923Y-70539176D01*
X91726691Y-70320250D01*
X91155813Y-70319752D01*
X90628200Y-70537757D01*
X90224176Y-70941077D01*
X90005250Y-71468309D01*
X90004752Y-72039187D01*
X88072543Y-72039187D01*
X87817346Y-71783990D01*
X87823113Y-71755000D01*
X87713880Y-71205849D01*
X87402811Y-70740302D01*
X86937264Y-70429233D01*
X86388113Y-70320000D01*
X86331887Y-70320000D01*
X85782736Y-70429233D01*
X85317189Y-70740302D01*
X85006120Y-71205849D01*
X84896887Y-71755000D01*
X80175000Y-71755000D01*
X80175248Y-71470813D01*
X79957243Y-70943200D01*
X79553923Y-70539176D01*
X79026691Y-70320250D01*
X78455813Y-70319752D01*
X77928200Y-70537757D01*
X77524176Y-70941077D01*
X77305250Y-71468309D01*
X77304752Y-72039187D01*
X75066584Y-72039187D01*
X75123113Y-71755000D01*
X75013880Y-71205849D01*
X74702811Y-70740302D01*
X74237264Y-70429233D01*
X73688113Y-70320000D01*
X73631887Y-70320000D01*
X73082736Y-70429233D01*
X72617189Y-70740302D01*
X72306120Y-71205849D01*
X72196887Y-71755000D01*
X67475000Y-71755000D01*
X67475248Y-71470813D01*
X67257243Y-70943200D01*
X66853923Y-70539176D01*
X66326691Y-70320250D01*
X65755813Y-70319752D01*
X65228200Y-70537757D01*
X64824176Y-70941077D01*
X64605250Y-71468309D01*
X64604752Y-72039187D01*
X51510000Y-72039187D01*
X51510000Y-66510000D01*
X65862560Y-66510000D01*
X65862560Y-68110000D01*
X65906838Y-68345317D01*
X66045910Y-68561441D01*
X66258110Y-68706431D01*
X66510000Y-68757440D01*
X68110000Y-68757440D01*
X68345317Y-68713162D01*
X68561441Y-68574090D01*
X68706431Y-68361890D01*
X68738732Y-68202384D01*
X69112577Y-68541041D01*
X69500961Y-68701904D01*
X69723000Y-68579915D01*
X69723000Y-67437000D01*
X69703000Y-67437000D01*
X69703000Y-67183000D01*
X69723000Y-67183000D01*
X69723000Y-66040085D01*
X69977000Y-66040085D01*
X69977000Y-67183000D01*
X69997000Y-67183000D01*
X69997000Y-67437000D01*
X69977000Y-67437000D01*
X69977000Y-68579915D01*
X70199039Y-68701904D01*
X70587423Y-68541041D01*
X71002389Y-68165134D01*
X71105014Y-67948297D01*
X71375302Y-68352811D01*
X71840849Y-68663880D01*
X72390000Y-68773113D01*
X72939151Y-68663880D01*
X73404698Y-68352811D01*
X73715767Y-67887264D01*
X73825000Y-67338113D01*
X73825000Y-67281887D01*
X73715767Y-66732736D01*
X73566940Y-66510000D01*
X78562560Y-66510000D01*
X78562560Y-68110000D01*
X78606838Y-68345317D01*
X78745910Y-68561441D01*
X78958110Y-68706431D01*
X79210000Y-68757440D01*
X80810000Y-68757440D01*
X81045317Y-68713162D01*
X81261441Y-68574090D01*
X81406431Y-68361890D01*
X81438732Y-68202384D01*
X81812577Y-68541041D01*
X82200961Y-68701904D01*
X82423000Y-68579915D01*
X82423000Y-67437000D01*
X82403000Y-67437000D01*
X82403000Y-67183000D01*
X82423000Y-67183000D01*
X82423000Y-66040085D01*
X82677000Y-66040085D01*
X82677000Y-67183000D01*
X82697000Y-67183000D01*
X82697000Y-67437000D01*
X82677000Y-67437000D01*
X82677000Y-68579915D01*
X82899039Y-68701904D01*
X83287423Y-68541041D01*
X83702389Y-68165134D01*
X83805014Y-67948297D01*
X84075302Y-68352811D01*
X84540849Y-68663880D01*
X85090000Y-68773113D01*
X85639151Y-68663880D01*
X86104698Y-68352811D01*
X86415767Y-67887264D01*
X86525000Y-67338113D01*
X86525000Y-67281887D01*
X86415767Y-66732736D01*
X86266940Y-66510000D01*
X91262560Y-66510000D01*
X91262560Y-68110000D01*
X91306838Y-68345317D01*
X91445910Y-68561441D01*
X91658110Y-68706431D01*
X91910000Y-68757440D01*
X93510000Y-68757440D01*
X93745317Y-68713162D01*
X93961441Y-68574090D01*
X94106431Y-68361890D01*
X94138732Y-68202384D01*
X94512577Y-68541041D01*
X94900961Y-68701904D01*
X95123000Y-68579915D01*
X95123000Y-67437000D01*
X95103000Y-67437000D01*
X95103000Y-67183000D01*
X95123000Y-67183000D01*
X95123000Y-66040085D01*
X95377000Y-66040085D01*
X95377000Y-67183000D01*
X95397000Y-67183000D01*
X95397000Y-67437000D01*
X95377000Y-67437000D01*
X95377000Y-68579915D01*
X95599039Y-68701904D01*
X95987423Y-68541041D01*
X96402389Y-68165134D01*
X96505014Y-67948297D01*
X96775302Y-68352811D01*
X97240849Y-68663880D01*
X97790000Y-68773113D01*
X98339151Y-68663880D01*
X98804698Y-68352811D01*
X99115767Y-67887264D01*
X99225000Y-67338113D01*
X99225000Y-67281887D01*
X99115767Y-66732736D01*
X98966940Y-66510000D01*
X103962560Y-66510000D01*
X103962560Y-68110000D01*
X104006838Y-68345317D01*
X104145910Y-68561441D01*
X104358110Y-68706431D01*
X104610000Y-68757440D01*
X106210000Y-68757440D01*
X106445317Y-68713162D01*
X106661441Y-68574090D01*
X106806431Y-68361890D01*
X106838732Y-68202384D01*
X107212577Y-68541041D01*
X107600961Y-68701904D01*
X107823000Y-68579915D01*
X107823000Y-67437000D01*
X107803000Y-67437000D01*
X107803000Y-67183000D01*
X107823000Y-67183000D01*
X107823000Y-66040085D01*
X108077000Y-66040085D01*
X108077000Y-67183000D01*
X108097000Y-67183000D01*
X108097000Y-67437000D01*
X108077000Y-67437000D01*
X108077000Y-68579915D01*
X108299039Y-68701904D01*
X108687423Y-68541041D01*
X109102389Y-68165134D01*
X109205014Y-67948297D01*
X109475302Y-68352811D01*
X109940849Y-68663880D01*
X110490000Y-68773113D01*
X111039151Y-68663880D01*
X111504698Y-68352811D01*
X111815767Y-67887264D01*
X111925000Y-67338113D01*
X111925000Y-67281887D01*
X111815767Y-66732736D01*
X111666940Y-66510000D01*
X116662560Y-66510000D01*
X116662560Y-68110000D01*
X116706838Y-68345317D01*
X116845910Y-68561441D01*
X117058110Y-68706431D01*
X117310000Y-68757440D01*
X118910000Y-68757440D01*
X119145317Y-68713162D01*
X119361441Y-68574090D01*
X119506431Y-68361890D01*
X119538732Y-68202384D01*
X119912577Y-68541041D01*
X120300961Y-68701904D01*
X120523000Y-68579915D01*
X120523000Y-67437000D01*
X120503000Y-67437000D01*
X120503000Y-67183000D01*
X120523000Y-67183000D01*
X120523000Y-66040085D01*
X120777000Y-66040085D01*
X120777000Y-67183000D01*
X120797000Y-67183000D01*
X120797000Y-67437000D01*
X120777000Y-67437000D01*
X120777000Y-68579915D01*
X120999039Y-68701904D01*
X121387423Y-68541041D01*
X121802389Y-68165134D01*
X121905014Y-67948297D01*
X122175302Y-68352811D01*
X122640849Y-68663880D01*
X123190000Y-68773113D01*
X123739151Y-68663880D01*
X124204698Y-68352811D01*
X124515767Y-67887264D01*
X124625000Y-67338113D01*
X124625000Y-67281887D01*
X124515767Y-66732736D01*
X124204698Y-66267189D01*
X123739151Y-65956120D01*
X123190000Y-65846887D01*
X122640849Y-65956120D01*
X122175302Y-66267189D01*
X121905014Y-66671703D01*
X121802389Y-66454866D01*
X121387423Y-66078959D01*
X120999039Y-65918096D01*
X120777000Y-66040085D01*
X120523000Y-66040085D01*
X120300961Y-65918096D01*
X119912577Y-66078959D01*
X119539864Y-66416590D01*
X119513162Y-66274683D01*
X119374090Y-66058559D01*
X119161890Y-65913569D01*
X118910000Y-65862560D01*
X117310000Y-65862560D01*
X117074683Y-65906838D01*
X116858559Y-66045910D01*
X116713569Y-66258110D01*
X116662560Y-66510000D01*
X111666940Y-66510000D01*
X111504698Y-66267189D01*
X111039151Y-65956120D01*
X110490000Y-65846887D01*
X109940849Y-65956120D01*
X109475302Y-66267189D01*
X109205014Y-66671703D01*
X109102389Y-66454866D01*
X108687423Y-66078959D01*
X108299039Y-65918096D01*
X108077000Y-66040085D01*
X107823000Y-66040085D01*
X107600961Y-65918096D01*
X107212577Y-66078959D01*
X106839864Y-66416590D01*
X106813162Y-66274683D01*
X106674090Y-66058559D01*
X106461890Y-65913569D01*
X106210000Y-65862560D01*
X104610000Y-65862560D01*
X104374683Y-65906838D01*
X104158559Y-66045910D01*
X104013569Y-66258110D01*
X103962560Y-66510000D01*
X98966940Y-66510000D01*
X98804698Y-66267189D01*
X98339151Y-65956120D01*
X97790000Y-65846887D01*
X97240849Y-65956120D01*
X96775302Y-66267189D01*
X96505014Y-66671703D01*
X96402389Y-66454866D01*
X95987423Y-66078959D01*
X95599039Y-65918096D01*
X95377000Y-66040085D01*
X95123000Y-66040085D01*
X94900961Y-65918096D01*
X94512577Y-66078959D01*
X94139864Y-66416590D01*
X94113162Y-66274683D01*
X93974090Y-66058559D01*
X93761890Y-65913569D01*
X93510000Y-65862560D01*
X91910000Y-65862560D01*
X91674683Y-65906838D01*
X91458559Y-66045910D01*
X91313569Y-66258110D01*
X91262560Y-66510000D01*
X86266940Y-66510000D01*
X86104698Y-66267189D01*
X85639151Y-65956120D01*
X85090000Y-65846887D01*
X84540849Y-65956120D01*
X84075302Y-66267189D01*
X83805014Y-66671703D01*
X83702389Y-66454866D01*
X83287423Y-66078959D01*
X82899039Y-65918096D01*
X82677000Y-66040085D01*
X82423000Y-66040085D01*
X82200961Y-65918096D01*
X81812577Y-66078959D01*
X81439864Y-66416590D01*
X81413162Y-66274683D01*
X81274090Y-66058559D01*
X81061890Y-65913569D01*
X80810000Y-65862560D01*
X79210000Y-65862560D01*
X78974683Y-65906838D01*
X78758559Y-66045910D01*
X78613569Y-66258110D01*
X78562560Y-66510000D01*
X73566940Y-66510000D01*
X73404698Y-66267189D01*
X72939151Y-65956120D01*
X72390000Y-65846887D01*
X71840849Y-65956120D01*
X71375302Y-66267189D01*
X71105014Y-66671703D01*
X71002389Y-66454866D01*
X70587423Y-66078959D01*
X70199039Y-65918096D01*
X69977000Y-66040085D01*
X69723000Y-66040085D01*
X69500961Y-65918096D01*
X69112577Y-66078959D01*
X68739864Y-66416590D01*
X68713162Y-66274683D01*
X68574090Y-66058559D01*
X68361890Y-65913569D01*
X68110000Y-65862560D01*
X66510000Y-65862560D01*
X66274683Y-65906838D01*
X66058559Y-66045910D01*
X65913569Y-66258110D01*
X65862560Y-66510000D01*
X51510000Y-66510000D01*
X51510000Y-65532000D01*
X138990000Y-65532000D01*
X138990000Y-104700000D01*
G36*
X96647000Y-92583000D02*
X96667000Y-92583000D01*
X96667000Y-92837000D01*
X96647000Y-92837000D01*
X96647000Y-93979915D01*
X96869039Y-94101904D01*
X97257423Y-93941041D01*
X97672389Y-93565134D01*
X97775014Y-93348297D01*
X98045302Y-93752811D01*
X98050000Y-93755950D01*
X98050000Y-93980000D01*
X98101717Y-94240000D01*
X90662119Y-94240000D01*
X90604346Y-94201397D01*
X90170000Y-94115000D01*
X89192154Y-94115000D01*
X89449151Y-94063880D01*
X89914698Y-93752811D01*
X90170000Y-93370725D01*
X90425302Y-93752811D01*
X90890849Y-94063880D01*
X91440000Y-94173113D01*
X91989151Y-94063880D01*
X92454698Y-93752811D01*
X92710000Y-93370725D01*
X92965302Y-93752811D01*
X93430849Y-94063880D01*
X93980000Y-94173113D01*
X94529151Y-94063880D01*
X94994698Y-93752811D01*
X95264986Y-93348297D01*
X95367611Y-93565134D01*
X95782577Y-93941041D01*
X96170961Y-94101904D01*
X96393000Y-93979915D01*
X96393000Y-92837000D01*
X96373000Y-92837000D01*
X96373000Y-92583000D01*
X96393000Y-92583000D01*
X96393000Y-92563000D01*
X96647000Y-92563000D01*
X96647000Y-92583000D01*
X96647000Y-92583000D01*
G37*
X96647000Y-92583000D02*
X96667000Y-92583000D01*
X96667000Y-92837000D01*
X96647000Y-92837000D01*
X96647000Y-93979915D01*
X96869039Y-94101904D01*
X97257423Y-93941041D01*
X97672389Y-93565134D01*
X97775014Y-93348297D01*
X98045302Y-93752811D01*
X98050000Y-93755950D01*
X98050000Y-93980000D01*
X98101717Y-94240000D01*
X90662119Y-94240000D01*
X90604346Y-94201397D01*
X90170000Y-94115000D01*
X89192154Y-94115000D01*
X89449151Y-94063880D01*
X89914698Y-93752811D01*
X90170000Y-93370725D01*
X90425302Y-93752811D01*
X90890849Y-94063880D01*
X91440000Y-94173113D01*
X91989151Y-94063880D01*
X92454698Y-93752811D01*
X92710000Y-93370725D01*
X92965302Y-93752811D01*
X93430849Y-94063880D01*
X93980000Y-94173113D01*
X94529151Y-94063880D01*
X94994698Y-93752811D01*
X95264986Y-93348297D01*
X95367611Y-93565134D01*
X95782577Y-93941041D01*
X96170961Y-94101904D01*
X96393000Y-93979915D01*
X96393000Y-92837000D01*
X96373000Y-92837000D01*
X96373000Y-92583000D01*
X96393000Y-92583000D01*
X96393000Y-92563000D01*
X96647000Y-92563000D01*
X96647000Y-92583000D01*
G36*
X86593748Y-81265858D02*
X86579605Y-81280000D01*
X86593748Y-81294142D01*
X86414142Y-81473748D01*
X86400000Y-81459605D01*
X86385858Y-81473748D01*
X86206252Y-81294142D01*
X86220395Y-81280000D01*
X86206252Y-81265858D01*
X86385858Y-81086252D01*
X86400000Y-81100395D01*
X86414142Y-81086252D01*
X86593748Y-81265858D01*
X86593748Y-81265858D01*
G37*
X86593748Y-81265858D02*
X86579605Y-81280000D01*
X86593748Y-81294142D01*
X86414142Y-81473748D01*
X86400000Y-81459605D01*
X86385858Y-81473748D01*
X86206252Y-81294142D01*
X86220395Y-81280000D01*
X86206252Y-81265858D01*
X86385858Y-81086252D01*
X86400000Y-81100395D01*
X86414142Y-81086252D01*
X86593748Y-81265858D01*
M02*
