G04 #@! TF.FileFunction,Legend,Top*
%FSLAX46Y46*%
G04 Gerber Fmt 4.6, Leading zero omitted, Abs format (unit mm)*
G04 Created by KiCad (PCBNEW 4.0.5) date 09/05/17 09:18:43*
%MOMM*%
%LPD*%
G01*
G04 APERTURE LIST*
%ADD10C,0.100000*%
%ADD11C,0.200000*%
%ADD12C,0.300000*%
%ADD13C,0.150000*%
%ADD14C,0.120000*%
G04 APERTURE END LIST*
D10*
D11*
X55880000Y-88900000D02*
X52070000Y-88900000D01*
D12*
X122198000Y-85475071D02*
X122483714Y-85475071D01*
X122626572Y-85546500D01*
X122769429Y-85689357D01*
X122840857Y-85975071D01*
X122840857Y-86475071D01*
X122769429Y-86760786D01*
X122626572Y-86903643D01*
X122483714Y-86975071D01*
X122198000Y-86975071D01*
X122055143Y-86903643D01*
X121912286Y-86760786D01*
X121840857Y-86475071D01*
X121840857Y-85975071D01*
X121912286Y-85689357D01*
X122055143Y-85546500D01*
X122198000Y-85475071D01*
X123483715Y-85475071D02*
X123483715Y-86689357D01*
X123555143Y-86832214D01*
X123626572Y-86903643D01*
X123769429Y-86975071D01*
X124055143Y-86975071D01*
X124198001Y-86903643D01*
X124269429Y-86832214D01*
X124340858Y-86689357D01*
X124340858Y-85475071D01*
X124840858Y-85475071D02*
X125698001Y-85475071D01*
X125269430Y-86975071D02*
X125269430Y-85475071D01*
X52554286Y-87038571D02*
X52554286Y-85538571D01*
X53268572Y-87038571D02*
X53268572Y-85538571D01*
X54125715Y-87038571D01*
X54125715Y-85538571D01*
D11*
X55880000Y-88900000D02*
X54610000Y-90170000D01*
X54610000Y-87630000D02*
X55880000Y-88900000D01*
X123190000Y-88900000D02*
X125730000Y-88900000D01*
X124460000Y-87630000D02*
X125730000Y-88900000D01*
X125730000Y-88900000D02*
X124460000Y-90170000D01*
X121920000Y-88900000D02*
X123190000Y-88900000D01*
X121920000Y-88900000D02*
X123190000Y-88900000D01*
X125730000Y-88900000D02*
X124460000Y-90170000D01*
X124460000Y-87630000D02*
X125730000Y-88900000D01*
X123190000Y-88900000D02*
X125730000Y-88900000D01*
X123190000Y-88900000D02*
X125730000Y-88900000D01*
X124460000Y-87630000D02*
X125730000Y-88900000D01*
X125730000Y-88900000D02*
X124460000Y-90170000D01*
X121920000Y-88900000D02*
X123190000Y-88900000D01*
X121920000Y-88900000D02*
X123190000Y-88900000D01*
X125730000Y-88900000D02*
X124460000Y-90170000D01*
X124460000Y-87630000D02*
X125730000Y-88900000D01*
X123190000Y-88900000D02*
X125730000Y-88900000D01*
X123190000Y-88900000D02*
X125730000Y-88900000D01*
X124460000Y-87630000D02*
X125730000Y-88900000D01*
X125730000Y-88900000D02*
X124460000Y-90170000D01*
X121920000Y-88900000D02*
X123190000Y-88900000D01*
X121920000Y-88900000D02*
X123190000Y-88900000D01*
X125730000Y-88900000D02*
X124460000Y-90170000D01*
X124460000Y-87630000D02*
X125730000Y-88900000D01*
X123190000Y-88900000D02*
X125730000Y-88900000D01*
X123190000Y-88900000D02*
X125730000Y-88900000D01*
X124460000Y-87630000D02*
X125730000Y-88900000D01*
X125730000Y-88900000D02*
X124460000Y-90170000D01*
X121920000Y-88900000D02*
X123190000Y-88900000D01*
X121920000Y-88900000D02*
X123190000Y-88900000D01*
X125730000Y-88900000D02*
X124460000Y-90170000D01*
X124460000Y-87630000D02*
X125730000Y-88900000D01*
X123190000Y-88900000D02*
X125730000Y-88900000D01*
X123190000Y-88900000D02*
X125730000Y-88900000D01*
X124460000Y-87630000D02*
X125730000Y-88900000D01*
X125730000Y-88900000D02*
X124460000Y-90170000D01*
X121920000Y-88900000D02*
X123190000Y-88900000D01*
X121920000Y-88900000D02*
X123190000Y-88900000D01*
X125730000Y-88900000D02*
X124460000Y-90170000D01*
X124460000Y-87630000D02*
X125730000Y-88900000D01*
X123190000Y-88900000D02*
X125730000Y-88900000D01*
X123190000Y-88900000D02*
X125730000Y-88900000D01*
X124460000Y-87630000D02*
X125730000Y-88900000D01*
X125730000Y-88900000D02*
X124460000Y-90170000D01*
X121920000Y-88900000D02*
X123190000Y-88900000D01*
X121920000Y-88900000D02*
X123190000Y-88900000D01*
X125730000Y-88900000D02*
X124460000Y-90170000D01*
X124460000Y-87630000D02*
X125730000Y-88900000D01*
X123190000Y-88900000D02*
X125730000Y-88900000D01*
X123190000Y-88900000D02*
X125730000Y-88900000D01*
X124460000Y-87630000D02*
X125730000Y-88900000D01*
X125730000Y-88900000D02*
X124460000Y-90170000D01*
X121920000Y-88900000D02*
X123190000Y-88900000D01*
X121920000Y-88900000D02*
X123190000Y-88900000D01*
X125730000Y-88900000D02*
X124460000Y-90170000D01*
X124460000Y-87630000D02*
X125730000Y-88900000D01*
X123190000Y-88900000D02*
X125730000Y-88900000D01*
X123190000Y-88900000D02*
X125730000Y-88900000D01*
X124460000Y-87630000D02*
X125730000Y-88900000D01*
X125730000Y-88900000D02*
X124460000Y-90170000D01*
X121920000Y-88900000D02*
X123190000Y-88900000D01*
X121920000Y-88900000D02*
X123190000Y-88900000D01*
X125730000Y-88900000D02*
X124460000Y-90170000D01*
X124460000Y-87630000D02*
X125730000Y-88900000D01*
X123190000Y-88900000D02*
X125730000Y-88900000D01*
D12*
X133952143Y-78850000D02*
X134023571Y-78992857D01*
X134023571Y-79278571D01*
X133952143Y-79421429D01*
X133880714Y-79492857D01*
X133737857Y-79564286D01*
X133309286Y-79564286D01*
X133166429Y-79492857D01*
X133095000Y-79421429D01*
X133023571Y-79278571D01*
X133023571Y-78992857D01*
X133095000Y-78850000D01*
X134023571Y-77992857D02*
X133952143Y-78135715D01*
X133880714Y-78207143D01*
X133737857Y-78278572D01*
X133309286Y-78278572D01*
X133166429Y-78207143D01*
X133095000Y-78135715D01*
X133023571Y-77992857D01*
X133023571Y-77778572D01*
X133095000Y-77635715D01*
X133166429Y-77564286D01*
X133309286Y-77492857D01*
X133737857Y-77492857D01*
X133880714Y-77564286D01*
X133952143Y-77635715D01*
X134023571Y-77778572D01*
X134023571Y-77992857D01*
X134023571Y-76635714D02*
X133952143Y-76778572D01*
X133880714Y-76850000D01*
X133737857Y-76921429D01*
X133309286Y-76921429D01*
X133166429Y-76850000D01*
X133095000Y-76778572D01*
X133023571Y-76635714D01*
X133023571Y-76421429D01*
X133095000Y-76278572D01*
X133166429Y-76207143D01*
X133309286Y-76135714D01*
X133737857Y-76135714D01*
X133880714Y-76207143D01*
X133952143Y-76278572D01*
X134023571Y-76421429D01*
X134023571Y-76635714D01*
X133023571Y-75492857D02*
X134023571Y-75492857D01*
X133166429Y-75492857D02*
X133095000Y-75421429D01*
X133023571Y-75278571D01*
X133023571Y-75064286D01*
X133095000Y-74921429D01*
X133237857Y-74850000D01*
X134023571Y-74850000D01*
X133309286Y-73207143D02*
X133237857Y-73278571D01*
X133166429Y-73421428D01*
X133166429Y-73564286D01*
X133237857Y-73707143D01*
X133309286Y-73778571D01*
X133452143Y-73850000D01*
X133595000Y-73850000D01*
X133737857Y-73778571D01*
X133809286Y-73707143D01*
X133880714Y-73564286D01*
X133880714Y-73421428D01*
X133809286Y-73278571D01*
X133737857Y-73207143D01*
X133166429Y-73207143D02*
X133737857Y-73207143D01*
X133809286Y-73135714D01*
X133809286Y-73064286D01*
X133737857Y-72921428D01*
X133595000Y-72850000D01*
X133237857Y-72850000D01*
X133023571Y-72992857D01*
X132880714Y-73207143D01*
X132809286Y-73492857D01*
X132880714Y-73778571D01*
X133023571Y-73992857D01*
X133237857Y-74135714D01*
X133523571Y-74207143D01*
X133809286Y-74135714D01*
X134023571Y-73992857D01*
X134166429Y-73778571D01*
X134237857Y-73492857D01*
X134166429Y-73207143D01*
X134023571Y-72992857D01*
X133952143Y-71564286D02*
X134023571Y-71707143D01*
X134023571Y-71992857D01*
X133952143Y-72135715D01*
X133880714Y-72207143D01*
X133737857Y-72278572D01*
X133309286Y-72278572D01*
X133166429Y-72207143D01*
X133095000Y-72135715D01*
X133023571Y-71992857D01*
X133023571Y-71707143D01*
X133095000Y-71564286D01*
X133452143Y-70921429D02*
X133452143Y-69778572D01*
X134023571Y-69064286D02*
X132523571Y-69064286D01*
X133095000Y-69064286D02*
X133023571Y-68921429D01*
X133023571Y-68635715D01*
X133095000Y-68492858D01*
X133166429Y-68421429D01*
X133309286Y-68350000D01*
X133737857Y-68350000D01*
X133880714Y-68421429D01*
X133952143Y-68492858D01*
X134023571Y-68635715D01*
X134023571Y-68921429D01*
X133952143Y-69064286D01*
X134023571Y-67064286D02*
X133237857Y-67064286D01*
X133095000Y-67135715D01*
X133023571Y-67278572D01*
X133023571Y-67564286D01*
X133095000Y-67707143D01*
X133952143Y-67064286D02*
X134023571Y-67207143D01*
X134023571Y-67564286D01*
X133952143Y-67707143D01*
X133809286Y-67778572D01*
X133666429Y-67778572D01*
X133523571Y-67707143D01*
X133452143Y-67564286D01*
X133452143Y-67207143D01*
X133380714Y-67064286D01*
X133952143Y-66421429D02*
X134023571Y-66278572D01*
X134023571Y-65992857D01*
X133952143Y-65850000D01*
X133809286Y-65778572D01*
X133737857Y-65778572D01*
X133595000Y-65850000D01*
X133523571Y-65992857D01*
X133523571Y-66207143D01*
X133452143Y-66350000D01*
X133309286Y-66421429D01*
X133237857Y-66421429D01*
X133095000Y-66350000D01*
X133023571Y-66207143D01*
X133023571Y-65992857D01*
X133095000Y-65850000D01*
X133952143Y-64564286D02*
X134023571Y-64707143D01*
X134023571Y-64992857D01*
X133952143Y-65135714D01*
X133809286Y-65207143D01*
X133237857Y-65207143D01*
X133095000Y-65135714D01*
X133023571Y-64992857D01*
X133023571Y-64707143D01*
X133095000Y-64564286D01*
X133237857Y-64492857D01*
X133380714Y-64492857D01*
X133523571Y-65207143D01*
X133880714Y-63850000D02*
X133952143Y-63778572D01*
X134023571Y-63850000D01*
X133952143Y-63921429D01*
X133880714Y-63850000D01*
X134023571Y-63850000D01*
X134023571Y-62921428D02*
X133952143Y-63064286D01*
X133880714Y-63135714D01*
X133737857Y-63207143D01*
X133309286Y-63207143D01*
X133166429Y-63135714D01*
X133095000Y-63064286D01*
X133023571Y-62921428D01*
X133023571Y-62707143D01*
X133095000Y-62564286D01*
X133166429Y-62492857D01*
X133309286Y-62421428D01*
X133737857Y-62421428D01*
X133880714Y-62492857D01*
X133952143Y-62564286D01*
X134023571Y-62707143D01*
X134023571Y-62921428D01*
X134023571Y-61778571D02*
X133023571Y-61778571D01*
X133309286Y-61778571D02*
X133166429Y-61707143D01*
X133095000Y-61635714D01*
X133023571Y-61492857D01*
X133023571Y-61350000D01*
X133023571Y-60207143D02*
X134237857Y-60207143D01*
X134380714Y-60278572D01*
X134452143Y-60350000D01*
X134523571Y-60492857D01*
X134523571Y-60707143D01*
X134452143Y-60850000D01*
X133952143Y-60207143D02*
X134023571Y-60350000D01*
X134023571Y-60635714D01*
X133952143Y-60778572D01*
X133880714Y-60850000D01*
X133737857Y-60921429D01*
X133309286Y-60921429D01*
X133166429Y-60850000D01*
X133095000Y-60778572D01*
X133023571Y-60635714D01*
X133023571Y-60350000D01*
X133095000Y-60207143D01*
X135073571Y-74278570D02*
X135073571Y-74135713D01*
X135145000Y-73992856D01*
X135216429Y-73921427D01*
X135359286Y-73849998D01*
X135645000Y-73778570D01*
X136002143Y-73778570D01*
X136287857Y-73849998D01*
X136430714Y-73921427D01*
X136502143Y-73992856D01*
X136573571Y-74135713D01*
X136573571Y-74278570D01*
X136502143Y-74421427D01*
X136430714Y-74492856D01*
X136287857Y-74564284D01*
X136002143Y-74635713D01*
X135645000Y-74635713D01*
X135359286Y-74564284D01*
X135216429Y-74492856D01*
X135145000Y-74421427D01*
X135073571Y-74278570D01*
X136573571Y-73064285D02*
X136573571Y-72778570D01*
X136502143Y-72635713D01*
X136430714Y-72564285D01*
X136216429Y-72421427D01*
X135930714Y-72349999D01*
X135359286Y-72349999D01*
X135216429Y-72421427D01*
X135145000Y-72492856D01*
X135073571Y-72635713D01*
X135073571Y-72921427D01*
X135145000Y-73064285D01*
X135216429Y-73135713D01*
X135359286Y-73207142D01*
X135716429Y-73207142D01*
X135859286Y-73135713D01*
X135930714Y-73064285D01*
X136002143Y-72921427D01*
X136002143Y-72635713D01*
X135930714Y-72492856D01*
X135859286Y-72421427D01*
X135716429Y-72349999D01*
X135002143Y-70635714D02*
X136930714Y-71921428D01*
X135216429Y-70207142D02*
X135145000Y-70135713D01*
X135073571Y-69992856D01*
X135073571Y-69635713D01*
X135145000Y-69492856D01*
X135216429Y-69421427D01*
X135359286Y-69349999D01*
X135502143Y-69349999D01*
X135716429Y-69421427D01*
X136573571Y-70278570D01*
X136573571Y-69349999D01*
X135073571Y-68421428D02*
X135073571Y-68278571D01*
X135145000Y-68135714D01*
X135216429Y-68064285D01*
X135359286Y-67992856D01*
X135645000Y-67921428D01*
X136002143Y-67921428D01*
X136287857Y-67992856D01*
X136430714Y-68064285D01*
X136502143Y-68135714D01*
X136573571Y-68278571D01*
X136573571Y-68421428D01*
X136502143Y-68564285D01*
X136430714Y-68635714D01*
X136287857Y-68707142D01*
X136002143Y-68778571D01*
X135645000Y-68778571D01*
X135359286Y-68707142D01*
X135216429Y-68635714D01*
X135145000Y-68564285D01*
X135073571Y-68421428D01*
X136573571Y-66492857D02*
X136573571Y-67350000D01*
X136573571Y-66921428D02*
X135073571Y-66921428D01*
X135287857Y-67064285D01*
X135430714Y-67207143D01*
X135502143Y-67350000D01*
X135073571Y-65992857D02*
X135073571Y-64992857D01*
X136573571Y-65635714D01*
D13*
X109474000Y-99314000D02*
X109474000Y-92202000D01*
X109474000Y-78486000D02*
X109474000Y-85598000D01*
X110998000Y-91186000D02*
X110998000Y-92202000D01*
X110998000Y-92202000D02*
X109474000Y-92202000D01*
X110998000Y-85598000D02*
X110998000Y-86614000D01*
X110998000Y-85598000D02*
X109474000Y-85598000D01*
X110998000Y-86614000D02*
X110998000Y-91186000D01*
D14*
X119100000Y-78490000D02*
X119100000Y-99310000D01*
X119100000Y-99310000D02*
X109500000Y-99310000D01*
X109500000Y-78490000D02*
X119100000Y-78490000D01*
D13*
X68326000Y-92202000D02*
X68326000Y-99314000D01*
X68326000Y-78486000D02*
X68326000Y-85598000D01*
X68326000Y-85598000D02*
X66802000Y-85598000D01*
X66802000Y-85598000D02*
X66802000Y-92202000D01*
X66802000Y-92202000D02*
X68326000Y-92202000D01*
D14*
X68300000Y-99310000D02*
X58700000Y-99310000D01*
X58700000Y-99310000D02*
X58700000Y-78490000D01*
X58700000Y-78490000D02*
X68300000Y-78490000D01*
X138176000Y-101600000D02*
G75*
G03X138176000Y-101600000I-2286000J0D01*
G01*
X56896000Y-101600000D02*
G75*
G03X56896000Y-101600000I-2286000J0D01*
G01*
X138176000Y-29210000D02*
G75*
G03X138176000Y-29210000I-2286000J0D01*
G01*
X99060000Y-34290000D02*
X104140000Y-34290000D01*
X99060000Y-29850000D02*
X104140000Y-29850000D01*
X104140000Y-36190000D02*
X99060000Y-36190000D01*
X104140000Y-36190000D02*
X104140000Y-29850000D01*
X99060000Y-36190000D02*
X99060000Y-29850000D01*
D13*
X136307000Y-44403640D02*
X136807000Y-44403640D01*
X134307000Y-41903640D02*
G75*
G03X134307000Y-41903640I-2000000J0D01*
G01*
X134307000Y-46903640D02*
G75*
G03X134307000Y-46903640I-2000000J0D01*
G01*
X134807000Y-49403640D02*
X134807000Y-39403640D01*
X129907000Y-49403640D02*
X129907000Y-39403640D01*
X136307000Y-49403640D02*
X136307000Y-39403640D01*
X136807000Y-49403640D02*
X136807000Y-39403640D01*
X136807000Y-39403640D02*
X127007000Y-39403640D01*
X127007000Y-39403640D02*
X127007000Y-49403640D01*
X127007000Y-49403640D02*
X136807000Y-49403640D01*
D14*
X99180000Y-89900000D02*
G75*
G02X99180000Y-87900000I0J1000000D01*
G01*
X99180000Y-87900000D02*
X99180000Y-86130000D01*
X99180000Y-86130000D02*
X78620000Y-86130000D01*
X78620000Y-86130000D02*
X78620000Y-91670000D01*
X78620000Y-91670000D02*
X99180000Y-91670000D01*
X99180000Y-91670000D02*
X99180000Y-89900000D01*
X59570000Y-62500000D02*
G75*
G02X59570000Y-64500000I0J-1000000D01*
G01*
X59570000Y-64500000D02*
X59570000Y-66270000D01*
X59570000Y-66270000D02*
X67430000Y-66270000D01*
X67430000Y-66270000D02*
X67430000Y-60730000D01*
X67430000Y-60730000D02*
X59570000Y-60730000D01*
X59570000Y-60730000D02*
X59570000Y-62500000D01*
X60290000Y-71410000D02*
X60290000Y-71080000D01*
X60290000Y-71080000D02*
X66710000Y-71080000D01*
X66710000Y-71080000D02*
X66710000Y-71410000D01*
X60290000Y-73370000D02*
X60290000Y-73700000D01*
X60290000Y-73700000D02*
X66710000Y-73700000D01*
X66710000Y-73700000D02*
X66710000Y-73370000D01*
X72990000Y-71410000D02*
X72990000Y-71080000D01*
X72990000Y-71080000D02*
X79410000Y-71080000D01*
X79410000Y-71080000D02*
X79410000Y-71410000D01*
X72990000Y-73370000D02*
X72990000Y-73700000D01*
X72990000Y-73700000D02*
X79410000Y-73700000D01*
X79410000Y-73700000D02*
X79410000Y-73370000D01*
X85690000Y-71410000D02*
X85690000Y-71080000D01*
X85690000Y-71080000D02*
X92110000Y-71080000D01*
X92110000Y-71080000D02*
X92110000Y-71410000D01*
X85690000Y-73370000D02*
X85690000Y-73700000D01*
X85690000Y-73700000D02*
X92110000Y-73700000D01*
X92110000Y-73700000D02*
X92110000Y-73370000D01*
X98390000Y-71410000D02*
X98390000Y-71080000D01*
X98390000Y-71080000D02*
X104810000Y-71080000D01*
X104810000Y-71080000D02*
X104810000Y-71410000D01*
X98390000Y-73370000D02*
X98390000Y-73700000D01*
X98390000Y-73700000D02*
X104810000Y-73700000D01*
X104810000Y-73700000D02*
X104810000Y-73370000D01*
X111090000Y-71410000D02*
X111090000Y-71080000D01*
X111090000Y-71080000D02*
X117510000Y-71080000D01*
X117510000Y-71080000D02*
X117510000Y-71410000D01*
X111090000Y-73370000D02*
X111090000Y-73700000D01*
X111090000Y-73700000D02*
X117510000Y-73700000D01*
X117510000Y-73700000D02*
X117510000Y-73370000D01*
X61940000Y-48860000D02*
X62270000Y-48860000D01*
X62270000Y-48860000D02*
X62270000Y-55280000D01*
X62270000Y-55280000D02*
X61940000Y-55280000D01*
X59980000Y-48860000D02*
X59650000Y-48860000D01*
X59650000Y-48860000D02*
X59650000Y-55280000D01*
X59650000Y-55280000D02*
X59980000Y-55280000D01*
X67020000Y-48860000D02*
X67350000Y-48860000D01*
X67350000Y-48860000D02*
X67350000Y-55280000D01*
X67350000Y-55280000D02*
X67020000Y-55280000D01*
X65060000Y-48860000D02*
X64730000Y-48860000D01*
X64730000Y-48860000D02*
X64730000Y-55280000D01*
X64730000Y-55280000D02*
X65060000Y-55280000D01*
X74640000Y-48860000D02*
X74970000Y-48860000D01*
X74970000Y-48860000D02*
X74970000Y-55280000D01*
X74970000Y-55280000D02*
X74640000Y-55280000D01*
X72680000Y-48860000D02*
X72350000Y-48860000D01*
X72350000Y-48860000D02*
X72350000Y-55280000D01*
X72350000Y-55280000D02*
X72680000Y-55280000D01*
X79720000Y-48860000D02*
X80050000Y-48860000D01*
X80050000Y-48860000D02*
X80050000Y-55280000D01*
X80050000Y-55280000D02*
X79720000Y-55280000D01*
X77760000Y-48860000D02*
X77430000Y-48860000D01*
X77430000Y-48860000D02*
X77430000Y-55280000D01*
X77430000Y-55280000D02*
X77760000Y-55280000D01*
X87340000Y-48860000D02*
X87670000Y-48860000D01*
X87670000Y-48860000D02*
X87670000Y-55280000D01*
X87670000Y-55280000D02*
X87340000Y-55280000D01*
X85380000Y-48860000D02*
X85050000Y-48860000D01*
X85050000Y-48860000D02*
X85050000Y-55280000D01*
X85050000Y-55280000D02*
X85380000Y-55280000D01*
X92420000Y-48860000D02*
X92750000Y-48860000D01*
X92750000Y-48860000D02*
X92750000Y-55280000D01*
X92750000Y-55280000D02*
X92420000Y-55280000D01*
X90460000Y-48860000D02*
X90130000Y-48860000D01*
X90130000Y-48860000D02*
X90130000Y-55280000D01*
X90130000Y-55280000D02*
X90460000Y-55280000D01*
X100040000Y-48860000D02*
X100370000Y-48860000D01*
X100370000Y-48860000D02*
X100370000Y-55280000D01*
X100370000Y-55280000D02*
X100040000Y-55280000D01*
X98080000Y-48860000D02*
X97750000Y-48860000D01*
X97750000Y-48860000D02*
X97750000Y-55280000D01*
X97750000Y-55280000D02*
X98080000Y-55280000D01*
X105120000Y-48860000D02*
X105450000Y-48860000D01*
X105450000Y-48860000D02*
X105450000Y-55280000D01*
X105450000Y-55280000D02*
X105120000Y-55280000D01*
X103160000Y-48860000D02*
X102830000Y-48860000D01*
X102830000Y-48860000D02*
X102830000Y-55280000D01*
X102830000Y-55280000D02*
X103160000Y-55280000D01*
X112740000Y-48860000D02*
X113070000Y-48860000D01*
X113070000Y-48860000D02*
X113070000Y-55280000D01*
X113070000Y-55280000D02*
X112740000Y-55280000D01*
X110780000Y-48860000D02*
X110450000Y-48860000D01*
X110450000Y-48860000D02*
X110450000Y-55280000D01*
X110450000Y-55280000D02*
X110780000Y-55280000D01*
X117820000Y-48860000D02*
X118150000Y-48860000D01*
X118150000Y-48860000D02*
X118150000Y-55280000D01*
X118150000Y-55280000D02*
X117820000Y-55280000D01*
X115860000Y-48860000D02*
X115530000Y-48860000D01*
X115530000Y-48860000D02*
X115530000Y-55280000D01*
X115530000Y-55280000D02*
X115860000Y-55280000D01*
X72270000Y-62500000D02*
G75*
G02X72270000Y-64500000I0J-1000000D01*
G01*
X72270000Y-64500000D02*
X72270000Y-66270000D01*
X72270000Y-66270000D02*
X80130000Y-66270000D01*
X80130000Y-66270000D02*
X80130000Y-60730000D01*
X80130000Y-60730000D02*
X72270000Y-60730000D01*
X72270000Y-60730000D02*
X72270000Y-62500000D01*
X84970000Y-62500000D02*
G75*
G02X84970000Y-64500000I0J-1000000D01*
G01*
X84970000Y-64500000D02*
X84970000Y-66270000D01*
X84970000Y-66270000D02*
X92830000Y-66270000D01*
X92830000Y-66270000D02*
X92830000Y-60730000D01*
X92830000Y-60730000D02*
X84970000Y-60730000D01*
X84970000Y-60730000D02*
X84970000Y-62500000D01*
X97670000Y-62500000D02*
G75*
G02X97670000Y-64500000I0J-1000000D01*
G01*
X97670000Y-64500000D02*
X97670000Y-66270000D01*
X97670000Y-66270000D02*
X105530000Y-66270000D01*
X105530000Y-66270000D02*
X105530000Y-60730000D01*
X105530000Y-60730000D02*
X97670000Y-60730000D01*
X97670000Y-60730000D02*
X97670000Y-62500000D01*
X110370000Y-62500000D02*
G75*
G02X110370000Y-64500000I0J-1000000D01*
G01*
X110370000Y-64500000D02*
X110370000Y-66270000D01*
X110370000Y-66270000D02*
X118230000Y-66270000D01*
X118230000Y-66270000D02*
X118230000Y-60730000D01*
X118230000Y-60730000D02*
X110370000Y-60730000D01*
X110370000Y-60730000D02*
X110370000Y-62500000D01*
X68620000Y-44530000D02*
X58380000Y-44530000D01*
X68620000Y-39889000D02*
X58380000Y-39889000D01*
X68620000Y-44530000D02*
X68620000Y-39889000D01*
X58380000Y-44530000D02*
X58380000Y-39889000D01*
X68620000Y-43020000D02*
X58380000Y-43020000D01*
X65350000Y-44530000D02*
X65350000Y-43020000D01*
X61649000Y-44530000D02*
X61649000Y-43020000D01*
X81320000Y-44530000D02*
X71080000Y-44530000D01*
X81320000Y-39889000D02*
X71080000Y-39889000D01*
X81320000Y-44530000D02*
X81320000Y-39889000D01*
X71080000Y-44530000D02*
X71080000Y-39889000D01*
X81320000Y-43020000D02*
X71080000Y-43020000D01*
X78050000Y-44530000D02*
X78050000Y-43020000D01*
X74349000Y-44530000D02*
X74349000Y-43020000D01*
X94020000Y-44530000D02*
X83780000Y-44530000D01*
X94020000Y-39889000D02*
X83780000Y-39889000D01*
X94020000Y-44530000D02*
X94020000Y-39889000D01*
X83780000Y-44530000D02*
X83780000Y-39889000D01*
X94020000Y-43020000D02*
X83780000Y-43020000D01*
X90750000Y-44530000D02*
X90750000Y-43020000D01*
X87049000Y-44530000D02*
X87049000Y-43020000D01*
X106720000Y-44530000D02*
X96480000Y-44530000D01*
X106720000Y-39889000D02*
X96480000Y-39889000D01*
X106720000Y-44530000D02*
X106720000Y-39889000D01*
X96480000Y-44530000D02*
X96480000Y-39889000D01*
X106720000Y-43020000D02*
X96480000Y-43020000D01*
X103450000Y-44530000D02*
X103450000Y-43020000D01*
X99749000Y-44530000D02*
X99749000Y-43020000D01*
X119420000Y-44530000D02*
X109180000Y-44530000D01*
X119420000Y-39889000D02*
X109180000Y-39889000D01*
X119420000Y-44530000D02*
X119420000Y-39889000D01*
X109180000Y-44530000D02*
X109180000Y-39889000D01*
X119420000Y-43020000D02*
X109180000Y-43020000D01*
X116150000Y-44530000D02*
X116150000Y-43020000D01*
X112449000Y-44530000D02*
X112449000Y-43020000D01*
X83780000Y-96440000D02*
X94020000Y-96440000D01*
X83780000Y-101081000D02*
X94020000Y-101081000D01*
X83780000Y-96440000D02*
X83780000Y-101081000D01*
X94020000Y-96440000D02*
X94020000Y-101081000D01*
X83780000Y-97950000D02*
X94020000Y-97950000D01*
X87050000Y-96440000D02*
X87050000Y-97950000D01*
X90751000Y-96440000D02*
X90751000Y-97950000D01*
X60960000Y-34290000D02*
X66040000Y-34290000D01*
X60960000Y-29850000D02*
X66040000Y-29850000D01*
X66040000Y-36190000D02*
X60960000Y-36190000D01*
X66040000Y-36190000D02*
X66040000Y-29850000D01*
X60960000Y-36190000D02*
X60960000Y-29850000D01*
X73660000Y-34290000D02*
X78740000Y-34290000D01*
X73660000Y-29850000D02*
X78740000Y-29850000D01*
X78740000Y-36190000D02*
X73660000Y-36190000D01*
X78740000Y-36190000D02*
X78740000Y-29850000D01*
X73660000Y-36190000D02*
X73660000Y-29850000D01*
X86360000Y-34290000D02*
X91440000Y-34290000D01*
X86360000Y-29850000D02*
X91440000Y-29850000D01*
X91440000Y-36190000D02*
X86360000Y-36190000D01*
X91440000Y-36190000D02*
X91440000Y-29850000D01*
X86360000Y-36190000D02*
X86360000Y-29850000D01*
X111760000Y-34290000D02*
X116840000Y-34290000D01*
X111760000Y-29850000D02*
X116840000Y-29850000D01*
X116840000Y-36190000D02*
X111760000Y-36190000D01*
X116840000Y-36190000D02*
X116840000Y-29850000D01*
X111760000Y-36190000D02*
X111760000Y-29850000D01*
X81887000Y-82141000D02*
X80713000Y-82141000D01*
X81887000Y-80419000D02*
X80713000Y-80419000D01*
X102696436Y-98080830D02*
G75*
G03X99004004Y-98080000I-1846436J-979170D01*
G01*
X102696436Y-100039170D02*
G75*
G02X99004004Y-100040000I-1846436J979170D01*
G01*
X102696436Y-100039170D02*
G75*
G03X102695996Y-98080000I-1846436J979170D01*
G01*
X100850000Y-99840000D02*
X100850000Y-101110000D01*
X100850000Y-97010000D02*
X100850000Y-98280000D01*
X100890000Y-97010000D02*
X100890000Y-98280000D01*
X100890000Y-99840000D02*
X100890000Y-101110000D01*
X100930000Y-97011000D02*
X100930000Y-98280000D01*
X100930000Y-99840000D02*
X100930000Y-101109000D01*
X100970000Y-97013000D02*
X100970000Y-98280000D01*
X100970000Y-99840000D02*
X100970000Y-101107000D01*
X101010000Y-97016000D02*
X101010000Y-98280000D01*
X101010000Y-99840000D02*
X101010000Y-101104000D01*
X101050000Y-97019000D02*
X101050000Y-98280000D01*
X101050000Y-99840000D02*
X101050000Y-101101000D01*
X101090000Y-97023000D02*
X101090000Y-98280000D01*
X101090000Y-99840000D02*
X101090000Y-101097000D01*
X101130000Y-97028000D02*
X101130000Y-98280000D01*
X101130000Y-99840000D02*
X101130000Y-101092000D01*
X101170000Y-97034000D02*
X101170000Y-98280000D01*
X101170000Y-99840000D02*
X101170000Y-101086000D01*
X101210000Y-97041000D02*
X101210000Y-98280000D01*
X101210000Y-99840000D02*
X101210000Y-101079000D01*
X101250000Y-97048000D02*
X101250000Y-98280000D01*
X101250000Y-99840000D02*
X101250000Y-101072000D01*
X101290000Y-97056000D02*
X101290000Y-98280000D01*
X101290000Y-99840000D02*
X101290000Y-101064000D01*
X101330000Y-97065000D02*
X101330000Y-98280000D01*
X101330000Y-99840000D02*
X101330000Y-101055000D01*
X101370000Y-97075000D02*
X101370000Y-98280000D01*
X101370000Y-99840000D02*
X101370000Y-101045000D01*
X101410000Y-97086000D02*
X101410000Y-98280000D01*
X101410000Y-99840000D02*
X101410000Y-101034000D01*
X101450000Y-97097000D02*
X101450000Y-98280000D01*
X101450000Y-99840000D02*
X101450000Y-101023000D01*
X101490000Y-97110000D02*
X101490000Y-98280000D01*
X101490000Y-99840000D02*
X101490000Y-101010000D01*
X101530000Y-97123000D02*
X101530000Y-98280000D01*
X101530000Y-99840000D02*
X101530000Y-100997000D01*
X101571000Y-97137000D02*
X101571000Y-98280000D01*
X101571000Y-99840000D02*
X101571000Y-100983000D01*
X101611000Y-97153000D02*
X101611000Y-98280000D01*
X101611000Y-99840000D02*
X101611000Y-100967000D01*
X101651000Y-97169000D02*
X101651000Y-98280000D01*
X101651000Y-99840000D02*
X101651000Y-100951000D01*
X101691000Y-97186000D02*
X101691000Y-98280000D01*
X101691000Y-99840000D02*
X101691000Y-100934000D01*
X101731000Y-97204000D02*
X101731000Y-98280000D01*
X101731000Y-99840000D02*
X101731000Y-100916000D01*
X101771000Y-97223000D02*
X101771000Y-98280000D01*
X101771000Y-99840000D02*
X101771000Y-100897000D01*
X101811000Y-97243000D02*
X101811000Y-98280000D01*
X101811000Y-99840000D02*
X101811000Y-100877000D01*
X101851000Y-97264000D02*
X101851000Y-98280000D01*
X101851000Y-99840000D02*
X101851000Y-100856000D01*
X101891000Y-97287000D02*
X101891000Y-98280000D01*
X101891000Y-99840000D02*
X101891000Y-100833000D01*
X101931000Y-97310000D02*
X101931000Y-98280000D01*
X101931000Y-99840000D02*
X101931000Y-100810000D01*
X101971000Y-97335000D02*
X101971000Y-98280000D01*
X101971000Y-99840000D02*
X101971000Y-100785000D01*
X102011000Y-97361000D02*
X102011000Y-98280000D01*
X102011000Y-99840000D02*
X102011000Y-100759000D01*
X102051000Y-97388000D02*
X102051000Y-98280000D01*
X102051000Y-99840000D02*
X102051000Y-100732000D01*
X102091000Y-97417000D02*
X102091000Y-98280000D01*
X102091000Y-99840000D02*
X102091000Y-100703000D01*
X102131000Y-97447000D02*
X102131000Y-98280000D01*
X102131000Y-99840000D02*
X102131000Y-100673000D01*
X102171000Y-97479000D02*
X102171000Y-98280000D01*
X102171000Y-99840000D02*
X102171000Y-100641000D01*
X102211000Y-97513000D02*
X102211000Y-98280000D01*
X102211000Y-99840000D02*
X102211000Y-100607000D01*
X102251000Y-97548000D02*
X102251000Y-98280000D01*
X102251000Y-99840000D02*
X102251000Y-100572000D01*
X102291000Y-97585000D02*
X102291000Y-98280000D01*
X102291000Y-99840000D02*
X102291000Y-100535000D01*
X102331000Y-97624000D02*
X102331000Y-98280000D01*
X102331000Y-99840000D02*
X102331000Y-100496000D01*
X102371000Y-97665000D02*
X102371000Y-98280000D01*
X102371000Y-99840000D02*
X102371000Y-100455000D01*
X102411000Y-97709000D02*
X102411000Y-100411000D01*
X102451000Y-97755000D02*
X102451000Y-100365000D01*
X102491000Y-97804000D02*
X102491000Y-100316000D01*
X102531000Y-97856000D02*
X102531000Y-100264000D01*
X102571000Y-97912000D02*
X102571000Y-100208000D01*
X102611000Y-97972000D02*
X102611000Y-100148000D01*
X102651000Y-98037000D02*
X102651000Y-100083000D01*
X102691000Y-98108000D02*
X102691000Y-100012000D01*
X102731000Y-98186000D02*
X102731000Y-99934000D01*
X102771000Y-98274000D02*
X102771000Y-99846000D01*
X102811000Y-98374000D02*
X102811000Y-99746000D01*
X102851000Y-98493000D02*
X102851000Y-99627000D01*
X102891000Y-98645000D02*
X102891000Y-99475000D01*
X102931000Y-98895000D02*
X102931000Y-99225000D01*
X98400000Y-99060000D02*
X99300000Y-99060000D01*
X98850000Y-98610000D02*
X98850000Y-99510000D01*
X78566436Y-98080830D02*
G75*
G03X74874004Y-98080000I-1846436J-979170D01*
G01*
X78566436Y-100039170D02*
G75*
G02X74874004Y-100040000I-1846436J979170D01*
G01*
X78566436Y-100039170D02*
G75*
G03X78565996Y-98080000I-1846436J979170D01*
G01*
X76720000Y-99840000D02*
X76720000Y-101110000D01*
X76720000Y-97010000D02*
X76720000Y-98280000D01*
X76760000Y-97010000D02*
X76760000Y-98280000D01*
X76760000Y-99840000D02*
X76760000Y-101110000D01*
X76800000Y-97011000D02*
X76800000Y-98280000D01*
X76800000Y-99840000D02*
X76800000Y-101109000D01*
X76840000Y-97013000D02*
X76840000Y-98280000D01*
X76840000Y-99840000D02*
X76840000Y-101107000D01*
X76880000Y-97016000D02*
X76880000Y-98280000D01*
X76880000Y-99840000D02*
X76880000Y-101104000D01*
X76920000Y-97019000D02*
X76920000Y-98280000D01*
X76920000Y-99840000D02*
X76920000Y-101101000D01*
X76960000Y-97023000D02*
X76960000Y-98280000D01*
X76960000Y-99840000D02*
X76960000Y-101097000D01*
X77000000Y-97028000D02*
X77000000Y-98280000D01*
X77000000Y-99840000D02*
X77000000Y-101092000D01*
X77040000Y-97034000D02*
X77040000Y-98280000D01*
X77040000Y-99840000D02*
X77040000Y-101086000D01*
X77080000Y-97041000D02*
X77080000Y-98280000D01*
X77080000Y-99840000D02*
X77080000Y-101079000D01*
X77120000Y-97048000D02*
X77120000Y-98280000D01*
X77120000Y-99840000D02*
X77120000Y-101072000D01*
X77160000Y-97056000D02*
X77160000Y-98280000D01*
X77160000Y-99840000D02*
X77160000Y-101064000D01*
X77200000Y-97065000D02*
X77200000Y-98280000D01*
X77200000Y-99840000D02*
X77200000Y-101055000D01*
X77240000Y-97075000D02*
X77240000Y-98280000D01*
X77240000Y-99840000D02*
X77240000Y-101045000D01*
X77280000Y-97086000D02*
X77280000Y-98280000D01*
X77280000Y-99840000D02*
X77280000Y-101034000D01*
X77320000Y-97097000D02*
X77320000Y-98280000D01*
X77320000Y-99840000D02*
X77320000Y-101023000D01*
X77360000Y-97110000D02*
X77360000Y-98280000D01*
X77360000Y-99840000D02*
X77360000Y-101010000D01*
X77400000Y-97123000D02*
X77400000Y-98280000D01*
X77400000Y-99840000D02*
X77400000Y-100997000D01*
X77441000Y-97137000D02*
X77441000Y-98280000D01*
X77441000Y-99840000D02*
X77441000Y-100983000D01*
X77481000Y-97153000D02*
X77481000Y-98280000D01*
X77481000Y-99840000D02*
X77481000Y-100967000D01*
X77521000Y-97169000D02*
X77521000Y-98280000D01*
X77521000Y-99840000D02*
X77521000Y-100951000D01*
X77561000Y-97186000D02*
X77561000Y-98280000D01*
X77561000Y-99840000D02*
X77561000Y-100934000D01*
X77601000Y-97204000D02*
X77601000Y-98280000D01*
X77601000Y-99840000D02*
X77601000Y-100916000D01*
X77641000Y-97223000D02*
X77641000Y-98280000D01*
X77641000Y-99840000D02*
X77641000Y-100897000D01*
X77681000Y-97243000D02*
X77681000Y-98280000D01*
X77681000Y-99840000D02*
X77681000Y-100877000D01*
X77721000Y-97264000D02*
X77721000Y-98280000D01*
X77721000Y-99840000D02*
X77721000Y-100856000D01*
X77761000Y-97287000D02*
X77761000Y-98280000D01*
X77761000Y-99840000D02*
X77761000Y-100833000D01*
X77801000Y-97310000D02*
X77801000Y-98280000D01*
X77801000Y-99840000D02*
X77801000Y-100810000D01*
X77841000Y-97335000D02*
X77841000Y-98280000D01*
X77841000Y-99840000D02*
X77841000Y-100785000D01*
X77881000Y-97361000D02*
X77881000Y-98280000D01*
X77881000Y-99840000D02*
X77881000Y-100759000D01*
X77921000Y-97388000D02*
X77921000Y-98280000D01*
X77921000Y-99840000D02*
X77921000Y-100732000D01*
X77961000Y-97417000D02*
X77961000Y-98280000D01*
X77961000Y-99840000D02*
X77961000Y-100703000D01*
X78001000Y-97447000D02*
X78001000Y-98280000D01*
X78001000Y-99840000D02*
X78001000Y-100673000D01*
X78041000Y-97479000D02*
X78041000Y-98280000D01*
X78041000Y-99840000D02*
X78041000Y-100641000D01*
X78081000Y-97513000D02*
X78081000Y-98280000D01*
X78081000Y-99840000D02*
X78081000Y-100607000D01*
X78121000Y-97548000D02*
X78121000Y-98280000D01*
X78121000Y-99840000D02*
X78121000Y-100572000D01*
X78161000Y-97585000D02*
X78161000Y-98280000D01*
X78161000Y-99840000D02*
X78161000Y-100535000D01*
X78201000Y-97624000D02*
X78201000Y-98280000D01*
X78201000Y-99840000D02*
X78201000Y-100496000D01*
X78241000Y-97665000D02*
X78241000Y-98280000D01*
X78241000Y-99840000D02*
X78241000Y-100455000D01*
X78281000Y-97709000D02*
X78281000Y-100411000D01*
X78321000Y-97755000D02*
X78321000Y-100365000D01*
X78361000Y-97804000D02*
X78361000Y-100316000D01*
X78401000Y-97856000D02*
X78401000Y-100264000D01*
X78441000Y-97912000D02*
X78441000Y-100208000D01*
X78481000Y-97972000D02*
X78481000Y-100148000D01*
X78521000Y-98037000D02*
X78521000Y-100083000D01*
X78561000Y-98108000D02*
X78561000Y-100012000D01*
X78601000Y-98186000D02*
X78601000Y-99934000D01*
X78641000Y-98274000D02*
X78641000Y-99846000D01*
X78681000Y-98374000D02*
X78681000Y-99746000D01*
X78721000Y-98493000D02*
X78721000Y-99627000D01*
X78761000Y-98645000D02*
X78761000Y-99475000D01*
X78801000Y-98895000D02*
X78801000Y-99225000D01*
X74270000Y-99060000D02*
X75170000Y-99060000D01*
X74720000Y-98610000D02*
X74720000Y-99510000D01*
X56896000Y-29210000D02*
G75*
G03X56896000Y-29210000I-2286000J0D01*
G01*
D13*
X113561905Y-77922381D02*
X113561905Y-76922381D01*
X113942858Y-76922381D01*
X114038096Y-76970000D01*
X114085715Y-77017619D01*
X114133334Y-77112857D01*
X114133334Y-77255714D01*
X114085715Y-77350952D01*
X114038096Y-77398571D01*
X113942858Y-77446190D01*
X113561905Y-77446190D01*
X114466667Y-76922381D02*
X115085715Y-76922381D01*
X114752381Y-77303333D01*
X114895239Y-77303333D01*
X114990477Y-77350952D01*
X115038096Y-77398571D01*
X115085715Y-77493810D01*
X115085715Y-77731905D01*
X115038096Y-77827143D01*
X114990477Y-77874762D01*
X114895239Y-77922381D01*
X114609524Y-77922381D01*
X114514286Y-77874762D01*
X114466667Y-77827143D01*
D14*
X111762381Y-83554285D02*
X111762381Y-84125714D01*
X111762381Y-83840000D02*
X110762381Y-83840000D01*
X110905238Y-83935238D01*
X111000476Y-84030476D01*
X111048095Y-84125714D01*
D13*
X62761905Y-77922381D02*
X62761905Y-76922381D01*
X63142858Y-76922381D01*
X63238096Y-76970000D01*
X63285715Y-77017619D01*
X63333334Y-77112857D01*
X63333334Y-77255714D01*
X63285715Y-77350952D01*
X63238096Y-77398571D01*
X63142858Y-77446190D01*
X62761905Y-77446190D01*
X63714286Y-77017619D02*
X63761905Y-76970000D01*
X63857143Y-76922381D01*
X64095239Y-76922381D01*
X64190477Y-76970000D01*
X64238096Y-77017619D01*
X64285715Y-77112857D01*
X64285715Y-77208095D01*
X64238096Y-77350952D01*
X63666667Y-77922381D01*
X64285715Y-77922381D01*
D14*
X60962381Y-83554285D02*
X60962381Y-84125714D01*
X60962381Y-83840000D02*
X59962381Y-83840000D01*
X60105238Y-83935238D01*
X60200476Y-84030476D01*
X60248095Y-84125714D01*
D13*
X97957143Y-28503571D02*
X98290477Y-28503571D01*
X98433334Y-29027381D02*
X97957143Y-29027381D01*
X97957143Y-28027381D01*
X98433334Y-28027381D01*
X99338096Y-29027381D02*
X98861905Y-29027381D01*
X98861905Y-28027381D01*
X99671429Y-28646429D02*
X100433334Y-28646429D01*
X100814286Y-28027381D02*
X101052381Y-29027381D01*
X101242858Y-28313095D01*
X101433334Y-29027381D01*
X101671429Y-28027381D01*
X102052381Y-29027381D02*
X102052381Y-28360714D01*
X102052381Y-28027381D02*
X102004762Y-28075000D01*
X102052381Y-28122619D01*
X102100000Y-28075000D01*
X102052381Y-28027381D01*
X102052381Y-28122619D01*
X102528571Y-29027381D02*
X102528571Y-28360714D01*
X102528571Y-28551190D02*
X102576190Y-28455952D01*
X102623809Y-28408333D01*
X102719047Y-28360714D01*
X102814286Y-28360714D01*
X103528572Y-28979762D02*
X103433334Y-29027381D01*
X103242857Y-29027381D01*
X103147619Y-28979762D01*
X103100000Y-28884524D01*
X103100000Y-28503571D01*
X103147619Y-28408333D01*
X103242857Y-28360714D01*
X103433334Y-28360714D01*
X103528572Y-28408333D01*
X103576191Y-28503571D01*
X103576191Y-28598810D01*
X103100000Y-28694048D01*
X103766667Y-29122619D02*
X104528572Y-29122619D01*
X105195239Y-28360714D02*
X105195239Y-29027381D01*
X104957143Y-27979762D02*
X104719048Y-28694048D01*
X105338096Y-28694048D01*
X138559381Y-45141735D02*
X137559381Y-45141735D01*
X137559381Y-44760782D01*
X137607000Y-44665544D01*
X137654619Y-44617925D01*
X137749857Y-44570306D01*
X137892714Y-44570306D01*
X137987952Y-44617925D01*
X138035571Y-44665544D01*
X138083190Y-44760782D01*
X138083190Y-45141735D01*
X138559381Y-43617925D02*
X138559381Y-44189354D01*
X138559381Y-43903640D02*
X137559381Y-43903640D01*
X137702238Y-43998878D01*
X137797476Y-44094116D01*
X137845095Y-44189354D01*
X126059381Y-54736975D02*
X125059381Y-54736975D01*
X125059381Y-54356022D01*
X125107000Y-54260784D01*
X125154619Y-54213165D01*
X125249857Y-54165546D01*
X125392714Y-54165546D01*
X125487952Y-54213165D01*
X125535571Y-54260784D01*
X125583190Y-54356022D01*
X125583190Y-54736975D01*
X126059381Y-53594118D02*
X126011762Y-53689356D01*
X125964143Y-53736975D01*
X125868905Y-53784594D01*
X125583190Y-53784594D01*
X125487952Y-53736975D01*
X125440333Y-53689356D01*
X125392714Y-53594118D01*
X125392714Y-53451260D01*
X125440333Y-53356022D01*
X125487952Y-53308403D01*
X125583190Y-53260784D01*
X125868905Y-53260784D01*
X125964143Y-53308403D01*
X126011762Y-53356022D01*
X126059381Y-53451260D01*
X126059381Y-53594118D01*
X125392714Y-52927451D02*
X126059381Y-52736975D01*
X125583190Y-52546498D01*
X126059381Y-52356022D01*
X125392714Y-52165546D01*
X126011762Y-51403641D02*
X126059381Y-51498879D01*
X126059381Y-51689356D01*
X126011762Y-51784594D01*
X125916524Y-51832213D01*
X125535571Y-51832213D01*
X125440333Y-51784594D01*
X125392714Y-51689356D01*
X125392714Y-51498879D01*
X125440333Y-51403641D01*
X125535571Y-51356022D01*
X125630810Y-51356022D01*
X125726048Y-51832213D01*
X126059381Y-50927451D02*
X125392714Y-50927451D01*
X125583190Y-50927451D02*
X125487952Y-50879832D01*
X125440333Y-50832213D01*
X125392714Y-50736975D01*
X125392714Y-50641736D01*
X125964143Y-48975069D02*
X126011762Y-49022688D01*
X126059381Y-49165545D01*
X126059381Y-49260783D01*
X126011762Y-49403641D01*
X125916524Y-49498879D01*
X125821286Y-49546498D01*
X125630810Y-49594117D01*
X125487952Y-49594117D01*
X125297476Y-49546498D01*
X125202238Y-49498879D01*
X125107000Y-49403641D01*
X125059381Y-49260783D01*
X125059381Y-49165545D01*
X125107000Y-49022688D01*
X125154619Y-48975069D01*
X126059381Y-48403641D02*
X126011762Y-48498879D01*
X125964143Y-48546498D01*
X125868905Y-48594117D01*
X125583190Y-48594117D01*
X125487952Y-48546498D01*
X125440333Y-48498879D01*
X125392714Y-48403641D01*
X125392714Y-48260783D01*
X125440333Y-48165545D01*
X125487952Y-48117926D01*
X125583190Y-48070307D01*
X125868905Y-48070307D01*
X125964143Y-48117926D01*
X126011762Y-48165545D01*
X126059381Y-48260783D01*
X126059381Y-48403641D01*
X125392714Y-47641736D02*
X126059381Y-47641736D01*
X125487952Y-47641736D02*
X125440333Y-47594117D01*
X125392714Y-47498879D01*
X125392714Y-47356021D01*
X125440333Y-47260783D01*
X125535571Y-47213164D01*
X126059381Y-47213164D01*
X125392714Y-46736974D02*
X126059381Y-46736974D01*
X125487952Y-46736974D02*
X125440333Y-46689355D01*
X125392714Y-46594117D01*
X125392714Y-46451259D01*
X125440333Y-46356021D01*
X125535571Y-46308402D01*
X126059381Y-46308402D01*
X126011762Y-45451259D02*
X126059381Y-45546497D01*
X126059381Y-45736974D01*
X126011762Y-45832212D01*
X125916524Y-45879831D01*
X125535571Y-45879831D01*
X125440333Y-45832212D01*
X125392714Y-45736974D01*
X125392714Y-45546497D01*
X125440333Y-45451259D01*
X125535571Y-45403640D01*
X125630810Y-45403640D01*
X125726048Y-45879831D01*
X126011762Y-44546497D02*
X126059381Y-44641735D01*
X126059381Y-44832212D01*
X126011762Y-44927450D01*
X125964143Y-44975069D01*
X125868905Y-45022688D01*
X125583190Y-45022688D01*
X125487952Y-44975069D01*
X125440333Y-44927450D01*
X125392714Y-44832212D01*
X125392714Y-44641735D01*
X125440333Y-44546497D01*
X125392714Y-44260783D02*
X125392714Y-43879831D01*
X125059381Y-44117926D02*
X125916524Y-44117926D01*
X126011762Y-44070307D01*
X126059381Y-43975069D01*
X126059381Y-43879831D01*
X126059381Y-43403640D02*
X126011762Y-43498878D01*
X125964143Y-43546497D01*
X125868905Y-43594116D01*
X125583190Y-43594116D01*
X125487952Y-43546497D01*
X125440333Y-43498878D01*
X125392714Y-43403640D01*
X125392714Y-43260782D01*
X125440333Y-43165544D01*
X125487952Y-43117925D01*
X125583190Y-43070306D01*
X125868905Y-43070306D01*
X125964143Y-43117925D01*
X126011762Y-43165544D01*
X126059381Y-43260782D01*
X126059381Y-43403640D01*
X126059381Y-42641735D02*
X125392714Y-42641735D01*
X125583190Y-42641735D02*
X125487952Y-42594116D01*
X125440333Y-42546497D01*
X125392714Y-42451259D01*
X125392714Y-42356020D01*
X126440333Y-40975067D02*
X126392714Y-41022687D01*
X126249857Y-41117925D01*
X126154619Y-41165544D01*
X126011762Y-41213163D01*
X125773667Y-41260782D01*
X125583190Y-41260782D01*
X125345095Y-41213163D01*
X125202238Y-41165544D01*
X125107000Y-41117925D01*
X124964143Y-41022687D01*
X124916524Y-40975067D01*
X126059381Y-40070305D02*
X126059381Y-40641734D01*
X126059381Y-40356020D02*
X125059381Y-40356020D01*
X125202238Y-40451258D01*
X125297476Y-40546496D01*
X125345095Y-40641734D01*
X125154619Y-39689353D02*
X125107000Y-39641734D01*
X125059381Y-39546496D01*
X125059381Y-39308400D01*
X125107000Y-39213162D01*
X125154619Y-39165543D01*
X125249857Y-39117924D01*
X125345095Y-39117924D01*
X125487952Y-39165543D01*
X126059381Y-39736972D01*
X126059381Y-39117924D01*
X125059381Y-38498877D02*
X125059381Y-38403638D01*
X125107000Y-38308400D01*
X125154619Y-38260781D01*
X125249857Y-38213162D01*
X125440333Y-38165543D01*
X125678429Y-38165543D01*
X125868905Y-38213162D01*
X125964143Y-38260781D01*
X126011762Y-38308400D01*
X126059381Y-38403638D01*
X126059381Y-38498877D01*
X126011762Y-38594115D01*
X125964143Y-38641734D01*
X125868905Y-38689353D01*
X125678429Y-38736972D01*
X125440333Y-38736972D01*
X125249857Y-38689353D01*
X125154619Y-38641734D01*
X125107000Y-38594115D01*
X125059381Y-38498877D01*
X125059381Y-37879829D02*
X126059381Y-37546496D01*
X125059381Y-37213162D01*
X125773667Y-36165543D02*
X125773667Y-35689352D01*
X126059381Y-36260781D02*
X125059381Y-35927448D01*
X126059381Y-35594114D01*
X125964143Y-34689352D02*
X126011762Y-34736971D01*
X126059381Y-34879828D01*
X126059381Y-34975066D01*
X126011762Y-35117924D01*
X125916524Y-35213162D01*
X125821286Y-35260781D01*
X125630810Y-35308400D01*
X125487952Y-35308400D01*
X125297476Y-35260781D01*
X125202238Y-35213162D01*
X125107000Y-35117924D01*
X125059381Y-34975066D01*
X125059381Y-34879828D01*
X125107000Y-34736971D01*
X125154619Y-34689352D01*
X126440333Y-34356019D02*
X126392714Y-34308400D01*
X126249857Y-34213162D01*
X126154619Y-34165543D01*
X126011762Y-34117924D01*
X125773667Y-34070305D01*
X125583190Y-34070305D01*
X125345095Y-34117924D01*
X125202238Y-34165543D01*
X125107000Y-34213162D01*
X124964143Y-34308400D01*
X124916524Y-34356019D01*
X99632381Y-89661905D02*
X100441905Y-89661905D01*
X100537143Y-89614286D01*
X100584762Y-89566667D01*
X100632381Y-89471429D01*
X100632381Y-89280952D01*
X100584762Y-89185714D01*
X100537143Y-89138095D01*
X100441905Y-89090476D01*
X99632381Y-89090476D01*
X100632381Y-88090476D02*
X100632381Y-88661905D01*
X100632381Y-88376191D02*
X99632381Y-88376191D01*
X99775238Y-88471429D01*
X99870476Y-88566667D01*
X99918095Y-88661905D01*
X57872381Y-66801905D02*
X58681905Y-66801905D01*
X58777143Y-66754286D01*
X58824762Y-66706667D01*
X58872381Y-66611429D01*
X58872381Y-66420952D01*
X58824762Y-66325714D01*
X58777143Y-66278095D01*
X58681905Y-66230476D01*
X57872381Y-66230476D01*
X57967619Y-65801905D02*
X57920000Y-65754286D01*
X57872381Y-65659048D01*
X57872381Y-65420952D01*
X57920000Y-65325714D01*
X57967619Y-65278095D01*
X58062857Y-65230476D01*
X58158095Y-65230476D01*
X58300952Y-65278095D01*
X58872381Y-65849524D01*
X58872381Y-65230476D01*
X63333334Y-70532381D02*
X63000000Y-70056190D01*
X62761905Y-70532381D02*
X62761905Y-69532381D01*
X63142858Y-69532381D01*
X63238096Y-69580000D01*
X63285715Y-69627619D01*
X63333334Y-69722857D01*
X63333334Y-69865714D01*
X63285715Y-69960952D01*
X63238096Y-70008571D01*
X63142858Y-70056190D01*
X62761905Y-70056190D01*
X64285715Y-70532381D02*
X63714286Y-70532381D01*
X64000000Y-70532381D02*
X64000000Y-69532381D01*
X63904762Y-69675238D01*
X63809524Y-69770476D01*
X63714286Y-69818095D01*
X76033334Y-70532381D02*
X75700000Y-70056190D01*
X75461905Y-70532381D02*
X75461905Y-69532381D01*
X75842858Y-69532381D01*
X75938096Y-69580000D01*
X75985715Y-69627619D01*
X76033334Y-69722857D01*
X76033334Y-69865714D01*
X75985715Y-69960952D01*
X75938096Y-70008571D01*
X75842858Y-70056190D01*
X75461905Y-70056190D01*
X76414286Y-69627619D02*
X76461905Y-69580000D01*
X76557143Y-69532381D01*
X76795239Y-69532381D01*
X76890477Y-69580000D01*
X76938096Y-69627619D01*
X76985715Y-69722857D01*
X76985715Y-69818095D01*
X76938096Y-69960952D01*
X76366667Y-70532381D01*
X76985715Y-70532381D01*
X88733334Y-70532381D02*
X88400000Y-70056190D01*
X88161905Y-70532381D02*
X88161905Y-69532381D01*
X88542858Y-69532381D01*
X88638096Y-69580000D01*
X88685715Y-69627619D01*
X88733334Y-69722857D01*
X88733334Y-69865714D01*
X88685715Y-69960952D01*
X88638096Y-70008571D01*
X88542858Y-70056190D01*
X88161905Y-70056190D01*
X89066667Y-69532381D02*
X89685715Y-69532381D01*
X89352381Y-69913333D01*
X89495239Y-69913333D01*
X89590477Y-69960952D01*
X89638096Y-70008571D01*
X89685715Y-70103810D01*
X89685715Y-70341905D01*
X89638096Y-70437143D01*
X89590477Y-70484762D01*
X89495239Y-70532381D01*
X89209524Y-70532381D01*
X89114286Y-70484762D01*
X89066667Y-70437143D01*
X101433334Y-70532381D02*
X101100000Y-70056190D01*
X100861905Y-70532381D02*
X100861905Y-69532381D01*
X101242858Y-69532381D01*
X101338096Y-69580000D01*
X101385715Y-69627619D01*
X101433334Y-69722857D01*
X101433334Y-69865714D01*
X101385715Y-69960952D01*
X101338096Y-70008571D01*
X101242858Y-70056190D01*
X100861905Y-70056190D01*
X102290477Y-69865714D02*
X102290477Y-70532381D01*
X102052381Y-69484762D02*
X101814286Y-70199048D01*
X102433334Y-70199048D01*
X114133334Y-70532381D02*
X113800000Y-70056190D01*
X113561905Y-70532381D02*
X113561905Y-69532381D01*
X113942858Y-69532381D01*
X114038096Y-69580000D01*
X114085715Y-69627619D01*
X114133334Y-69722857D01*
X114133334Y-69865714D01*
X114085715Y-69960952D01*
X114038096Y-70008571D01*
X113942858Y-70056190D01*
X113561905Y-70056190D01*
X115038096Y-69532381D02*
X114561905Y-69532381D01*
X114514286Y-70008571D01*
X114561905Y-69960952D01*
X114657143Y-69913333D01*
X114895239Y-69913333D01*
X114990477Y-69960952D01*
X115038096Y-70008571D01*
X115085715Y-70103810D01*
X115085715Y-70341905D01*
X115038096Y-70437143D01*
X114990477Y-70484762D01*
X114895239Y-70532381D01*
X114657143Y-70532381D01*
X114561905Y-70484762D01*
X114514286Y-70437143D01*
X58872381Y-52236666D02*
X58396190Y-52570000D01*
X58872381Y-52808095D02*
X57872381Y-52808095D01*
X57872381Y-52427142D01*
X57920000Y-52331904D01*
X57967619Y-52284285D01*
X58062857Y-52236666D01*
X58205714Y-52236666D01*
X58300952Y-52284285D01*
X58348571Y-52331904D01*
X58396190Y-52427142D01*
X58396190Y-52808095D01*
X57872381Y-51379523D02*
X57872381Y-51570000D01*
X57920000Y-51665238D01*
X57967619Y-51712857D01*
X58110476Y-51808095D01*
X58300952Y-51855714D01*
X58681905Y-51855714D01*
X58777143Y-51808095D01*
X58824762Y-51760476D01*
X58872381Y-51665238D01*
X58872381Y-51474761D01*
X58824762Y-51379523D01*
X58777143Y-51331904D01*
X58681905Y-51284285D01*
X58443810Y-51284285D01*
X58348571Y-51331904D01*
X58300952Y-51379523D01*
X58253333Y-51474761D01*
X58253333Y-51665238D01*
X58300952Y-51760476D01*
X58348571Y-51808095D01*
X58443810Y-51855714D01*
X63952381Y-52236666D02*
X63476190Y-52570000D01*
X63952381Y-52808095D02*
X62952381Y-52808095D01*
X62952381Y-52427142D01*
X63000000Y-52331904D01*
X63047619Y-52284285D01*
X63142857Y-52236666D01*
X63285714Y-52236666D01*
X63380952Y-52284285D01*
X63428571Y-52331904D01*
X63476190Y-52427142D01*
X63476190Y-52808095D01*
X62952381Y-51903333D02*
X62952381Y-51236666D01*
X63952381Y-51665238D01*
X71572381Y-52236666D02*
X71096190Y-52570000D01*
X71572381Y-52808095D02*
X70572381Y-52808095D01*
X70572381Y-52427142D01*
X70620000Y-52331904D01*
X70667619Y-52284285D01*
X70762857Y-52236666D01*
X70905714Y-52236666D01*
X71000952Y-52284285D01*
X71048571Y-52331904D01*
X71096190Y-52427142D01*
X71096190Y-52808095D01*
X71000952Y-51665238D02*
X70953333Y-51760476D01*
X70905714Y-51808095D01*
X70810476Y-51855714D01*
X70762857Y-51855714D01*
X70667619Y-51808095D01*
X70620000Y-51760476D01*
X70572381Y-51665238D01*
X70572381Y-51474761D01*
X70620000Y-51379523D01*
X70667619Y-51331904D01*
X70762857Y-51284285D01*
X70810476Y-51284285D01*
X70905714Y-51331904D01*
X70953333Y-51379523D01*
X71000952Y-51474761D01*
X71000952Y-51665238D01*
X71048571Y-51760476D01*
X71096190Y-51808095D01*
X71191429Y-51855714D01*
X71381905Y-51855714D01*
X71477143Y-51808095D01*
X71524762Y-51760476D01*
X71572381Y-51665238D01*
X71572381Y-51474761D01*
X71524762Y-51379523D01*
X71477143Y-51331904D01*
X71381905Y-51284285D01*
X71191429Y-51284285D01*
X71096190Y-51331904D01*
X71048571Y-51379523D01*
X71000952Y-51474761D01*
X76652381Y-52236666D02*
X76176190Y-52570000D01*
X76652381Y-52808095D02*
X75652381Y-52808095D01*
X75652381Y-52427142D01*
X75700000Y-52331904D01*
X75747619Y-52284285D01*
X75842857Y-52236666D01*
X75985714Y-52236666D01*
X76080952Y-52284285D01*
X76128571Y-52331904D01*
X76176190Y-52427142D01*
X76176190Y-52808095D01*
X76652381Y-51760476D02*
X76652381Y-51570000D01*
X76604762Y-51474761D01*
X76557143Y-51427142D01*
X76414286Y-51331904D01*
X76223810Y-51284285D01*
X75842857Y-51284285D01*
X75747619Y-51331904D01*
X75700000Y-51379523D01*
X75652381Y-51474761D01*
X75652381Y-51665238D01*
X75700000Y-51760476D01*
X75747619Y-51808095D01*
X75842857Y-51855714D01*
X76080952Y-51855714D01*
X76176190Y-51808095D01*
X76223810Y-51760476D01*
X76271429Y-51665238D01*
X76271429Y-51474761D01*
X76223810Y-51379523D01*
X76176190Y-51331904D01*
X76080952Y-51284285D01*
X84272381Y-52712857D02*
X83796190Y-53046191D01*
X84272381Y-53284286D02*
X83272381Y-53284286D01*
X83272381Y-52903333D01*
X83320000Y-52808095D01*
X83367619Y-52760476D01*
X83462857Y-52712857D01*
X83605714Y-52712857D01*
X83700952Y-52760476D01*
X83748571Y-52808095D01*
X83796190Y-52903333D01*
X83796190Y-53284286D01*
X84272381Y-51760476D02*
X84272381Y-52331905D01*
X84272381Y-52046191D02*
X83272381Y-52046191D01*
X83415238Y-52141429D01*
X83510476Y-52236667D01*
X83558095Y-52331905D01*
X83272381Y-51141429D02*
X83272381Y-51046190D01*
X83320000Y-50950952D01*
X83367619Y-50903333D01*
X83462857Y-50855714D01*
X83653333Y-50808095D01*
X83891429Y-50808095D01*
X84081905Y-50855714D01*
X84177143Y-50903333D01*
X84224762Y-50950952D01*
X84272381Y-51046190D01*
X84272381Y-51141429D01*
X84224762Y-51236667D01*
X84177143Y-51284286D01*
X84081905Y-51331905D01*
X83891429Y-51379524D01*
X83653333Y-51379524D01*
X83462857Y-51331905D01*
X83367619Y-51284286D01*
X83320000Y-51236667D01*
X83272381Y-51141429D01*
X89352381Y-52712857D02*
X88876190Y-53046191D01*
X89352381Y-53284286D02*
X88352381Y-53284286D01*
X88352381Y-52903333D01*
X88400000Y-52808095D01*
X88447619Y-52760476D01*
X88542857Y-52712857D01*
X88685714Y-52712857D01*
X88780952Y-52760476D01*
X88828571Y-52808095D01*
X88876190Y-52903333D01*
X88876190Y-53284286D01*
X89352381Y-51760476D02*
X89352381Y-52331905D01*
X89352381Y-52046191D02*
X88352381Y-52046191D01*
X88495238Y-52141429D01*
X88590476Y-52236667D01*
X88638095Y-52331905D01*
X89352381Y-50808095D02*
X89352381Y-51379524D01*
X89352381Y-51093810D02*
X88352381Y-51093810D01*
X88495238Y-51189048D01*
X88590476Y-51284286D01*
X88638095Y-51379524D01*
X96972381Y-52712857D02*
X96496190Y-53046191D01*
X96972381Y-53284286D02*
X95972381Y-53284286D01*
X95972381Y-52903333D01*
X96020000Y-52808095D01*
X96067619Y-52760476D01*
X96162857Y-52712857D01*
X96305714Y-52712857D01*
X96400952Y-52760476D01*
X96448571Y-52808095D01*
X96496190Y-52903333D01*
X96496190Y-53284286D01*
X96972381Y-51760476D02*
X96972381Y-52331905D01*
X96972381Y-52046191D02*
X95972381Y-52046191D01*
X96115238Y-52141429D01*
X96210476Y-52236667D01*
X96258095Y-52331905D01*
X96067619Y-51379524D02*
X96020000Y-51331905D01*
X95972381Y-51236667D01*
X95972381Y-50998571D01*
X96020000Y-50903333D01*
X96067619Y-50855714D01*
X96162857Y-50808095D01*
X96258095Y-50808095D01*
X96400952Y-50855714D01*
X96972381Y-51427143D01*
X96972381Y-50808095D01*
X102052381Y-52712857D02*
X101576190Y-53046191D01*
X102052381Y-53284286D02*
X101052381Y-53284286D01*
X101052381Y-52903333D01*
X101100000Y-52808095D01*
X101147619Y-52760476D01*
X101242857Y-52712857D01*
X101385714Y-52712857D01*
X101480952Y-52760476D01*
X101528571Y-52808095D01*
X101576190Y-52903333D01*
X101576190Y-53284286D01*
X102052381Y-51760476D02*
X102052381Y-52331905D01*
X102052381Y-52046191D02*
X101052381Y-52046191D01*
X101195238Y-52141429D01*
X101290476Y-52236667D01*
X101338095Y-52331905D01*
X101052381Y-51427143D02*
X101052381Y-50808095D01*
X101433333Y-51141429D01*
X101433333Y-50998571D01*
X101480952Y-50903333D01*
X101528571Y-50855714D01*
X101623810Y-50808095D01*
X101861905Y-50808095D01*
X101957143Y-50855714D01*
X102004762Y-50903333D01*
X102052381Y-50998571D01*
X102052381Y-51284286D01*
X102004762Y-51379524D01*
X101957143Y-51427143D01*
X109672381Y-52712857D02*
X109196190Y-53046191D01*
X109672381Y-53284286D02*
X108672381Y-53284286D01*
X108672381Y-52903333D01*
X108720000Y-52808095D01*
X108767619Y-52760476D01*
X108862857Y-52712857D01*
X109005714Y-52712857D01*
X109100952Y-52760476D01*
X109148571Y-52808095D01*
X109196190Y-52903333D01*
X109196190Y-53284286D01*
X109672381Y-51760476D02*
X109672381Y-52331905D01*
X109672381Y-52046191D02*
X108672381Y-52046191D01*
X108815238Y-52141429D01*
X108910476Y-52236667D01*
X108958095Y-52331905D01*
X109005714Y-50903333D02*
X109672381Y-50903333D01*
X108624762Y-51141429D02*
X109339048Y-51379524D01*
X109339048Y-50760476D01*
X114752381Y-52712857D02*
X114276190Y-53046191D01*
X114752381Y-53284286D02*
X113752381Y-53284286D01*
X113752381Y-52903333D01*
X113800000Y-52808095D01*
X113847619Y-52760476D01*
X113942857Y-52712857D01*
X114085714Y-52712857D01*
X114180952Y-52760476D01*
X114228571Y-52808095D01*
X114276190Y-52903333D01*
X114276190Y-53284286D01*
X114752381Y-51760476D02*
X114752381Y-52331905D01*
X114752381Y-52046191D02*
X113752381Y-52046191D01*
X113895238Y-52141429D01*
X113990476Y-52236667D01*
X114038095Y-52331905D01*
X113752381Y-50855714D02*
X113752381Y-51331905D01*
X114228571Y-51379524D01*
X114180952Y-51331905D01*
X114133333Y-51236667D01*
X114133333Y-50998571D01*
X114180952Y-50903333D01*
X114228571Y-50855714D01*
X114323810Y-50808095D01*
X114561905Y-50808095D01*
X114657143Y-50855714D01*
X114704762Y-50903333D01*
X114752381Y-50998571D01*
X114752381Y-51236667D01*
X114704762Y-51331905D01*
X114657143Y-51379524D01*
X70572381Y-66801905D02*
X71381905Y-66801905D01*
X71477143Y-66754286D01*
X71524762Y-66706667D01*
X71572381Y-66611429D01*
X71572381Y-66420952D01*
X71524762Y-66325714D01*
X71477143Y-66278095D01*
X71381905Y-66230476D01*
X70572381Y-66230476D01*
X70572381Y-65849524D02*
X70572381Y-65230476D01*
X70953333Y-65563810D01*
X70953333Y-65420952D01*
X71000952Y-65325714D01*
X71048571Y-65278095D01*
X71143810Y-65230476D01*
X71381905Y-65230476D01*
X71477143Y-65278095D01*
X71524762Y-65325714D01*
X71572381Y-65420952D01*
X71572381Y-65706667D01*
X71524762Y-65801905D01*
X71477143Y-65849524D01*
X83272381Y-66801905D02*
X84081905Y-66801905D01*
X84177143Y-66754286D01*
X84224762Y-66706667D01*
X84272381Y-66611429D01*
X84272381Y-66420952D01*
X84224762Y-66325714D01*
X84177143Y-66278095D01*
X84081905Y-66230476D01*
X83272381Y-66230476D01*
X83605714Y-65325714D02*
X84272381Y-65325714D01*
X83224762Y-65563810D02*
X83939048Y-65801905D01*
X83939048Y-65182857D01*
X95972381Y-66801905D02*
X96781905Y-66801905D01*
X96877143Y-66754286D01*
X96924762Y-66706667D01*
X96972381Y-66611429D01*
X96972381Y-66420952D01*
X96924762Y-66325714D01*
X96877143Y-66278095D01*
X96781905Y-66230476D01*
X95972381Y-66230476D01*
X95972381Y-65278095D02*
X95972381Y-65754286D01*
X96448571Y-65801905D01*
X96400952Y-65754286D01*
X96353333Y-65659048D01*
X96353333Y-65420952D01*
X96400952Y-65325714D01*
X96448571Y-65278095D01*
X96543810Y-65230476D01*
X96781905Y-65230476D01*
X96877143Y-65278095D01*
X96924762Y-65325714D01*
X96972381Y-65420952D01*
X96972381Y-65659048D01*
X96924762Y-65754286D01*
X96877143Y-65801905D01*
X108672381Y-66801905D02*
X109481905Y-66801905D01*
X109577143Y-66754286D01*
X109624762Y-66706667D01*
X109672381Y-66611429D01*
X109672381Y-66420952D01*
X109624762Y-66325714D01*
X109577143Y-66278095D01*
X109481905Y-66230476D01*
X108672381Y-66230476D01*
X108672381Y-65325714D02*
X108672381Y-65516191D01*
X108720000Y-65611429D01*
X108767619Y-65659048D01*
X108910476Y-65754286D01*
X109100952Y-65801905D01*
X109481905Y-65801905D01*
X109577143Y-65754286D01*
X109624762Y-65706667D01*
X109672381Y-65611429D01*
X109672381Y-65420952D01*
X109624762Y-65325714D01*
X109577143Y-65278095D01*
X109481905Y-65230476D01*
X109243810Y-65230476D01*
X109148571Y-65278095D01*
X109100952Y-65325714D01*
X109053333Y-65420952D01*
X109053333Y-65611429D01*
X109100952Y-65706667D01*
X109148571Y-65754286D01*
X109243810Y-65801905D01*
X62761905Y-39187381D02*
X62761905Y-38187381D01*
X63000000Y-38187381D01*
X63142858Y-38235000D01*
X63238096Y-38330238D01*
X63285715Y-38425476D01*
X63333334Y-38615952D01*
X63333334Y-38758810D01*
X63285715Y-38949286D01*
X63238096Y-39044524D01*
X63142858Y-39139762D01*
X63000000Y-39187381D01*
X62761905Y-39187381D01*
X64285715Y-39187381D02*
X63714286Y-39187381D01*
X64000000Y-39187381D02*
X64000000Y-38187381D01*
X63904762Y-38330238D01*
X63809524Y-38425476D01*
X63714286Y-38473095D01*
X75461905Y-39187381D02*
X75461905Y-38187381D01*
X75700000Y-38187381D01*
X75842858Y-38235000D01*
X75938096Y-38330238D01*
X75985715Y-38425476D01*
X76033334Y-38615952D01*
X76033334Y-38758810D01*
X75985715Y-38949286D01*
X75938096Y-39044524D01*
X75842858Y-39139762D01*
X75700000Y-39187381D01*
X75461905Y-39187381D01*
X76414286Y-38282619D02*
X76461905Y-38235000D01*
X76557143Y-38187381D01*
X76795239Y-38187381D01*
X76890477Y-38235000D01*
X76938096Y-38282619D01*
X76985715Y-38377857D01*
X76985715Y-38473095D01*
X76938096Y-38615952D01*
X76366667Y-39187381D01*
X76985715Y-39187381D01*
X88161905Y-39187381D02*
X88161905Y-38187381D01*
X88400000Y-38187381D01*
X88542858Y-38235000D01*
X88638096Y-38330238D01*
X88685715Y-38425476D01*
X88733334Y-38615952D01*
X88733334Y-38758810D01*
X88685715Y-38949286D01*
X88638096Y-39044524D01*
X88542858Y-39139762D01*
X88400000Y-39187381D01*
X88161905Y-39187381D01*
X89066667Y-38187381D02*
X89685715Y-38187381D01*
X89352381Y-38568333D01*
X89495239Y-38568333D01*
X89590477Y-38615952D01*
X89638096Y-38663571D01*
X89685715Y-38758810D01*
X89685715Y-38996905D01*
X89638096Y-39092143D01*
X89590477Y-39139762D01*
X89495239Y-39187381D01*
X89209524Y-39187381D01*
X89114286Y-39139762D01*
X89066667Y-39092143D01*
X100861905Y-39187381D02*
X100861905Y-38187381D01*
X101100000Y-38187381D01*
X101242858Y-38235000D01*
X101338096Y-38330238D01*
X101385715Y-38425476D01*
X101433334Y-38615952D01*
X101433334Y-38758810D01*
X101385715Y-38949286D01*
X101338096Y-39044524D01*
X101242858Y-39139762D01*
X101100000Y-39187381D01*
X100861905Y-39187381D01*
X102290477Y-38520714D02*
X102290477Y-39187381D01*
X102052381Y-38139762D02*
X101814286Y-38854048D01*
X102433334Y-38854048D01*
X113561905Y-39187381D02*
X113561905Y-38187381D01*
X113800000Y-38187381D01*
X113942858Y-38235000D01*
X114038096Y-38330238D01*
X114085715Y-38425476D01*
X114133334Y-38615952D01*
X114133334Y-38758810D01*
X114085715Y-38949286D01*
X114038096Y-39044524D01*
X113942858Y-39139762D01*
X113800000Y-39187381D01*
X113561905Y-39187381D01*
X115038096Y-38187381D02*
X114561905Y-38187381D01*
X114514286Y-38663571D01*
X114561905Y-38615952D01*
X114657143Y-38568333D01*
X114895239Y-38568333D01*
X114990477Y-38615952D01*
X115038096Y-38663571D01*
X115085715Y-38758810D01*
X115085715Y-38996905D01*
X115038096Y-39092143D01*
X114990477Y-39139762D01*
X114895239Y-39187381D01*
X114657143Y-39187381D01*
X114561905Y-39139762D01*
X114514286Y-39092143D01*
X88138095Y-94892381D02*
X88138095Y-95701905D01*
X88185714Y-95797143D01*
X88233333Y-95844762D01*
X88328571Y-95892381D01*
X88519048Y-95892381D01*
X88614286Y-95844762D01*
X88661905Y-95797143D01*
X88709524Y-95701905D01*
X88709524Y-94892381D01*
X89090476Y-94892381D02*
X89757143Y-94892381D01*
X89328571Y-95892381D01*
X59857143Y-28503571D02*
X60190477Y-28503571D01*
X60333334Y-29027381D02*
X59857143Y-29027381D01*
X59857143Y-28027381D01*
X60333334Y-28027381D01*
X61238096Y-29027381D02*
X60761905Y-29027381D01*
X60761905Y-28027381D01*
X61571429Y-28646429D02*
X62333334Y-28646429D01*
X62714286Y-28027381D02*
X62952381Y-29027381D01*
X63142858Y-28313095D01*
X63333334Y-29027381D01*
X63571429Y-28027381D01*
X63952381Y-29027381D02*
X63952381Y-28360714D01*
X63952381Y-28027381D02*
X63904762Y-28075000D01*
X63952381Y-28122619D01*
X64000000Y-28075000D01*
X63952381Y-28027381D01*
X63952381Y-28122619D01*
X64428571Y-29027381D02*
X64428571Y-28360714D01*
X64428571Y-28551190D02*
X64476190Y-28455952D01*
X64523809Y-28408333D01*
X64619047Y-28360714D01*
X64714286Y-28360714D01*
X65428572Y-28979762D02*
X65333334Y-29027381D01*
X65142857Y-29027381D01*
X65047619Y-28979762D01*
X65000000Y-28884524D01*
X65000000Y-28503571D01*
X65047619Y-28408333D01*
X65142857Y-28360714D01*
X65333334Y-28360714D01*
X65428572Y-28408333D01*
X65476191Y-28503571D01*
X65476191Y-28598810D01*
X65000000Y-28694048D01*
X65666667Y-29122619D02*
X66428572Y-29122619D01*
X67190477Y-29027381D02*
X66619048Y-29027381D01*
X66904762Y-29027381D02*
X66904762Y-28027381D01*
X66809524Y-28170238D01*
X66714286Y-28265476D01*
X66619048Y-28313095D01*
X72557143Y-28503571D02*
X72890477Y-28503571D01*
X73033334Y-29027381D02*
X72557143Y-29027381D01*
X72557143Y-28027381D01*
X73033334Y-28027381D01*
X73938096Y-29027381D02*
X73461905Y-29027381D01*
X73461905Y-28027381D01*
X74271429Y-28646429D02*
X75033334Y-28646429D01*
X75414286Y-28027381D02*
X75652381Y-29027381D01*
X75842858Y-28313095D01*
X76033334Y-29027381D01*
X76271429Y-28027381D01*
X76652381Y-29027381D02*
X76652381Y-28360714D01*
X76652381Y-28027381D02*
X76604762Y-28075000D01*
X76652381Y-28122619D01*
X76700000Y-28075000D01*
X76652381Y-28027381D01*
X76652381Y-28122619D01*
X77128571Y-29027381D02*
X77128571Y-28360714D01*
X77128571Y-28551190D02*
X77176190Y-28455952D01*
X77223809Y-28408333D01*
X77319047Y-28360714D01*
X77414286Y-28360714D01*
X78128572Y-28979762D02*
X78033334Y-29027381D01*
X77842857Y-29027381D01*
X77747619Y-28979762D01*
X77700000Y-28884524D01*
X77700000Y-28503571D01*
X77747619Y-28408333D01*
X77842857Y-28360714D01*
X78033334Y-28360714D01*
X78128572Y-28408333D01*
X78176191Y-28503571D01*
X78176191Y-28598810D01*
X77700000Y-28694048D01*
X78366667Y-29122619D02*
X79128572Y-29122619D01*
X79319048Y-28122619D02*
X79366667Y-28075000D01*
X79461905Y-28027381D01*
X79700001Y-28027381D01*
X79795239Y-28075000D01*
X79842858Y-28122619D01*
X79890477Y-28217857D01*
X79890477Y-28313095D01*
X79842858Y-28455952D01*
X79271429Y-29027381D01*
X79890477Y-29027381D01*
X85257143Y-28503571D02*
X85590477Y-28503571D01*
X85733334Y-29027381D02*
X85257143Y-29027381D01*
X85257143Y-28027381D01*
X85733334Y-28027381D01*
X86638096Y-29027381D02*
X86161905Y-29027381D01*
X86161905Y-28027381D01*
X86971429Y-28646429D02*
X87733334Y-28646429D01*
X88114286Y-28027381D02*
X88352381Y-29027381D01*
X88542858Y-28313095D01*
X88733334Y-29027381D01*
X88971429Y-28027381D01*
X89352381Y-29027381D02*
X89352381Y-28360714D01*
X89352381Y-28027381D02*
X89304762Y-28075000D01*
X89352381Y-28122619D01*
X89400000Y-28075000D01*
X89352381Y-28027381D01*
X89352381Y-28122619D01*
X89828571Y-29027381D02*
X89828571Y-28360714D01*
X89828571Y-28551190D02*
X89876190Y-28455952D01*
X89923809Y-28408333D01*
X90019047Y-28360714D01*
X90114286Y-28360714D01*
X90828572Y-28979762D02*
X90733334Y-29027381D01*
X90542857Y-29027381D01*
X90447619Y-28979762D01*
X90400000Y-28884524D01*
X90400000Y-28503571D01*
X90447619Y-28408333D01*
X90542857Y-28360714D01*
X90733334Y-28360714D01*
X90828572Y-28408333D01*
X90876191Y-28503571D01*
X90876191Y-28598810D01*
X90400000Y-28694048D01*
X91066667Y-29122619D02*
X91828572Y-29122619D01*
X91971429Y-28027381D02*
X92590477Y-28027381D01*
X92257143Y-28408333D01*
X92400001Y-28408333D01*
X92495239Y-28455952D01*
X92542858Y-28503571D01*
X92590477Y-28598810D01*
X92590477Y-28836905D01*
X92542858Y-28932143D01*
X92495239Y-28979762D01*
X92400001Y-29027381D01*
X92114286Y-29027381D01*
X92019048Y-28979762D01*
X91971429Y-28932143D01*
X110657143Y-28503571D02*
X110990477Y-28503571D01*
X111133334Y-29027381D02*
X110657143Y-29027381D01*
X110657143Y-28027381D01*
X111133334Y-28027381D01*
X112038096Y-29027381D02*
X111561905Y-29027381D01*
X111561905Y-28027381D01*
X112371429Y-28646429D02*
X113133334Y-28646429D01*
X113514286Y-28027381D02*
X113752381Y-29027381D01*
X113942858Y-28313095D01*
X114133334Y-29027381D01*
X114371429Y-28027381D01*
X114752381Y-29027381D02*
X114752381Y-28360714D01*
X114752381Y-28027381D02*
X114704762Y-28075000D01*
X114752381Y-28122619D01*
X114800000Y-28075000D01*
X114752381Y-28027381D01*
X114752381Y-28122619D01*
X115228571Y-29027381D02*
X115228571Y-28360714D01*
X115228571Y-28551190D02*
X115276190Y-28455952D01*
X115323809Y-28408333D01*
X115419047Y-28360714D01*
X115514286Y-28360714D01*
X116228572Y-28979762D02*
X116133334Y-29027381D01*
X115942857Y-29027381D01*
X115847619Y-28979762D01*
X115800000Y-28884524D01*
X115800000Y-28503571D01*
X115847619Y-28408333D01*
X115942857Y-28360714D01*
X116133334Y-28360714D01*
X116228572Y-28408333D01*
X116276191Y-28503571D01*
X116276191Y-28598810D01*
X115800000Y-28694048D01*
X116466667Y-29122619D02*
X117228572Y-29122619D01*
X117942858Y-28027381D02*
X117466667Y-28027381D01*
X117419048Y-28503571D01*
X117466667Y-28455952D01*
X117561905Y-28408333D01*
X117800001Y-28408333D01*
X117895239Y-28455952D01*
X117942858Y-28503571D01*
X117990477Y-28598810D01*
X117990477Y-28836905D01*
X117942858Y-28932143D01*
X117895239Y-28979762D01*
X117800001Y-29027381D01*
X117561905Y-29027381D01*
X117466667Y-28979762D01*
X117419048Y-28932143D01*
X81133334Y-83747143D02*
X81085715Y-83794762D01*
X80942858Y-83842381D01*
X80847620Y-83842381D01*
X80704762Y-83794762D01*
X80609524Y-83699524D01*
X80561905Y-83604286D01*
X80514286Y-83413810D01*
X80514286Y-83270952D01*
X80561905Y-83080476D01*
X80609524Y-82985238D01*
X80704762Y-82890000D01*
X80847620Y-82842381D01*
X80942858Y-82842381D01*
X81085715Y-82890000D01*
X81133334Y-82937619D01*
X82085715Y-83842381D02*
X81514286Y-83842381D01*
X81800000Y-83842381D02*
X81800000Y-82842381D01*
X81704762Y-82985238D01*
X81609524Y-83080476D01*
X81514286Y-83128095D01*
X100683334Y-96107143D02*
X100635715Y-96154762D01*
X100492858Y-96202381D01*
X100397620Y-96202381D01*
X100254762Y-96154762D01*
X100159524Y-96059524D01*
X100111905Y-95964286D01*
X100064286Y-95773810D01*
X100064286Y-95630952D01*
X100111905Y-95440476D01*
X100159524Y-95345238D01*
X100254762Y-95250000D01*
X100397620Y-95202381D01*
X100492858Y-95202381D01*
X100635715Y-95250000D01*
X100683334Y-95297619D01*
X101064286Y-95297619D02*
X101111905Y-95250000D01*
X101207143Y-95202381D01*
X101445239Y-95202381D01*
X101540477Y-95250000D01*
X101588096Y-95297619D01*
X101635715Y-95392857D01*
X101635715Y-95488095D01*
X101588096Y-95630952D01*
X101016667Y-96202381D01*
X101635715Y-96202381D01*
X76553334Y-96107143D02*
X76505715Y-96154762D01*
X76362858Y-96202381D01*
X76267620Y-96202381D01*
X76124762Y-96154762D01*
X76029524Y-96059524D01*
X75981905Y-95964286D01*
X75934286Y-95773810D01*
X75934286Y-95630952D01*
X75981905Y-95440476D01*
X76029524Y-95345238D01*
X76124762Y-95250000D01*
X76267620Y-95202381D01*
X76362858Y-95202381D01*
X76505715Y-95250000D01*
X76553334Y-95297619D01*
X76886667Y-95202381D02*
X77505715Y-95202381D01*
X77172381Y-95583333D01*
X77315239Y-95583333D01*
X77410477Y-95630952D01*
X77458096Y-95678571D01*
X77505715Y-95773810D01*
X77505715Y-96011905D01*
X77458096Y-96107143D01*
X77410477Y-96154762D01*
X77315239Y-96202381D01*
X77029524Y-96202381D01*
X76934286Y-96154762D01*
X76886667Y-96107143D01*
M02*
